{
	"asset":{
		"generator":"Khronos glTF Blender I/O v4.1.63",
		"version":"2.0"
	},
	"extensionsUsed":[
		"EXT_texture_webp"
	],
	"scene":0,
	"scenes":[
		{
			"name":"Scene",
			"nodes":[
				0,
				1,
				2,
				3,
				4
			]
		}
	],
	"nodes":[
		{
			"mesh":0,
			"name":"RVCar_G",
			"translation":[
				-0.1296621859073639,
				-0.049216579645872116,
				0
			]
		},
		{
			"mesh":1,
			"name":"FL",
			"translation":[
				-1.4657690525054932,
				-0.03961040824651718,
				0.7372102737426758
			]
		},
		{
			"mesh":2,
			"name":"RL",
			"translation":[
				1.105485439300537,
				-0.03961041197180748,
				0.7372106313705444
			]
		},
		{
			"mesh":3,
			"name":"FR",
			"translation":[
				-1.4657683372497559,
				-0.03961039334535599,
				-0.7372103929519653
			]
		},
		{
			"mesh":4,
			"name":"RR",
			"translation":[
				1.105485439300537,
				-0.03961038962006569,
				-0.7372103929519653
			]
		}
	],
	"materials":[
		{
			"name":"City Atlas",
			"pbrMetallicRoughness":{
				"baseColorTexture":{
					"index":0
				},
				"metallicFactor":0
			}
		},
		{
			"name":"City Metal",
			"pbrMetallicRoughness":{
				"baseColorTexture":{
					"index":1
				},
				"roughnessFactor":0.2708495557308197
			}
		},
		{
			"name":"City Car",
			"pbrMetallicRoughness":{
				"baseColorTexture":{
					"index":2
				},
				"metallicFactor":0.34545451402664185,
				"roughnessFactor":0.48181819915771484
			}
		},
		{
			"name":"Windows",
			"pbrMetallicRoughness":{
				"baseColorTexture":{
					"index":3
				},
				"metallicFactor":0.5454545617103577,
				"roughnessFactor":0.8727272748947144
			}
		}
	],
	"meshes":[
		{
			"name":"RVCar_G",
			"primitives":[
				{
					"attributes":{
						"POSITION":0,
						"NORMAL":1,
						"TEXCOORD_0":2
					},
					"indices":3,
					"material":0
				},
				{
					"attributes":{
						"POSITION":4,
						"NORMAL":5,
						"TEXCOORD_0":6
					},
					"indices":7,
					"material":1
				},
				{
					"attributes":{
						"POSITION":8,
						"NORMAL":9,
						"TEXCOORD_0":10
					},
					"indices":11,
					"material":2
				},
				{
					"attributes":{
						"POSITION":12,
						"NORMAL":13,
						"TEXCOORD_0":14
					},
					"indices":15,
					"material":3
				}
			]
		},
		{
			"name":"FL",
			"primitives":[
				{
					"attributes":{
						"POSITION":16,
						"NORMAL":17,
						"TEXCOORD_0":18
					},
					"indices":19,
					"material":1
				},
				{
					"attributes":{
						"POSITION":20,
						"NORMAL":21,
						"TEXCOORD_0":22
					},
					"indices":23,
					"material":2
				}
			]
		},
		{
			"name":"RL",
			"primitives":[
				{
					"attributes":{
						"POSITION":24,
						"NORMAL":25,
						"TEXCOORD_0":26
					},
					"indices":27,
					"material":1
				},
				{
					"attributes":{
						"POSITION":28,
						"NORMAL":29,
						"TEXCOORD_0":30
					},
					"indices":31,
					"material":2
				}
			]
		},
		{
			"name":"FR",
			"primitives":[
				{
					"attributes":{
						"POSITION":32,
						"NORMAL":33,
						"TEXCOORD_0":34
					},
					"indices":35,
					"material":1
				},
				{
					"attributes":{
						"POSITION":36,
						"NORMAL":37,
						"TEXCOORD_0":38
					},
					"indices":39,
					"material":2
				}
			]
		},
		{
			"name":"RR",
			"primitives":[
				{
					"attributes":{
						"POSITION":40,
						"NORMAL":41,
						"TEXCOORD_0":42
					},
					"indices":35,
					"material":1
				},
				{
					"attributes":{
						"POSITION":43,
						"NORMAL":44,
						"TEXCOORD_0":45
					},
					"indices":39,
					"material":2
				}
			]
		}
	],
	"textures":[
		{
			"extensions":{
				"EXT_texture_webp":{
					"source":0
				}
			},
			"sampler":0,
			"source":1
		},
		{
			"extensions":{
				"EXT_texture_webp":{
					"source":0
				}
			},
			"sampler":0,
			"source":1
		},
		{
			"extensions":{
				"EXT_texture_webp":{
					"source":0
				}
			},
			"sampler":0,
			"source":1
		},
		{
			"extensions":{
				"EXT_texture_webp":{
					"source":2
				}
			},
			"sampler":0,
			"source":3
		}
	],
	"images":[
		{
			"mimeType":"image/webp",
			"name":"City Atlas Map.png",
			"uri":"City%20Atlas%20Map_png.webp"
		},
		{
			"mimeType":"image/png",
			"name":"City Atlas Map.png",
			"uri":"City%20Atlas%20Map_png.png"
		},
		{
			"mimeType":"image/webp",
			"name":"Windows",
			"uri":"Windows.webp"
		},
		{
			"mimeType":"image/png",
			"name":"Windows",
			"uri":"Windows.png"
		}
	],
	"accessors":[
		{
			"bufferView":0,
			"componentType":5126,
			"count":640,
			"max":[
				2.082336187362671,
				0.6872038245201111,
				0.8009545803070068
			],
			"min":[
				-2.002650499343872,
				-0.00022048130631446838,
				-0.8009544610977173
			],
			"type":"VEC3"
		},
		{
			"bufferView":1,
			"componentType":5126,
			"count":640,
			"type":"VEC3"
		},
		{
			"bufferView":2,
			"componentType":5126,
			"count":640,
			"type":"VEC2"
		},
		{
			"bufferView":3,
			"componentType":5123,
			"count":1536,
			"type":"SCALAR"
		},
		{
			"bufferView":4,
			"componentType":5126,
			"count":1559,
			"max":[
				2.1323001384735107,
				2.037320852279663,
				0.9683612585067749
			],
			"min":[
				-2.0037264823913574,
				-0.038754064589738846,
				-0.9683613777160645
			],
			"type":"VEC3"
		},
		{
			"bufferView":5,
			"componentType":5126,
			"count":1559,
			"type":"VEC3"
		},
		{
			"bufferView":6,
			"componentType":5126,
			"count":1559,
			"type":"VEC2"
		},
		{
			"bufferView":7,
			"componentType":5123,
			"count":3303,
			"type":"SCALAR"
		},
		{
			"bufferView":8,
			"componentType":5126,
			"count":871,
			"max":[
				2.0941357612609863,
				2.216550827026367,
				0.7875723838806152
			],
			"min":[
				-1.916814923286438,
				0.014010276645421982,
				-0.7875725030899048
			],
			"type":"VEC3"
		},
		{
			"bufferView":9,
			"componentType":5126,
			"count":871,
			"type":"VEC3"
		},
		{
			"bufferView":10,
			"componentType":5126,
			"count":871,
			"type":"VEC2"
		},
		{
			"bufferView":11,
			"componentType":5123,
			"count":1668,
			"type":"SCALAR"
		},
		{
			"bufferView":12,
			"componentType":5126,
			"count":44,
			"max":[
				1.986402988433838,
				1.4894686937332153,
				0.7630587816238403
			],
			"min":[
				-1.3341410160064697,
				0.8610619902610779,
				-0.7630589008331299
			],
			"type":"VEC3"
		},
		{
			"bufferView":13,
			"componentType":5126,
			"count":44,
			"type":"VEC3"
		},
		{
			"bufferView":14,
			"componentType":5126,
			"count":44,
			"type":"VEC2"
		},
		{
			"bufferView":15,
			"componentType":5123,
			"count":78,
			"type":"SCALAR"
		},
		{
			"bufferView":16,
			"componentType":5126,
			"count":70,
			"max":[
				0.13803648948669434,
				0.1312798261642456,
				0.04252976179122925
			],
			"min":[
				-0.13803529739379883,
				-0.13127975165843964,
				0.02133733034133911
			],
			"type":"VEC3"
		},
		{
			"bufferView":17,
			"componentType":5126,
			"count":70,
			"type":"VEC3"
		},
		{
			"bufferView":18,
			"componentType":5126,
			"count":70,
			"type":"VEC2"
		},
		{
			"bufferView":19,
			"componentType":5123,
			"count":204,
			"type":"SCALAR"
		},
		{
			"bufferView":20,
			"componentType":5126,
			"count":132,
			"max":[
				0.26834893226623535,
				0.25521454215049744,
				0.04314166307449341
			],
			"min":[
				-0.2683483362197876,
				-0.25521472096443176,
				-0.1253156065940857
			],
			"type":"VEC3"
		},
		{
			"bufferView":21,
			"componentType":5126,
			"count":132,
			"type":"VEC3"
		},
		{
			"bufferView":22,
			"componentType":5126,
			"count":132,
			"type":"VEC2"
		},
		{
			"bufferView":23,
			"componentType":5123,
			"count":324,
			"type":"SCALAR"
		},
		{
			"bufferView":24,
			"componentType":5126,
			"count":70,
			"max":[
				0.13803601264953613,
				0.1312798261642456,
				0.04252946376800537
			],
			"min":[
				-0.13803565502166748,
				-0.13127975165843964,
				0.021337032318115234
			],
			"type":"VEC3"
		},
		{
			"bufferView":25,
			"componentType":5126,
			"count":70,
			"type":"VEC3"
		},
		{
			"bufferView":26,
			"componentType":5126,
			"count":70,
			"type":"VEC2"
		},
		{
			"bufferView":27,
			"componentType":5123,
			"count":204,
			"type":"SCALAR"
		},
		{
			"bufferView":28,
			"componentType":5126,
			"count":132,
			"max":[
				0.26834869384765625,
				0.2552145719528198,
				0.04314136505126953
			],
			"min":[
				-0.2683485150337219,
				-0.25521472096443176,
				-0.12531590461730957
			],
			"type":"VEC3"
		},
		{
			"bufferView":29,
			"componentType":5126,
			"count":132,
			"type":"VEC3"
		},
		{
			"bufferView":30,
			"componentType":5126,
			"count":132,
			"type":"VEC2"
		},
		{
			"bufferView":31,
			"componentType":5123,
			"count":324,
			"type":"SCALAR"
		},
		{
			"bufferView":32,
			"componentType":5126,
			"count":70,
			"max":[
				0.13803577423095703,
				0.1312798112630844,
				-0.021337032318115234
			],
			"min":[
				-0.13803601264953613,
				-0.13127976655960083,
				-0.04252946376800537
			],
			"type":"VEC3"
		},
		{
			"bufferView":33,
			"componentType":5126,
			"count":70,
			"type":"VEC3"
		},
		{
			"bufferView":34,
			"componentType":5126,
			"count":70,
			"type":"VEC2"
		},
		{
			"bufferView":35,
			"componentType":5123,
			"count":204,
			"type":"SCALAR"
		},
		{
			"bufferView":36,
			"componentType":5126,
			"count":132,
			"max":[
				0.26834821701049805,
				0.2552146315574646,
				0.12531590461730957
			],
			"min":[
				-0.2683490514755249,
				-0.25521475076675415,
				-0.04314136505126953
			],
			"type":"VEC3"
		},
		{
			"bufferView":37,
			"componentType":5126,
			"count":132,
			"type":"VEC3"
		},
		{
			"bufferView":38,
			"componentType":5126,
			"count":132,
			"type":"VEC2"
		},
		{
			"bufferView":39,
			"componentType":5123,
			"count":324,
			"type":"SCALAR"
		},
		{
			"bufferView":40,
			"componentType":5126,
			"count":70,
			"max":[
				0.13803601264953613,
				0.1312798112630844,
				-0.021337032318115234
			],
			"min":[
				-0.13803565502166748,
				-0.13127976655960083,
				-0.04252946376800537
			],
			"type":"VEC3"
		},
		{
			"bufferView":41,
			"componentType":5126,
			"count":70,
			"type":"VEC3"
		},
		{
			"bufferView":42,
			"componentType":5126,
			"count":70,
			"type":"VEC2"
		},
		{
			"bufferView":43,
			"componentType":5126,
			"count":132,
			"max":[
				0.26834869384765625,
				0.2552146315574646,
				0.12531590461730957
			],
			"min":[
				-0.2683485150337219,
				-0.25521475076675415,
				-0.04314136505126953
			],
			"type":"VEC3"
		},
		{
			"bufferView":44,
			"componentType":5126,
			"count":132,
			"type":"VEC3"
		},
		{
			"bufferView":45,
			"componentType":5126,
			"count":132,
			"type":"VEC2"
		}
	],
	"bufferViews":[
		{
			"buffer":0,
			"byteLength":7680,
			"byteOffset":0,
			"target":34962
		},
		{
			"buffer":0,
			"byteLength":7680,
			"byteOffset":7680,
			"target":34962
		},
		{
			"buffer":0,
			"byteLength":5120,
			"byteOffset":15360,
			"target":34962
		},
		{
			"buffer":0,
			"byteLength":3072,
			"byteOffset":20480,
			"target":34963
		},
		{
			"buffer":0,
			"byteLength":18708,
			"byteOffset":23552,
			"target":34962
		},
		{
			"buffer":0,
			"byteLength":18708,
			"byteOffset":42260,
			"target":34962
		},
		{
			"buffer":0,
			"byteLength":12472,
			"byteOffset":60968,
			"target":34962
		},
		{
			"buffer":0,
			"byteLength":6606,
			"byteOffset":73440,
			"target":34963
		},
		{
			"buffer":0,
			"byteLength":10452,
			"byteOffset":80048,
			"target":34962
		},
		{
			"buffer":0,
			"byteLength":10452,
			"byteOffset":90500,
			"target":34962
		},
		{
			"buffer":0,
			"byteLength":6968,
			"byteOffset":100952,
			"target":34962
		},
		{
			"buffer":0,
			"byteLength":3336,
			"byteOffset":107920,
			"target":34963
		},
		{
			"buffer":0,
			"byteLength":528,
			"byteOffset":111256,
			"target":34962
		},
		{
			"buffer":0,
			"byteLength":528,
			"byteOffset":111784,
			"target":34962
		},
		{
			"buffer":0,
			"byteLength":352,
			"byteOffset":112312,
			"target":34962
		},
		{
			"buffer":0,
			"byteLength":156,
			"byteOffset":112664,
			"target":34963
		},
		{
			"buffer":0,
			"byteLength":840,
			"byteOffset":112820,
			"target":34962
		},
		{
			"buffer":0,
			"byteLength":840,
			"byteOffset":113660,
			"target":34962
		},
		{
			"buffer":0,
			"byteLength":560,
			"byteOffset":114500,
			"target":34962
		},
		{
			"buffer":0,
			"byteLength":408,
			"byteOffset":115060,
			"target":34963
		},
		{
			"buffer":0,
			"byteLength":1584,
			"byteOffset":115468,
			"target":34962
		},
		{
			"buffer":0,
			"byteLength":1584,
			"byteOffset":117052,
			"target":34962
		},
		{
			"buffer":0,
			"byteLength":1056,
			"byteOffset":118636,
			"target":34962
		},
		{
			"buffer":0,
			"byteLength":648,
			"byteOffset":119692,
			"target":34963
		},
		{
			"buffer":0,
			"byteLength":840,
			"byteOffset":120340,
			"target":34962
		},
		{
			"buffer":0,
			"byteLength":840,
			"byteOffset":121180,
			"target":34962
		},
		{
			"buffer":0,
			"byteLength":560,
			"byteOffset":122020,
			"target":34962
		},
		{
			"buffer":0,
			"byteLength":408,
			"byteOffset":122580,
			"target":34963
		},
		{
			"buffer":0,
			"byteLength":1584,
			"byteOffset":122988,
			"target":34962
		},
		{
			"buffer":0,
			"byteLength":1584,
			"byteOffset":124572,
			"target":34962
		},
		{
			"buffer":0,
			"byteLength":1056,
			"byteOffset":126156,
			"target":34962
		},
		{
			"buffer":0,
			"byteLength":648,
			"byteOffset":127212,
			"target":34963
		},
		{
			"buffer":0,
			"byteLength":840,
			"byteOffset":127860,
			"target":34962
		},
		{
			"buffer":0,
			"byteLength":840,
			"byteOffset":128700,
			"target":34962
		},
		{
			"buffer":0,
			"byteLength":560,
			"byteOffset":129540,
			"target":34962
		},
		{
			"buffer":0,
			"byteLength":408,
			"byteOffset":130100,
			"target":34963
		},
		{
			"buffer":0,
			"byteLength":1584,
			"byteOffset":130508,
			"target":34962
		},
		{
			"buffer":0,
			"byteLength":1584,
			"byteOffset":132092,
			"target":34962
		},
		{
			"buffer":0,
			"byteLength":1056,
			"byteOffset":133676,
			"target":34962
		},
		{
			"buffer":0,
			"byteLength":648,
			"byteOffset":134732,
			"target":34963
		},
		{
			"buffer":0,
			"byteLength":840,
			"byteOffset":135380,
			"target":34962
		},
		{
			"buffer":0,
			"byteLength":840,
			"byteOffset":136220,
			"target":34962
		},
		{
			"buffer":0,
			"byteLength":560,
			"byteOffset":137060,
			"target":34962
		},
		{
			"buffer":0,
			"byteLength":1584,
			"byteOffset":137620,
			"target":34962
		},
		{
			"buffer":0,
			"byteLength":1584,
			"byteOffset":139204,
			"target":34962
		},
		{
			"buffer":0,
			"byteLength":1056,
			"byteOffset":140788,
			"target":34962
		}
	],
	"samplers":[
		{
			"magFilter":9729,
			"minFilter":9987
		}
	],
	"buffers":[
		{
			"byteLength":141844,
			"uri":"RVCar_G.bin"
		}
	]
}
