{
	"asset":{
		"generator":"Khronos glTF Blender I/O v4.1.63",
		"version":"2.0"
	},
	"extensionsUsed":[
		"EXT_texture_webp"
	],
	"scene":0,
	"scenes":[
		{
			"name":"Scene",
			"nodes":[
				0,
				1,
				2,
				3,
				4
			]
		}
	],
	"nodes":[
		{
			"mesh":0,
			"name":"Car_Police_1_B_2"
		},
		{
			"mesh":1,
			"name":"RL",
			"translation":[
				0.971110999584198,
				0.01530091930180788,
				0.7253350019454956
			]
		},
		{
			"mesh":2,
			"name":"FL",
			"translation":[
				-0.9679632186889648,
				0.015300924889743328,
				0.7253350615501404
			]
		},
		{
			"mesh":3,
			"name":"RR",
			"translation":[
				0.9711108803749084,
				0.015300924889743328,
				-0.7253354787826538
			]
		},
		{
			"mesh":4,
			"name":"FR",
			"translation":[
				-0.9679632186889648,
				0.015300924889743328,
				-0.7253354787826538
			]
		}
	],
	"materials":[
		{
			"name":"City Car",
			"pbrMetallicRoughness":{
				"baseColorTexture":{
					"index":0
				},
				"metallicFactor":0.34545451402664185,
				"roughnessFactor":0.48181819915771484
			}
		},
		{
			"name":"City Metal",
			"pbrMetallicRoughness":{
				"baseColorTexture":{
					"index":1
				},
				"roughnessFactor":0.2708495557308197
			}
		},
		{
			"name":"Windows",
			"pbrMetallicRoughness":{
				"baseColorTexture":{
					"index":2
				},
				"metallicFactor":0.5454545617103577,
				"roughnessFactor":0.8727272748947144
			}
		}
	],
	"meshes":[
		{
			"name":"Car_Police_1_B_2",
			"primitives":[
				{
					"attributes":{
						"POSITION":0,
						"NORMAL":1,
						"TEXCOORD_0":2
					},
					"indices":3,
					"material":0
				},
				{
					"attributes":{
						"POSITION":4,
						"NORMAL":5,
						"TEXCOORD_0":6
					},
					"indices":7,
					"material":1
				},
				{
					"attributes":{
						"POSITION":8,
						"NORMAL":9,
						"TEXCOORD_0":10
					},
					"indices":11,
					"material":2
				}
			]
		},
		{
			"name":"RL",
			"primitives":[
				{
					"attributes":{
						"POSITION":12,
						"NORMAL":13,
						"TEXCOORD_0":14
					},
					"indices":15,
					"material":0
				},
				{
					"attributes":{
						"POSITION":16,
						"NORMAL":17,
						"TEXCOORD_0":18
					},
					"indices":19,
					"material":1
				}
			]
		},
		{
			"name":"FL",
			"primitives":[
				{
					"attributes":{
						"POSITION":20,
						"NORMAL":21,
						"TEXCOORD_0":22
					},
					"indices":23,
					"material":0
				},
				{
					"attributes":{
						"POSITION":24,
						"NORMAL":25,
						"TEXCOORD_0":26
					},
					"indices":27,
					"material":1
				}
			]
		},
		{
			"name":"RR",
			"primitives":[
				{
					"attributes":{
						"POSITION":28,
						"NORMAL":29,
						"TEXCOORD_0":30
					},
					"indices":31,
					"material":0
				},
				{
					"attributes":{
						"POSITION":32,
						"NORMAL":33,
						"TEXCOORD_0":34
					},
					"indices":35,
					"material":1
				}
			]
		},
		{
			"name":"FR",
			"primitives":[
				{
					"attributes":{
						"POSITION":36,
						"NORMAL":37,
						"TEXCOORD_0":38
					},
					"indices":39,
					"material":0
				},
				{
					"attributes":{
						"POSITION":40,
						"NORMAL":41,
						"TEXCOORD_0":42
					},
					"indices":35,
					"material":1
				}
			]
		}
	],
	"textures":[
		{
			"extensions":{
				"EXT_texture_webp":{
					"source":0
				}
			},
			"sampler":0,
			"source":1
		},
		{
			"extensions":{
				"EXT_texture_webp":{
					"source":0
				}
			},
			"sampler":0,
			"source":1
		},
		{
			"extensions":{
				"EXT_texture_webp":{
					"source":2
				}
			},
			"sampler":0,
			"source":3
		}
	],
	"images":[
		{
			"mimeType":"image/webp",
			"name":"City Atlas Map.png",
			"uri":"City%20Atlas%20Map_png.webp"
		},
		{
			"mimeType":"image/png",
			"name":"City Atlas Map.png",
			"uri":"City%20Atlas%20Map_png.png"
		},
		{
			"mimeType":"image/webp",
			"name":"Windows",
			"uri":"Windows.webp"
		},
		{
			"mimeType":"image/png",
			"name":"Windows",
			"uri":"Windows.png"
		}
	],
	"accessors":[
		{
			"bufferView":0,
			"componentType":5126,
			"count":1590,
			"max":[
				1.7328815460205078,
				1.7575604915618896,
				0.7765280604362488
			],
			"min":[
				-1.658370018005371,
				-0.00025077536702156067,
				-0.7765280604362488
			],
			"type":"VEC3"
		},
		{
			"bufferView":1,
			"componentType":5126,
			"count":1590,
			"type":"VEC3"
		},
		{
			"bufferView":2,
			"componentType":5126,
			"count":1590,
			"type":"VEC2"
		},
		{
			"bufferView":3,
			"componentType":5123,
			"count":3018,
			"type":"SCALAR"
		},
		{
			"bufferView":4,
			"componentType":5126,
			"count":926,
			"max":[
				1.756866216659546,
				0.8453987836837769,
				0.8909045457839966
			],
			"min":[
				-1.699711561203003,
				0.0019629672169685364,
				-0.8909045457839966
			],
			"type":"VEC3"
		},
		{
			"bufferView":5,
			"componentType":5126,
			"count":926,
			"type":"VEC3"
		},
		{
			"bufferView":6,
			"componentType":5126,
			"count":926,
			"type":"VEC2"
		},
		{
			"bufferView":7,
			"componentType":5123,
			"count":1740,
			"type":"SCALAR"
		},
		{
			"bufferView":8,
			"componentType":5126,
			"count":24,
			"max":[
				1.0578234195709229,
				1.5389316082000732,
				0.6216732859611511
			],
			"min":[
				-0.5984166264533997,
				0.7222179174423218,
				-0.6216732859611511
			],
			"type":"VEC3"
		},
		{
			"bufferView":9,
			"componentType":5126,
			"count":24,
			"type":"VEC3"
		},
		{
			"bufferView":10,
			"componentType":5126,
			"count":24,
			"type":"VEC2"
		},
		{
			"bufferView":11,
			"componentType":5123,
			"count":36,
			"type":"SCALAR"
		},
		{
			"bufferView":12,
			"componentType":5126,
			"count":132,
			"max":[
				0.26444870233535767,
				0.25150561332702637,
				0.049056410789489746
			],
			"min":[
				-0.264448881149292,
				-0.25150570273399353,
				-0.1140708327293396
			],
			"type":"VEC3"
		},
		{
			"bufferView":13,
			"componentType":5126,
			"count":132,
			"type":"VEC3"
		},
		{
			"bufferView":14,
			"componentType":5126,
			"count":132,
			"type":"VEC2"
		},
		{
			"bufferView":15,
			"componentType":5123,
			"count":324,
			"type":"SCALAR"
		},
		{
			"bufferView":16,
			"componentType":5126,
			"count":30,
			"max":[
				0.105746328830719,
				0.10057078301906586,
				0.050710082054138184
			],
			"min":[
				-0.10574650764465332,
				-0.10057082772254944,
				0.03427243232727051
			],
			"type":"VEC3"
		},
		{
			"bufferView":17,
			"componentType":5126,
			"count":30,
			"type":"VEC3"
		},
		{
			"bufferView":18,
			"componentType":5126,
			"count":30,
			"type":"VEC2"
		},
		{
			"bufferView":19,
			"componentType":5123,
			"count":84,
			"type":"SCALAR"
		},
		{
			"bufferView":20,
			"componentType":5126,
			"count":132,
			"max":[
				0.2644488215446472,
				0.25150561332702637,
				0.04905635118484497
			],
			"min":[
				-0.2644486427307129,
				-0.25150570273399353,
				-0.11407089233398438
			],
			"type":"VEC3"
		},
		{
			"bufferView":21,
			"componentType":5126,
			"count":132,
			"type":"VEC3"
		},
		{
			"bufferView":22,
			"componentType":5126,
			"count":132,
			"type":"VEC2"
		},
		{
			"bufferView":23,
			"componentType":5123,
			"count":324,
			"type":"SCALAR"
		},
		{
			"bufferView":24,
			"componentType":5126,
			"count":30,
			"max":[
				0.10574650764465332,
				0.10057078301906586,
				0.05071002244949341
			],
			"min":[
				-0.10574626922607422,
				-0.10057082772254944,
				0.03427237272262573
			],
			"type":"VEC3"
		},
		{
			"bufferView":25,
			"componentType":5126,
			"count":30,
			"type":"VEC3"
		},
		{
			"bufferView":26,
			"componentType":5126,
			"count":30,
			"type":"VEC2"
		},
		{
			"bufferView":27,
			"componentType":5123,
			"count":84,
			"type":"SCALAR"
		},
		{
			"bufferView":28,
			"componentType":5126,
			"count":136,
			"max":[
				0.2644488215446472,
				0.25150561332702637,
				0.11407089233398438
			],
			"min":[
				-0.26444876194000244,
				-0.25150570273399353,
				-0.04905635118484497
			],
			"type":"VEC3"
		},
		{
			"bufferView":29,
			"componentType":5126,
			"count":136,
			"type":"VEC3"
		},
		{
			"bufferView":30,
			"componentType":5126,
			"count":136,
			"type":"VEC2"
		},
		{
			"bufferView":31,
			"componentType":5123,
			"count":324,
			"type":"SCALAR"
		},
		{
			"bufferView":32,
			"componentType":5126,
			"count":34,
			"max":[
				0.10574644804000854,
				0.10057078301906586,
				-0.03427231311798096
			],
			"min":[
				-0.10574638843536377,
				-0.10057082772254944,
				-0.05070996284484863
			],
			"type":"VEC3"
		},
		{
			"bufferView":33,
			"componentType":5126,
			"count":34,
			"type":"VEC3"
		},
		{
			"bufferView":34,
			"componentType":5126,
			"count":34,
			"type":"VEC2"
		},
		{
			"bufferView":35,
			"componentType":5123,
			"count":84,
			"type":"SCALAR"
		},
		{
			"bufferView":36,
			"componentType":5126,
			"count":136,
			"max":[
				0.2644488215446472,
				0.25150561332702637,
				0.11407089233398438
			],
			"min":[
				-0.2644486427307129,
				-0.25150570273399353,
				-0.04905635118484497
			],
			"type":"VEC3"
		},
		{
			"bufferView":37,
			"componentType":5126,
			"count":136,
			"type":"VEC3"
		},
		{
			"bufferView":38,
			"componentType":5126,
			"count":136,
			"type":"VEC2"
		},
		{
			"bufferView":39,
			"componentType":5123,
			"count":324,
			"type":"SCALAR"
		},
		{
			"bufferView":40,
			"componentType":5126,
			"count":34,
			"max":[
				0.10574650764465332,
				0.10057078301906586,
				-0.03427231311798096
			],
			"min":[
				-0.10574626922607422,
				-0.10057082772254944,
				-0.05070996284484863
			],
			"type":"VEC3"
		},
		{
			"bufferView":41,
			"componentType":5126,
			"count":34,
			"type":"VEC3"
		},
		{
			"bufferView":42,
			"componentType":5126,
			"count":34,
			"type":"VEC2"
		}
	],
	"bufferViews":[
		{
			"buffer":0,
			"byteLength":19080,
			"byteOffset":0,
			"target":34962
		},
		{
			"buffer":0,
			"byteLength":19080,
			"byteOffset":19080,
			"target":34962
		},
		{
			"buffer":0,
			"byteLength":12720,
			"byteOffset":38160,
			"target":34962
		},
		{
			"buffer":0,
			"byteLength":6036,
			"byteOffset":50880,
			"target":34963
		},
		{
			"buffer":0,
			"byteLength":11112,
			"byteOffset":56916,
			"target":34962
		},
		{
			"buffer":0,
			"byteLength":11112,
			"byteOffset":68028,
			"target":34962
		},
		{
			"buffer":0,
			"byteLength":7408,
			"byteOffset":79140,
			"target":34962
		},
		{
			"buffer":0,
			"byteLength":3480,
			"byteOffset":86548,
			"target":34963
		},
		{
			"buffer":0,
			"byteLength":288,
			"byteOffset":90028,
			"target":34962
		},
		{
			"buffer":0,
			"byteLength":288,
			"byteOffset":90316,
			"target":34962
		},
		{
			"buffer":0,
			"byteLength":192,
			"byteOffset":90604,
			"target":34962
		},
		{
			"buffer":0,
			"byteLength":72,
			"byteOffset":90796,
			"target":34963
		},
		{
			"buffer":0,
			"byteLength":1584,
			"byteOffset":90868,
			"target":34962
		},
		{
			"buffer":0,
			"byteLength":1584,
			"byteOffset":92452,
			"target":34962
		},
		{
			"buffer":0,
			"byteLength":1056,
			"byteOffset":94036,
			"target":34962
		},
		{
			"buffer":0,
			"byteLength":648,
			"byteOffset":95092,
			"target":34963
		},
		{
			"buffer":0,
			"byteLength":360,
			"byteOffset":95740,
			"target":34962
		},
		{
			"buffer":0,
			"byteLength":360,
			"byteOffset":96100,
			"target":34962
		},
		{
			"buffer":0,
			"byteLength":240,
			"byteOffset":96460,
			"target":34962
		},
		{
			"buffer":0,
			"byteLength":168,
			"byteOffset":96700,
			"target":34963
		},
		{
			"buffer":0,
			"byteLength":1584,
			"byteOffset":96868,
			"target":34962
		},
		{
			"buffer":0,
			"byteLength":1584,
			"byteOffset":98452,
			"target":34962
		},
		{
			"buffer":0,
			"byteLength":1056,
			"byteOffset":100036,
			"target":34962
		},
		{
			"buffer":0,
			"byteLength":648,
			"byteOffset":101092,
			"target":34963
		},
		{
			"buffer":0,
			"byteLength":360,
			"byteOffset":101740,
			"target":34962
		},
		{
			"buffer":0,
			"byteLength":360,
			"byteOffset":102100,
			"target":34962
		},
		{
			"buffer":0,
			"byteLength":240,
			"byteOffset":102460,
			"target":34962
		},
		{
			"buffer":0,
			"byteLength":168,
			"byteOffset":102700,
			"target":34963
		},
		{
			"buffer":0,
			"byteLength":1632,
			"byteOffset":102868,
			"target":34962
		},
		{
			"buffer":0,
			"byteLength":1632,
			"byteOffset":104500,
			"target":34962
		},
		{
			"buffer":0,
			"byteLength":1088,
			"byteOffset":106132,
			"target":34962
		},
		{
			"buffer":0,
			"byteLength":648,
			"byteOffset":107220,
			"target":34963
		},
		{
			"buffer":0,
			"byteLength":408,
			"byteOffset":107868,
			"target":34962
		},
		{
			"buffer":0,
			"byteLength":408,
			"byteOffset":108276,
			"target":34962
		},
		{
			"buffer":0,
			"byteLength":272,
			"byteOffset":108684,
			"target":34962
		},
		{
			"buffer":0,
			"byteLength":168,
			"byteOffset":108956,
			"target":34963
		},
		{
			"buffer":0,
			"byteLength":1632,
			"byteOffset":109124,
			"target":34962
		},
		{
			"buffer":0,
			"byteLength":1632,
			"byteOffset":110756,
			"target":34962
		},
		{
			"buffer":0,
			"byteLength":1088,
			"byteOffset":112388,
			"target":34962
		},
		{
			"buffer":0,
			"byteLength":648,
			"byteOffset":113476,
			"target":34963
		},
		{
			"buffer":0,
			"byteLength":408,
			"byteOffset":114124,
			"target":34962
		},
		{
			"buffer":0,
			"byteLength":408,
			"byteOffset":114532,
			"target":34962
		},
		{
			"buffer":0,
			"byteLength":272,
			"byteOffset":114940,
			"target":34962
		}
	],
	"samplers":[
		{
			"magFilter":9729,
			"minFilter":9987
		}
	],
	"buffers":[
		{
			"byteLength":115212,
			"uri":"Car_Police_1_B_2.bin"
		}
	]
}
