{
	"asset":{
		"generator":"Khronos glTF Blender I/O v4.1.63",
		"version":"2.0"
	},
	"extensionsUsed":[
		"EXT_texture_webp"
	],
	"scene":0,
	"scenes":[
		{
			"name":"Scene",
			"nodes":[
				0,
				1,
				2,
				3,
				4
			]
		}
	],
	"nodes":[
		{
			"mesh":0,
			"name":"Car_2_K"
		},
		{
			"mesh":1,
			"name":"RL"
		},
		{
			"mesh":2,
			"name":"FL"
		},
		{
			"mesh":3,
			"name":"RR"
		},
		{
			"mesh":4,
			"name":"FR"
		}
	],
	"materials":[
		{
			"name":"City Car",
			"pbrMetallicRoughness":{
				"baseColorTexture":{
					"index":0
				},
				"metallicFactor":0.34545451402664185,
				"roughnessFactor":0.48181819915771484
			}
		},
		{
			"name":"Windows",
			"pbrMetallicRoughness":{
				"baseColorTexture":{
					"index":1
				},
				"metallicFactor":0.5454545617103577,
				"roughnessFactor":0.8727272748947144
			}
		},
		{
			"name":"City Metal",
			"pbrMetallicRoughness":{
				"baseColorTexture":{
					"index":2
				},
				"roughnessFactor":0.2708495557308197
			}
		},
		{
			"name":"City Atlas",
			"pbrMetallicRoughness":{
				"baseColorTexture":{
					"index":3
				},
				"metallicFactor":0
			}
		}
	],
	"meshes":[
		{
			"name":"Car_2_K",
			"primitives":[
				{
					"attributes":{
						"POSITION":0,
						"NORMAL":1,
						"TEXCOORD_0":2
					},
					"indices":3,
					"material":0
				},
				{
					"attributes":{
						"POSITION":4,
						"NORMAL":5,
						"TEXCOORD_0":6
					},
					"indices":7,
					"material":1
				},
				{
					"attributes":{
						"POSITION":8,
						"NORMAL":9,
						"TEXCOORD_0":10
					},
					"indices":11,
					"material":2
				},
				{
					"attributes":{
						"POSITION":12,
						"NORMAL":13,
						"TEXCOORD_0":14
					},
					"indices":15,
					"material":3
				}
			]
		},
		{
			"name":"RL",
			"primitives":[
				{
					"attributes":{
						"POSITION":16,
						"NORMAL":17,
						"TEXCOORD_0":18
					},
					"indices":19,
					"material":2
				},
				{
					"attributes":{
						"POSITION":20,
						"NORMAL":21,
						"TEXCOORD_0":22
					},
					"indices":23,
					"material":3
				}
			]
		},
		{
			"name":"FL",
			"primitives":[
				{
					"attributes":{
						"POSITION":24,
						"NORMAL":25,
						"TEXCOORD_0":26
					},
					"indices":27,
					"material":2
				},
				{
					"attributes":{
						"POSITION":28,
						"NORMAL":29,
						"TEXCOORD_0":30
					},
					"indices":31,
					"material":3
				}
			]
		},
		{
			"name":"RR",
			"primitives":[
				{
					"attributes":{
						"POSITION":32,
						"NORMAL":33,
						"TEXCOORD_0":34
					},
					"indices":35,
					"material":2
				},
				{
					"attributes":{
						"POSITION":36,
						"NORMAL":37,
						"TEXCOORD_0":38
					},
					"indices":39,
					"material":3
				}
			]
		},
		{
			"name":"FR",
			"primitives":[
				{
					"attributes":{
						"POSITION":40,
						"NORMAL":41,
						"TEXCOORD_0":42
					},
					"indices":35,
					"material":2
				},
				{
					"attributes":{
						"POSITION":43,
						"NORMAL":44,
						"TEXCOORD_0":45
					},
					"indices":46,
					"material":3
				}
			]
		}
	],
	"textures":[
		{
			"extensions":{
				"EXT_texture_webp":{
					"source":0
				}
			},
			"sampler":0,
			"source":1
		},
		{
			"extensions":{
				"EXT_texture_webp":{
					"source":2
				}
			},
			"sampler":0,
			"source":3
		},
		{
			"extensions":{
				"EXT_texture_webp":{
					"source":0
				}
			},
			"sampler":0,
			"source":1
		},
		{
			"extensions":{
				"EXT_texture_webp":{
					"source":0
				}
			},
			"sampler":0,
			"source":1
		}
	],
	"images":[
		{
			"mimeType":"image/webp",
			"name":"City Atlas Map",
			"uri":"City%20Atlas%20Map.webp"
		},
		{
			"mimeType":"image/png",
			"name":"City Atlas Map",
			"uri":"City%20Atlas%20Map.png"
		},
		{
			"mimeType":"image/webp",
			"name":"Windows",
			"uri":"Windows.webp"
		},
		{
			"mimeType":"image/png",
			"name":"Windows",
			"uri":"Windows.png"
		}
	],
	"accessors":[
		{
			"bufferView":0,
			"componentType":5126,
			"count":1292,
			"max":[
				1.7476718425750732,
				1.5590245723724365,
				0.7765280604362488
			],
			"min":[
				-1.7996587753295898,
				-0.00025077606551349163,
				-0.7765280604362488
			],
			"type":"VEC3"
		},
		{
			"bufferView":1,
			"componentType":5126,
			"count":1292,
			"type":"VEC3"
		},
		{
			"bufferView":2,
			"componentType":5126,
			"count":1292,
			"type":"VEC2"
		},
		{
			"bufferView":3,
			"componentType":5123,
			"count":2760,
			"type":"SCALAR"
		},
		{
			"bufferView":4,
			"componentType":5126,
			"count":28,
			"max":[
				1.0215121507644653,
				1.4758132696151733,
				0.606363832950592
			],
			"min":[
				-0.5845882892608643,
				0.6390359997749329,
				-0.606363832950592
			],
			"type":"VEC3"
		},
		{
			"bufferView":5,
			"componentType":5126,
			"count":28,
			"type":"VEC3"
		},
		{
			"bufferView":6,
			"componentType":5126,
			"count":28,
			"type":"VEC2"
		},
		{
			"bufferView":7,
			"componentType":5123,
			"count":48,
			"type":"SCALAR"
		},
		{
			"bufferView":8,
			"componentType":5126,
			"count":1024,
			"max":[
				1.724501132965088,
				0.8453987836837769,
				0.8909045457839966
			],
			"min":[
				-1.8900550603866577,
				0.001962966052815318,
				-0.8909045457839966
			],
			"type":"VEC3"
		},
		{
			"bufferView":9,
			"componentType":5126,
			"count":1024,
			"type":"VEC3"
		},
		{
			"bufferView":10,
			"componentType":5126,
			"count":1024,
			"type":"VEC2"
		},
		{
			"bufferView":11,
			"componentType":5123,
			"count":2058,
			"type":"SCALAR"
		},
		{
			"bufferView":12,
			"componentType":5126,
			"count":152,
			"max":[
				1.6870713233947754,
				0.5690028071403503,
				-0.3740099370479584
			],
			"min":[
				1.5993772745132446,
				0.41867750883102417,
				-0.6188862323760986
			],
			"type":"VEC3"
		},
		{
			"bufferView":13,
			"componentType":5126,
			"count":152,
			"type":"VEC3"
		},
		{
			"bufferView":14,
			"componentType":5126,
			"count":152,
			"type":"VEC2"
		},
		{
			"bufferView":15,
			"componentType":5123,
			"count":240,
			"type":"SCALAR"
		},
		{
			"bufferView":16,
			"componentType":5126,
			"count":70,
			"max":[
				1.0945245027542114,
				0.13267426192760468,
				0.780775249004364
			],
			"min":[
				0.8476971387863159,
				-0.10207244753837585,
				0.7567237615585327
			],
			"type":"VEC3"
		},
		{
			"bufferView":17,
			"componentType":5126,
			"count":70,
			"type":"VEC3"
		},
		{
			"bufferView":18,
			"componentType":5126,
			"count":70,
			"type":"VEC2"
		},
		{
			"bufferView":19,
			"componentType":5123,
			"count":204,
			"type":"SCALAR"
		},
		{
			"bufferView":20,
			"componentType":5126,
			"count":132,
			"max":[
				1.2355594635009766,
				0.2668065130710602,
				0.7743914127349854
			],
			"min":[
				0.7066619992256165,
				-0.23620477318763733,
				0.611264169216156
			],
			"type":"VEC3"
		},
		{
			"bufferView":21,
			"componentType":5126,
			"count":132,
			"type":"VEC3"
		},
		{
			"bufferView":22,
			"componentType":5126,
			"count":132,
			"type":"VEC2"
		},
		{
			"bufferView":23,
			"componentType":5123,
			"count":324,
			"type":"SCALAR"
		},
		{
			"bufferView":24,
			"componentType":5126,
			"count":70,
			"max":[
				-0.8445494174957275,
				0.13267426192760468,
				0.780775249004364
			],
			"min":[
				-1.0913766622543335,
				-0.10207244753837585,
				0.7567237615585327
			],
			"type":"VEC3"
		},
		{
			"bufferView":25,
			"componentType":5126,
			"count":70,
			"type":"VEC3"
		},
		{
			"bufferView":26,
			"componentType":5126,
			"count":70,
			"type":"VEC2"
		},
		{
			"bufferView":27,
			"componentType":5123,
			"count":204,
			"type":"SCALAR"
		},
		{
			"bufferView":28,
			"componentType":5126,
			"count":132,
			"max":[
				-0.7035143375396729,
				0.2668065130710602,
				0.7743914127349854
			],
			"min":[
				-1.2324117422103882,
				-0.23620477318763733,
				0.611264169216156
			],
			"type":"VEC3"
		},
		{
			"bufferView":29,
			"componentType":5126,
			"count":132,
			"type":"VEC3"
		},
		{
			"bufferView":30,
			"componentType":5126,
			"count":132,
			"type":"VEC2"
		},
		{
			"bufferView":31,
			"componentType":5123,
			"count":324,
			"type":"SCALAR"
		},
		{
			"bufferView":32,
			"componentType":5126,
			"count":74,
			"max":[
				1.0945245027542114,
				0.13267426192760468,
				-0.7567241191864014
			],
			"min":[
				0.8476971387863159,
				-0.10207244753837585,
				-0.7807756662368774
			],
			"type":"VEC3"
		},
		{
			"bufferView":33,
			"componentType":5126,
			"count":74,
			"type":"VEC3"
		},
		{
			"bufferView":34,
			"componentType":5126,
			"count":74,
			"type":"VEC2"
		},
		{
			"bufferView":35,
			"componentType":5123,
			"count":204,
			"type":"SCALAR"
		},
		{
			"bufferView":36,
			"componentType":5126,
			"count":136,
			"max":[
				1.2355594635009766,
				0.2668065130710602,
				-0.6112645864486694
			],
			"min":[
				0.7066619992256165,
				-0.23620477318763733,
				-0.7743918299674988
			],
			"type":"VEC3"
		},
		{
			"bufferView":37,
			"componentType":5126,
			"count":136,
			"type":"VEC3"
		},
		{
			"bufferView":38,
			"componentType":5126,
			"count":136,
			"type":"VEC2"
		},
		{
			"bufferView":39,
			"componentType":5123,
			"count":324,
			"type":"SCALAR"
		},
		{
			"bufferView":40,
			"componentType":5126,
			"count":74,
			"max":[
				-0.8445494174957275,
				0.13267426192760468,
				-0.7567241191864014
			],
			"min":[
				-1.0913766622543335,
				-0.10207244753837585,
				-0.7807756662368774
			],
			"type":"VEC3"
		},
		{
			"bufferView":41,
			"componentType":5126,
			"count":74,
			"type":"VEC3"
		},
		{
			"bufferView":42,
			"componentType":5126,
			"count":74,
			"type":"VEC2"
		},
		{
			"bufferView":43,
			"componentType":5126,
			"count":136,
			"max":[
				-0.7035143375396729,
				0.2668065130710602,
				-0.6112645864486694
			],
			"min":[
				-1.2324117422103882,
				-0.23620477318763733,
				-0.7743918299674988
			],
			"type":"VEC3"
		},
		{
			"bufferView":44,
			"componentType":5126,
			"count":136,
			"type":"VEC3"
		},
		{
			"bufferView":45,
			"componentType":5126,
			"count":136,
			"type":"VEC2"
		},
		{
			"bufferView":46,
			"componentType":5123,
			"count":324,
			"type":"SCALAR"
		}
	],
	"bufferViews":[
		{
			"buffer":0,
			"byteLength":15504,
			"byteOffset":0,
			"target":34962
		},
		{
			"buffer":0,
			"byteLength":15504,
			"byteOffset":15504,
			"target":34962
		},
		{
			"buffer":0,
			"byteLength":10336,
			"byteOffset":31008,
			"target":34962
		},
		{
			"buffer":0,
			"byteLength":5520,
			"byteOffset":41344,
			"target":34963
		},
		{
			"buffer":0,
			"byteLength":336,
			"byteOffset":46864,
			"target":34962
		},
		{
			"buffer":0,
			"byteLength":336,
			"byteOffset":47200,
			"target":34962
		},
		{
			"buffer":0,
			"byteLength":224,
			"byteOffset":47536,
			"target":34962
		},
		{
			"buffer":0,
			"byteLength":96,
			"byteOffset":47760,
			"target":34963
		},
		{
			"buffer":0,
			"byteLength":12288,
			"byteOffset":47856,
			"target":34962
		},
		{
			"buffer":0,
			"byteLength":12288,
			"byteOffset":60144,
			"target":34962
		},
		{
			"buffer":0,
			"byteLength":8192,
			"byteOffset":72432,
			"target":34962
		},
		{
			"buffer":0,
			"byteLength":4116,
			"byteOffset":80624,
			"target":34963
		},
		{
			"buffer":0,
			"byteLength":1824,
			"byteOffset":84740,
			"target":34962
		},
		{
			"buffer":0,
			"byteLength":1824,
			"byteOffset":86564,
			"target":34962
		},
		{
			"buffer":0,
			"byteLength":1216,
			"byteOffset":88388,
			"target":34962
		},
		{
			"buffer":0,
			"byteLength":480,
			"byteOffset":89604,
			"target":34963
		},
		{
			"buffer":0,
			"byteLength":840,
			"byteOffset":90084,
			"target":34962
		},
		{
			"buffer":0,
			"byteLength":840,
			"byteOffset":90924,
			"target":34962
		},
		{
			"buffer":0,
			"byteLength":560,
			"byteOffset":91764,
			"target":34962
		},
		{
			"buffer":0,
			"byteLength":408,
			"byteOffset":92324,
			"target":34963
		},
		{
			"buffer":0,
			"byteLength":1584,
			"byteOffset":92732,
			"target":34962
		},
		{
			"buffer":0,
			"byteLength":1584,
			"byteOffset":94316,
			"target":34962
		},
		{
			"buffer":0,
			"byteLength":1056,
			"byteOffset":95900,
			"target":34962
		},
		{
			"buffer":0,
			"byteLength":648,
			"byteOffset":96956,
			"target":34963
		},
		{
			"buffer":0,
			"byteLength":840,
			"byteOffset":97604,
			"target":34962
		},
		{
			"buffer":0,
			"byteLength":840,
			"byteOffset":98444,
			"target":34962
		},
		{
			"buffer":0,
			"byteLength":560,
			"byteOffset":99284,
			"target":34962
		},
		{
			"buffer":0,
			"byteLength":408,
			"byteOffset":99844,
			"target":34963
		},
		{
			"buffer":0,
			"byteLength":1584,
			"byteOffset":100252,
			"target":34962
		},
		{
			"buffer":0,
			"byteLength":1584,
			"byteOffset":101836,
			"target":34962
		},
		{
			"buffer":0,
			"byteLength":1056,
			"byteOffset":103420,
			"target":34962
		},
		{
			"buffer":0,
			"byteLength":648,
			"byteOffset":104476,
			"target":34963
		},
		{
			"buffer":0,
			"byteLength":888,
			"byteOffset":105124,
			"target":34962
		},
		{
			"buffer":0,
			"byteLength":888,
			"byteOffset":106012,
			"target":34962
		},
		{
			"buffer":0,
			"byteLength":592,
			"byteOffset":106900,
			"target":34962
		},
		{
			"buffer":0,
			"byteLength":408,
			"byteOffset":107492,
			"target":34963
		},
		{
			"buffer":0,
			"byteLength":1632,
			"byteOffset":107900,
			"target":34962
		},
		{
			"buffer":0,
			"byteLength":1632,
			"byteOffset":109532,
			"target":34962
		},
		{
			"buffer":0,
			"byteLength":1088,
			"byteOffset":111164,
			"target":34962
		},
		{
			"buffer":0,
			"byteLength":648,
			"byteOffset":112252,
			"target":34963
		},
		{
			"buffer":0,
			"byteLength":888,
			"byteOffset":112900,
			"target":34962
		},
		{
			"buffer":0,
			"byteLength":888,
			"byteOffset":113788,
			"target":34962
		},
		{
			"buffer":0,
			"byteLength":592,
			"byteOffset":114676,
			"target":34962
		},
		{
			"buffer":0,
			"byteLength":1632,
			"byteOffset":115268,
			"target":34962
		},
		{
			"buffer":0,
			"byteLength":1632,
			"byteOffset":116900,
			"target":34962
		},
		{
			"buffer":0,
			"byteLength":1088,
			"byteOffset":118532,
			"target":34962
		},
		{
			"buffer":0,
			"byteLength":648,
			"byteOffset":119620,
			"target":34963
		}
	],
	"samplers":[
		{
			"magFilter":9729,
			"minFilter":9987
		}
	],
	"buffers":[
		{
			"byteLength":120268,
			"uri":"Car_2_K.bin"
		}
	]
}
