{
	"asset":{
		"generator":"Khronos glTF Blender I/O v4.1.63",
		"version":"2.0"
	},
	"extensionsUsed":[
		"EXT_texture_webp"
	],
	"scene":0,
	"scenes":[
		{
			"name":"Scene",
			"nodes":[
				0,
				1,
				2,
				3,
				4
			]
		}
	],
	"nodes":[
		{
			"mesh":0,
			"name":"Car_5_O"
		},
		{
			"mesh":1,
			"name":"RR",
			"translation":[
				0.9711110591888428,
				0.01530092116445303,
				0.750625729560852
			]
		},
		{
			"mesh":2,
			"name":"FL",
			"translation":[
				-0.9679633975028992,
				0.015300924889743328,
				0.7506259679794312
			]
		},
		{
			"mesh":3,
			"name":"RL",
			"translation":[
				0.9711108803749084,
				0.015300924889743328,
				-0.7506260871887207
			]
		},
		{
			"mesh":4,
			"name":"FR",
			"translation":[
				-0.9679633975028992,
				0.015300924889743328,
				-0.7506260871887207
			]
		}
	],
	"materials":[
		{
			"name":"City Car",
			"pbrMetallicRoughness":{
				"baseColorTexture":{
					"index":0
				},
				"metallicFactor":0.34545451402664185,
				"roughnessFactor":0.48181819915771484
			}
		},
		{
			"name":"Windows",
			"pbrMetallicRoughness":{
				"baseColorTexture":{
					"index":1
				},
				"metallicFactor":0.5454545617103577,
				"roughnessFactor":0.8727272748947144
			}
		},
		{
			"name":"City Metal",
			"pbrMetallicRoughness":{
				"baseColorTexture":{
					"index":2
				},
				"roughnessFactor":0.2708495557308197
			}
		},
		{
			"name":"City Atlas",
			"pbrMetallicRoughness":{
				"baseColorTexture":{
					"index":3
				},
				"metallicFactor":0
			}
		}
	],
	"meshes":[
		{
			"name":"Car_5_O",
			"primitives":[
				{
					"attributes":{
						"POSITION":0,
						"NORMAL":1,
						"TEXCOORD_0":2
					},
					"indices":3,
					"material":0
				},
				{
					"attributes":{
						"POSITION":4,
						"NORMAL":5,
						"TEXCOORD_0":6
					},
					"indices":7,
					"material":1
				},
				{
					"attributes":{
						"POSITION":8,
						"NORMAL":9,
						"TEXCOORD_0":10
					},
					"indices":11,
					"material":2
				},
				{
					"attributes":{
						"POSITION":12,
						"NORMAL":13,
						"TEXCOORD_0":14
					},
					"indices":15,
					"material":3
				}
			]
		},
		{
			"name":"RR",
			"primitives":[
				{
					"attributes":{
						"POSITION":16,
						"NORMAL":17,
						"TEXCOORD_0":18
					},
					"indices":19,
					"material":0
				},
				{
					"attributes":{
						"POSITION":20,
						"NORMAL":21,
						"TEXCOORD_0":22
					},
					"indices":23,
					"material":2
				}
			]
		},
		{
			"name":"FL",
			"primitives":[
				{
					"attributes":{
						"POSITION":24,
						"NORMAL":25,
						"TEXCOORD_0":26
					},
					"indices":27,
					"material":0
				},
				{
					"attributes":{
						"POSITION":28,
						"NORMAL":29,
						"TEXCOORD_0":30
					},
					"indices":31,
					"material":2
				}
			]
		},
		{
			"name":"RL",
			"primitives":[
				{
					"attributes":{
						"POSITION":32,
						"NORMAL":33,
						"TEXCOORD_0":34
					},
					"indices":35,
					"material":0
				},
				{
					"attributes":{
						"POSITION":36,
						"NORMAL":37,
						"TEXCOORD_0":38
					},
					"indices":39,
					"material":2
				}
			]
		},
		{
			"name":"FR",
			"primitives":[
				{
					"attributes":{
						"POSITION":40,
						"NORMAL":41,
						"TEXCOORD_0":42
					},
					"indices":43,
					"material":0
				},
				{
					"attributes":{
						"POSITION":44,
						"NORMAL":45,
						"TEXCOORD_0":46
					},
					"indices":39,
					"material":2
				}
			]
		}
	],
	"textures":[
		{
			"extensions":{
				"EXT_texture_webp":{
					"source":0
				}
			},
			"sampler":0,
			"source":1
		},
		{
			"extensions":{
				"EXT_texture_webp":{
					"source":2
				}
			},
			"sampler":0,
			"source":3
		},
		{
			"extensions":{
				"EXT_texture_webp":{
					"source":0
				}
			},
			"sampler":0,
			"source":1
		},
		{
			"extensions":{
				"EXT_texture_webp":{
					"source":0
				}
			},
			"sampler":0,
			"source":1
		}
	],
	"images":[
		{
			"mimeType":"image/webp",
			"name":"City Atlas Map.png",
			"uri":"City%20Atlas%20Map_png.webp"
		},
		{
			"mimeType":"image/png",
			"name":"City Atlas Map.png",
			"uri":"City%20Atlas%20Map_png.png"
		},
		{
			"mimeType":"image/webp",
			"name":"Windows",
			"uri":"Windows.webp"
		},
		{
			"mimeType":"image/png",
			"name":"Windows",
			"uri":"Windows.png"
		}
	],
	"accessors":[
		{
			"bufferView":0,
			"componentType":5126,
			"count":1486,
			"max":[
				1.7328816652297974,
				1.2169620990753174,
				0.8036040663719177
			],
			"min":[
				-1.7716349363327026,
				-0.0002507772296667099,
				-0.8036040663719177
			],
			"type":"VEC3"
		},
		{
			"bufferView":1,
			"componentType":5126,
			"count":1486,
			"type":"VEC3"
		},
		{
			"bufferView":2,
			"componentType":5126,
			"count":1486,
			"type":"VEC2"
		},
		{
			"bufferView":3,
			"componentType":5123,
			"count":3090,
			"type":"SCALAR"
		},
		{
			"bufferView":4,
			"componentType":5126,
			"count":24,
			"max":[
				1.0249152183532715,
				1.1385350227355957,
				0.6164228320121765
			],
			"min":[
				-0.6918574571609497,
				0.6282169222831726,
				-0.6164228320121765
			],
			"type":"VEC3"
		},
		{
			"bufferView":5,
			"componentType":5126,
			"count":24,
			"type":"VEC3"
		},
		{
			"bufferView":6,
			"componentType":5126,
			"count":24,
			"type":"VEC2"
		},
		{
			"bufferView":7,
			"componentType":5123,
			"count":36,
			"type":"SCALAR"
		},
		{
			"bufferView":8,
			"componentType":5126,
			"count":1417,
			"max":[
				1.7791823148727417,
				1.1470887660980225,
				0.8327786922454834
			],
			"min":[
				-1.7342783212661743,
				0.018038608133792877,
				-0.8327786922454834
			],
			"type":"VEC3"
		},
		{
			"bufferView":9,
			"componentType":5126,
			"count":1417,
			"type":"VEC3"
		},
		{
			"bufferView":10,
			"componentType":5126,
			"count":1417,
			"type":"VEC2"
		},
		{
			"bufferView":11,
			"componentType":5123,
			"count":2481,
			"type":"SCALAR"
		},
		{
			"bufferView":12,
			"componentType":5126,
			"count":70,
			"max":[
				-1.6194841861724854,
				0.5194327235221863,
				0.32486554980278015
			],
			"min":[
				-1.7046446800231934,
				0.3130050301551819,
				-0.32486557960510254
			],
			"type":"VEC3"
		},
		{
			"bufferView":13,
			"componentType":5126,
			"count":70,
			"type":"VEC3"
		},
		{
			"bufferView":14,
			"componentType":5126,
			"count":70,
			"type":"VEC2"
		},
		{
			"bufferView":15,
			"componentType":5123,
			"count":114,
			"type":"SCALAR"
		},
		{
			"bufferView":16,
			"componentType":5126,
			"count":130,
			"max":[
				0.2644486427307129,
				0.25150564312934875,
				0.05076718330383301
			],
			"min":[
				-0.26444900035858154,
				-0.2515057325363159,
				-0.11804795265197754
			],
			"type":"VEC3"
		},
		{
			"bufferView":17,
			"componentType":5126,
			"count":130,
			"type":"VEC3"
		},
		{
			"bufferView":18,
			"componentType":5126,
			"count":130,
			"type":"VEC2"
		},
		{
			"bufferView":19,
			"componentType":5123,
			"count":324,
			"type":"SCALAR"
		},
		{
			"bufferView":20,
			"componentType":5126,
			"count":38,
			"max":[
				0.10574626922607422,
				0.10057079046964645,
				0.05247855186462402
			],
			"min":[
				-0.10574650764465332,
				-0.10057083517313004,
				0.035467684268951416
			],
			"type":"VEC3"
		},
		{
			"bufferView":21,
			"componentType":5126,
			"count":38,
			"type":"VEC3"
		},
		{
			"bufferView":22,
			"componentType":5126,
			"count":38,
			"type":"VEC2"
		},
		{
			"bufferView":23,
			"componentType":5123,
			"count":84,
			"type":"SCALAR"
		},
		{
			"bufferView":24,
			"componentType":5126,
			"count":130,
			"max":[
				0.26444894075393677,
				0.25150564312934875,
				0.050766944885253906
			],
			"min":[
				-0.26444870233535767,
				-0.2515057325363159,
				-0.11804819107055664
			],
			"type":"VEC3"
		},
		{
			"bufferView":25,
			"componentType":5126,
			"count":130,
			"type":"VEC3"
		},
		{
			"bufferView":26,
			"componentType":5126,
			"count":130,
			"type":"VEC2"
		},
		{
			"bufferView":27,
			"componentType":5123,
			"count":324,
			"type":"SCALAR"
		},
		{
			"bufferView":28,
			"componentType":5126,
			"count":38,
			"max":[
				0.10574668645858765,
				0.10057079046964645,
				0.05247831344604492
			],
			"min":[
				-0.105746328830719,
				-0.10057083517313004,
				0.035467445850372314
			],
			"type":"VEC3"
		},
		{
			"bufferView":29,
			"componentType":5126,
			"count":38,
			"type":"VEC3"
		},
		{
			"bufferView":30,
			"componentType":5126,
			"count":38,
			"type":"VEC2"
		},
		{
			"bufferView":31,
			"componentType":5123,
			"count":84,
			"type":"SCALAR"
		},
		{
			"bufferView":32,
			"componentType":5126,
			"count":130,
			"max":[
				0.2644488215446472,
				0.25150564312934875,
				0.11804795265197754
			],
			"min":[
				-0.2644488215446472,
				-0.2515057325363159,
				-0.05076724290847778
			],
			"type":"VEC3"
		},
		{
			"bufferView":33,
			"componentType":5126,
			"count":130,
			"type":"VEC3"
		},
		{
			"bufferView":34,
			"componentType":5126,
			"count":130,
			"type":"VEC2"
		},
		{
			"bufferView":35,
			"componentType":5123,
			"count":324,
			"type":"SCALAR"
		},
		{
			"bufferView":36,
			"componentType":5126,
			"count":30,
			"max":[
				0.10574644804000854,
				0.10057079046964645,
				-0.035467684268951416
			],
			"min":[
				-0.105746328830719,
				-0.10057083517313004,
				-0.05247855186462402
			],
			"type":"VEC3"
		},
		{
			"bufferView":37,
			"componentType":5126,
			"count":30,
			"type":"VEC3"
		},
		{
			"bufferView":38,
			"componentType":5126,
			"count":30,
			"type":"VEC2"
		},
		{
			"bufferView":39,
			"componentType":5123,
			"count":84,
			"type":"SCALAR"
		},
		{
			"bufferView":40,
			"componentType":5126,
			"count":130,
			"max":[
				0.26444894075393677,
				0.25150564312934875,
				0.11804795265197754
			],
			"min":[
				-0.26444870233535767,
				-0.2515057325363159,
				-0.05076724290847778
			],
			"type":"VEC3"
		},
		{
			"bufferView":41,
			"componentType":5126,
			"count":130,
			"type":"VEC3"
		},
		{
			"bufferView":42,
			"componentType":5126,
			"count":130,
			"type":"VEC2"
		},
		{
			"bufferView":43,
			"componentType":5123,
			"count":324,
			"type":"SCALAR"
		},
		{
			"bufferView":44,
			"componentType":5126,
			"count":30,
			"max":[
				0.10574668645858765,
				0.10057079046964645,
				-0.035467684268951416
			],
			"min":[
				-0.105746328830719,
				-0.10057083517313004,
				-0.05247855186462402
			],
			"type":"VEC3"
		},
		{
			"bufferView":45,
			"componentType":5126,
			"count":30,
			"type":"VEC3"
		},
		{
			"bufferView":46,
			"componentType":5126,
			"count":30,
			"type":"VEC2"
		}
	],
	"bufferViews":[
		{
			"buffer":0,
			"byteLength":17832,
			"byteOffset":0,
			"target":34962
		},
		{
			"buffer":0,
			"byteLength":17832,
			"byteOffset":17832,
			"target":34962
		},
		{
			"buffer":0,
			"byteLength":11888,
			"byteOffset":35664,
			"target":34962
		},
		{
			"buffer":0,
			"byteLength":6180,
			"byteOffset":47552,
			"target":34963
		},
		{
			"buffer":0,
			"byteLength":288,
			"byteOffset":53732,
			"target":34962
		},
		{
			"buffer":0,
			"byteLength":288,
			"byteOffset":54020,
			"target":34962
		},
		{
			"buffer":0,
			"byteLength":192,
			"byteOffset":54308,
			"target":34962
		},
		{
			"buffer":0,
			"byteLength":72,
			"byteOffset":54500,
			"target":34963
		},
		{
			"buffer":0,
			"byteLength":17004,
			"byteOffset":54572,
			"target":34962
		},
		{
			"buffer":0,
			"byteLength":17004,
			"byteOffset":71576,
			"target":34962
		},
		{
			"buffer":0,
			"byteLength":11336,
			"byteOffset":88580,
			"target":34962
		},
		{
			"buffer":0,
			"byteLength":4962,
			"byteOffset":99916,
			"target":34963
		},
		{
			"buffer":0,
			"byteLength":840,
			"byteOffset":104880,
			"target":34962
		},
		{
			"buffer":0,
			"byteLength":840,
			"byteOffset":105720,
			"target":34962
		},
		{
			"buffer":0,
			"byteLength":560,
			"byteOffset":106560,
			"target":34962
		},
		{
			"buffer":0,
			"byteLength":228,
			"byteOffset":107120,
			"target":34963
		},
		{
			"buffer":0,
			"byteLength":1560,
			"byteOffset":107348,
			"target":34962
		},
		{
			"buffer":0,
			"byteLength":1560,
			"byteOffset":108908,
			"target":34962
		},
		{
			"buffer":0,
			"byteLength":1040,
			"byteOffset":110468,
			"target":34962
		},
		{
			"buffer":0,
			"byteLength":648,
			"byteOffset":111508,
			"target":34963
		},
		{
			"buffer":0,
			"byteLength":456,
			"byteOffset":112156,
			"target":34962
		},
		{
			"buffer":0,
			"byteLength":456,
			"byteOffset":112612,
			"target":34962
		},
		{
			"buffer":0,
			"byteLength":304,
			"byteOffset":113068,
			"target":34962
		},
		{
			"buffer":0,
			"byteLength":168,
			"byteOffset":113372,
			"target":34963
		},
		{
			"buffer":0,
			"byteLength":1560,
			"byteOffset":113540,
			"target":34962
		},
		{
			"buffer":0,
			"byteLength":1560,
			"byteOffset":115100,
			"target":34962
		},
		{
			"buffer":0,
			"byteLength":1040,
			"byteOffset":116660,
			"target":34962
		},
		{
			"buffer":0,
			"byteLength":648,
			"byteOffset":117700,
			"target":34963
		},
		{
			"buffer":0,
			"byteLength":456,
			"byteOffset":118348,
			"target":34962
		},
		{
			"buffer":0,
			"byteLength":456,
			"byteOffset":118804,
			"target":34962
		},
		{
			"buffer":0,
			"byteLength":304,
			"byteOffset":119260,
			"target":34962
		},
		{
			"buffer":0,
			"byteLength":168,
			"byteOffset":119564,
			"target":34963
		},
		{
			"buffer":0,
			"byteLength":1560,
			"byteOffset":119732,
			"target":34962
		},
		{
			"buffer":0,
			"byteLength":1560,
			"byteOffset":121292,
			"target":34962
		},
		{
			"buffer":0,
			"byteLength":1040,
			"byteOffset":122852,
			"target":34962
		},
		{
			"buffer":0,
			"byteLength":648,
			"byteOffset":123892,
			"target":34963
		},
		{
			"buffer":0,
			"byteLength":360,
			"byteOffset":124540,
			"target":34962
		},
		{
			"buffer":0,
			"byteLength":360,
			"byteOffset":124900,
			"target":34962
		},
		{
			"buffer":0,
			"byteLength":240,
			"byteOffset":125260,
			"target":34962
		},
		{
			"buffer":0,
			"byteLength":168,
			"byteOffset":125500,
			"target":34963
		},
		{
			"buffer":0,
			"byteLength":1560,
			"byteOffset":125668,
			"target":34962
		},
		{
			"buffer":0,
			"byteLength":1560,
			"byteOffset":127228,
			"target":34962
		},
		{
			"buffer":0,
			"byteLength":1040,
			"byteOffset":128788,
			"target":34962
		},
		{
			"buffer":0,
			"byteLength":648,
			"byteOffset":129828,
			"target":34963
		},
		{
			"buffer":0,
			"byteLength":360,
			"byteOffset":130476,
			"target":34962
		},
		{
			"buffer":0,
			"byteLength":360,
			"byteOffset":130836,
			"target":34962
		},
		{
			"buffer":0,
			"byteLength":240,
			"byteOffset":131196,
			"target":34962
		}
	],
	"samplers":[
		{
			"magFilter":9729,
			"minFilter":9987
		}
	],
	"buffers":[
		{
			"byteLength":131436,
			"uri":"Car_5_O.bin"
		}
	]
}
