{
	"asset":{
		"generator":"Khronos glTF Blender I/O v4.1.63",
		"version":"2.0"
	},
	"extensionsUsed":[
		"EXT_texture_webp"
	],
	"scene":0,
	"scenes":[
		{
			"name":"Scene",
			"nodes":[
				0,
				1,
				2,
				3,
				4
			]
		}
	],
	"nodes":[
		{
			"mesh":0,
			"name":"Car_11_L"
		},
		{
			"mesh":1,
			"name":"RL",
			"translation":[
				0.9711111783981323,
				0.03726894408464432,
				0.7652856707572937
			]
		},
		{
			"mesh":2,
			"name":"FL",
			"translation":[
				-0.9679633378982544,
				0.03726895526051521,
				0.7652857899665833
			]
		},
		{
			"mesh":3,
			"name":"RR",
			"translation":[
				0.971110999584198,
				0.03726895526051521,
				-0.765285849571228
			]
		},
		{
			"mesh":4,
			"name":"FR",
			"translation":[
				-0.9679633378982544,
				0.037268947809934616,
				-0.765285849571228
			]
		}
	],
	"materials":[
		{
			"name":"City Car",
			"pbrMetallicRoughness":{
				"baseColorTexture":{
					"index":0
				},
				"metallicFactor":0.34545451402664185,
				"roughnessFactor":0.48181819915771484
			}
		},
		{
			"name":"City Metal",
			"pbrMetallicRoughness":{
				"baseColorTexture":{
					"index":1
				},
				"roughnessFactor":0.2708495557308197
			}
		},
		{
			"name":"Windows",
			"pbrMetallicRoughness":{
				"baseColorTexture":{
					"index":2
				},
				"metallicFactor":0.5454545617103577,
				"roughnessFactor":0.8727272748947144
			}
		}
	],
	"meshes":[
		{
			"name":"Car_11_L",
			"primitives":[
				{
					"attributes":{
						"POSITION":0,
						"NORMAL":1,
						"TEXCOORD_0":2
					},
					"indices":3,
					"material":0
				},
				{
					"attributes":{
						"POSITION":4,
						"NORMAL":5,
						"TEXCOORD_0":6
					},
					"indices":7,
					"material":1
				},
				{
					"attributes":{
						"POSITION":8,
						"NORMAL":9,
						"TEXCOORD_0":10
					},
					"indices":11,
					"material":2
				}
			]
		},
		{
			"name":"RL",
			"primitives":[
				{
					"attributes":{
						"POSITION":12,
						"NORMAL":13,
						"TEXCOORD_0":14
					},
					"indices":15,
					"material":0
				},
				{
					"attributes":{
						"POSITION":16,
						"NORMAL":17,
						"TEXCOORD_0":18
					},
					"indices":19,
					"material":1
				}
			]
		},
		{
			"name":"FL",
			"primitives":[
				{
					"attributes":{
						"POSITION":20,
						"NORMAL":21,
						"TEXCOORD_0":22
					},
					"indices":23,
					"material":0
				},
				{
					"attributes":{
						"POSITION":24,
						"NORMAL":25,
						"TEXCOORD_0":26
					},
					"indices":27,
					"material":1
				}
			]
		},
		{
			"name":"RR",
			"primitives":[
				{
					"attributes":{
						"POSITION":28,
						"NORMAL":29,
						"TEXCOORD_0":30
					},
					"indices":31,
					"material":0
				},
				{
					"attributes":{
						"POSITION":32,
						"NORMAL":33,
						"TEXCOORD_0":34
					},
					"indices":35,
					"material":1
				}
			]
		},
		{
			"name":"FR",
			"primitives":[
				{
					"attributes":{
						"POSITION":36,
						"NORMAL":37,
						"TEXCOORD_0":38
					},
					"indices":39,
					"material":0
				},
				{
					"attributes":{
						"POSITION":40,
						"NORMAL":41,
						"TEXCOORD_0":42
					},
					"indices":43,
					"material":1
				}
			]
		}
	],
	"textures":[
		{
			"extensions":{
				"EXT_texture_webp":{
					"source":0
				}
			},
			"sampler":0,
			"source":1
		},
		{
			"extensions":{
				"EXT_texture_webp":{
					"source":0
				}
			},
			"sampler":0,
			"source":1
		},
		{
			"extensions":{
				"EXT_texture_webp":{
					"source":2
				}
			},
			"sampler":0,
			"source":3
		}
	],
	"images":[
		{
			"mimeType":"image/webp",
			"name":"City Atlas Map.png",
			"uri":"City%20Atlas%20Map_png.webp"
		},
		{
			"mimeType":"image/png",
			"name":"City Atlas Map.png",
			"uri":"City%20Atlas%20Map_png.png"
		},
		{
			"mimeType":"image/webp",
			"name":"Windows",
			"uri":"Windows.webp"
		},
		{
			"mimeType":"image/png",
			"name":"Windows",
			"uri":"Windows.png"
		}
	],
	"accessors":[
		{
			"bufferView":0,
			"componentType":5126,
			"count":1630,
			"max":[
				1.867691159248352,
				1.8898580074310303,
				0.8202416896820068
			],
			"min":[
				-1.6820250749588013,
				-0.00122755765914917,
				-0.8202416896820068
			],
			"type":"VEC3"
		},
		{
			"bufferView":1,
			"componentType":5126,
			"count":1630,
			"type":"VEC3"
		},
		{
			"bufferView":2,
			"componentType":5126,
			"count":1630,
			"type":"VEC2"
		},
		{
			"bufferView":3,
			"componentType":5123,
			"count":3300,
			"type":"SCALAR"
		},
		{
			"bufferView":4,
			"componentType":5126,
			"count":1009,
			"max":[
				1.756866455078125,
				0.8578060865402222,
				0.9267914891242981
			],
			"min":[
				-1.7145271301269531,
				0.023930996656417847,
				-0.9267914891242981
			],
			"type":"VEC3"
		},
		{
			"bufferView":5,
			"componentType":5126,
			"count":1009,
			"type":"VEC3"
		},
		{
			"bufferView":6,
			"componentType":5126,
			"count":1009,
			"type":"VEC2"
		},
		{
			"bufferView":7,
			"componentType":5123,
			"count":2034,
			"type":"SCALAR"
		},
		{
			"bufferView":8,
			"componentType":5126,
			"count":40,
			"max":[
				1.55667245388031,
				1.8165624141693115,
				0.6467150449752808
			],
			"min":[
				-0.5984166264533997,
				0.5906863212585449,
				-0.6467150449752808
			],
			"type":"VEC3"
		},
		{
			"bufferView":9,
			"componentType":5126,
			"count":40,
			"type":"VEC3"
		},
		{
			"bufferView":10,
			"componentType":5126,
			"count":40,
			"type":"VEC2"
		},
		{
			"bufferView":11,
			"componentType":5123,
			"count":78,
			"type":"SCALAR"
		},
		{
			"bufferView":12,
			"componentType":5126,
			"count":130,
			"max":[
				0.2644486427307129,
				0.25150567293167114,
				0.04029935598373413
			],
			"min":[
				-0.2644490599632263,
				-0.25150567293167114,
				-0.1293988823890686
			],
			"type":"VEC3"
		},
		{
			"bufferView":13,
			"componentType":5126,
			"count":130,
			"type":"VEC3"
		},
		{
			"bufferView":14,
			"componentType":5126,
			"count":130,
			"type":"VEC2"
		},
		{
			"bufferView":15,
			"componentType":5123,
			"count":324,
			"type":"SCALAR"
		},
		{
			"bufferView":16,
			"componentType":5126,
			"count":70,
			"max":[
				0.10574626922607422,
				0.10057079046964645,
				0.04201960563659668
			],
			"min":[
				-0.10574662685394287,
				-0.10057080537080765,
				0.02491980791091919
			],
			"type":"VEC3"
		},
		{
			"bufferView":17,
			"componentType":5126,
			"count":70,
			"type":"VEC3"
		},
		{
			"bufferView":18,
			"componentType":5126,
			"count":70,
			"type":"VEC2"
		},
		{
			"bufferView":19,
			"componentType":5123,
			"count":204,
			"type":"SCALAR"
		},
		{
			"bufferView":20,
			"componentType":5126,
			"count":130,
			"max":[
				0.26444894075393677,
				0.25150564312934875,
				0.04029923677444458
			],
			"min":[
				-0.2644486427307129,
				-0.25150570273399353,
				-0.12939900159835815
			],
			"type":"VEC3"
		},
		{
			"bufferView":21,
			"componentType":5126,
			"count":130,
			"type":"VEC3"
		},
		{
			"bufferView":22,
			"componentType":5126,
			"count":130,
			"type":"VEC2"
		},
		{
			"bufferView":23,
			"componentType":5123,
			"count":324,
			"type":"SCALAR"
		},
		{
			"bufferView":24,
			"componentType":5126,
			"count":70,
			"max":[
				0.10574662685394287,
				0.10057078301906586,
				0.04201948642730713
			],
			"min":[
				-0.10574638843536377,
				-0.10057081282138824,
				0.02491968870162964
			],
			"type":"VEC3"
		},
		{
			"bufferView":25,
			"componentType":5126,
			"count":70,
			"type":"VEC3"
		},
		{
			"bufferView":26,
			"componentType":5126,
			"count":70,
			"type":"VEC2"
		},
		{
			"bufferView":27,
			"componentType":5123,
			"count":204,
			"type":"SCALAR"
		},
		{
			"bufferView":28,
			"componentType":5126,
			"count":129,
			"max":[
				0.2644488215446472,
				0.25150564312934875,
				0.12939870357513428
			],
			"min":[
				-0.264448881149292,
				-0.25150570273399353,
				-0.04029953479766846
			],
			"type":"VEC3"
		},
		{
			"bufferView":29,
			"componentType":5126,
			"count":129,
			"type":"VEC3"
		},
		{
			"bufferView":30,
			"componentType":5126,
			"count":129,
			"type":"VEC2"
		},
		{
			"bufferView":31,
			"componentType":5123,
			"count":324,
			"type":"SCALAR"
		},
		{
			"bufferView":32,
			"componentType":5126,
			"count":70,
			"max":[
				0.10574644804000854,
				0.10057078301906586,
				-0.02492004632949829
			],
			"min":[
				-0.10574644804000854,
				-0.10057081282138824,
				-0.04201984405517578
			],
			"type":"VEC3"
		},
		{
			"bufferView":33,
			"componentType":5126,
			"count":70,
			"type":"VEC3"
		},
		{
			"bufferView":34,
			"componentType":5126,
			"count":70,
			"type":"VEC2"
		},
		{
			"bufferView":35,
			"componentType":5123,
			"count":204,
			"type":"SCALAR"
		},
		{
			"bufferView":36,
			"componentType":5126,
			"count":130,
			"max":[
				0.26444894075393677,
				0.25150567293167114,
				0.12939870357513428
			],
			"min":[
				-0.2644486427307129,
				-0.25150567293167114,
				-0.04029953479766846
			],
			"type":"VEC3"
		},
		{
			"bufferView":37,
			"componentType":5126,
			"count":130,
			"type":"VEC3"
		},
		{
			"bufferView":38,
			"componentType":5126,
			"count":130,
			"type":"VEC2"
		},
		{
			"bufferView":39,
			"componentType":5123,
			"count":324,
			"type":"SCALAR"
		},
		{
			"bufferView":40,
			"componentType":5126,
			"count":70,
			"max":[
				0.10574662685394287,
				0.10057078301906586,
				-0.02492004632949829
			],
			"min":[
				-0.10574638843536377,
				-0.10057081282138824,
				-0.04201984405517578
			],
			"type":"VEC3"
		},
		{
			"bufferView":41,
			"componentType":5126,
			"count":70,
			"type":"VEC3"
		},
		{
			"bufferView":42,
			"componentType":5126,
			"count":70,
			"type":"VEC2"
		},
		{
			"bufferView":43,
			"componentType":5123,
			"count":204,
			"type":"SCALAR"
		}
	],
	"bufferViews":[
		{
			"buffer":0,
			"byteLength":19560,
			"byteOffset":0,
			"target":34962
		},
		{
			"buffer":0,
			"byteLength":19560,
			"byteOffset":19560,
			"target":34962
		},
		{
			"buffer":0,
			"byteLength":13040,
			"byteOffset":39120,
			"target":34962
		},
		{
			"buffer":0,
			"byteLength":6600,
			"byteOffset":52160,
			"target":34963
		},
		{
			"buffer":0,
			"byteLength":12108,
			"byteOffset":58760,
			"target":34962
		},
		{
			"buffer":0,
			"byteLength":12108,
			"byteOffset":70868,
			"target":34962
		},
		{
			"buffer":0,
			"byteLength":8072,
			"byteOffset":82976,
			"target":34962
		},
		{
			"buffer":0,
			"byteLength":4068,
			"byteOffset":91048,
			"target":34963
		},
		{
			"buffer":0,
			"byteLength":480,
			"byteOffset":95116,
			"target":34962
		},
		{
			"buffer":0,
			"byteLength":480,
			"byteOffset":95596,
			"target":34962
		},
		{
			"buffer":0,
			"byteLength":320,
			"byteOffset":96076,
			"target":34962
		},
		{
			"buffer":0,
			"byteLength":156,
			"byteOffset":96396,
			"target":34963
		},
		{
			"buffer":0,
			"byteLength":1560,
			"byteOffset":96552,
			"target":34962
		},
		{
			"buffer":0,
			"byteLength":1560,
			"byteOffset":98112,
			"target":34962
		},
		{
			"buffer":0,
			"byteLength":1040,
			"byteOffset":99672,
			"target":34962
		},
		{
			"buffer":0,
			"byteLength":648,
			"byteOffset":100712,
			"target":34963
		},
		{
			"buffer":0,
			"byteLength":840,
			"byteOffset":101360,
			"target":34962
		},
		{
			"buffer":0,
			"byteLength":840,
			"byteOffset":102200,
			"target":34962
		},
		{
			"buffer":0,
			"byteLength":560,
			"byteOffset":103040,
			"target":34962
		},
		{
			"buffer":0,
			"byteLength":408,
			"byteOffset":103600,
			"target":34963
		},
		{
			"buffer":0,
			"byteLength":1560,
			"byteOffset":104008,
			"target":34962
		},
		{
			"buffer":0,
			"byteLength":1560,
			"byteOffset":105568,
			"target":34962
		},
		{
			"buffer":0,
			"byteLength":1040,
			"byteOffset":107128,
			"target":34962
		},
		{
			"buffer":0,
			"byteLength":648,
			"byteOffset":108168,
			"target":34963
		},
		{
			"buffer":0,
			"byteLength":840,
			"byteOffset":108816,
			"target":34962
		},
		{
			"buffer":0,
			"byteLength":840,
			"byteOffset":109656,
			"target":34962
		},
		{
			"buffer":0,
			"byteLength":560,
			"byteOffset":110496,
			"target":34962
		},
		{
			"buffer":0,
			"byteLength":408,
			"byteOffset":111056,
			"target":34963
		},
		{
			"buffer":0,
			"byteLength":1548,
			"byteOffset":111464,
			"target":34962
		},
		{
			"buffer":0,
			"byteLength":1548,
			"byteOffset":113012,
			"target":34962
		},
		{
			"buffer":0,
			"byteLength":1032,
			"byteOffset":114560,
			"target":34962
		},
		{
			"buffer":0,
			"byteLength":648,
			"byteOffset":115592,
			"target":34963
		},
		{
			"buffer":0,
			"byteLength":840,
			"byteOffset":116240,
			"target":34962
		},
		{
			"buffer":0,
			"byteLength":840,
			"byteOffset":117080,
			"target":34962
		},
		{
			"buffer":0,
			"byteLength":560,
			"byteOffset":117920,
			"target":34962
		},
		{
			"buffer":0,
			"byteLength":408,
			"byteOffset":118480,
			"target":34963
		},
		{
			"buffer":0,
			"byteLength":1560,
			"byteOffset":118888,
			"target":34962
		},
		{
			"buffer":0,
			"byteLength":1560,
			"byteOffset":120448,
			"target":34962
		},
		{
			"buffer":0,
			"byteLength":1040,
			"byteOffset":122008,
			"target":34962
		},
		{
			"buffer":0,
			"byteLength":648,
			"byteOffset":123048,
			"target":34963
		},
		{
			"buffer":0,
			"byteLength":840,
			"byteOffset":123696,
			"target":34962
		},
		{
			"buffer":0,
			"byteLength":840,
			"byteOffset":124536,
			"target":34962
		},
		{
			"buffer":0,
			"byteLength":560,
			"byteOffset":125376,
			"target":34962
		},
		{
			"buffer":0,
			"byteLength":408,
			"byteOffset":125936,
			"target":34963
		}
	],
	"samplers":[
		{
			"magFilter":9729,
			"minFilter":9987
		}
	],
	"buffers":[
		{
			"byteLength":126344,
			"uri":"Car_11_L.bin"
		}
	]
}
