{
	"asset":{
		"generator":"Khronos glTF Blender I/O v4.1.63",
		"version":"2.0"
	},
	"extensionsUsed":[
		"EXT_texture_webp"
	],
	"scene":0,
	"scenes":[
		{
			"name":"Scene",
			"nodes":[
				0,
				1,
				2,
				3,
				4
			]
		}
	],
	"nodes":[
		{
			"mesh":0,
			"name":"Car_1_F"
		},
		{
			"mesh":1,
			"name":"RL",
			"translation":[
				0.9711106419563293,
				0.015300916507840157,
				0.734982967376709
			]
		},
		{
			"mesh":2,
			"name":"FL",
			"translation":[
				-0.9679631590843201,
				0.01530091930180788,
				0.7349828481674194
			]
		},
		{
			"mesh":3,
			"name":"RR",
			"translation":[
				0.9711108803749084,
				0.015300927683711052,
				-0.7349830865859985
			]
		},
		{
			"mesh":4,
			"name":"FR",
			"translation":[
				-0.9679631590843201,
				0.015300922095775604,
				-0.7349830865859985
			]
		}
	],
	"materials":[
		{
			"name":"City Car",
			"pbrMetallicRoughness":{
				"baseColorTexture":{
					"index":0
				},
				"metallicFactor":0.34545451402664185,
				"roughnessFactor":0.48181819915771484
			}
		},
		{
			"name":"Windows",
			"pbrMetallicRoughness":{
				"baseColorTexture":{
					"index":1
				},
				"metallicFactor":0.5454545617103577,
				"roughnessFactor":0.8727272748947144
			}
		},
		{
			"name":"City Metal",
			"pbrMetallicRoughness":{
				"baseColorTexture":{
					"index":2
				},
				"roughnessFactor":0.2708495557308197
			}
		},
		{
			"name":"City Atlas",
			"pbrMetallicRoughness":{
				"baseColorTexture":{
					"index":3
				},
				"metallicFactor":0
			}
		}
	],
	"meshes":[
		{
			"name":"Car_1_F",
			"primitives":[
				{
					"attributes":{
						"POSITION":0,
						"NORMAL":1,
						"TEXCOORD_0":2
					},
					"indices":3,
					"material":0
				},
				{
					"attributes":{
						"POSITION":4,
						"NORMAL":5,
						"TEXCOORD_0":6
					},
					"indices":7,
					"material":1
				},
				{
					"attributes":{
						"POSITION":8,
						"NORMAL":9,
						"TEXCOORD_0":10
					},
					"indices":11,
					"material":2
				},
				{
					"attributes":{
						"POSITION":12,
						"NORMAL":13,
						"TEXCOORD_0":14
					},
					"indices":15,
					"material":3
				}
			]
		},
		{
			"name":"RL",
			"primitives":[
				{
					"attributes":{
						"POSITION":16,
						"NORMAL":17,
						"TEXCOORD_0":18
					},
					"indices":19,
					"material":2
				},
				{
					"attributes":{
						"POSITION":20,
						"NORMAL":21,
						"TEXCOORD_0":22
					},
					"indices":23,
					"material":3
				}
			]
		},
		{
			"name":"FL",
			"primitives":[
				{
					"attributes":{
						"POSITION":24,
						"NORMAL":25,
						"TEXCOORD_0":26
					},
					"indices":27,
					"material":2
				},
				{
					"attributes":{
						"POSITION":28,
						"NORMAL":29,
						"TEXCOORD_0":30
					},
					"indices":31,
					"material":3
				}
			]
		},
		{
			"name":"RR",
			"primitives":[
				{
					"attributes":{
						"POSITION":32,
						"NORMAL":33,
						"TEXCOORD_0":34
					},
					"indices":35,
					"material":2
				},
				{
					"attributes":{
						"POSITION":36,
						"NORMAL":37,
						"TEXCOORD_0":38
					},
					"indices":39,
					"material":3
				}
			]
		},
		{
			"name":"FR",
			"primitives":[
				{
					"attributes":{
						"POSITION":40,
						"NORMAL":41,
						"TEXCOORD_0":42
					},
					"indices":35,
					"material":2
				},
				{
					"attributes":{
						"POSITION":43,
						"NORMAL":44,
						"TEXCOORD_0":45
					},
					"indices":46,
					"material":3
				}
			]
		}
	],
	"textures":[
		{
			"extensions":{
				"EXT_texture_webp":{
					"source":0
				}
			},
			"sampler":0,
			"source":1
		},
		{
			"extensions":{
				"EXT_texture_webp":{
					"source":2
				}
			},
			"sampler":0,
			"source":3
		},
		{
			"extensions":{
				"EXT_texture_webp":{
					"source":0
				}
			},
			"sampler":0,
			"source":1
		},
		{
			"extensions":{
				"EXT_texture_webp":{
					"source":0
				}
			},
			"sampler":0,
			"source":1
		}
	],
	"images":[
		{
			"mimeType":"image/webp",
			"name":"City Atlas Map.png",
			"uri":"City%20Atlas%20Map_png.webp"
		},
		{
			"mimeType":"image/png",
			"name":"City Atlas Map.png",
			"uri":"City%20Atlas%20Map_png.png"
		},
		{
			"mimeType":"image/webp",
			"name":"Windows",
			"uri":"Windows.webp"
		},
		{
			"mimeType":"image/png",
			"name":"Windows",
			"uri":"Windows.png"
		}
	],
	"accessors":[
		{
			"bufferView":0,
			"componentType":5126,
			"count":1257,
			"max":[
				1.7476718425750732,
				1.2672291994094849,
				0.7765280604362488
			],
			"min":[
				-1.7996587753295898,
				-0.0002507772296667099,
				-0.7765280604362488
			],
			"type":"VEC3"
		},
		{
			"bufferView":1,
			"componentType":5126,
			"count":1257,
			"type":"VEC3"
		},
		{
			"bufferView":2,
			"componentType":5126,
			"count":1257,
			"type":"VEC2"
		},
		{
			"bufferView":3,
			"componentType":5123,
			"count":2664,
			"type":"SCALAR"
		},
		{
			"bufferView":4,
			"componentType":5126,
			"count":28,
			"max":[
				1.0215121507644653,
				1.1753456592559814,
				0.606363832950592
			],
			"min":[
				-0.5845882892608643,
				0.6390359997749329,
				-0.606363832950592
			],
			"type":"VEC3"
		},
		{
			"bufferView":5,
			"componentType":5126,
			"count":28,
			"type":"VEC3"
		},
		{
			"bufferView":6,
			"componentType":5126,
			"count":28,
			"type":"VEC2"
		},
		{
			"bufferView":7,
			"componentType":5123,
			"count":48,
			"type":"SCALAR"
		},
		{
			"bufferView":8,
			"componentType":5126,
			"count":1010,
			"max":[
				1.746336579322815,
				0.8174893260002136,
				0.8503875732421875
			],
			"min":[
				-1.8889429569244385,
				-0.02299359068274498,
				-0.8503875732421875
			],
			"type":"VEC3"
		},
		{
			"bufferView":9,
			"componentType":5126,
			"count":1010,
			"type":"VEC3"
		},
		{
			"bufferView":10,
			"componentType":5126,
			"count":1010,
			"type":"VEC2"
		},
		{
			"bufferView":11,
			"componentType":5123,
			"count":2046,
			"type":"SCALAR"
		},
		{
			"bufferView":12,
			"componentType":5126,
			"count":304,
			"max":[
				1.6870713233947754,
				0.5690028071403503,
				0.6188862323760986
			],
			"min":[
				1.5993772745132446,
				0.41867750883102417,
				-0.6188862323760986
			],
			"type":"VEC3"
		},
		{
			"bufferView":13,
			"componentType":5126,
			"count":304,
			"type":"VEC3"
		},
		{
			"bufferView":14,
			"componentType":5126,
			"count":304,
			"type":"VEC2"
		},
		{
			"bufferView":15,
			"componentType":5123,
			"count":480,
			"type":"SCALAR"
		},
		{
			"bufferView":16,
			"componentType":5126,
			"count":70,
			"max":[
				0.12341374158859253,
				0.11737334728240967,
				0.04579228162765503
			],
			"min":[
				-0.12341350317001343,
				-0.11737337708473206,
				0.02174079418182373
			],
			"type":"VEC3"
		},
		{
			"bufferView":17,
			"componentType":5126,
			"count":70,
			"type":"VEC3"
		},
		{
			"bufferView":18,
			"componentType":5126,
			"count":70,
			"type":"VEC2"
		},
		{
			"bufferView":19,
			"componentType":5123,
			"count":204,
			"type":"SCALAR"
		},
		{
			"bufferView":20,
			"componentType":5126,
			"count":132,
			"max":[
				0.2644488215446472,
				0.251505583524704,
				0.03940844535827637
			],
			"min":[
				-0.26444870233535767,
				-0.25150570273399353,
				-0.12371879816055298
			],
			"type":"VEC3"
		},
		{
			"bufferView":21,
			"componentType":5126,
			"count":132,
			"type":"VEC3"
		},
		{
			"bufferView":22,
			"componentType":5126,
			"count":132,
			"type":"VEC2"
		},
		{
			"bufferView":23,
			"componentType":5123,
			"count":324,
			"type":"SCALAR"
		},
		{
			"bufferView":24,
			"componentType":5126,
			"count":70,
			"max":[
				0.12341374158859253,
				0.11737333983182907,
				0.04579240083694458
			],
			"min":[
				-0.12341350317001343,
				-0.11737338453531265,
				0.02174091339111328
			],
			"type":"VEC3"
		},
		{
			"bufferView":25,
			"componentType":5126,
			"count":70,
			"type":"VEC3"
		},
		{
			"bufferView":26,
			"componentType":5126,
			"count":70,
			"type":"VEC2"
		},
		{
			"bufferView":27,
			"componentType":5123,
			"count":204,
			"type":"SCALAR"
		},
		{
			"bufferView":28,
			"componentType":5126,
			"count":132,
			"max":[
				0.2644488215446472,
				0.251505583524704,
				0.03940856456756592
			],
			"min":[
				-0.26444870233535767,
				-0.25150570273399353,
				-0.12371867895126343
			],
			"type":"VEC3"
		},
		{
			"bufferView":29,
			"componentType":5126,
			"count":132,
			"type":"VEC3"
		},
		{
			"bufferView":30,
			"componentType":5126,
			"count":132,
			"type":"VEC2"
		},
		{
			"bufferView":31,
			"componentType":5123,
			"count":324,
			"type":"SCALAR"
		},
		{
			"bufferView":32,
			"componentType":5126,
			"count":74,
			"max":[
				0.12341350317001343,
				0.11737333238124847,
				-0.021741032600402832
			],
			"min":[
				-0.12341374158859253,
				-0.11737339198589325,
				-0.045792579650878906
			],
			"type":"VEC3"
		},
		{
			"bufferView":33,
			"componentType":5126,
			"count":74,
			"type":"VEC3"
		},
		{
			"bufferView":34,
			"componentType":5126,
			"count":74,
			"type":"VEC2"
		},
		{
			"bufferView":35,
			"componentType":5123,
			"count":204,
			"type":"SCALAR"
		},
		{
			"bufferView":36,
			"componentType":5126,
			"count":136,
			"max":[
				0.2644485831260681,
				0.251505583524704,
				0.1237185001373291
			],
			"min":[
				-0.26444894075393677,
				-0.25150570273399353,
				-0.039408743381500244
			],
			"type":"VEC3"
		},
		{
			"bufferView":37,
			"componentType":5126,
			"count":136,
			"type":"VEC3"
		},
		{
			"bufferView":38,
			"componentType":5126,
			"count":136,
			"type":"VEC2"
		},
		{
			"bufferView":39,
			"componentType":5123,
			"count":324,
			"type":"SCALAR"
		},
		{
			"bufferView":40,
			"componentType":5126,
			"count":74,
			"max":[
				0.12341374158859253,
				0.11737333983182907,
				-0.021741032600402832
			],
			"min":[
				-0.12341350317001343,
				-0.11737338453531265,
				-0.045792579650878906
			],
			"type":"VEC3"
		},
		{
			"bufferView":41,
			"componentType":5126,
			"count":74,
			"type":"VEC3"
		},
		{
			"bufferView":42,
			"componentType":5126,
			"count":74,
			"type":"VEC2"
		},
		{
			"bufferView":43,
			"componentType":5126,
			"count":136,
			"max":[
				0.2644488215446472,
				0.251505583524704,
				0.1237185001373291
			],
			"min":[
				-0.26444870233535767,
				-0.25150570273399353,
				-0.039408743381500244
			],
			"type":"VEC3"
		},
		{
			"bufferView":44,
			"componentType":5126,
			"count":136,
			"type":"VEC3"
		},
		{
			"bufferView":45,
			"componentType":5126,
			"count":136,
			"type":"VEC2"
		},
		{
			"bufferView":46,
			"componentType":5123,
			"count":324,
			"type":"SCALAR"
		}
	],
	"bufferViews":[
		{
			"buffer":0,
			"byteLength":15084,
			"byteOffset":0,
			"target":34962
		},
		{
			"buffer":0,
			"byteLength":15084,
			"byteOffset":15084,
			"target":34962
		},
		{
			"buffer":0,
			"byteLength":10056,
			"byteOffset":30168,
			"target":34962
		},
		{
			"buffer":0,
			"byteLength":5328,
			"byteOffset":40224,
			"target":34963
		},
		{
			"buffer":0,
			"byteLength":336,
			"byteOffset":45552,
			"target":34962
		},
		{
			"buffer":0,
			"byteLength":336,
			"byteOffset":45888,
			"target":34962
		},
		{
			"buffer":0,
			"byteLength":224,
			"byteOffset":46224,
			"target":34962
		},
		{
			"buffer":0,
			"byteLength":96,
			"byteOffset":46448,
			"target":34963
		},
		{
			"buffer":0,
			"byteLength":12120,
			"byteOffset":46544,
			"target":34962
		},
		{
			"buffer":0,
			"byteLength":12120,
			"byteOffset":58664,
			"target":34962
		},
		{
			"buffer":0,
			"byteLength":8080,
			"byteOffset":70784,
			"target":34962
		},
		{
			"buffer":0,
			"byteLength":4092,
			"byteOffset":78864,
			"target":34963
		},
		{
			"buffer":0,
			"byteLength":3648,
			"byteOffset":82956,
			"target":34962
		},
		{
			"buffer":0,
			"byteLength":3648,
			"byteOffset":86604,
			"target":34962
		},
		{
			"buffer":0,
			"byteLength":2432,
			"byteOffset":90252,
			"target":34962
		},
		{
			"buffer":0,
			"byteLength":960,
			"byteOffset":92684,
			"target":34963
		},
		{
			"buffer":0,
			"byteLength":840,
			"byteOffset":93644,
			"target":34962
		},
		{
			"buffer":0,
			"byteLength":840,
			"byteOffset":94484,
			"target":34962
		},
		{
			"buffer":0,
			"byteLength":560,
			"byteOffset":95324,
			"target":34962
		},
		{
			"buffer":0,
			"byteLength":408,
			"byteOffset":95884,
			"target":34963
		},
		{
			"buffer":0,
			"byteLength":1584,
			"byteOffset":96292,
			"target":34962
		},
		{
			"buffer":0,
			"byteLength":1584,
			"byteOffset":97876,
			"target":34962
		},
		{
			"buffer":0,
			"byteLength":1056,
			"byteOffset":99460,
			"target":34962
		},
		{
			"buffer":0,
			"byteLength":648,
			"byteOffset":100516,
			"target":34963
		},
		{
			"buffer":0,
			"byteLength":840,
			"byteOffset":101164,
			"target":34962
		},
		{
			"buffer":0,
			"byteLength":840,
			"byteOffset":102004,
			"target":34962
		},
		{
			"buffer":0,
			"byteLength":560,
			"byteOffset":102844,
			"target":34962
		},
		{
			"buffer":0,
			"byteLength":408,
			"byteOffset":103404,
			"target":34963
		},
		{
			"buffer":0,
			"byteLength":1584,
			"byteOffset":103812,
			"target":34962
		},
		{
			"buffer":0,
			"byteLength":1584,
			"byteOffset":105396,
			"target":34962
		},
		{
			"buffer":0,
			"byteLength":1056,
			"byteOffset":106980,
			"target":34962
		},
		{
			"buffer":0,
			"byteLength":648,
			"byteOffset":108036,
			"target":34963
		},
		{
			"buffer":0,
			"byteLength":888,
			"byteOffset":108684,
			"target":34962
		},
		{
			"buffer":0,
			"byteLength":888,
			"byteOffset":109572,
			"target":34962
		},
		{
			"buffer":0,
			"byteLength":592,
			"byteOffset":110460,
			"target":34962
		},
		{
			"buffer":0,
			"byteLength":408,
			"byteOffset":111052,
			"target":34963
		},
		{
			"buffer":0,
			"byteLength":1632,
			"byteOffset":111460,
			"target":34962
		},
		{
			"buffer":0,
			"byteLength":1632,
			"byteOffset":113092,
			"target":34962
		},
		{
			"buffer":0,
			"byteLength":1088,
			"byteOffset":114724,
			"target":34962
		},
		{
			"buffer":0,
			"byteLength":648,
			"byteOffset":115812,
			"target":34963
		},
		{
			"buffer":0,
			"byteLength":888,
			"byteOffset":116460,
			"target":34962
		},
		{
			"buffer":0,
			"byteLength":888,
			"byteOffset":117348,
			"target":34962
		},
		{
			"buffer":0,
			"byteLength":592,
			"byteOffset":118236,
			"target":34962
		},
		{
			"buffer":0,
			"byteLength":1632,
			"byteOffset":118828,
			"target":34962
		},
		{
			"buffer":0,
			"byteLength":1632,
			"byteOffset":120460,
			"target":34962
		},
		{
			"buffer":0,
			"byteLength":1088,
			"byteOffset":122092,
			"target":34962
		},
		{
			"buffer":0,
			"byteLength":648,
			"byteOffset":123180,
			"target":34963
		}
	],
	"samplers":[
		{
			"magFilter":9729,
			"minFilter":9987
		}
	],
	"buffers":[
		{
			"byteLength":123828,
			"uri":"Car_1_F.bin"
		}
	]
}
