{
	"asset":{
		"generator":"Khronos glTF Blender I/O v4.1.63",
		"version":"2.0"
	},
	"extensionsUsed":[
		"EXT_texture_webp"
	],
	"scene":0,
	"scenes":[
		{
			"name":"Scene",
			"nodes":[
				0,
				1,
				2,
				3,
				4
			]
		}
	],
	"nodes":[
		{
			"mesh":0,
			"name":"Taxi_2"
		},
		{
			"mesh":1,
			"name":"RL",
			"translation":[
				1.0612541437149048,
				-0.0027376459911465645,
				0.750625729560852
			]
		},
		{
			"mesh":2,
			"name":"FL",
			"translation":[
				-0.8608261942863464,
				-0.0027376459911465645,
				0.7506259679794312
			]
		},
		{
			"mesh":3,
			"name":"RR",
			"translation":[
				1.0612540245056152,
				-0.0027376459911465645,
				-0.7506260871887207
			]
		},
		{
			"mesh":4,
			"name":"FR",
			"translation":[
				-0.8608261942863464,
				-0.0027376459911465645,
				-0.7506260871887207
			]
		}
	],
	"materials":[
		{
			"name":"City Car",
			"pbrMetallicRoughness":{
				"baseColorTexture":{
					"index":0
				},
				"metallicFactor":0.34545451402664185,
				"roughnessFactor":0.48181819915771484
			}
		},
		{
			"name":"City Metal",
			"pbrMetallicRoughness":{
				"baseColorTexture":{
					"index":1
				},
				"roughnessFactor":0.2708495557308197
			}
		},
		{
			"name":"Windows",
			"pbrMetallicRoughness":{
				"baseColorTexture":{
					"index":2
				},
				"metallicFactor":0.5454545617103577,
				"roughnessFactor":0.8727272748947144
			}
		},
		{
			"name":"City Atlas",
			"pbrMetallicRoughness":{
				"baseColorTexture":{
					"index":3
				},
				"metallicFactor":0
			}
		}
	],
	"meshes":[
		{
			"name":"Taxi_2",
			"primitives":[
				{
					"attributes":{
						"POSITION":0,
						"NORMAL":1,
						"TEXCOORD_0":2
					},
					"indices":3,
					"material":0
				},
				{
					"attributes":{
						"POSITION":4,
						"NORMAL":5,
						"TEXCOORD_0":6
					},
					"indices":7,
					"material":1
				},
				{
					"attributes":{
						"POSITION":8,
						"NORMAL":9,
						"TEXCOORD_0":10
					},
					"indices":11,
					"material":2
				},
				{
					"attributes":{
						"POSITION":12,
						"NORMAL":13,
						"TEXCOORD_0":14
					},
					"indices":15,
					"material":3
				}
			]
		},
		{
			"name":"RL",
			"primitives":[
				{
					"attributes":{
						"POSITION":16,
						"NORMAL":17,
						"TEXCOORD_0":18
					},
					"indices":19,
					"material":0
				},
				{
					"attributes":{
						"POSITION":20,
						"NORMAL":21,
						"TEXCOORD_0":22
					},
					"indices":23,
					"material":1
				}
			]
		},
		{
			"name":"FL",
			"primitives":[
				{
					"attributes":{
						"POSITION":24,
						"NORMAL":25,
						"TEXCOORD_0":26
					},
					"indices":27,
					"material":0
				},
				{
					"attributes":{
						"POSITION":28,
						"NORMAL":29,
						"TEXCOORD_0":30
					},
					"indices":31,
					"material":1
				}
			]
		},
		{
			"name":"RR",
			"primitives":[
				{
					"attributes":{
						"POSITION":32,
						"NORMAL":33,
						"TEXCOORD_0":34
					},
					"indices":35,
					"material":0
				},
				{
					"attributes":{
						"POSITION":36,
						"NORMAL":37,
						"TEXCOORD_0":38
					},
					"indices":39,
					"material":1
				}
			]
		},
		{
			"name":"FR",
			"primitives":[
				{
					"attributes":{
						"POSITION":40,
						"NORMAL":41,
						"TEXCOORD_0":42
					},
					"indices":43,
					"material":0
				},
				{
					"attributes":{
						"POSITION":44,
						"NORMAL":45,
						"TEXCOORD_0":46
					},
					"indices":39,
					"material":1
				}
			]
		}
	],
	"textures":[
		{
			"extensions":{
				"EXT_texture_webp":{
					"source":0
				}
			},
			"sampler":0,
			"source":1
		},
		{
			"extensions":{
				"EXT_texture_webp":{
					"source":0
				}
			},
			"sampler":0,
			"source":1
		},
		{
			"extensions":{
				"EXT_texture_webp":{
					"source":2
				}
			},
			"sampler":0,
			"source":3
		},
		{
			"extensions":{
				"EXT_texture_webp":{
					"source":0
				}
			},
			"sampler":0,
			"source":1
		}
	],
	"images":[
		{
			"mimeType":"image/webp",
			"name":"City Atlas Map.png",
			"uri":"City%20Atlas%20Map_png.webp"
		},
		{
			"mimeType":"image/png",
			"name":"City Atlas Map.png",
			"uri":"City%20Atlas%20Map_png.png"
		},
		{
			"mimeType":"image/webp",
			"name":"Windows",
			"uri":"Windows.webp"
		},
		{
			"mimeType":"image/png",
			"name":"Windows",
			"uri":"Windows.png"
		}
	],
	"accessors":[
		{
			"bufferView":0,
			"componentType":5126,
			"count":1239,
			"max":[
				1.6576486825942993,
				1.496982216835022,
				0.7759714722633362
			],
			"min":[
				-1.6069077253341675,
				-3.725290298461914e-09,
				-0.7759709358215332
			],
			"type":"VEC3"
		},
		{
			"bufferView":1,
			"componentType":5126,
			"count":1239,
			"type":"VEC3"
		},
		{
			"bufferView":2,
			"componentType":5126,
			"count":1239,
			"type":"VEC2"
		},
		{
			"bufferView":3,
			"componentType":5123,
			"count":2745,
			"type":"SCALAR"
		},
		{
			"bufferView":4,
			"componentType":5126,
			"count":1153,
			"max":[
				1.7090154886245728,
				1.308162808418274,
				0.8485715389251709
			],
			"min":[
				-1.6688369512557983,
				-0.033213160932064056,
				-0.8485711812973022
			],
			"type":"VEC3"
		},
		{
			"bufferView":5,
			"componentType":5126,
			"count":1153,
			"type":"VEC3"
		},
		{
			"bufferView":6,
			"componentType":5126,
			"count":1153,
			"type":"VEC2"
		},
		{
			"bufferView":7,
			"componentType":5123,
			"count":2451,
			"type":"SCALAR"
		},
		{
			"bufferView":8,
			"componentType":5126,
			"count":32,
			"max":[
				0.9794687032699585,
				1.234288215637207,
				0.6266999840736389
			],
			"min":[
				-0.5280564427375793,
				0.6958309412002563,
				-0.6266996264457703
			],
			"type":"VEC3"
		},
		{
			"bufferView":9,
			"componentType":5126,
			"count":32,
			"type":"VEC3"
		},
		{
			"bufferView":10,
			"componentType":5126,
			"count":32,
			"type":"VEC2"
		},
		{
			"bufferView":11,
			"componentType":5123,
			"count":60,
			"type":"SCALAR"
		},
		{
			"bufferView":12,
			"componentType":5126,
			"count":306,
			"max":[
				0.8614799380302429,
				1.4649159908294678,
				0.7267802953720093
			],
			"min":[
				-0.6786255836486816,
				0.2675263285636902,
				-0.7267799377441406
			],
			"type":"VEC3"
		},
		{
			"bufferView":13,
			"componentType":5126,
			"count":306,
			"type":"VEC3"
		},
		{
			"bufferView":14,
			"componentType":5126,
			"count":306,
			"type":"VEC2"
		},
		{
			"bufferView":15,
			"componentType":5123,
			"count":588,
			"type":"SCALAR"
		},
		{
			"bufferView":16,
			"componentType":5126,
			"count":130,
			"max":[
				0.26444870233535767,
				0.25150564312934875,
				0.05076718330383301
			],
			"min":[
				-0.26444894075393677,
				-0.2515057325363159,
				-0.11804795265197754
			],
			"type":"VEC3"
		},
		{
			"bufferView":17,
			"componentType":5126,
			"count":130,
			"type":"VEC3"
		},
		{
			"bufferView":18,
			"componentType":5126,
			"count":130,
			"type":"VEC2"
		},
		{
			"bufferView":19,
			"componentType":5123,
			"count":324,
			"type":"SCALAR"
		},
		{
			"bufferView":20,
			"componentType":5126,
			"count":38,
			"max":[
				0.12450987100601196,
				0.11841603368520737,
				0.0524786114692688
			],
			"min":[
				-0.12451004981994629,
				-0.11841607838869095,
				0.035467684268951416
			],
			"type":"VEC3"
		},
		{
			"bufferView":21,
			"componentType":5126,
			"count":38,
			"type":"VEC3"
		},
		{
			"bufferView":22,
			"componentType":5126,
			"count":38,
			"type":"VEC2"
		},
		{
			"bufferView":23,
			"componentType":5123,
			"count":84,
			"type":"SCALAR"
		},
		{
			"bufferView":24,
			"componentType":5126,
			"count":130,
			"max":[
				0.26444894075393677,
				0.25150564312934875,
				0.050766944885253906
			],
			"min":[
				-0.26444870233535767,
				-0.2515057325363159,
				-0.11804819107055664
			],
			"type":"VEC3"
		},
		{
			"bufferView":25,
			"componentType":5126,
			"count":130,
			"type":"VEC3"
		},
		{
			"bufferView":26,
			"componentType":5126,
			"count":130,
			"type":"VEC2"
		},
		{
			"bufferView":27,
			"componentType":5123,
			"count":324,
			"type":"SCALAR"
		},
		{
			"bufferView":28,
			"componentType":5126,
			"count":38,
			"max":[
				0.12451028823852539,
				0.11841603368520737,
				0.0524783730506897
			],
			"min":[
				-0.12450999021530151,
				-0.11841607838869095,
				0.035467445850372314
			],
			"type":"VEC3"
		},
		{
			"bufferView":29,
			"componentType":5126,
			"count":38,
			"type":"VEC3"
		},
		{
			"bufferView":30,
			"componentType":5126,
			"count":38,
			"type":"VEC2"
		},
		{
			"bufferView":31,
			"componentType":5123,
			"count":84,
			"type":"SCALAR"
		},
		{
			"bufferView":32,
			"componentType":5126,
			"count":130,
			"max":[
				0.2644488215446472,
				0.25150564312934875,
				0.11804795265197754
			],
			"min":[
				-0.2644488215446472,
				-0.2515057325363159,
				-0.05076724290847778
			],
			"type":"VEC3"
		},
		{
			"bufferView":33,
			"componentType":5126,
			"count":130,
			"type":"VEC3"
		},
		{
			"bufferView":34,
			"componentType":5126,
			"count":130,
			"type":"VEC2"
		},
		{
			"bufferView":35,
			"componentType":5123,
			"count":324,
			"type":"SCALAR"
		},
		{
			"bufferView":36,
			"componentType":5126,
			"count":30,
			"max":[
				0.12450999021530151,
				0.11841603368520737,
				-0.035467684268951416
			],
			"min":[
				-0.12450993061065674,
				-0.11841607838869095,
				-0.05247855186462402
			],
			"type":"VEC3"
		},
		{
			"bufferView":37,
			"componentType":5126,
			"count":30,
			"type":"VEC3"
		},
		{
			"bufferView":38,
			"componentType":5126,
			"count":30,
			"type":"VEC2"
		},
		{
			"bufferView":39,
			"componentType":5123,
			"count":84,
			"type":"SCALAR"
		},
		{
			"bufferView":40,
			"componentType":5126,
			"count":130,
			"max":[
				0.26444894075393677,
				0.25150564312934875,
				0.11804795265197754
			],
			"min":[
				-0.26444870233535767,
				-0.2515057325363159,
				-0.05076724290847778
			],
			"type":"VEC3"
		},
		{
			"bufferView":41,
			"componentType":5126,
			"count":130,
			"type":"VEC3"
		},
		{
			"bufferView":42,
			"componentType":5126,
			"count":130,
			"type":"VEC2"
		},
		{
			"bufferView":43,
			"componentType":5123,
			"count":324,
			"type":"SCALAR"
		},
		{
			"bufferView":44,
			"componentType":5126,
			"count":30,
			"max":[
				0.12451028823852539,
				0.11841603368520737,
				-0.035467684268951416
			],
			"min":[
				-0.12450999021530151,
				-0.11841607838869095,
				-0.05247855186462402
			],
			"type":"VEC3"
		},
		{
			"bufferView":45,
			"componentType":5126,
			"count":30,
			"type":"VEC3"
		},
		{
			"bufferView":46,
			"componentType":5126,
			"count":30,
			"type":"VEC2"
		}
	],
	"bufferViews":[
		{
			"buffer":0,
			"byteLength":14868,
			"byteOffset":0,
			"target":34962
		},
		{
			"buffer":0,
			"byteLength":14868,
			"byteOffset":14868,
			"target":34962
		},
		{
			"buffer":0,
			"byteLength":9912,
			"byteOffset":29736,
			"target":34962
		},
		{
			"buffer":0,
			"byteLength":5490,
			"byteOffset":39648,
			"target":34963
		},
		{
			"buffer":0,
			"byteLength":13836,
			"byteOffset":45140,
			"target":34962
		},
		{
			"buffer":0,
			"byteLength":13836,
			"byteOffset":58976,
			"target":34962
		},
		{
			"buffer":0,
			"byteLength":9224,
			"byteOffset":72812,
			"target":34962
		},
		{
			"buffer":0,
			"byteLength":4902,
			"byteOffset":82036,
			"target":34963
		},
		{
			"buffer":0,
			"byteLength":384,
			"byteOffset":86940,
			"target":34962
		},
		{
			"buffer":0,
			"byteLength":384,
			"byteOffset":87324,
			"target":34962
		},
		{
			"buffer":0,
			"byteLength":256,
			"byteOffset":87708,
			"target":34962
		},
		{
			"buffer":0,
			"byteLength":120,
			"byteOffset":87964,
			"target":34963
		},
		{
			"buffer":0,
			"byteLength":3672,
			"byteOffset":88084,
			"target":34962
		},
		{
			"buffer":0,
			"byteLength":3672,
			"byteOffset":91756,
			"target":34962
		},
		{
			"buffer":0,
			"byteLength":2448,
			"byteOffset":95428,
			"target":34962
		},
		{
			"buffer":0,
			"byteLength":1176,
			"byteOffset":97876,
			"target":34963
		},
		{
			"buffer":0,
			"byteLength":1560,
			"byteOffset":99052,
			"target":34962
		},
		{
			"buffer":0,
			"byteLength":1560,
			"byteOffset":100612,
			"target":34962
		},
		{
			"buffer":0,
			"byteLength":1040,
			"byteOffset":102172,
			"target":34962
		},
		{
			"buffer":0,
			"byteLength":648,
			"byteOffset":103212,
			"target":34963
		},
		{
			"buffer":0,
			"byteLength":456,
			"byteOffset":103860,
			"target":34962
		},
		{
			"buffer":0,
			"byteLength":456,
			"byteOffset":104316,
			"target":34962
		},
		{
			"buffer":0,
			"byteLength":304,
			"byteOffset":104772,
			"target":34962
		},
		{
			"buffer":0,
			"byteLength":168,
			"byteOffset":105076,
			"target":34963
		},
		{
			"buffer":0,
			"byteLength":1560,
			"byteOffset":105244,
			"target":34962
		},
		{
			"buffer":0,
			"byteLength":1560,
			"byteOffset":106804,
			"target":34962
		},
		{
			"buffer":0,
			"byteLength":1040,
			"byteOffset":108364,
			"target":34962
		},
		{
			"buffer":0,
			"byteLength":648,
			"byteOffset":109404,
			"target":34963
		},
		{
			"buffer":0,
			"byteLength":456,
			"byteOffset":110052,
			"target":34962
		},
		{
			"buffer":0,
			"byteLength":456,
			"byteOffset":110508,
			"target":34962
		},
		{
			"buffer":0,
			"byteLength":304,
			"byteOffset":110964,
			"target":34962
		},
		{
			"buffer":0,
			"byteLength":168,
			"byteOffset":111268,
			"target":34963
		},
		{
			"buffer":0,
			"byteLength":1560,
			"byteOffset":111436,
			"target":34962
		},
		{
			"buffer":0,
			"byteLength":1560,
			"byteOffset":112996,
			"target":34962
		},
		{
			"buffer":0,
			"byteLength":1040,
			"byteOffset":114556,
			"target":34962
		},
		{
			"buffer":0,
			"byteLength":648,
			"byteOffset":115596,
			"target":34963
		},
		{
			"buffer":0,
			"byteLength":360,
			"byteOffset":116244,
			"target":34962
		},
		{
			"buffer":0,
			"byteLength":360,
			"byteOffset":116604,
			"target":34962
		},
		{
			"buffer":0,
			"byteLength":240,
			"byteOffset":116964,
			"target":34962
		},
		{
			"buffer":0,
			"byteLength":168,
			"byteOffset":117204,
			"target":34963
		},
		{
			"buffer":0,
			"byteLength":1560,
			"byteOffset":117372,
			"target":34962
		},
		{
			"buffer":0,
			"byteLength":1560,
			"byteOffset":118932,
			"target":34962
		},
		{
			"buffer":0,
			"byteLength":1040,
			"byteOffset":120492,
			"target":34962
		},
		{
			"buffer":0,
			"byteLength":648,
			"byteOffset":121532,
			"target":34963
		},
		{
			"buffer":0,
			"byteLength":360,
			"byteOffset":122180,
			"target":34962
		},
		{
			"buffer":0,
			"byteLength":360,
			"byteOffset":122540,
			"target":34962
		},
		{
			"buffer":0,
			"byteLength":240,
			"byteOffset":122900,
			"target":34962
		}
	],
	"samplers":[
		{
			"magFilter":9729,
			"minFilter":9987
		}
	],
	"buffers":[
		{
			"byteLength":123140,
			"uri":"Taxi_2.bin"
		}
	]
}
