{
	"asset":{
		"generator":"Khronos glTF Blender I/O v4.1.63",
		"version":"2.0"
	},
	"extensionsUsed":[
		"EXT_texture_webp"
	],
	"scene":0,
	"scenes":[
		{
			"name":"Scene",
			"nodes":[
				0,
				1,
				2,
				3,
				4
			]
		}
	],
	"nodes":[
		{
			"mesh":0,
			"name":"Taxi_5"
		},
		{
			"mesh":1,
			"name":"RL",
			"translation":[
				1.056441068649292,
				0.014123215340077877,
				0.7177335619926453
			]
		},
		{
			"mesh":2,
			"name":"FL",
			"translation":[
				-0.864154577255249,
				0.014123215340077877,
				0.7177338004112244
			]
		},
		{
			"mesh":3,
			"name":"RR",
			"translation":[
				1.056441068649292,
				0.014123215340077877,
				-0.7177339196205139
			]
		},
		{
			"mesh":4,
			"name":"FR",
			"translation":[
				-0.864154577255249,
				0.014123215340077877,
				-0.7177339196205139
			]
		}
	],
	"materials":[
		{
			"name":"City Car",
			"pbrMetallicRoughness":{
				"baseColorTexture":{
					"index":0
				},
				"metallicFactor":0.34545451402664185,
				"roughnessFactor":0.48181819915771484
			}
		},
		{
			"name":"City Metal",
			"pbrMetallicRoughness":{
				"baseColorTexture":{
					"index":1
				},
				"roughnessFactor":0.2708495557308197
			}
		},
		{
			"name":"Windows",
			"pbrMetallicRoughness":{
				"baseColorTexture":{
					"index":2
				},
				"metallicFactor":0.5454545617103577,
				"roughnessFactor":0.8727272748947144
			}
		},
		{
			"name":"City Atlas",
			"pbrMetallicRoughness":{
				"baseColorTexture":{
					"index":3
				},
				"metallicFactor":0
			}
		}
	],
	"meshes":[
		{
			"name":"Taxi_5",
			"primitives":[
				{
					"attributes":{
						"POSITION":0,
						"NORMAL":1,
						"TEXCOORD_0":2
					},
					"indices":3,
					"material":0
				},
				{
					"attributes":{
						"POSITION":4,
						"NORMAL":5,
						"TEXCOORD_0":6
					},
					"indices":7,
					"material":1
				},
				{
					"attributes":{
						"POSITION":8,
						"NORMAL":9,
						"TEXCOORD_0":10
					},
					"indices":11,
					"material":2
				},
				{
					"attributes":{
						"POSITION":12,
						"NORMAL":13,
						"TEXCOORD_0":14
					},
					"indices":15,
					"material":3
				}
			]
		},
		{
			"name":"RL",
			"primitives":[
				{
					"attributes":{
						"POSITION":16,
						"NORMAL":17,
						"TEXCOORD_0":18
					},
					"indices":19,
					"material":0
				},
				{
					"attributes":{
						"POSITION":20,
						"NORMAL":21,
						"TEXCOORD_0":22
					},
					"indices":23,
					"material":1
				}
			]
		},
		{
			"name":"FL",
			"primitives":[
				{
					"attributes":{
						"POSITION":24,
						"NORMAL":25,
						"TEXCOORD_0":26
					},
					"indices":27,
					"material":0
				},
				{
					"attributes":{
						"POSITION":28,
						"NORMAL":29,
						"TEXCOORD_0":30
					},
					"indices":31,
					"material":1
				}
			]
		},
		{
			"name":"RR",
			"primitives":[
				{
					"attributes":{
						"POSITION":32,
						"NORMAL":33,
						"TEXCOORD_0":34
					},
					"indices":35,
					"material":0
				},
				{
					"attributes":{
						"POSITION":36,
						"NORMAL":37,
						"TEXCOORD_0":38
					},
					"indices":39,
					"material":1
				}
			]
		},
		{
			"name":"FR",
			"primitives":[
				{
					"attributes":{
						"POSITION":40,
						"NORMAL":41,
						"TEXCOORD_0":42
					},
					"indices":43,
					"material":0
				},
				{
					"attributes":{
						"POSITION":44,
						"NORMAL":45,
						"TEXCOORD_0":46
					},
					"indices":39,
					"material":1
				}
			]
		}
	],
	"textures":[
		{
			"extensions":{
				"EXT_texture_webp":{
					"source":0
				}
			},
			"sampler":0,
			"source":1
		},
		{
			"extensions":{
				"EXT_texture_webp":{
					"source":0
				}
			},
			"sampler":0,
			"source":1
		},
		{
			"extensions":{
				"EXT_texture_webp":{
					"source":2
				}
			},
			"sampler":0,
			"source":3
		},
		{
			"extensions":{
				"EXT_texture_webp":{
					"source":0
				}
			},
			"sampler":0,
			"source":1
		}
	],
	"images":[
		{
			"mimeType":"image/webp",
			"name":"City Atlas Map.png",
			"uri":"City%20Atlas%20Map_png.webp"
		},
		{
			"mimeType":"image/png",
			"name":"City Atlas Map.png",
			"uri":"City%20Atlas%20Map_png.png"
		},
		{
			"mimeType":"image/webp",
			"name":"Windows",
			"uri":"Windows.webp"
		},
		{
			"mimeType":"image/png",
			"name":"Windows",
			"uri":"Windows.png"
		}
	],
	"accessors":[
		{
			"bufferView":0,
			"componentType":5126,
			"count":1239,
			"max":[
				1.6576486825942993,
				1.8285759687423706,
				0.7759714722633362
			],
			"min":[
				-1.6069077253341675,
				0,
				-0.7759709358215332
			],
			"type":"VEC3"
		},
		{
			"bufferView":1,
			"componentType":5126,
			"count":1239,
			"type":"VEC3"
		},
		{
			"bufferView":2,
			"componentType":5126,
			"count":1239,
			"type":"VEC2"
		},
		{
			"bufferView":3,
			"componentType":5123,
			"count":2745,
			"type":"SCALAR"
		},
		{
			"bufferView":4,
			"componentType":5126,
			"count":1205,
			"max":[
				1.7090154886245728,
				1.6395846605300903,
				0.8485715389251709
			],
			"min":[
				-1.6688369512557983,
				-0.03321315720677376,
				-0.8485711812973022
			],
			"type":"VEC3"
		},
		{
			"bufferView":5,
			"componentType":5126,
			"count":1205,
			"type":"VEC3"
		},
		{
			"bufferView":6,
			"componentType":5126,
			"count":1205,
			"type":"VEC2"
		},
		{
			"bufferView":7,
			"componentType":5123,
			"count":2535,
			"type":"SCALAR"
		},
		{
			"bufferView":8,
			"componentType":5126,
			"count":32,
			"max":[
				0.9794687032699585,
				1.5525767803192139,
				0.6266999840736389
			],
			"min":[
				-0.5280564427375793,
				0.6958310008049011,
				-0.6266996264457703
			],
			"type":"VEC3"
		},
		{
			"bufferView":9,
			"componentType":5126,
			"count":32,
			"type":"VEC3"
		},
		{
			"bufferView":10,
			"componentType":5126,
			"count":32,
			"type":"VEC2"
		},
		{
			"bufferView":11,
			"componentType":5123,
			"count":60,
			"type":"SCALAR"
		},
		{
			"bufferView":12,
			"componentType":5126,
			"count":296,
			"max":[
				0.8614799380302429,
				1.7965301275253296,
				0.726459264755249
			],
			"min":[
				-0.6674971580505371,
				0.2675263285636902,
				-0.7275736331939697
			],
			"type":"VEC3"
		},
		{
			"bufferView":13,
			"componentType":5126,
			"count":296,
			"type":"VEC3"
		},
		{
			"bufferView":14,
			"componentType":5126,
			"count":296,
			"type":"VEC2"
		},
		{
			"bufferView":15,
			"componentType":5123,
			"count":588,
			"type":"SCALAR"
		},
		{
			"bufferView":16,
			"componentType":5126,
			"count":130,
			"max":[
				0.26444870233535767,
				0.25150564312934875,
				0.06016629934310913
			],
			"min":[
				-0.26444894075393677,
				-0.2515057325363159,
				-0.13990354537963867
			],
			"type":"VEC3"
		},
		{
			"bufferView":17,
			"componentType":5126,
			"count":130,
			"type":"VEC3"
		},
		{
			"bufferView":18,
			"componentType":5126,
			"count":130,
			"type":"VEC2"
		},
		{
			"bufferView":19,
			"componentType":5123,
			"count":324,
			"type":"SCALAR"
		},
		{
			"bufferView":20,
			"componentType":5126,
			"count":38,
			"max":[
				0.12450987100601196,
				0.11841603368520737,
				0.0621945895254612
			],
			"min":[
				-0.12451004981994629,
				-0.11841607838869095,
				0.04203422740101814
			],
			"type":"VEC3"
		},
		{
			"bufferView":21,
			"componentType":5126,
			"count":38,
			"type":"VEC3"
		},
		{
			"bufferView":22,
			"componentType":5126,
			"count":38,
			"type":"VEC2"
		},
		{
			"bufferView":23,
			"componentType":5123,
			"count":84,
			"type":"SCALAR"
		},
		{
			"bufferView":24,
			"componentType":5126,
			"count":130,
			"max":[
				0.26444894075393677,
				0.25150564312934875,
				0.06016601622104645
			],
			"min":[
				-0.26444870233535767,
				-0.2515057325363159,
				-0.13990382850170135
			],
			"type":"VEC3"
		},
		{
			"bufferView":25,
			"componentType":5126,
			"count":130,
			"type":"VEC3"
		},
		{
			"bufferView":26,
			"componentType":5126,
			"count":130,
			"type":"VEC2"
		},
		{
			"bufferView":27,
			"componentType":5123,
			"count":324,
			"type":"SCALAR"
		},
		{
			"bufferView":28,
			"componentType":5126,
			"count":38,
			"max":[
				0.12451028823852539,
				0.11841603368520737,
				0.062194302678108215
			],
			"min":[
				-0.12450999021530151,
				-0.11841607838869095,
				0.04203394800424576
			],
			"type":"VEC3"
		},
		{
			"bufferView":29,
			"componentType":5126,
			"count":38,
			"type":"VEC3"
		},
		{
			"bufferView":30,
			"componentType":5126,
			"count":38,
			"type":"VEC2"
		},
		{
			"bufferView":31,
			"componentType":5123,
			"count":84,
			"type":"SCALAR"
		},
		{
			"bufferView":32,
			"componentType":5126,
			"count":130,
			"max":[
				0.2644488215446472,
				0.25150564312934875,
				0.13990354537963867
			],
			"min":[
				-0.2644488215446472,
				-0.2515057325363159,
				-0.0601663701236248
			],
			"type":"VEC3"
		},
		{
			"bufferView":33,
			"componentType":5126,
			"count":130,
			"type":"VEC3"
		},
		{
			"bufferView":34,
			"componentType":5126,
			"count":130,
			"type":"VEC2"
		},
		{
			"bufferView":35,
			"componentType":5123,
			"count":324,
			"type":"SCALAR"
		},
		{
			"bufferView":36,
			"componentType":5126,
			"count":30,
			"max":[
				0.12450999021530151,
				0.11841603368520737,
				-0.04203422740101814
			],
			"min":[
				-0.12450993061065674,
				-0.11841607838869095,
				-0.062194518744945526
			],
			"type":"VEC3"
		},
		{
			"bufferView":37,
			"componentType":5126,
			"count":30,
			"type":"VEC3"
		},
		{
			"bufferView":38,
			"componentType":5126,
			"count":30,
			"type":"VEC2"
		},
		{
			"bufferView":39,
			"componentType":5123,
			"count":84,
			"type":"SCALAR"
		},
		{
			"bufferView":40,
			"componentType":5126,
			"count":130,
			"max":[
				0.26444894075393677,
				0.25150564312934875,
				0.13990354537963867
			],
			"min":[
				-0.26444870233535767,
				-0.2515057325363159,
				-0.0601663701236248
			],
			"type":"VEC3"
		},
		{
			"bufferView":41,
			"componentType":5126,
			"count":130,
			"type":"VEC3"
		},
		{
			"bufferView":42,
			"componentType":5126,
			"count":130,
			"type":"VEC2"
		},
		{
			"bufferView":43,
			"componentType":5123,
			"count":324,
			"type":"SCALAR"
		},
		{
			"bufferView":44,
			"componentType":5126,
			"count":30,
			"max":[
				0.12451028823852539,
				0.11841603368520737,
				-0.04203422740101814
			],
			"min":[
				-0.12450999021530151,
				-0.11841607838869095,
				-0.062194518744945526
			],
			"type":"VEC3"
		},
		{
			"bufferView":45,
			"componentType":5126,
			"count":30,
			"type":"VEC3"
		},
		{
			"bufferView":46,
			"componentType":5126,
			"count":30,
			"type":"VEC2"
		}
	],
	"bufferViews":[
		{
			"buffer":0,
			"byteLength":14868,
			"byteOffset":0,
			"target":34962
		},
		{
			"buffer":0,
			"byteLength":14868,
			"byteOffset":14868,
			"target":34962
		},
		{
			"buffer":0,
			"byteLength":9912,
			"byteOffset":29736,
			"target":34962
		},
		{
			"buffer":0,
			"byteLength":5490,
			"byteOffset":39648,
			"target":34963
		},
		{
			"buffer":0,
			"byteLength":14460,
			"byteOffset":45140,
			"target":34962
		},
		{
			"buffer":0,
			"byteLength":14460,
			"byteOffset":59600,
			"target":34962
		},
		{
			"buffer":0,
			"byteLength":9640,
			"byteOffset":74060,
			"target":34962
		},
		{
			"buffer":0,
			"byteLength":5070,
			"byteOffset":83700,
			"target":34963
		},
		{
			"buffer":0,
			"byteLength":384,
			"byteOffset":88772,
			"target":34962
		},
		{
			"buffer":0,
			"byteLength":384,
			"byteOffset":89156,
			"target":34962
		},
		{
			"buffer":0,
			"byteLength":256,
			"byteOffset":89540,
			"target":34962
		},
		{
			"buffer":0,
			"byteLength":120,
			"byteOffset":89796,
			"target":34963
		},
		{
			"buffer":0,
			"byteLength":3552,
			"byteOffset":89916,
			"target":34962
		},
		{
			"buffer":0,
			"byteLength":3552,
			"byteOffset":93468,
			"target":34962
		},
		{
			"buffer":0,
			"byteLength":2368,
			"byteOffset":97020,
			"target":34962
		},
		{
			"buffer":0,
			"byteLength":1176,
			"byteOffset":99388,
			"target":34963
		},
		{
			"buffer":0,
			"byteLength":1560,
			"byteOffset":100564,
			"target":34962
		},
		{
			"buffer":0,
			"byteLength":1560,
			"byteOffset":102124,
			"target":34962
		},
		{
			"buffer":0,
			"byteLength":1040,
			"byteOffset":103684,
			"target":34962
		},
		{
			"buffer":0,
			"byteLength":648,
			"byteOffset":104724,
			"target":34963
		},
		{
			"buffer":0,
			"byteLength":456,
			"byteOffset":105372,
			"target":34962
		},
		{
			"buffer":0,
			"byteLength":456,
			"byteOffset":105828,
			"target":34962
		},
		{
			"buffer":0,
			"byteLength":304,
			"byteOffset":106284,
			"target":34962
		},
		{
			"buffer":0,
			"byteLength":168,
			"byteOffset":106588,
			"target":34963
		},
		{
			"buffer":0,
			"byteLength":1560,
			"byteOffset":106756,
			"target":34962
		},
		{
			"buffer":0,
			"byteLength":1560,
			"byteOffset":108316,
			"target":34962
		},
		{
			"buffer":0,
			"byteLength":1040,
			"byteOffset":109876,
			"target":34962
		},
		{
			"buffer":0,
			"byteLength":648,
			"byteOffset":110916,
			"target":34963
		},
		{
			"buffer":0,
			"byteLength":456,
			"byteOffset":111564,
			"target":34962
		},
		{
			"buffer":0,
			"byteLength":456,
			"byteOffset":112020,
			"target":34962
		},
		{
			"buffer":0,
			"byteLength":304,
			"byteOffset":112476,
			"target":34962
		},
		{
			"buffer":0,
			"byteLength":168,
			"byteOffset":112780,
			"target":34963
		},
		{
			"buffer":0,
			"byteLength":1560,
			"byteOffset":112948,
			"target":34962
		},
		{
			"buffer":0,
			"byteLength":1560,
			"byteOffset":114508,
			"target":34962
		},
		{
			"buffer":0,
			"byteLength":1040,
			"byteOffset":116068,
			"target":34962
		},
		{
			"buffer":0,
			"byteLength":648,
			"byteOffset":117108,
			"target":34963
		},
		{
			"buffer":0,
			"byteLength":360,
			"byteOffset":117756,
			"target":34962
		},
		{
			"buffer":0,
			"byteLength":360,
			"byteOffset":118116,
			"target":34962
		},
		{
			"buffer":0,
			"byteLength":240,
			"byteOffset":118476,
			"target":34962
		},
		{
			"buffer":0,
			"byteLength":168,
			"byteOffset":118716,
			"target":34963
		},
		{
			"buffer":0,
			"byteLength":1560,
			"byteOffset":118884,
			"target":34962
		},
		{
			"buffer":0,
			"byteLength":1560,
			"byteOffset":120444,
			"target":34962
		},
		{
			"buffer":0,
			"byteLength":1040,
			"byteOffset":122004,
			"target":34962
		},
		{
			"buffer":0,
			"byteLength":648,
			"byteOffset":123044,
			"target":34963
		},
		{
			"buffer":0,
			"byteLength":360,
			"byteOffset":123692,
			"target":34962
		},
		{
			"buffer":0,
			"byteLength":360,
			"byteOffset":124052,
			"target":34962
		},
		{
			"buffer":0,
			"byteLength":240,
			"byteOffset":124412,
			"target":34962
		}
	],
	"samplers":[
		{
			"magFilter":9729,
			"minFilter":9987
		}
	],
	"buffers":[
		{
			"byteLength":124652,
			"uri":"Taxi_5.bin"
		}
	]
}
