{
	"asset":{
		"generator":"Khronos glTF Blender I/O v4.1.63",
		"version":"2.0"
	},
	"extensionsUsed":[
		"EXT_texture_webp"
	],
	"scene":0,
	"scenes":[
		{
			"name":"Scene",
			"nodes":[
				0,
				1,
				2,
				3,
				4
			]
		}
	],
	"nodes":[
		{
			"mesh":0,
			"name":"Car_14_D"
		},
		{
			"mesh":1,
			"name":"FL",
			"translation":[
				-0.6187754273414612,
				0.009606203064322472,
				0.6844437718391418
			]
		},
		{
			"mesh":2,
			"name":"RL",
			"translation":[
				0.6082201600074768,
				0.009606205858290195,
				0.684444010257721
			]
		},
		{
			"mesh":3,
			"name":"FR",
			"translation":[
				-0.6187757253646851,
				0.00960620492696762,
				-0.684444010257721
			]
		},
		{
			"mesh":4,
			"name":"RR",
			"translation":[
				0.6082201600074768,
				0.009606205858290195,
				-0.684444010257721
			]
		}
	],
	"materials":[
		{
			"name":"City Atlas",
			"pbrMetallicRoughness":{
				"baseColorTexture":{
					"index":0
				},
				"metallicFactor":0
			}
		},
		{
			"name":"City Metal",
			"pbrMetallicRoughness":{
				"baseColorTexture":{
					"index":1
				},
				"roughnessFactor":0.2708495557308197
			}
		},
		{
			"name":"City Car",
			"pbrMetallicRoughness":{
				"baseColorTexture":{
					"index":2
				},
				"metallicFactor":0.34545451402664185,
				"roughnessFactor":0.48181819915771484
			}
		},
		{
			"name":"Windows",
			"pbrMetallicRoughness":{
				"baseColorTexture":{
					"index":3
				},
				"metallicFactor":0.5454545617103577,
				"roughnessFactor":0.8727272748947144
			}
		}
	],
	"meshes":[
		{
			"name":"Car_14_D",
			"primitives":[
				{
					"attributes":{
						"POSITION":0,
						"NORMAL":1,
						"TEXCOORD_0":2
					},
					"indices":3,
					"material":0
				},
				{
					"attributes":{
						"POSITION":4,
						"NORMAL":5,
						"TEXCOORD_0":6
					},
					"indices":7,
					"material":1
				},
				{
					"attributes":{
						"POSITION":8,
						"NORMAL":9,
						"TEXCOORD_0":10
					},
					"indices":11,
					"material":2
				},
				{
					"attributes":{
						"POSITION":12,
						"NORMAL":13,
						"TEXCOORD_0":14
					},
					"indices":15,
					"material":3
				}
			]
		},
		{
			"name":"FL",
			"primitives":[
				{
					"attributes":{
						"POSITION":16,
						"NORMAL":17,
						"TEXCOORD_0":18
					},
					"indices":19,
					"material":1
				},
				{
					"attributes":{
						"POSITION":20,
						"NORMAL":21,
						"TEXCOORD_0":22
					},
					"indices":23,
					"material":2
				}
			]
		},
		{
			"name":"RL",
			"primitives":[
				{
					"attributes":{
						"POSITION":24,
						"NORMAL":25,
						"TEXCOORD_0":26
					},
					"indices":27,
					"material":1
				},
				{
					"attributes":{
						"POSITION":28,
						"NORMAL":29,
						"TEXCOORD_0":30
					},
					"indices":31,
					"material":2
				}
			]
		},
		{
			"name":"FR",
			"primitives":[
				{
					"attributes":{
						"POSITION":32,
						"NORMAL":33,
						"TEXCOORD_0":34
					},
					"indices":35,
					"material":1
				},
				{
					"attributes":{
						"POSITION":36,
						"NORMAL":37,
						"TEXCOORD_0":38
					},
					"indices":39,
					"material":2
				}
			]
		},
		{
			"name":"RR",
			"primitives":[
				{
					"attributes":{
						"POSITION":40,
						"NORMAL":41,
						"TEXCOORD_0":42
					},
					"indices":35,
					"material":1
				},
				{
					"attributes":{
						"POSITION":43,
						"NORMAL":44,
						"TEXCOORD_0":45
					},
					"indices":39,
					"material":2
				}
			]
		}
	],
	"textures":[
		{
			"extensions":{
				"EXT_texture_webp":{
					"source":0
				}
			},
			"sampler":0,
			"source":1
		},
		{
			"extensions":{
				"EXT_texture_webp":{
					"source":0
				}
			},
			"sampler":0,
			"source":1
		},
		{
			"extensions":{
				"EXT_texture_webp":{
					"source":0
				}
			},
			"sampler":0,
			"source":1
		},
		{
			"extensions":{
				"EXT_texture_webp":{
					"source":2
				}
			},
			"sampler":0,
			"source":3
		}
	],
	"images":[
		{
			"mimeType":"image/webp",
			"name":"City Atlas Map.png",
			"uri":"City%20Atlas%20Map_png.webp"
		},
		{
			"mimeType":"image/png",
			"name":"City Atlas Map.png",
			"uri":"City%20Atlas%20Map_png.png"
		},
		{
			"mimeType":"image/webp",
			"name":"Windows",
			"uri":"Windows.webp"
		},
		{
			"mimeType":"image/png",
			"name":"Windows",
			"uri":"Windows.png"
		}
	],
	"accessors":[
		{
			"bufferView":0,
			"componentType":5126,
			"count":542,
			"max":[
				1.3865326642990112,
				0.6939576864242554,
				0.7436251640319824
			],
			"min":[
				-1.3055435419082642,
				-0.00022045522928237915,
				-0.7436251044273376
			],
			"type":"VEC3"
		},
		{
			"bufferView":1,
			"componentType":5126,
			"count":542,
			"type":"VEC3"
		},
		{
			"bufferView":2,
			"componentType":5126,
			"count":542,
			"type":"VEC2"
		},
		{
			"bufferView":3,
			"componentType":5123,
			"count":1272,
			"type":"SCALAR"
		},
		{
			"bufferView":4,
			"componentType":5126,
			"count":1322,
			"max":[
				1.4468029737472534,
				1.1742888689041138,
				0.8990495204925537
			],
			"min":[
				-1.2863954305648804,
				-0.038754113018512726,
				-0.8990495204925537
			],
			"type":"VEC3"
		},
		{
			"bufferView":5,
			"componentType":5126,
			"count":1322,
			"type":"VEC3"
		},
		{
			"bufferView":6,
			"componentType":5126,
			"count":1322,
			"type":"VEC2"
		},
		{
			"bufferView":7,
			"componentType":5123,
			"count":2826,
			"type":"SCALAR"
		},
		{
			"bufferView":8,
			"componentType":5126,
			"count":606,
			"max":[
				1.4086469411849976,
				1.8554304838180542,
				0.7407321333885193
			],
			"min":[
				-1.1994839906692505,
				0.014010295271873474,
				-0.740731954574585
			],
			"type":"VEC3"
		},
		{
			"bufferView":9,
			"componentType":5126,
			"count":606,
			"type":"VEC3"
		},
		{
			"bufferView":10,
			"componentType":5126,
			"count":606,
			"type":"VEC2"
		},
		{
			"bufferView":11,
			"componentType":5123,
			"count":1329,
			"type":"SCALAR"
		},
		{
			"bufferView":12,
			"componentType":5126,
			"count":40,
			"max":[
				1.3295155763626099,
				1.625063180923462,
				0.6599246859550476
			],
			"min":[
				-0.616810142993927,
				0.8610620498657227,
				-0.6599246859550476
			],
			"type":"VEC3"
		},
		{
			"bufferView":13,
			"componentType":5126,
			"count":40,
			"type":"VEC3"
		},
		{
			"bufferView":14,
			"componentType":5126,
			"count":40,
			"type":"VEC2"
		},
		{
			"bufferView":15,
			"componentType":5123,
			"count":84,
			"type":"SCALAR"
		},
		{
			"bufferView":16,
			"componentType":5126,
			"count":70,
			"max":[
				0.13803565502166748,
				0.1312798112630844,
				0.039485275745391846
			],
			"min":[
				-0.13803601264953613,
				-0.1312798112630844,
				0.0198097825050354
			],
			"type":"VEC3"
		},
		{
			"bufferView":17,
			"componentType":5126,
			"count":70,
			"type":"VEC3"
		},
		{
			"bufferView":18,
			"componentType":5126,
			"count":70,
			"type":"VEC2"
		},
		{
			"bufferView":19,
			"componentType":5123,
			"count":204,
			"type":"SCALAR"
		},
		{
			"bufferView":20,
			"componentType":5126,
			"count":132,
			"max":[
				0.26834845542907715,
				0.2552146017551422,
				0.040053367614746094
			],
			"min":[
				-0.2683488130569458,
				-0.2552146911621094,
				-0.11634629964828491
			],
			"type":"VEC3"
		},
		{
			"bufferView":21,
			"componentType":5126,
			"count":132,
			"type":"VEC3"
		},
		{
			"bufferView":22,
			"componentType":5126,
			"count":132,
			"type":"VEC2"
		},
		{
			"bufferView":23,
			"componentType":5123,
			"count":324,
			"type":"SCALAR"
		},
		{
			"bufferView":24,
			"componentType":5126,
			"count":70,
			"max":[
				0.13803589344024658,
				0.13127979636192322,
				0.039485037326812744
			],
			"min":[
				-0.1380356252193451,
				-0.1312798261642456,
				0.0198095440864563
			],
			"type":"VEC3"
		},
		{
			"bufferView":25,
			"componentType":5126,
			"count":70,
			"type":"VEC3"
		},
		{
			"bufferView":26,
			"componentType":5126,
			"count":70,
			"type":"VEC2"
		},
		{
			"bufferView":27,
			"componentType":5123,
			"count":204,
			"type":"SCALAR"
		},
		{
			"bufferView":28,
			"componentType":5126,
			"count":132,
			"max":[
				0.2683485746383667,
				0.2552146017551422,
				0.04005312919616699
			],
			"min":[
				-0.2683485448360443,
				-0.2552146911621094,
				-0.11634653806686401
			],
			"type":"VEC3"
		},
		{
			"bufferView":29,
			"componentType":5126,
			"count":132,
			"type":"VEC3"
		},
		{
			"bufferView":30,
			"componentType":5126,
			"count":132,
			"type":"VEC2"
		},
		{
			"bufferView":31,
			"componentType":5123,
			"count":324,
			"type":"SCALAR"
		},
		{
			"bufferView":32,
			"componentType":5126,
			"count":70,
			"max":[
				0.13803595304489136,
				0.13127979636192322,
				-0.0198095440864563
			],
			"min":[
				-0.13803571462631226,
				-0.1312798261642456,
				-0.039485037326812744
			],
			"type":"VEC3"
		},
		{
			"bufferView":33,
			"componentType":5126,
			"count":70,
			"type":"VEC3"
		},
		{
			"bufferView":34,
			"componentType":5126,
			"count":70,
			"type":"VEC2"
		},
		{
			"bufferView":35,
			"componentType":5123,
			"count":204,
			"type":"SCALAR"
		},
		{
			"bufferView":36,
			"componentType":5126,
			"count":132,
			"max":[
				0.268348753452301,
				0.2552146017551422,
				0.11634653806686401
			],
			"min":[
				-0.2683485150337219,
				-0.2552146911621094,
				-0.04005312919616699
			],
			"type":"VEC3"
		},
		{
			"bufferView":37,
			"componentType":5126,
			"count":132,
			"type":"VEC3"
		},
		{
			"bufferView":38,
			"componentType":5126,
			"count":132,
			"type":"VEC2"
		},
		{
			"bufferView":39,
			"componentType":5123,
			"count":324,
			"type":"SCALAR"
		},
		{
			"bufferView":40,
			"componentType":5126,
			"count":70,
			"max":[
				0.13803589344024658,
				0.13127979636192322,
				-0.0198095440864563
			],
			"min":[
				-0.1380356252193451,
				-0.1312798261642456,
				-0.039485037326812744
			],
			"type":"VEC3"
		},
		{
			"bufferView":41,
			"componentType":5126,
			"count":70,
			"type":"VEC3"
		},
		{
			"bufferView":42,
			"componentType":5126,
			"count":70,
			"type":"VEC2"
		},
		{
			"bufferView":43,
			"componentType":5126,
			"count":132,
			"max":[
				0.2683485746383667,
				0.2552146017551422,
				0.11634653806686401
			],
			"min":[
				-0.2683485448360443,
				-0.2552146911621094,
				-0.04005312919616699
			],
			"type":"VEC3"
		},
		{
			"bufferView":44,
			"componentType":5126,
			"count":132,
			"type":"VEC3"
		},
		{
			"bufferView":45,
			"componentType":5126,
			"count":132,
			"type":"VEC2"
		}
	],
	"bufferViews":[
		{
			"buffer":0,
			"byteLength":6504,
			"byteOffset":0,
			"target":34962
		},
		{
			"buffer":0,
			"byteLength":6504,
			"byteOffset":6504,
			"target":34962
		},
		{
			"buffer":0,
			"byteLength":4336,
			"byteOffset":13008,
			"target":34962
		},
		{
			"buffer":0,
			"byteLength":2544,
			"byteOffset":17344,
			"target":34963
		},
		{
			"buffer":0,
			"byteLength":15864,
			"byteOffset":19888,
			"target":34962
		},
		{
			"buffer":0,
			"byteLength":15864,
			"byteOffset":35752,
			"target":34962
		},
		{
			"buffer":0,
			"byteLength":10576,
			"byteOffset":51616,
			"target":34962
		},
		{
			"buffer":0,
			"byteLength":5652,
			"byteOffset":62192,
			"target":34963
		},
		{
			"buffer":0,
			"byteLength":7272,
			"byteOffset":67844,
			"target":34962
		},
		{
			"buffer":0,
			"byteLength":7272,
			"byteOffset":75116,
			"target":34962
		},
		{
			"buffer":0,
			"byteLength":4848,
			"byteOffset":82388,
			"target":34962
		},
		{
			"buffer":0,
			"byteLength":2658,
			"byteOffset":87236,
			"target":34963
		},
		{
			"buffer":0,
			"byteLength":480,
			"byteOffset":89896,
			"target":34962
		},
		{
			"buffer":0,
			"byteLength":480,
			"byteOffset":90376,
			"target":34962
		},
		{
			"buffer":0,
			"byteLength":320,
			"byteOffset":90856,
			"target":34962
		},
		{
			"buffer":0,
			"byteLength":168,
			"byteOffset":91176,
			"target":34963
		},
		{
			"buffer":0,
			"byteLength":840,
			"byteOffset":91344,
			"target":34962
		},
		{
			"buffer":0,
			"byteLength":840,
			"byteOffset":92184,
			"target":34962
		},
		{
			"buffer":0,
			"byteLength":560,
			"byteOffset":93024,
			"target":34962
		},
		{
			"buffer":0,
			"byteLength":408,
			"byteOffset":93584,
			"target":34963
		},
		{
			"buffer":0,
			"byteLength":1584,
			"byteOffset":93992,
			"target":34962
		},
		{
			"buffer":0,
			"byteLength":1584,
			"byteOffset":95576,
			"target":34962
		},
		{
			"buffer":0,
			"byteLength":1056,
			"byteOffset":97160,
			"target":34962
		},
		{
			"buffer":0,
			"byteLength":648,
			"byteOffset":98216,
			"target":34963
		},
		{
			"buffer":0,
			"byteLength":840,
			"byteOffset":98864,
			"target":34962
		},
		{
			"buffer":0,
			"byteLength":840,
			"byteOffset":99704,
			"target":34962
		},
		{
			"buffer":0,
			"byteLength":560,
			"byteOffset":100544,
			"target":34962
		},
		{
			"buffer":0,
			"byteLength":408,
			"byteOffset":101104,
			"target":34963
		},
		{
			"buffer":0,
			"byteLength":1584,
			"byteOffset":101512,
			"target":34962
		},
		{
			"buffer":0,
			"byteLength":1584,
			"byteOffset":103096,
			"target":34962
		},
		{
			"buffer":0,
			"byteLength":1056,
			"byteOffset":104680,
			"target":34962
		},
		{
			"buffer":0,
			"byteLength":648,
			"byteOffset":105736,
			"target":34963
		},
		{
			"buffer":0,
			"byteLength":840,
			"byteOffset":106384,
			"target":34962
		},
		{
			"buffer":0,
			"byteLength":840,
			"byteOffset":107224,
			"target":34962
		},
		{
			"buffer":0,
			"byteLength":560,
			"byteOffset":108064,
			"target":34962
		},
		{
			"buffer":0,
			"byteLength":408,
			"byteOffset":108624,
			"target":34963
		},
		{
			"buffer":0,
			"byteLength":1584,
			"byteOffset":109032,
			"target":34962
		},
		{
			"buffer":0,
			"byteLength":1584,
			"byteOffset":110616,
			"target":34962
		},
		{
			"buffer":0,
			"byteLength":1056,
			"byteOffset":112200,
			"target":34962
		},
		{
			"buffer":0,
			"byteLength":648,
			"byteOffset":113256,
			"target":34963
		},
		{
			"buffer":0,
			"byteLength":840,
			"byteOffset":113904,
			"target":34962
		},
		{
			"buffer":0,
			"byteLength":840,
			"byteOffset":114744,
			"target":34962
		},
		{
			"buffer":0,
			"byteLength":560,
			"byteOffset":115584,
			"target":34962
		},
		{
			"buffer":0,
			"byteLength":1584,
			"byteOffset":116144,
			"target":34962
		},
		{
			"buffer":0,
			"byteLength":1584,
			"byteOffset":117728,
			"target":34962
		},
		{
			"buffer":0,
			"byteLength":1056,
			"byteOffset":119312,
			"target":34962
		}
	],
	"samplers":[
		{
			"magFilter":9729,
			"minFilter":9987
		}
	],
	"buffers":[
		{
			"byteLength":120368,
			"uri":"Car_14_D.bin"
		}
	]
}
