{
	"asset":{
		"generator":"Khronos glTF Blender I/O v4.1.63",
		"version":"2.0"
	},
	"extensionsUsed":[
		"EXT_texture_webp"
	],
	"scene":0,
	"scenes":[
		{
			"name":"Scene",
			"nodes":[
				0,
				1,
				2,
				3,
				4
			]
		}
	],
	"nodes":[
		{
			"mesh":0,
			"name":"IceTruck_2_D"
		},
		{
			"mesh":1,
			"name":"FL",
			"translation":[
				-1.4144738912582397,
				0.009606203064322472,
				0.6844437718391418
			]
		},
		{
			"mesh":2,
			"name":"RL",
			"translation":[
				1.156780481338501,
				0.009606205858290195,
				0.684444010257721
			]
		},
		{
			"mesh":3,
			"name":"FR",
			"translation":[
				-1.4144741296768188,
				0.00960620492696762,
				-0.684444010257721
			]
		},
		{
			"mesh":4,
			"name":"RR",
			"translation":[
				1.156780481338501,
				0.009606205858290195,
				-0.684444010257721
			]
		}
	],
	"materials":[
		{
			"name":"City Atlas",
			"pbrMetallicRoughness":{
				"baseColorTexture":{
					"index":0
				},
				"metallicFactor":0
			}
		},
		{
			"name":"City Metal",
			"pbrMetallicRoughness":{
				"baseColorTexture":{
					"index":1
				},
				"roughnessFactor":0.2708495557308197
			}
		},
		{
			"name":"City Car",
			"pbrMetallicRoughness":{
				"baseColorTexture":{
					"index":2
				},
				"metallicFactor":0.34545451402664185,
				"roughnessFactor":0.48181819915771484
			}
		},
		{
			"name":"Windows",
			"pbrMetallicRoughness":{
				"baseColorTexture":{
					"index":3
				},
				"metallicFactor":0.5454545617103577,
				"roughnessFactor":0.8727272748947144
			}
		}
	],
	"meshes":[
		{
			"name":"IceTruck_2_D",
			"primitives":[
				{
					"attributes":{
						"POSITION":0,
						"NORMAL":1,
						"TEXCOORD_0":2
					},
					"indices":3,
					"material":0
				},
				{
					"attributes":{
						"POSITION":4,
						"NORMAL":5,
						"TEXCOORD_0":6
					},
					"indices":7,
					"material":1
				},
				{
					"attributes":{
						"POSITION":8,
						"NORMAL":9,
						"TEXCOORD_0":10
					},
					"indices":11,
					"material":2
				},
				{
					"attributes":{
						"POSITION":12,
						"NORMAL":13,
						"TEXCOORD_0":14
					},
					"indices":15,
					"material":3
				}
			]
		},
		{
			"name":"FL",
			"primitives":[
				{
					"attributes":{
						"POSITION":16,
						"NORMAL":17,
						"TEXCOORD_0":18
					},
					"indices":19,
					"material":1
				},
				{
					"attributes":{
						"POSITION":20,
						"NORMAL":21,
						"TEXCOORD_0":22
					},
					"indices":23,
					"material":2
				}
			]
		},
		{
			"name":"RL",
			"primitives":[
				{
					"attributes":{
						"POSITION":24,
						"NORMAL":25,
						"TEXCOORD_0":26
					},
					"indices":27,
					"material":1
				},
				{
					"attributes":{
						"POSITION":28,
						"NORMAL":29,
						"TEXCOORD_0":30
					},
					"indices":31,
					"material":2
				}
			]
		},
		{
			"name":"FR",
			"primitives":[
				{
					"attributes":{
						"POSITION":32,
						"NORMAL":33,
						"TEXCOORD_0":34
					},
					"indices":35,
					"material":1
				},
				{
					"attributes":{
						"POSITION":36,
						"NORMAL":37,
						"TEXCOORD_0":38
					},
					"indices":39,
					"material":2
				}
			]
		},
		{
			"name":"RR",
			"primitives":[
				{
					"attributes":{
						"POSITION":40,
						"NORMAL":41,
						"TEXCOORD_0":42
					},
					"indices":35,
					"material":1
				},
				{
					"attributes":{
						"POSITION":43,
						"NORMAL":44,
						"TEXCOORD_0":45
					},
					"indices":39,
					"material":2
				}
			]
		}
	],
	"textures":[
		{
			"extensions":{
				"EXT_texture_webp":{
					"source":0
				}
			},
			"sampler":0,
			"source":1
		},
		{
			"extensions":{
				"EXT_texture_webp":{
					"source":0
				}
			},
			"sampler":0,
			"source":1
		},
		{
			"extensions":{
				"EXT_texture_webp":{
					"source":0
				}
			},
			"sampler":0,
			"source":1
		},
		{
			"extensions":{
				"EXT_texture_webp":{
					"source":2
				}
			},
			"sampler":0,
			"source":3
		}
	],
	"images":[
		{
			"mimeType":"image/webp",
			"name":"City Atlas Map.png",
			"uri":"City%20Atlas%20Map_png.webp"
		},
		{
			"mimeType":"image/png",
			"name":"City Atlas Map.png",
			"uri":"City%20Atlas%20Map_png.png"
		},
		{
			"mimeType":"image/webp",
			"name":"Windows",
			"uri":"Windows.webp"
		},
		{
			"mimeType":"image/png",
			"name":"Windows",
			"uri":"Windows.png"
		}
	],
	"accessors":[
		{
			"bufferView":0,
			"componentType":5126,
			"count":1167,
			"max":[
				1.9936624765396118,
				3.1840882301330566,
				0.9406321048736572
			],
			"min":[
				-2.1012420654296875,
				-0.00022045522928237915,
				-0.7436251044273376
			],
			"type":"VEC3"
		},
		{
			"bufferView":1,
			"componentType":5126,
			"count":1167,
			"type":"VEC3"
		},
		{
			"bufferView":2,
			"componentType":5126,
			"count":1167,
			"type":"VEC2"
		},
		{
			"bufferView":3,
			"componentType":5123,
			"count":2184,
			"type":"SCALAR"
		},
		{
			"bufferView":4,
			"componentType":5126,
			"count":1677,
			"max":[
				2.0539326667785645,
				2.1392884254455566,
				0.8990495204925537
			],
			"min":[
				-2.0820939540863037,
				-0.038754113018512726,
				-0.8990495204925537
			],
			"type":"VEC3"
		},
		{
			"bufferView":5,
			"componentType":5126,
			"count":1677,
			"type":"VEC3"
		},
		{
			"bufferView":6,
			"componentType":5126,
			"count":1677,
			"type":"VEC2"
		},
		{
			"bufferView":7,
			"componentType":5123,
			"count":3357,
			"type":"SCALAR"
		},
		{
			"bufferView":8,
			"componentType":5126,
			"count":591,
			"max":[
				2.0042150020599365,
				1.8877793550491333,
				0.8420584201812744
			],
			"min":[
				-1.9951823949813843,
				0.014010295271873474,
				-0.7312008142471313
			],
			"type":"VEC3"
		},
		{
			"bufferView":9,
			"componentType":5126,
			"count":591,
			"type":"VEC3"
		},
		{
			"bufferView":10,
			"componentType":5126,
			"count":591,
			"type":"VEC2"
		},
		{
			"bufferView":11,
			"componentType":5123,
			"count":1197,
			"type":"SCALAR"
		},
		{
			"bufferView":12,
			"componentType":5126,
			"count":72,
			"max":[
				1.9366455078125,
				1.7191026210784912,
				0.6966963410377502
			],
			"min":[
				-1.412508487701416,
				0.8610620498657227,
				-0.6966963410377502
			],
			"type":"VEC3"
		},
		{
			"bufferView":13,
			"componentType":5126,
			"count":72,
			"type":"VEC3"
		},
		{
			"bufferView":14,
			"componentType":5126,
			"count":72,
			"type":"VEC2"
		},
		{
			"bufferView":15,
			"componentType":5123,
			"count":156,
			"type":"SCALAR"
		},
		{
			"bufferView":16,
			"componentType":5126,
			"count":70,
			"max":[
				0.13803577423095703,
				0.1312798112630844,
				0.039485275745391846
			],
			"min":[
				-0.13803589344024658,
				-0.1312798112630844,
				0.0198097825050354
			],
			"type":"VEC3"
		},
		{
			"bufferView":17,
			"componentType":5126,
			"count":70,
			"type":"VEC3"
		},
		{
			"bufferView":18,
			"componentType":5126,
			"count":70,
			"type":"VEC2"
		},
		{
			"bufferView":19,
			"componentType":5123,
			"count":204,
			"type":"SCALAR"
		},
		{
			"bufferView":20,
			"componentType":5126,
			"count":132,
			"max":[
				0.2683485746383667,
				0.2552146017551422,
				0.040053367614746094
			],
			"min":[
				-0.26834869384765625,
				-0.2552146911621094,
				-0.11634629964828491
			],
			"type":"VEC3"
		},
		{
			"bufferView":21,
			"componentType":5126,
			"count":132,
			"type":"VEC3"
		},
		{
			"bufferView":22,
			"componentType":5126,
			"count":132,
			"type":"VEC2"
		},
		{
			"bufferView":23,
			"componentType":5123,
			"count":324,
			"type":"SCALAR"
		},
		{
			"bufferView":24,
			"componentType":5126,
			"count":70,
			"max":[
				0.13803589344024658,
				0.13127979636192322,
				0.039485037326812744
			],
			"min":[
				-0.13803589344024658,
				-0.1312798261642456,
				0.0198095440864563
			],
			"type":"VEC3"
		},
		{
			"bufferView":25,
			"componentType":5126,
			"count":70,
			"type":"VEC3"
		},
		{
			"bufferView":26,
			"componentType":5126,
			"count":70,
			"type":"VEC2"
		},
		{
			"bufferView":27,
			"componentType":5123,
			"count":204,
			"type":"SCALAR"
		},
		{
			"bufferView":28,
			"componentType":5126,
			"count":132,
			"max":[
				0.26834845542907715,
				0.2552146017551422,
				0.04005312919616699
			],
			"min":[
				-0.268348753452301,
				-0.2552146911621094,
				-0.11634653806686401
			],
			"type":"VEC3"
		},
		{
			"bufferView":29,
			"componentType":5126,
			"count":132,
			"type":"VEC3"
		},
		{
			"bufferView":30,
			"componentType":5126,
			"count":132,
			"type":"VEC2"
		},
		{
			"bufferView":31,
			"componentType":5123,
			"count":324,
			"type":"SCALAR"
		},
		{
			"bufferView":32,
			"componentType":5126,
			"count":70,
			"max":[
				0.13803601264953613,
				0.13127979636192322,
				-0.0198095440864563
			],
			"min":[
				-0.13803565502166748,
				-0.1312798261642456,
				-0.039485037326812744
			],
			"type":"VEC3"
		},
		{
			"bufferView":33,
			"componentType":5126,
			"count":70,
			"type":"VEC3"
		},
		{
			"bufferView":34,
			"componentType":5126,
			"count":70,
			"type":"VEC2"
		},
		{
			"bufferView":35,
			"componentType":5123,
			"count":204,
			"type":"SCALAR"
		},
		{
			"bufferView":36,
			"componentType":5126,
			"count":132,
			"max":[
				0.2683488130569458,
				0.2552146017551422,
				0.11634653806686401
			],
			"min":[
				-0.26834845542907715,
				-0.2552146911621094,
				-0.04005312919616699
			],
			"type":"VEC3"
		},
		{
			"bufferView":37,
			"componentType":5126,
			"count":132,
			"type":"VEC3"
		},
		{
			"bufferView":38,
			"componentType":5126,
			"count":132,
			"type":"VEC2"
		},
		{
			"bufferView":39,
			"componentType":5123,
			"count":324,
			"type":"SCALAR"
		},
		{
			"bufferView":40,
			"componentType":5126,
			"count":70,
			"max":[
				0.13803589344024658,
				0.13127979636192322,
				-0.0198095440864563
			],
			"min":[
				-0.13803589344024658,
				-0.1312798261642456,
				-0.039485037326812744
			],
			"type":"VEC3"
		},
		{
			"bufferView":41,
			"componentType":5126,
			"count":70,
			"type":"VEC3"
		},
		{
			"bufferView":42,
			"componentType":5126,
			"count":70,
			"type":"VEC2"
		},
		{
			"bufferView":43,
			"componentType":5126,
			"count":132,
			"max":[
				0.26834845542907715,
				0.2552146017551422,
				0.11634653806686401
			],
			"min":[
				-0.268348753452301,
				-0.2552146911621094,
				-0.04005312919616699
			],
			"type":"VEC3"
		},
		{
			"bufferView":44,
			"componentType":5126,
			"count":132,
			"type":"VEC3"
		},
		{
			"bufferView":45,
			"componentType":5126,
			"count":132,
			"type":"VEC2"
		}
	],
	"bufferViews":[
		{
			"buffer":0,
			"byteLength":14004,
			"byteOffset":0,
			"target":34962
		},
		{
			"buffer":0,
			"byteLength":14004,
			"byteOffset":14004,
			"target":34962
		},
		{
			"buffer":0,
			"byteLength":9336,
			"byteOffset":28008,
			"target":34962
		},
		{
			"buffer":0,
			"byteLength":4368,
			"byteOffset":37344,
			"target":34963
		},
		{
			"buffer":0,
			"byteLength":20124,
			"byteOffset":41712,
			"target":34962
		},
		{
			"buffer":0,
			"byteLength":20124,
			"byteOffset":61836,
			"target":34962
		},
		{
			"buffer":0,
			"byteLength":13416,
			"byteOffset":81960,
			"target":34962
		},
		{
			"buffer":0,
			"byteLength":6714,
			"byteOffset":95376,
			"target":34963
		},
		{
			"buffer":0,
			"byteLength":7092,
			"byteOffset":102092,
			"target":34962
		},
		{
			"buffer":0,
			"byteLength":7092,
			"byteOffset":109184,
			"target":34962
		},
		{
			"buffer":0,
			"byteLength":4728,
			"byteOffset":116276,
			"target":34962
		},
		{
			"buffer":0,
			"byteLength":2394,
			"byteOffset":121004,
			"target":34963
		},
		{
			"buffer":0,
			"byteLength":864,
			"byteOffset":123400,
			"target":34962
		},
		{
			"buffer":0,
			"byteLength":864,
			"byteOffset":124264,
			"target":34962
		},
		{
			"buffer":0,
			"byteLength":576,
			"byteOffset":125128,
			"target":34962
		},
		{
			"buffer":0,
			"byteLength":312,
			"byteOffset":125704,
			"target":34963
		},
		{
			"buffer":0,
			"byteLength":840,
			"byteOffset":126016,
			"target":34962
		},
		{
			"buffer":0,
			"byteLength":840,
			"byteOffset":126856,
			"target":34962
		},
		{
			"buffer":0,
			"byteLength":560,
			"byteOffset":127696,
			"target":34962
		},
		{
			"buffer":0,
			"byteLength":408,
			"byteOffset":128256,
			"target":34963
		},
		{
			"buffer":0,
			"byteLength":1584,
			"byteOffset":128664,
			"target":34962
		},
		{
			"buffer":0,
			"byteLength":1584,
			"byteOffset":130248,
			"target":34962
		},
		{
			"buffer":0,
			"byteLength":1056,
			"byteOffset":131832,
			"target":34962
		},
		{
			"buffer":0,
			"byteLength":648,
			"byteOffset":132888,
			"target":34963
		},
		{
			"buffer":0,
			"byteLength":840,
			"byteOffset":133536,
			"target":34962
		},
		{
			"buffer":0,
			"byteLength":840,
			"byteOffset":134376,
			"target":34962
		},
		{
			"buffer":0,
			"byteLength":560,
			"byteOffset":135216,
			"target":34962
		},
		{
			"buffer":0,
			"byteLength":408,
			"byteOffset":135776,
			"target":34963
		},
		{
			"buffer":0,
			"byteLength":1584,
			"byteOffset":136184,
			"target":34962
		},
		{
			"buffer":0,
			"byteLength":1584,
			"byteOffset":137768,
			"target":34962
		},
		{
			"buffer":0,
			"byteLength":1056,
			"byteOffset":139352,
			"target":34962
		},
		{
			"buffer":0,
			"byteLength":648,
			"byteOffset":140408,
			"target":34963
		},
		{
			"buffer":0,
			"byteLength":840,
			"byteOffset":141056,
			"target":34962
		},
		{
			"buffer":0,
			"byteLength":840,
			"byteOffset":141896,
			"target":34962
		},
		{
			"buffer":0,
			"byteLength":560,
			"byteOffset":142736,
			"target":34962
		},
		{
			"buffer":0,
			"byteLength":408,
			"byteOffset":143296,
			"target":34963
		},
		{
			"buffer":0,
			"byteLength":1584,
			"byteOffset":143704,
			"target":34962
		},
		{
			"buffer":0,
			"byteLength":1584,
			"byteOffset":145288,
			"target":34962
		},
		{
			"buffer":0,
			"byteLength":1056,
			"byteOffset":146872,
			"target":34962
		},
		{
			"buffer":0,
			"byteLength":648,
			"byteOffset":147928,
			"target":34963
		},
		{
			"buffer":0,
			"byteLength":840,
			"byteOffset":148576,
			"target":34962
		},
		{
			"buffer":0,
			"byteLength":840,
			"byteOffset":149416,
			"target":34962
		},
		{
			"buffer":0,
			"byteLength":560,
			"byteOffset":150256,
			"target":34962
		},
		{
			"buffer":0,
			"byteLength":1584,
			"byteOffset":150816,
			"target":34962
		},
		{
			"buffer":0,
			"byteLength":1584,
			"byteOffset":152400,
			"target":34962
		},
		{
			"buffer":0,
			"byteLength":1056,
			"byteOffset":153984,
			"target":34962
		}
	],
	"samplers":[
		{
			"magFilter":9729,
			"minFilter":9987
		}
	],
	"buffers":[
		{
			"byteLength":155040,
			"uri":"IceTruck_2_D.bin"
		}
	]
}
