# Blender 4.1.1
# www.blender.org
mtllib cGround_A_Under_1.mtl
o cGround_A_Under_1
v 4.999987 0.000000 -16.000004
v -4.999997 0.000000 -15.999996
v 4.999997 0.000000 15.999996
v -4.999987 0.000000 16.000002
v -4.999992 0.000000 0.000003
v 0.000005 0.000000 15.999999
v 4.999992 0.000000 -0.000004
v -0.000005 0.000000 -16.000000
v 0.541360 0.426938 0.226554
v -4.999990 0.000000 8.000002
v 2.500001 0.000000 15.999998
v 4.999990 0.000000 -8.000004
v -2.500001 0.000000 -15.999998
v -4.999994 0.000000 -7.999997
v -2.499991 0.000000 16.000000
v 4.999994 0.000000 7.999996
v 2.499991 0.000000 -16.000002
v 2.672240 0.221857 -0.717611
v -3.192289 -0.478510 -0.909042
v 0.347275 0.409833 -9.102819
v -0.509656 -0.396592 7.737646
v -2.835397 -0.246358 7.692961
v -2.809660 -0.384199 -8.175706
v 2.499994 0.000000 -8.000002
v 2.957525 0.388187 7.940251
v -4.999988 0.000000 12.000002
v 3.749999 0.000000 15.999997
v 4.999988 0.000000 -12.000004
v -3.749999 0.000000 -15.999997
v -4.999993 0.000000 -3.999997
v -1.249993 0.000000 16.000000
v 4.999993 0.000000 3.999996
v 1.249993 0.000000 -16.000000
v 3.836116 0.110928 -0.358807
v -1.325464 -0.025786 -0.341244
v 0.173635 0.204916 -12.551410
v 0.015852 0.015173 3.982100
v -4.999990 0.000000 4.000002
v 1.250003 0.000000 15.999998
v 4.999990 0.000000 -4.000004
v -1.250003 0.000000 -15.999999
v -4.999996 0.000000 -11.999996
v -3.749989 0.000000 16.000000
v 4.999996 0.000000 11.999996
v 3.749989 0.000000 -16.000004
v 1.062392 -0.065497 -0.581335
v -4.096141 -0.239255 -0.454520
v 0.444318 0.418386 -4.438133
v -0.254825 -0.198296 11.868822
v -1.672527 -0.321475 7.715303
v -3.917693 -0.123179 7.846481
v -3.013843 -0.362434 3.391960
v -2.739092 -0.232420 11.278737
v -1.048006 0.204917 -9.434081
v -4.054576 -0.387577 -8.420174
v -2.500000 0.000000 -11.999998
v -2.846144 -0.239255 -4.454520
v 3.749991 0.000000 -8.000003
v 1.423634 0.204916 -8.551411
v 2.499992 0.000000 -12.000002
v 2.212279 -0.161363 -4.242827
v 3.704481 -0.002063 7.780005
v 1.073174 -0.238593 6.545043
v 2.814883 0.305022 3.611320
v 2.728763 0.194094 11.970124
v 1.594178 0.467916 12.805288
v 1.415367 0.160098 3.796710
v 3.563552 -0.092974 3.532866
v 1.515217 0.264657 -4.398470
v 1.336813 0.102458 -12.275705
v 4.021197 0.324238 -12.159095
v -3.923069 -0.119627 -4.227259
v -3.965788 -0.263211 -12.006953
v -0.919565 0.367062 -13.099428
v -3.984261 -0.274803 11.159662
v -4.006917 -0.181217 3.695981
v -1.498996 -0.173630 3.687030
v -1.096906 0.314953 12.665991
v -1.200913 0.089565 -4.446327
v 3.229115 -0.354964 -4.029275
v 3.864379 0.097047 11.985060
vn 0.0406 0.9991 0.0127
vn -0.0756 0.9956 -0.0545
vn -0.2190 0.9757 0.0112
vn 0.2425 0.9701 0.0119
vn -0.0503 0.9965 0.0671
vn 0.1397 0.9899 -0.0248
vn -0.0145 0.9985 -0.0523
vn -0.0151 0.9999 -0.0059
vn -0.1034 0.9927 0.0626
vn 0.1986 0.9781 0.0621
vn 0.1407 0.9891 0.0440
vn 0.1413 0.9899 -0.0147
vn 0.0601 0.9982 -0.0073
vn -0.0321 0.9994 -0.0105
vn -0.2413 0.9698 0.0364
vn 0.1486 0.9836 0.1019
vn -0.1075 0.9931 -0.0464
vn -0.2377 0.9690 -0.0666
vn -0.2196 0.9750 0.0332
vn -0.1449 0.9891 -0.0268
vn 0.1913 0.9812 0.0265
vn -0.0465 0.9920 0.1174
vn -0.0013 0.9997 0.0258
vn 0.2546 0.9669 0.0182
vn 0.4618 0.8863 -0.0333
vn 0.3279 0.9445 0.0203
vn 0.1677 0.9858 -0.0112
vn 0.3968 0.9165 0.0514
vn 0.0440 0.9989 -0.0137
vn 0.0475 0.9979 -0.0445
vn 0.1531 0.9870 -0.0479
vn 0.1470 0.9881 -0.0459
vn -0.1182 0.9923 -0.0369
vn -0.1141 0.9928 0.0357
vn 0.0503 0.9973 -0.0526
vn 0.2324 0.9720 -0.0355
vn 0.1847 0.9826 0.0192
vn -0.0965 0.9949 0.0302
vn 0.1145 0.9928 0.0358
vn 0.3160 0.9486 0.0192
vn 0.0912 0.9911 -0.0965
vn -0.1459 0.9883 -0.0456
vn -0.2373 0.9698 0.0569
vn 0.0350 0.9992 0.0198
vn 0.1964 0.9803 0.0221
vn 0.1080 0.9936 -0.0337
vn 0.2061 0.9782 -0.0267
vn 0.2129 0.9770 -0.0093
vn 0.1433 0.9896 -0.0086
vn -0.1990 0.9786 0.0525
vn -0.1873 0.9823 0.0039
vn -0.0429 0.9991 0.0038
vn 0.2403 0.9644 -0.1106
vn -0.1339 0.9889 -0.0648
vn -0.1915 0.9814 0.0121
vn -0.1740 0.9847 0.0099
vn -0.2632 0.9647 -0.0090
vn -0.2220 0.9745 0.0315
vn -0.1170 0.9925 0.0366
vn 0.0779 0.9942 0.0746
vn 0.1731 0.9748 -0.1407
vn 0.0403 0.9991 -0.0129
vn 0.2515 0.9678 0.0133
vn 0.0404 0.9985 0.0379
vt 0.487486 0.586577
vt 0.487486 0.585889
vt 0.487487 0.585889
vt 0.487486 0.583371
vt 0.487486 0.586676
vt 0.487486 0.586524
vt 0.487486 0.585706
vt 0.487486 0.588918
vt 0.487486 0.588857
vt 0.487486 0.588123
vt 0.487486 0.585889
vt 0.487486 0.585889
vt 0.487486 0.584482
vt 0.487486 0.584657
vt 0.487486 0.583608
vt 0.487486 0.583075
vt 0.487486 0.585997
vt 0.487486 0.584603
vt 0.487486 0.585015
vt 0.487486 0.584141
vt 0.487486 0.583318
vt 0.487486 0.583939
vt 0.487486 0.585889
vt 0.487486 0.585889
vt 0.487486 0.584240
vt 0.487486 0.588493
vt 0.487486 0.587343
vt 0.487486 0.588796
vt 0.487486 0.587343
vt 0.487486 0.584022
vt 0.487486 0.583139
vt 0.487486 0.583163
vt 0.487486 0.585040
vt 0.487486 0.584192
vt 0.487486 0.582494
vt 0.487486 0.584192
vt 0.487486 0.588189
vt 0.487486 0.586616
vt 0.487486 0.587343
vt 0.487486 0.585889
vt 0.487486 0.587766
vt 0.487486 0.585424
vt 0.487486 0.587463
vt 0.487486 0.584744
vt 0.487486 0.585229
vt 0.487486 0.585874
vt 0.487486 0.587025
vt 0.487486 0.584196
vt 0.487486 0.588643
vt 0.487486 0.588053
vt 0.487486 0.589208
vt 0.487486 0.585889
vt 0.487486 0.587266
vt 0.487486 0.585889
s 0
usemtl City_Atlas
f 81/1/1 27/2/1 3/3/1 44/3/1
f 80/4/2 34/5/2 7/3/2 40/3/2
f 79/6/3 35/7/3 9/8/3 48/9/3
f 78/10/4 31/11/4 6/12/4 49/13/4
f 77/14/5 50/15/5 21/16/5 37/17/5
f 76/18/6 51/19/6 22/20/6 52/21/6
f 75/22/7 43/23/7 15/24/7 53/25/7
f 74/26/8 54/27/8 20/28/8 36/29/8
f 73/30/9 55/31/9 23/32/9 56/24/9
f 72/33/10 47/34/10 19/35/10 57/36/10
f 71/37/11 58/2/11 12/3/11 28/3/11
f 70/38/12 59/39/12 24/40/12 60/40/12
f 69/41/13 46/42/13 18/43/13 61/44/13
f 68/45/14 62/46/14 16/3/14 32/3/14
f 67/47/15 63/48/15 25/49/15 64/50/15
f 66/51/16 39/52/16 11/40/16 65/53/16
f 63/48/17 66/51/17 65/53/17 25/49/17
f 21/16/18 49/13/18 66/51/18 63/48/18
f 49/13/19 6/12/19 39/52/19 66/51/19
f 46/42/20 67/47/20 64/50/20 18/43/20
f 9/8/21 37/17/21 67/47/21 46/42/21
f 37/17/22 21/16/22 63/48/22 67/47/22
f 34/5/23 68/45/23 32/3/23 7/3/23
f 18/43/24 64/50/24 68/45/24 34/5/24
f 64/50/25 25/49/25 62/46/25 68/45/25
f 59/39/26 69/41/26 61/44/26 24/40/26
f 20/28/27 48/9/27 69/41/27 59/39/27
f 48/9/28 9/8/28 46/42/28 69/41/28
f 33/52/29 70/38/29 60/40/29 17/40/29
f 8/12/30 36/29/30 70/38/30 33/52/30
f 36/29/31 20/28/31 59/39/31 70/38/31
f 45/2/32 71/37/32 28/3/32 1/3/32
f 17/40/33 60/40/33 71/37/33 45/2/33
f 60/40/34 24/40/34 58/2/34 71/37/34
f 55/31/35 72/33/35 57/36/35 23/32/35
f 14/54/36 30/54/36 72/33/36 55/31/36
f 30/54/37 5/54/37 47/34/37 72/33/37
f 29/23/38 73/30/38 56/24/38 13/24/38
f 2/54/39 42/54/39 73/30/39 29/23/39
f 42/54/40 14/54/40 55/31/40 73/30/40
f 41/11/41 74/26/41 36/29/41 8/12/41
f 13/24/42 56/24/42 74/26/42 41/11/42
f 56/24/43 23/32/43 54/27/43 74/26/43
f 51/19/44 75/22/44 53/25/44 22/20/44
f 10/54/45 26/54/45 75/22/45 51/19/45
f 26/54/46 4/54/46 43/23/46 75/22/46
f 47/34/47 76/18/47 52/21/47 19/35/47
f 5/54/48 38/54/48 76/18/48 47/34/48
f 38/54/49 10/54/49 51/19/49 76/18/49
f 35/7/50 77/14/50 37/17/50 9/8/50
f 19/35/51 52/21/51 77/14/51 35/7/51
f 52/21/52 22/20/52 50/15/52 77/14/52
f 50/15/53 78/10/53 49/13/53 21/16/53
f 22/20/54 53/25/54 78/10/54 50/15/54
f 53/25/55 15/24/55 31/11/55 78/10/55
f 54/27/56 79/6/56 48/9/56 20/28/56
f 23/32/57 57/36/57 79/6/57 54/27/57
f 57/36/58 19/35/58 35/7/58 79/6/58
f 58/2/59 80/4/59 40/3/59 12/3/59
f 24/40/60 61/44/60 80/4/60 58/2/60
f 61/44/61 18/43/61 34/5/61 80/4/61
f 62/46/62 81/1/62 44/3/62 16/3/62
f 25/49/63 65/53/63 81/1/63 62/46/63
f 65/53/64 11/40/64 27/2/64 81/1/64
