# Blender 4.1.1
# www.blender.org
mtllib cGround_A_Side_3.mtl
o cGround_A_Side_3
v -0.000001 0.000000 -3.998029
v 0.000002 0.000001 4.001970
v 4.000000 3.191080 -3.998031
v 0.000000 0.000001 -1.998029
v 0.000001 0.000001 0.001970
v 0.000002 0.000001 2.001970
v 4.000000 3.191080 -1.998031
v 4.000001 3.191081 0.001969
v 4.000001 3.191081 2.001968
v 4.000002 3.191081 4.001968
v 0.499999 0.797770 -3.998029
v 1.500000 2.393310 -3.998030
v 1.000002 1.595541 4.001970
v 0.999999 1.595540 -3.998029
v 1.275995 2.236839 -1.933939
v 0.796247 1.311276 -2.041726
v 0.500000 0.797771 -1.998030
v 1.199203 2.186099 0.090117
v 1.000001 1.595541 0.001970
v 0.684600 0.903119 -0.067803
v 1.093890 2.218984 1.717849
v 0.897731 1.532097 2.036975
v 0.231776 0.657129 2.112284
v 1.500002 2.393311 4.001969
v 0.500002 0.797771 4.001970
v 3.333336 3.191081 4.001968
v 2.666666 3.191080 -3.998030
v 2.666669 3.191081 4.001969
v 2.784788 3.232826 1.938882
v 3.475570 3.266123 1.943804
v 2.540630 3.144300 0.067677
v 3.333334 3.191081 0.001969
v 2.641911 3.397980 -1.829850
v 3.468593 3.379394 -1.969305
v 3.333333 3.191080 -3.998030
v 1.844584 2.943105 4.001969
v 2.267379 3.191080 -3.998030
v 1.839500 2.934997 -3.998030
v 2.272803 3.279009 -1.926556
v 1.819730 2.953484 -1.982072
v 2.203912 3.125797 0.040978
v 1.727606 2.876362 0.035724
v 1.754655 2.913805 1.924918
v 2.258819 3.167325 1.971111
v 2.303605 3.191081 4.001969
v -0.457175 1.929603 -0.916690
v -0.457174 1.477390 -0.464477
v -0.457174 0.837866 -0.464477
v -0.457175 0.385653 -0.916690
v -0.457175 0.385653 -1.556214
v -0.457175 0.837865 -2.008427
v -0.457175 1.477390 -2.008427
v -0.457175 1.929603 -1.556215
v 1.544503 1.929603 -0.916691
v 1.544504 1.477391 -0.464478
v 1.544504 0.837866 -0.464479
v 1.544504 0.385653 -0.916691
v 1.544503 0.385653 -1.556216
v 1.544503 0.837866 -2.008428
v 1.544503 1.477391 -2.008428
v 1.544503 1.929604 -1.556216
v -0.457175 1.699772 -1.011888
v -0.457175 1.382191 -0.694308
v -0.457175 0.933065 -0.694308
v -0.457175 0.615483 -1.011889
v -0.457175 0.615483 -1.461015
v -0.457175 0.933064 -1.778596
v -0.457175 1.382192 -1.778596
v -0.457175 1.699772 -1.461016
v 0.341102 1.699773 -1.011889
v 0.341102 1.382192 -0.694309
v 0.341102 0.933065 -0.694309
v 0.341102 0.615484 -1.011889
v 0.341101 0.615484 -1.461016
v 0.341101 0.933065 -1.778597
v 0.341101 1.382192 -1.778597
v 0.341101 1.699773 -1.461016
v -0.006906 1.929603 -1.556215
v -0.006905 1.929603 -0.916690
v -0.006906 0.837866 -2.008427
v -0.006906 1.477390 -2.008427
v -0.006905 0.385653 -0.916690
v -0.006906 0.385653 -1.556215
v -0.006905 1.477391 -0.464477
v -0.006905 0.837866 -0.464478
v -0.379632 1.514869 -0.373997
v -0.379633 2.020083 -0.879211
v -0.379632 0.800388 -0.373997
v -0.379633 0.295173 -0.879211
v -0.379633 0.295173 -1.593692
v -0.379634 0.800387 -2.098907
v -0.379634 1.514868 -2.098907
v -0.379633 2.020083 -1.593693
v -0.084447 2.020083 -0.879212
v -0.084448 1.514868 -2.098907
v -0.084448 0.295173 -1.593693
v -0.084447 0.800388 -0.373998
v -0.084448 2.020083 -1.593693
v -0.084448 0.800387 -2.098907
v -0.084447 0.295173 -0.879211
v -0.084447 1.514869 -0.373997
v -0.457174 1.929603 1.329530
v -0.457174 1.477391 1.781742
v -0.457173 0.837866 1.781742
v -0.457174 0.385653 1.329530
v -0.457174 0.385653 0.690005
v -0.457174 0.837866 0.237793
v -0.457175 1.477390 0.237793
v -0.457174 1.929603 0.690005
v 1.544504 1.929603 1.329529
v 1.544505 1.477391 1.781741
v 1.544505 0.837866 1.781741
v 1.544505 0.385654 1.329529
v 1.544504 0.385654 0.690004
v 1.544504 0.837866 0.237791
v 1.544504 1.477391 0.237791
v 1.544504 1.929604 0.690004
v -0.457174 1.699772 1.234331
v -0.457174 1.382192 1.551912
v -0.457174 0.933065 1.551912
v -0.457174 0.615484 1.234331
v -0.457174 0.615484 0.785204
v -0.457174 0.933065 0.467623
v -0.457174 1.382192 0.467623
v -0.457174 1.699772 0.785204
v 0.341102 1.699773 1.234330
v 0.341103 1.382192 1.551911
v 0.341103 0.933065 1.551911
v 0.341103 0.615484 1.234330
v 0.341102 0.615484 0.785203
v 0.341102 0.933065 0.467622
v 0.341102 1.382192 0.467622
v 0.341102 1.699773 0.785203
v -0.006905 1.929603 0.690005
v -0.006905 1.929603 1.329530
v -0.006905 0.837866 0.237792
v -0.006905 1.477391 0.237792
v -0.006905 0.385653 1.329530
v -0.006905 0.385653 0.690005
v -0.006904 1.477391 1.781742
v -0.006904 0.837866 1.781742
v -0.379632 1.514869 1.872223
v -0.379632 2.020083 1.367008
v -0.379632 0.800388 1.872222
v -0.379632 0.295173 1.367008
v -0.379632 0.295173 0.652527
v -0.379633 0.800388 0.147313
v -0.379633 1.514868 0.147313
v -0.379633 2.020083 0.652527
v -0.084447 2.020083 1.367008
v -0.084447 1.514869 0.147312
v -0.084447 0.295173 0.652527
v -0.084446 0.800388 1.872222
v -0.084447 2.020083 0.652527
v -0.084447 0.800388 0.147312
v -0.084446 0.295173 1.367008
v -0.084446 1.514869 1.872222
vn 0.0167 0.9996 0.0238
vn 0.0619 0.9979 0.0206
vn 0.0628 0.9980 0.0011
vn 0.0138 0.9999 -0.0033
vn 0.1103 0.9938 0.0154
vn 0.0382 0.9988 0.0294
vn 0.1552 0.9879 -0.0013
vn 0.1036 0.9941 -0.0310
vn 0.1539 0.9868 -0.0513
vn 0.0758 0.9944 -0.0737
vn -0.8473 0.5311 -0.0000
vn -0.8339 0.5517 0.0116
vn -0.8335 0.5523 0.0119
vn -0.8199 0.5720 0.0232
vn -0.8598 0.5066 -0.0633
vn -0.8769 0.4804 -0.0144
vn -0.8597 0.5108 -0.0061
vn -0.8938 0.4461 0.0455
vn -0.8551 0.5163 0.0472
vn -0.8695 0.4939 0.0034
vn -0.8810 0.4730 0.0089
vn -0.8609 0.5044 0.0663
vn -0.8954 0.4376 0.0826
vn -0.0734 0.9973 0.0031
vn -0.0499 0.9986 0.0145
vn -0.0616 0.9981 -0.0088
vn -0.0850 0.9963 -0.0114
vn -0.8697 0.4930 -0.0244
vn -0.9345 0.3555 -0.0201
vn -0.8455 0.5291 -0.0725
vn -0.0930 0.9951 0.0325
vn -0.1547 0.9873 0.0365
vn -0.8531 0.5215 -0.0186
vn -0.8900 0.4557 -0.0180
vn -0.8732 0.4870 0.0170
vn -0.8743 0.4850 0.0185
vn -0.8914 0.4512 0.0429
vn -0.2061 0.9741 0.0935
vn -0.8422 0.5382 -0.0335
vn -0.8677 0.4957 -0.0380
vn -0.8548 0.5189 -0.0067
vn -0.1441 0.9871 -0.0693
vn -0.8187 0.5735 -0.0295
vn -0.8080 0.5887 -0.0222
vn 0.0036 0.9956 -0.0938
vn -0.7776 0.6284 -0.0216
vn -0.0029 0.9936 0.1133
vn -0.7719 0.6354 0.0220
vn -0.7814 0.6212 0.0599
vn -0.5498 0.8350 -0.0237
vn -0.5392 0.8422 0.0010
vn -0.5382 0.8428 0.0033
vn -0.4919 0.8706 0.0095
vn -0.4923 0.8704 0.0097
vn -0.4588 0.8885 -0.0029
vn -0.4592 0.8883 -0.0020
vn -0.4620 0.8869 0.0037
vn -0.0000 0.9239 0.3827
vn -0.0000 0.9239 -0.3827
vn -0.0000 0.3827 -0.9239
vn -0.0000 -0.3827 -0.9239
vn -0.0000 -0.9239 -0.3827
vn -0.0000 -0.9239 0.3827
vn -0.0000 -0.3827 0.9239
vn -0.0000 0.3827 0.9239
vn -1.0000 -0.0000 -0.0000
vn -0.7840 0.2376 -0.5735
vn -0.7840 0.5735 -0.2376
vn 0.7840 0.2376 0.5735
vn 0.7840 0.5735 0.2376
vn -0.7840 -0.2376 -0.5735
vn 0.7840 0.5735 -0.2376
vn -0.7840 -0.5735 -0.2376
vn 0.7840 0.2376 -0.5735
vn 0.7840 -0.2376 -0.5735
vn -0.7840 -0.5735 0.2376
vn 0.7840 -0.5735 -0.2376
vn 0.7840 -0.5735 0.2376
vn 0.7840 -0.2376 0.5735
vn -0.7840 0.5735 0.2376
vn -0.7840 0.2376 0.5735
vn -0.7840 -0.2376 0.5735
vt 0.487487 0.608553
vt 0.487487 0.609086
vt 0.487487 0.608553
vt 0.487487 0.609889
vt 0.487487 0.591574
vt 0.487487 0.585914
vt 0.487487 0.592321
vt 0.487487 0.590576
vt 0.487487 0.601657
vt 0.487487 0.596784
vt 0.487487 0.597234
vt 0.487487 0.602894
vt 0.487487 0.608553
vt 0.487487 0.608849
vt 0.487487 0.608385
vt 0.487487 0.601424
vt 0.487487 0.608221
vt 0.487487 0.608090
vt 0.487487 0.601783
vt 0.487487 0.595217
vt 0.487487 0.610021
vt 0.487487 0.609177
vt 0.487487 0.602893
vt 0.487487 0.608553
vt 0.487487 0.606737
vt 0.487487 0.606868
vt 0.487487 0.606321
vt 0.487487 0.606586
vt 0.487487 0.606794
vt 0.719232 0.049834
vt 0.719232 0.050032
vt 0.704067 0.050172
vt 0.682621 0.050172
vt 0.667457 0.050032
vt 0.667457 0.049834
vt 0.682621 0.049693
vt 0.704067 0.049693
vt 0.677834 0.029265
vt 0.677834 0.029324
vt 0.673298 0.029366
vt 0.666884 0.029366
vt 0.662349 0.029324
vt 0.662349 0.029265
vt 0.666884 0.029223
vt 0.673298 0.029223
vt 0.672885 0.049854
vt 0.672885 0.050011
vt 0.684870 0.050122
vt 0.701819 0.050122
vt 0.713803 0.050011
vt 0.713803 0.049854
vt 0.701819 0.049743
vt 0.684870 0.049743
vt 0.702517 0.040871
vt 0.717682 0.040731
vt 0.720716 0.040742
vt 0.703774 0.040900
vt 0.702517 0.040392
vt 0.717682 0.040532
vt 0.720716 0.040521
vt 0.703774 0.040364
vt 0.681071 0.040871
vt 0.679814 0.040900
vt 0.665906 0.040731
vt 0.662872 0.040742
vt 0.665906 0.040532
vt 0.662872 0.040521
vt 0.679814 0.040364
vt 0.681071 0.040392
vt 0.660294 0.004727
vt 0.660027 0.004730
vt 0.659648 0.004730
vt 0.659380 0.004727
vt 0.659380 0.004724
vt 0.659648 0.004721
vt 0.660027 0.004721
vt 0.660294 0.004724
s 1
usemtl City_Atlas
f 26/1/1 10/1/2 9/1/3 30/2/4
f 30/2/4 9/1/3 8/1/5 32/1/6
f 32/1/6 8/1/5 7/3/7 34/4/8
f 34/4/8 7/3/7 3/3/9 35/3/10
f 11/5/11 1/6/11 4/6/12 17/5/13
f 17/5/13 4/6/12 5/6/14 20/7/14
f 20/7/15 5/6/15 6/6/16 23/8/17
f 23/8/17 6/6/16 2/6/18 25/5/19
f 21/9/20 22/10/21 13/11/22 24/12/23
f 22/10/21 23/8/17 25/5/19 13/11/22
f 45/13/24 28/13/25 29/14/26 44/15/27
f 18/16/28 19/11/29 22/10/21 21/9/20
f 19/11/30 20/7/30 23/8/17 22/10/21
f 44/15/27 29/14/26 31/17/31 41/18/32
f 15/19/33 16/20/34 19/11/29 18/16/28
f 16/20/35 17/5/36 20/7/37 19/11/37
f 41/18/32 31/17/31 33/21/38 39/22/38
f 12/23/39 14/11/40 16/20/34 15/19/33
f 14/11/41 11/5/41 17/5/36 16/20/35
f 39/22/42 33/21/42 27/24/42 37/24/42
f 38/25/43 12/23/39 15/19/33 40/26/44
f 33/21/45 34/4/8 35/3/10 27/24/45
f 40/26/44 15/19/33 18/16/28 42/27/46
f 31/17/31 32/1/6 34/4/47 33/21/47
f 42/27/46 18/16/28 21/9/20 43/28/48
f 29/14/26 30/2/4 32/1/6 31/17/31
f 43/28/48 21/9/20 24/12/49 36/29/49
f 28/13/25 26/1/1 30/2/4 29/14/26
f 37/24/50 38/25/50 40/26/51 39/22/52
f 39/22/52 40/26/51 42/27/53 41/18/54
f 41/18/54 42/27/53 43/28/55 44/15/56
f 44/15/56 43/28/55 36/29/57 45/13/57
f 79/30/58 54/30/58 61/31/59 78/31/59
f 81/32/60 60/32/60 59/33/61 80/33/61
f 83/34/62 58/34/62 57/35/63 82/35/63
f 85/36/64 56/36/64 55/37/65 84/37/65
f 78/31/59 61/31/59 60/32/60 81/32/60
f 80/33/61 59/33/61 58/34/62 83/34/62
f 82/35/63 57/35/63 56/36/64 85/36/64
f 84/37/65 55/37/65 54/30/58 79/30/58
f 62/38/62 69/39/63 77/39/63 70/38/62
f 68/40/64 67/41/65 75/41/65 76/40/64
f 66/42/58 65/43/59 73/43/59 74/42/58
f 64/44/60 63/45/61 71/45/61 72/44/60
f 69/39/63 68/40/64 76/40/64 77/39/63
f 67/41/65 66/42/58 74/42/58 75/41/65
f 65/43/59 64/44/60 72/44/60 73/43/59
f 63/45/61 62/38/62 70/38/62 71/45/61
f 50/34/66 49/35/66 65/46/66 66/47/66
f 51/33/66 50/34/66 66/47/66 67/48/66
f 52/32/66 51/33/66 67/48/66 68/49/66
f 53/31/66 52/32/66 68/49/66 69/50/66
f 46/30/66 53/31/66 69/50/66 62/51/66
f 47/37/66 46/30/66 62/51/66 63/52/66
f 48/36/66 47/37/66 63/52/66 64/53/66
f 49/35/66 48/36/66 64/53/66 65/46/66
f 52/54/67 53/55/68 93/56/68 92/57/67
f 84/58/69 79/59/70 94/60/70 101/61/69
f 51/62/71 52/54/67 92/57/67 91/63/71
f 79/59/70 78/55/72 98/56/72 94/60/70
f 50/64/73 51/62/71 91/63/71 90/65/73
f 81/54/74 80/62/75 99/63/75 95/57/74
f 49/66/76 50/64/73 90/65/73 89/67/76
f 83/64/77 82/66/78 100/67/78 96/65/77
f 86/61/65 101/61/65 94/60/58 87/60/58
f 89/67/63 100/67/63 97/68/64 88/68/64
f 91/63/61 99/63/61 96/65/62 90/65/62
f 93/56/59 98/56/59 95/57/60 92/57/60
f 88/68/64 97/68/64 101/61/65 86/61/65
f 90/65/62 96/65/62 100/67/63 89/67/63
f 92/57/60 95/57/60 99/63/61 91/63/61
f 87/60/58 94/60/58 98/56/59 93/56/59
f 82/66/78 85/69/79 97/68/79 100/67/78
f 53/55/68 46/59/80 87/60/80 93/56/68
f 46/59/80 47/58/81 86/61/81 87/60/80
f 80/62/75 83/64/77 96/65/77 99/63/75
f 47/58/81 48/69/82 88/68/82 86/61/81
f 78/55/72 81/54/74 95/57/74 98/56/72
f 48/69/82 49/66/76 89/67/76 88/68/82
f 85/69/79 84/58/69 101/61/69 97/68/79
f 77/70/66 76/71/66 75/72/66 74/73/66 73/74/66 72/75/66 71/76/66 70/77/66
f 135/30/58 110/30/58 117/31/59 134/31/59
f 137/32/60 116/32/60 115/33/61 136/33/61
f 139/34/62 114/34/62 113/35/63 138/35/63
f 141/36/64 112/36/64 111/37/65 140/37/65
f 134/31/59 117/31/59 116/32/60 137/32/60
f 136/33/61 115/33/61 114/34/62 139/34/62
f 138/35/63 113/35/63 112/36/64 141/36/64
f 140/37/65 111/37/65 110/30/58 135/30/58
f 118/38/62 125/39/63 133/39/63 126/38/62
f 124/40/64 123/41/65 131/41/65 132/40/64
f 122/42/58 121/43/59 129/43/59 130/42/58
f 120/44/60 119/45/61 127/45/61 128/44/60
f 125/39/63 124/40/64 132/40/64 133/39/63
f 123/41/65 122/42/58 130/42/58 131/41/65
f 121/43/59 120/44/60 128/44/60 129/43/59
f 119/45/61 118/38/62 126/38/62 127/45/61
f 106/34/66 105/35/66 121/46/66 122/47/66
f 107/33/66 106/34/66 122/47/66 123/48/66
f 108/32/66 107/33/66 123/48/66 124/49/66
f 109/31/66 108/32/66 124/49/66 125/50/66
f 102/30/66 109/31/66 125/50/66 118/51/66
f 103/37/66 102/30/66 118/51/66 119/52/66
f 104/36/66 103/37/66 119/52/66 120/53/66
f 105/35/66 104/36/66 120/53/66 121/46/66
f 108/54/67 109/55/68 149/56/68 148/57/67
f 140/58/69 135/59/70 150/60/70 157/61/69
f 107/62/71 108/54/67 148/57/67 147/63/71
f 135/59/70 134/55/72 154/56/72 150/60/70
f 106/64/73 107/62/71 147/63/71 146/65/73
f 137/54/74 136/62/75 155/63/75 151/57/74
f 105/66/76 106/64/73 146/65/73 145/67/76
f 139/64/77 138/66/78 156/67/78 152/65/77
f 142/61/65 157/61/65 150/60/58 143/60/58
f 145/67/63 156/67/63 153/68/64 144/68/64
f 147/63/61 155/63/61 152/65/62 146/65/62
f 149/56/59 154/56/59 151/57/60 148/57/60
f 144/68/64 153/68/64 157/61/65 142/61/65
f 146/65/62 152/65/62 156/67/63 145/67/63
f 148/57/60 151/57/60 155/63/61 147/63/61
f 143/60/58 150/60/58 154/56/59 149/56/59
f 138/66/78 141/69/79 153/68/79 156/67/78
f 109/55/68 102/59/80 143/60/80 149/56/68
f 102/59/80 103/58/81 142/61/81 143/60/80
f 136/62/75 139/64/77 152/65/77 155/63/75
f 103/58/81 104/69/82 144/68/82 142/61/81
f 134/55/72 137/54/74 151/57/74 154/56/72
f 104/69/82 105/66/76 145/67/76 144/68/82
f 141/69/79 140/58/69 157/61/69 153/68/79
f 133/70/66 132/71/66 131/72/66 130/73/66 129/74/66 128/75/66 127/76/66 126/77/66
