# Blender 4.1.1
# www.blender.org
mtllib cGround_C_Side_4__.mtl
o cGround_C_Side_4__
v 0.000002 -3.191080 0.000002
v 3.999999 -0.000000 0.000000
v 0.500002 -2.393310 0.000002
v 1.000001 -1.595540 0.000001
v 1.500001 -0.797770 0.000000
v 2.666667 -0.000000 0.000000
v 3.333333 -0.000000 0.000000
v 2.267380 -0.000001 0.000000
v 1.839501 -0.256083 0.000000
v 4.000001 -0.000000 -4.999995
v 3.999999 -0.000000 -1.000000
v 0.500002 -2.393310 -0.999998
v 1.000001 -1.595540 -0.999999
v 1.416153 -0.899476 -0.931614
v 2.424014 0.020160 -1.325404
v 2.858265 0.021440 -1.959621
v 2.074492 -0.000001 -1.215412
v 1.630777 -0.256083 -1.503904
v 0.000001 -0.000000 -4.999995
v 0.000002 -2.393310 -1.499995
v -0.161433 -1.595538 -2.071867
v 0.000001 -0.797771 -2.499995
v 0.000001 -0.000000 -3.666662
v -0.045343 -0.037154 -4.317759
v -0.069128 -0.023790 -3.273424
v 0.000001 -0.256083 -2.839496
v -0.999997 -3.191080 -0.999995
v -0.999999 -0.000000 -4.999995
v -0.999997 -2.393310 -1.499995
v -0.999998 -1.595540 -1.999995
v -0.999998 -0.797771 -2.499995
v -0.999998 -0.000000 -3.666662
v -0.999998 -0.000000 -4.333328
v -0.999998 -0.000001 -3.267374
v -0.999998 -0.256083 -2.839496
v 0.000002 -3.191080 -0.999997
v 2.820337 0.102236 -3.911791
v 0.353556 -2.393310 -1.353550
v 0.707108 -1.595540 -1.707104
v 0.926851 -0.893755 -2.020462
v 1.831233 0.069408 -2.981972
v 2.214714 0.078650 -3.462659
v 1.603281 -0.000001 -2.603277
v 1.300724 -0.256083 -2.300721
vn -0.0251 0.9996 0.0122
vn 0.0088 0.9999 0.0058
vn -0.8856 0.4562 0.0873
vn 0.0054 0.9999 0.0115
vn -0.8526 0.5225 0.0095
vn -0.8473 0.5311 -0.0000
vn -0.5240 0.8482 0.0774
vn 0.0124 0.9994 0.0311
vn 0.0188 0.9994 0.0282
vn -0.0000 0.5311 0.8473
vn 0.0192 0.9994 -0.0288
vn 0.0338 0.5000 0.8654
vn 0.0123 0.8704 0.4922
vn 0.0324 0.5596 0.8281
vn -0.3312 0.5011 0.7995
vn -0.3336 0.5027 0.7975
vn -0.3507 0.4852 0.8010
vn -0.3366 0.5194 0.7854
vn -0.7995 0.5011 0.3312
vn -0.8238 0.4379 0.3602
vn -0.7552 0.5664 0.3299
vn -0.5516 0.8092 0.2023
vn -0.1083 0.9927 0.0539
vn 0.0216 0.9994 0.0252
vn -0.0134 0.9990 0.0416
vn -0.2076 0.8443 0.4940
vn -0.0634 0.9934 0.0955
vn -0.0323 0.9989 -0.0343
vn -0.0519 0.9984 0.0237
vn -0.0000 0.9956 -0.0935
vn 0.0863 0.9963 -0.0000
vt 0.322834 0.474383
vt 0.322834 0.474471
vt 0.322834 0.474383
vt 0.322834 0.474476
vt 0.322834 0.470920
vt 0.322834 0.473272
vt 0.322834 0.470479
vt 0.322834 0.467457
vt 0.322834 0.460532
vt 0.322834 0.463995
vt 0.322834 0.474280
vt 0.322834 0.474383
vt 0.322834 0.474383
vt 0.322834 0.474222
vt 0.322834 0.470920
vt 0.322834 0.473272
vt 0.322834 0.473272
vt 0.322834 0.470920
vt 0.322834 0.467457
vt 0.322834 0.467457
vt 0.322834 0.463995
vt 0.322834 0.460532
vt 0.322834 0.470504
vt 0.322834 0.474685
vt 0.322834 0.474725
vt 0.322834 0.474827
s 0
usemtl City_Atlas
f 8/1/1 6/1/1 15/2/1 17/1/1
f 7/3/2 2/3/2 11/3/2 16/4/2
f 5/5/3 9/6/3 18/6/3 14/7/3
f 6/1/4 7/3/4 16/4/4 15/2/4
f 4/8/5 5/5/5 14/7/5 13/8/5
f 1/9/6 3/10/6 12/10/6 36/9/6
f 9/6/7 8/1/7 17/1/7 18/6/7
f 3/10/6 4/8/6 13/8/6 12/10/6
f 25/11/8 23/12/8 32/13/8 34/13/8
f 24/14/9 19/12/9 28/13/9 33/13/9
f 22/15/10 26/16/10 35/17/10 31/18/10
f 23/12/11 24/14/11 33/13/11 32/13/11
f 21/19/12 22/15/12 31/18/12 30/20/12
f 36/9/10 20/10/10 29/21/10 27/22/10
f 26/16/13 25/11/13 34/13/13 35/17/13
f 20/10/14 21/19/14 30/20/14 29/21/14
f 20/10/15 36/9/15 38/10/15
f 21/19/16 20/10/16 38/10/16 39/19/16
f 22/15/17 21/19/17 39/19/17 40/23/17
f 26/16/18 22/15/18 40/23/18 44/6/18
f 36/9/19 12/10/19 38/10/19
f 39/19/19 38/10/19 12/10/19 13/8/19
f 40/23/20 39/19/20 13/8/20 14/7/20
f 44/6/21 40/23/21 14/7/21 18/6/21
f 18/6/22 17/1/22 43/1/22 44/6/22
f 41/24/23 43/1/23 17/1/23 15/2/23
f 42/25/24 41/24/24 15/2/24 16/4/24
f 37/26/25 42/25/25 16/4/25 11/3/25
f 25/11/26 26/16/26 44/6/26 43/1/26
f 23/12/27 25/11/27 43/1/27 41/24/27
f 24/14/28 23/12/28 41/24/28 42/25/28
f 19/12/29 24/14/29 42/25/29 37/26/29
f 19/12/30 37/26/30 10/3/30
f 11/3/31 10/3/31 37/26/31
