# Blender 4.1.1
# www.blender.org
mtllib cGround_C_Under_1__.mtl
o cGround_C_Under_1__
v 4.999987 0.000000 -16.000004
v -4.999997 0.000000 -15.999996
v 4.999997 0.000000 15.999996
v -4.999987 0.000000 16.000002
v -4.999992 0.000000 0.000003
v 0.000005 0.000000 15.999999
v 4.999992 0.000000 -0.000004
v -0.000005 0.000000 -16.000000
v 0.541360 0.426938 0.226554
v -4.999990 0.000000 8.000002
v 2.500001 0.000000 15.999998
v 4.999990 0.000000 -8.000004
v -2.500001 0.000000 -15.999998
v -4.999994 0.000000 -7.999997
v -2.499991 0.000000 16.000000
v 4.999994 0.000000 7.999996
v 2.499991 0.000000 -16.000002
v 2.672240 0.221857 -0.717611
v -3.192289 -0.478510 -0.909042
v 0.347275 0.409833 -9.102819
v -0.509656 -0.396592 7.737646
v -2.835397 -0.246358 7.692961
v -2.809660 -0.384199 -8.175706
v 2.499994 0.000000 -8.000002
v 2.957525 0.388187 7.940251
v -4.999988 0.000000 12.000002
v 3.749999 0.000000 15.999997
v 4.999988 0.000000 -12.000004
v -3.749999 0.000000 -15.999997
v -4.999993 0.000000 -3.999997
v -1.249993 0.000000 16.000000
v 4.999993 0.000000 3.999996
v 1.249993 0.000000 -16.000000
v 3.836116 0.110928 -0.358807
v -1.325464 -0.025786 -0.341244
v 0.173635 0.204916 -12.551410
v 0.015852 0.015173 3.982100
v -4.999990 0.000000 4.000002
v 1.250003 0.000000 15.999998
v 4.999990 0.000000 -4.000004
v -1.250003 0.000000 -15.999999
v -4.999996 0.000000 -11.999996
v -3.749989 0.000000 16.000000
v 4.999996 0.000000 11.999996
v 3.749989 0.000000 -16.000004
v 1.062392 -0.065497 -0.581335
v -4.096141 -0.239255 -0.454520
v 0.444318 0.418386 -4.438133
v -0.254825 -0.198296 11.868822
v -1.672527 -0.321475 7.715303
v -3.917693 -0.123179 7.846481
v -3.013843 -0.362434 3.391960
v -2.739092 -0.232420 11.278737
v -1.048006 0.204917 -9.434081
v -4.054576 -0.387577 -8.420174
v -2.500000 0.000000 -11.999998
v -2.846144 -0.239255 -4.454520
v 3.749991 0.000000 -8.000003
v 1.423634 0.204916 -8.551411
v 2.499992 0.000000 -12.000002
v 2.212279 -0.161363 -4.242827
v 3.704481 -0.002063 7.780005
v 1.073174 -0.238593 6.545043
v 2.814883 0.305022 3.611320
v 2.728763 0.194094 11.970124
v 1.594178 0.467916 12.805288
v 1.415367 0.160098 3.796710
v 3.563552 -0.092974 3.532866
v 1.515217 0.264657 -4.398470
v 1.336813 0.102458 -12.275705
v 4.021197 0.324238 -12.159095
v -3.923069 -0.119627 -4.227259
v -3.965788 -0.263211 -12.006953
v -0.919565 0.367062 -13.099428
v -3.984261 -0.274803 11.159662
v -4.006917 -0.181217 3.695981
v -1.498996 -0.173630 3.687030
v -1.096906 0.314953 12.665991
v -1.200913 0.089565 -4.446327
v 3.229115 -0.354964 -4.029275
v 3.864379 0.097047 11.985060
vn 0.0406 0.9991 0.0127
vn -0.0756 0.9956 -0.0545
vn -0.2190 0.9757 0.0112
vn 0.2425 0.9701 0.0119
vn -0.0503 0.9965 0.0671
vn 0.1397 0.9899 -0.0248
vn -0.0145 0.9985 -0.0523
vn -0.0151 0.9999 -0.0059
vn -0.1034 0.9927 0.0626
vn 0.1986 0.9781 0.0621
vn 0.1407 0.9891 0.0440
vn 0.1413 0.9899 -0.0147
vn 0.0601 0.9982 -0.0073
vn -0.0321 0.9994 -0.0105
vn -0.2413 0.9698 0.0364
vn 0.1486 0.9836 0.1019
vn -0.1075 0.9931 -0.0464
vn -0.2377 0.9690 -0.0666
vn -0.2196 0.9750 0.0332
vn -0.1449 0.9891 -0.0268
vn 0.1913 0.9812 0.0265
vn -0.0465 0.9920 0.1174
vn -0.0013 0.9997 0.0258
vn 0.2546 0.9669 0.0182
vn 0.4618 0.8863 -0.0333
vn 0.3279 0.9445 0.0203
vn 0.1677 0.9858 -0.0112
vn 0.3968 0.9165 0.0514
vn 0.0440 0.9989 -0.0137
vn 0.0475 0.9979 -0.0445
vn 0.1531 0.9870 -0.0479
vn 0.1470 0.9881 -0.0459
vn -0.1182 0.9923 -0.0369
vn -0.1141 0.9928 0.0357
vn 0.0503 0.9973 -0.0526
vn 0.2324 0.9720 -0.0355
vn 0.1847 0.9826 0.0192
vn -0.0965 0.9949 0.0302
vn 0.1145 0.9928 0.0358
vn 0.3160 0.9486 0.0192
vn 0.0912 0.9911 -0.0965
vn -0.1459 0.9883 -0.0456
vn -0.2373 0.9698 0.0569
vn 0.0350 0.9992 0.0198
vn 0.1964 0.9803 0.0221
vn 0.1080 0.9936 -0.0337
vn 0.2061 0.9782 -0.0267
vn 0.2129 0.9770 -0.0093
vn 0.1433 0.9896 -0.0086
vn -0.1990 0.9786 0.0525
vn -0.1873 0.9823 0.0039
vn -0.0429 0.9991 0.0038
vn 0.2403 0.9644 -0.1106
vn -0.1339 0.9889 -0.0648
vn -0.1915 0.9814 0.0121
vn -0.1740 0.9847 0.0099
vn -0.2632 0.9647 -0.0090
vn -0.2220 0.9745 0.0315
vn -0.1170 0.9925 0.0366
vn 0.0779 0.9942 0.0746
vn 0.1731 0.9748 -0.1407
vn 0.0403 0.9991 -0.0129
vn 0.2515 0.9678 0.0133
vn 0.0404 0.9985 0.0379
vt 0.322834 0.460953
vt 0.322834 0.460532
vt 0.322834 0.460532
vt 0.322834 0.458991
vt 0.322834 0.461013
vt 0.322834 0.460920
vt 0.322834 0.460420
vt 0.322834 0.462385
vt 0.322834 0.462348
vt 0.322834 0.461899
vt 0.322834 0.460532
vt 0.322834 0.460532
vt 0.322834 0.459671
vt 0.322834 0.459778
vt 0.322834 0.459136
vt 0.322834 0.458810
vt 0.322834 0.460597
vt 0.322834 0.459745
vt 0.322834 0.459997
vt 0.322834 0.459462
vt 0.322834 0.458958
vt 0.322834 0.459339
vt 0.322834 0.460532
vt 0.322834 0.459523
vt 0.322834 0.462125
vt 0.322834 0.461421
vt 0.322834 0.462311
vt 0.322834 0.461421
vt 0.322834 0.459389
vt 0.322834 0.458849
vt 0.322834 0.458864
vt 0.322834 0.460012
vt 0.322834 0.459493
vt 0.322834 0.458454
vt 0.322834 0.459493
vt 0.322834 0.461939
vt 0.322834 0.460976
vt 0.322834 0.461421
vt 0.322834 0.460532
vt 0.322834 0.461680
vt 0.322834 0.460247
vt 0.322834 0.461495
vt 0.322834 0.459831
vt 0.322834 0.460128
vt 0.322834 0.460523
vt 0.322834 0.461226
vt 0.322834 0.459496
vt 0.322834 0.462217
vt 0.322834 0.461856
vt 0.322834 0.462563
vt 0.322834 0.460532
vt 0.322834 0.461374
vt 0.322834 0.460532
s 0
usemtl City_Atlas
f 81/1/1 27/2/1 3/3/1 44/3/1
f 80/4/2 34/5/2 7/3/2 40/3/2
f 79/6/3 35/7/3 9/8/3 48/9/3
f 78/10/4 31/11/4 6/12/4 49/13/4
f 77/14/5 50/15/5 21/16/5 37/17/5
f 76/18/6 51/19/6 22/20/6 52/21/6
f 75/22/7 43/23/7 15/11/7 53/24/7
f 74/25/8 54/26/8 20/27/8 36/28/8
f 73/29/9 55/30/9 23/31/9 56/11/9
f 72/32/10 47/33/10 19/34/10 57/35/10
f 71/36/11 58/2/11 12/3/11 28/3/11
f 70/37/12 59/38/12 24/39/12 60/39/12
f 69/40/13 46/41/13 18/42/13 61/43/13
f 68/44/14 62/45/14 16/3/14 32/3/14
f 67/46/15 63/47/15 25/48/15 64/49/15
f 66/50/16 39/51/16 11/39/16 65/52/16
f 63/47/17 66/50/17 65/52/17 25/48/17
f 21/16/18 49/13/18 66/50/18 63/47/18
f 49/13/19 6/12/19 39/51/19 66/50/19
f 46/41/20 67/46/20 64/49/20 18/42/20
f 9/8/21 37/17/21 67/46/21 46/41/21
f 37/17/22 21/16/22 63/47/22 67/46/22
f 34/5/23 68/44/23 32/3/23 7/3/23
f 18/42/24 64/49/24 68/44/24 34/5/24
f 64/49/25 25/48/25 62/45/25 68/44/25
f 59/38/26 69/40/26 61/43/26 24/39/26
f 20/27/27 48/9/27 69/40/27 59/38/27
f 48/9/28 9/8/28 46/41/28 69/40/28
f 33/51/29 70/37/29 60/39/29 17/39/29
f 8/12/30 36/28/30 70/37/30 33/51/30
f 36/28/31 20/27/31 59/38/31 70/37/31
f 45/2/32 71/36/32 28/3/32 1/3/32
f 17/39/33 60/39/33 71/36/33 45/2/33
f 60/39/34 24/39/34 58/2/34 71/36/34
f 55/30/35 72/32/35 57/35/35 23/31/35
f 14/53/36 30/53/36 72/32/36 55/30/36
f 30/53/37 5/53/37 47/33/37 72/32/37
f 29/23/38 73/29/38 56/11/38 13/11/38
f 2/53/39 42/53/39 73/29/39 29/23/39
f 42/53/40 14/53/40 55/30/40 73/29/40
f 41/11/41 74/25/41 36/28/41 8/12/41
f 13/11/42 56/11/42 74/25/42 41/11/42
f 56/11/43 23/31/43 54/26/43 74/25/43
f 51/19/44 75/22/44 53/24/44 22/20/44
f 10/53/45 26/53/45 75/22/45 51/19/45
f 26/53/46 4/53/46 43/23/46 75/22/46
f 47/33/47 76/18/47 52/21/47 19/34/47
f 5/53/48 38/53/48 76/18/48 47/33/48
f 38/53/49 10/53/49 51/19/49 76/18/49
f 35/7/50 77/14/50 37/17/50 9/8/50
f 19/34/51 52/21/51 77/14/51 35/7/51
f 52/21/52 22/20/52 50/15/52 77/14/52
f 50/15/53 78/10/53 49/13/53 21/16/53
f 22/20/54 53/24/54 78/10/54 50/15/54
f 53/24/55 15/11/55 31/11/55 78/10/55
f 54/26/56 79/6/56 48/9/56 20/27/56
f 23/31/57 57/35/57 79/6/57 54/26/57
f 57/35/58 19/34/58 35/7/58 79/6/58
f 58/2/59 80/4/59 40/3/59 12/3/59
f 24/39/60 61/43/60 80/4/60 58/2/60
f 61/43/61 18/42/61 34/5/61 80/4/61
f 62/45/62 81/1/62 44/3/62 16/3/62
f 25/48/63 65/52/63 81/1/63 62/45/63
f 65/52/64 11/39/64 27/2/64 81/1/64
