# Blender 4.1.1
# www.blender.org
mtllib cGround_B_Side_3_.mtl
o cGround_B_Side_3_
v -0.000001 0.000000 -3.998029
v 0.000002 0.000001 4.001970
v 4.000000 3.191080 -3.998031
v 0.000000 0.000001 -1.998029
v 0.000001 0.000001 0.001970
v 0.000002 0.000001 2.001970
v 4.000000 3.191080 -1.998031
v 4.000001 3.191081 0.001969
v 4.000001 3.191081 2.001968
v 4.000002 3.191081 4.001968
v 0.499999 0.797770 -3.998029
v 1.500000 2.393310 -3.998030
v 1.000002 1.595541 4.001970
v 0.999999 1.595540 -3.998029
v 1.275995 2.236839 -1.933939
v 0.796247 1.311276 -2.041726
v 0.500000 0.797771 -1.998030
v 1.199203 2.186099 0.090117
v 1.000001 1.595541 0.001970
v 0.684600 0.903119 -0.067803
v 1.093890 2.218984 1.717849
v 0.897731 1.532097 2.036975
v 0.231776 0.657129 2.112284
v 1.500002 2.393311 4.001969
v 0.500002 0.797771 4.001970
v 3.333336 3.191081 4.001968
v 2.666666 3.191080 -3.998030
v 2.666669 3.191081 4.001969
v 2.784788 3.232826 1.938882
v 3.475570 3.266123 1.943804
v 2.540630 3.144300 0.067677
v 3.333334 3.191081 0.001969
v 2.641911 3.397980 -1.829850
v 3.468593 3.379394 -1.969305
v 3.333333 3.191080 -3.998030
v 1.844584 2.943105 4.001969
v 2.267379 3.191080 -3.998030
v 1.839500 2.934997 -3.998030
v 2.272803 3.279009 -1.926556
v 1.819730 2.953484 -1.982072
v 2.203912 3.125797 0.040978
v 1.727606 2.876362 0.035724
v 1.754655 2.913805 1.924918
v 2.258819 3.167325 1.971111
v 2.303605 3.191081 4.001969
v -0.457175 1.929603 -0.916690
v -0.457174 1.477390 -0.464477
v -0.457174 0.837866 -0.464477
v -0.457175 0.385653 -0.916690
v -0.457175 0.385653 -1.556214
v -0.457175 0.837865 -2.008427
v -0.457175 1.477390 -2.008427
v -0.457175 1.929603 -1.556215
v 1.544503 1.929603 -0.916691
v 1.544504 1.477391 -0.464478
v 1.544504 0.837866 -0.464479
v 1.544504 0.385653 -0.916691
v 1.544503 0.385653 -1.556216
v 1.544503 0.837866 -2.008428
v 1.544503 1.477391 -2.008428
v 1.544503 1.929604 -1.556216
v -0.457175 1.699772 -1.011888
v -0.457175 1.382191 -0.694308
v -0.457175 0.933065 -0.694308
v -0.457175 0.615483 -1.011889
v -0.457175 0.615483 -1.461015
v -0.457175 0.933064 -1.778596
v -0.457175 1.382192 -1.778596
v -0.457175 1.699772 -1.461016
v 0.341102 1.699773 -1.011889
v 0.341102 1.382192 -0.694309
v 0.341102 0.933065 -0.694309
v 0.341102 0.615484 -1.011889
v 0.341101 0.615484 -1.461016
v 0.341101 0.933065 -1.778597
v 0.341101 1.382192 -1.778597
v 0.341101 1.699773 -1.461016
v -0.006906 1.929603 -1.556215
v -0.006905 1.929603 -0.916690
v -0.006906 0.837866 -2.008427
v -0.006906 1.477390 -2.008427
v -0.006905 0.385653 -0.916690
v -0.006906 0.385653 -1.556215
v -0.006905 1.477391 -0.464477
v -0.006905 0.837866 -0.464478
v -0.379632 1.514869 -0.373997
v -0.379633 2.020083 -0.879211
v -0.379632 0.800388 -0.373997
v -0.379633 0.295173 -0.879211
v -0.379633 0.295173 -1.593692
v -0.379634 0.800387 -2.098907
v -0.379634 1.514868 -2.098907
v -0.379633 2.020083 -1.593693
v -0.084447 2.020083 -0.879212
v -0.084448 1.514868 -2.098907
v -0.084448 0.295173 -1.593693
v -0.084447 0.800388 -0.373998
v -0.084448 2.020083 -1.593693
v -0.084448 0.800387 -2.098907
v -0.084447 0.295173 -0.879211
v -0.084447 1.514869 -0.373997
v -0.457174 1.929603 1.329530
v -0.457174 1.477391 1.781742
v -0.457173 0.837866 1.781742
v -0.457174 0.385653 1.329530
v -0.457174 0.385653 0.690005
v -0.457174 0.837866 0.237793
v -0.457175 1.477390 0.237793
v -0.457174 1.929603 0.690005
v 1.544504 1.929603 1.329529
v 1.544505 1.477391 1.781741
v 1.544505 0.837866 1.781741
v 1.544505 0.385654 1.329529
v 1.544504 0.385654 0.690004
v 1.544504 0.837866 0.237791
v 1.544504 1.477391 0.237791
v 1.544504 1.929604 0.690004
v -0.457174 1.699772 1.234331
v -0.457174 1.382192 1.551912
v -0.457174 0.933065 1.551912
v -0.457174 0.615484 1.234331
v -0.457174 0.615484 0.785204
v -0.457174 0.933065 0.467623
v -0.457174 1.382192 0.467623
v -0.457174 1.699772 0.785204
v 0.341102 1.699773 1.234330
v 0.341103 1.382192 1.551911
v 0.341103 0.933065 1.551911
v 0.341103 0.615484 1.234330
v 0.341102 0.615484 0.785203
v 0.341102 0.933065 0.467622
v 0.341102 1.382192 0.467622
v 0.341102 1.699773 0.785203
v -0.006905 1.929603 0.690005
v -0.006905 1.929603 1.329530
v -0.006905 0.837866 0.237792
v -0.006905 1.477391 0.237792
v -0.006905 0.385653 1.329530
v -0.006905 0.385653 0.690005
v -0.006904 1.477391 1.781742
v -0.006904 0.837866 1.781742
v -0.379632 1.514869 1.872223
v -0.379632 2.020083 1.367008
v -0.379632 0.800388 1.872222
v -0.379632 0.295173 1.367008
v -0.379632 0.295173 0.652527
v -0.379633 0.800388 0.147313
v -0.379633 1.514868 0.147313
v -0.379633 2.020083 0.652527
v -0.084447 2.020083 1.367008
v -0.084447 1.514869 0.147312
v -0.084447 0.295173 0.652527
v -0.084446 0.800388 1.872222
v -0.084447 2.020083 0.652527
v -0.084447 0.800388 0.147312
v -0.084446 0.295173 1.367008
v -0.084446 1.514869 1.872222
vn 0.0167 0.9996 0.0238
vn 0.0619 0.9979 0.0206
vn 0.0628 0.9980 0.0011
vn 0.0138 0.9999 -0.0033
vn 0.1103 0.9938 0.0154
vn 0.0382 0.9988 0.0294
vn 0.1552 0.9879 -0.0013
vn 0.1036 0.9941 -0.0310
vn 0.1539 0.9868 -0.0513
vn 0.0758 0.9944 -0.0737
vn -0.8473 0.5311 -0.0000
vn -0.8339 0.5517 0.0116
vn -0.8335 0.5523 0.0119
vn -0.8199 0.5720 0.0232
vn -0.8598 0.5066 -0.0633
vn -0.8769 0.4804 -0.0144
vn -0.8597 0.5108 -0.0061
vn -0.8938 0.4461 0.0455
vn -0.8551 0.5163 0.0472
vn -0.8695 0.4939 0.0034
vn -0.8810 0.4730 0.0089
vn -0.8609 0.5044 0.0663
vn -0.8954 0.4376 0.0826
vn -0.0734 0.9973 0.0031
vn -0.0499 0.9986 0.0145
vn -0.0616 0.9981 -0.0088
vn -0.0850 0.9963 -0.0114
vn -0.8697 0.4930 -0.0244
vn -0.9345 0.3555 -0.0201
vn -0.8455 0.5291 -0.0725
vn -0.0930 0.9951 0.0325
vn -0.1547 0.9873 0.0365
vn -0.8531 0.5215 -0.0186
vn -0.8900 0.4557 -0.0180
vn -0.8732 0.4870 0.0170
vn -0.8743 0.4850 0.0185
vn -0.8914 0.4512 0.0429
vn -0.2061 0.9741 0.0935
vn -0.8422 0.5382 -0.0335
vn -0.8677 0.4957 -0.0380
vn -0.8548 0.5189 -0.0067
vn -0.1441 0.9871 -0.0693
vn -0.8187 0.5735 -0.0295
vn -0.8080 0.5887 -0.0222
vn 0.0036 0.9956 -0.0938
vn -0.7776 0.6284 -0.0216
vn -0.0029 0.9936 0.1133
vn -0.7719 0.6354 0.0220
vn -0.7814 0.6212 0.0599
vn -0.5498 0.8350 -0.0237
vn -0.5392 0.8422 0.0010
vn -0.5382 0.8428 0.0033
vn -0.4919 0.8706 0.0095
vn -0.4923 0.8704 0.0097
vn -0.4588 0.8885 -0.0029
vn -0.4592 0.8883 -0.0020
vn -0.4620 0.8869 0.0037
vn -0.0000 0.9239 0.3827
vn -0.0000 0.9239 -0.3827
vn -0.0000 0.3827 -0.9239
vn -0.0000 -0.3827 -0.9239
vn -0.0000 -0.9239 -0.3827
vn -0.0000 -0.9239 0.3827
vn -0.0000 -0.3827 0.9239
vn -0.0000 0.3827 0.9239
vn -1.0000 -0.0000 -0.0000
vn -0.7840 0.2376 -0.5735
vn -0.7840 0.5735 -0.2376
vn 0.7840 0.2376 0.5735
vn 0.7840 0.5735 0.2376
vn -0.7840 -0.2376 -0.5735
vn 0.7840 0.5735 -0.2376
vn -0.7840 -0.5735 -0.2376
vn 0.7840 0.2376 -0.5735
vn 0.7840 -0.2376 -0.5735
vn -0.7840 -0.5735 0.2376
vn 0.7840 -0.5735 -0.2376
vn 0.7840 -0.5735 0.2376
vn 0.7840 -0.2376 0.5735
vn -0.7840 0.5735 0.2376
vn -0.7840 0.2376 0.5735
vn -0.7840 -0.2376 0.5735
vt 0.489441 0.572708
vt 0.489441 0.572185
vt 0.489441 0.571394
vt 0.489441 0.589407
vt 0.489441 0.594973
vt 0.489441 0.588672
vt 0.489441 0.590388
vt 0.489441 0.579491
vt 0.489441 0.584283
vt 0.489441 0.583841
vt 0.489441 0.578274
vt 0.489441 0.572708
vt 0.489441 0.572417
vt 0.489441 0.572874
vt 0.489441 0.579720
vt 0.489441 0.573034
vt 0.489441 0.573164
vt 0.489441 0.579366
vt 0.489441 0.585824
vt 0.489441 0.571264
vt 0.489441 0.572095
vt 0.489441 0.578274
vt 0.489441 0.574495
vt 0.489441 0.574366
vt 0.489441 0.574904
vt 0.489441 0.574643
vt 0.489441 0.574438
vt 0.719232 0.049834
vt 0.719232 0.050032
vt 0.704067 0.050172
vt 0.682621 0.050172
vt 0.667457 0.050032
vt 0.667457 0.049834
vt 0.682621 0.049693
vt 0.704067 0.049693
vt 0.677834 0.029265
vt 0.677834 0.029324
vt 0.673298 0.029366
vt 0.666884 0.029366
vt 0.662349 0.029324
vt 0.662349 0.029265
vt 0.666884 0.029223
vt 0.673298 0.029223
vt 0.672885 0.049854
vt 0.672885 0.050011
vt 0.684870 0.050122
vt 0.701819 0.050122
vt 0.713803 0.050011
vt 0.713803 0.049854
vt 0.701819 0.049743
vt 0.684870 0.049743
vt 0.702517 0.040871
vt 0.717682 0.040731
vt 0.720716 0.040742
vt 0.703774 0.040900
vt 0.702517 0.040392
vt 0.717682 0.040532
vt 0.720716 0.040521
vt 0.703774 0.040364
vt 0.681071 0.040871
vt 0.679814 0.040900
vt 0.665906 0.040731
vt 0.662872 0.040742
vt 0.665906 0.040532
vt 0.662872 0.040521
vt 0.679814 0.040364
vt 0.681071 0.040392
vt 0.660294 0.004727
vt 0.660027 0.004730
vt 0.659648 0.004730
vt 0.659380 0.004727
vt 0.659380 0.004724
vt 0.659648 0.004721
vt 0.660027 0.004721
vt 0.660294 0.004724
s 1
usemtl City_Atlas
f 26/1/1 10/1/2 9/1/3 30/2/4
f 30/2/4 9/1/3 8/1/5 32/1/6
f 32/1/6 8/1/5 7/1/7 34/3/8
f 34/3/8 7/1/7 3/1/9 35/1/10
f 11/4/11 1/5/11 4/5/12 17/4/13
f 17/4/13 4/5/12 5/5/14 20/6/14
f 20/6/15 5/5/15 6/5/16 23/7/17
f 23/7/17 6/5/16 2/5/18 25/4/19
f 21/8/20 22/9/21 13/10/22 24/11/23
f 22/9/21 23/7/17 25/4/19 13/10/22
f 45/12/24 28/12/25 29/13/26 44/14/27
f 18/15/28 19/10/29 22/9/21 21/8/20
f 19/10/30 20/6/30 23/7/17 22/9/21
f 44/14/27 29/13/26 31/16/31 41/17/32
f 15/18/33 16/19/34 19/10/29 18/15/28
f 16/19/35 17/4/36 20/6/37 19/10/37
f 41/17/32 31/16/31 33/20/38 39/21/38
f 12/22/39 14/10/40 16/19/34 15/18/33
f 14/10/41 11/4/41 17/4/36 16/19/35
f 39/21/42 33/20/42 27/12/42 37/12/42
f 38/23/43 12/22/39 15/18/33 40/24/44
f 33/20/45 34/3/8 35/1/10 27/12/45
f 40/24/44 15/18/33 18/15/28 42/25/46
f 31/16/31 32/1/6 34/3/47 33/20/47
f 42/25/46 18/15/28 21/8/20 43/26/48
f 29/13/26 30/2/4 32/1/6 31/16/31
f 43/26/48 21/8/20 24/11/49 36/27/49
f 28/12/25 26/1/1 30/2/4 29/13/26
f 37/12/50 38/23/50 40/24/51 39/21/52
f 39/21/52 40/24/51 42/25/53 41/17/54
f 41/17/54 42/25/53 43/26/55 44/14/56
f 44/14/56 43/26/55 36/27/57 45/12/57
f 79/28/58 54/28/58 61/29/59 78/29/59
f 81/30/60 60/30/60 59/31/61 80/31/61
f 83/32/62 58/32/62 57/33/63 82/33/63
f 85/34/64 56/34/64 55/35/65 84/35/65
f 78/29/59 61/29/59 60/30/60 81/30/60
f 80/31/61 59/31/61 58/32/62 83/32/62
f 82/33/63 57/33/63 56/34/64 85/34/64
f 84/35/65 55/35/65 54/28/58 79/28/58
f 62/36/62 69/37/63 77/37/63 70/36/62
f 68/38/64 67/39/65 75/39/65 76/38/64
f 66/40/58 65/41/59 73/41/59 74/40/58
f 64/42/60 63/43/61 71/43/61 72/42/60
f 69/37/63 68/38/64 76/38/64 77/37/63
f 67/39/65 66/40/58 74/40/58 75/39/65
f 65/41/59 64/42/60 72/42/60 73/41/59
f 63/43/61 62/36/62 70/36/62 71/43/61
f 50/32/66 49/33/66 65/44/66 66/45/66
f 51/31/66 50/32/66 66/45/66 67/46/66
f 52/30/66 51/31/66 67/46/66 68/47/66
f 53/29/66 52/30/66 68/47/66 69/48/66
f 46/28/66 53/29/66 69/48/66 62/49/66
f 47/35/66 46/28/66 62/49/66 63/50/66
f 48/34/66 47/35/66 63/50/66 64/51/66
f 49/33/66 48/34/66 64/51/66 65/44/66
f 52/52/67 53/53/68 93/54/68 92/55/67
f 84/56/69 79/57/70 94/58/70 101/59/69
f 51/60/71 52/52/67 92/55/67 91/61/71
f 79/57/70 78/53/72 98/54/72 94/58/70
f 50/62/73 51/60/71 91/61/71 90/63/73
f 81/52/74 80/60/75 99/61/75 95/55/74
f 49/64/76 50/62/73 90/63/73 89/65/76
f 83/62/77 82/64/78 100/65/78 96/63/77
f 86/59/65 101/59/65 94/58/58 87/58/58
f 89/65/63 100/65/63 97/66/64 88/66/64
f 91/61/61 99/61/61 96/63/62 90/63/62
f 93/54/59 98/54/59 95/55/60 92/55/60
f 88/66/64 97/66/64 101/59/65 86/59/65
f 90/63/62 96/63/62 100/65/63 89/65/63
f 92/55/60 95/55/60 99/61/61 91/61/61
f 87/58/58 94/58/58 98/54/59 93/54/59
f 82/64/78 85/67/79 97/66/79 100/65/78
f 53/53/68 46/57/80 87/58/80 93/54/68
f 46/57/80 47/56/81 86/59/81 87/58/80
f 80/60/75 83/62/77 96/63/77 99/61/75
f 47/56/81 48/67/82 88/66/82 86/59/81
f 78/53/72 81/52/74 95/55/74 98/54/72
f 48/67/82 49/64/76 89/65/76 88/66/82
f 85/67/79 84/56/69 101/59/69 97/66/79
f 77/68/66 76/69/66 75/70/66 74/71/66 73/72/66 72/73/66 71/74/66 70/75/66
f 135/28/58 110/28/58 117/29/59 134/29/59
f 137/30/60 116/30/60 115/31/61 136/31/61
f 139/32/62 114/32/62 113/33/63 138/33/63
f 141/34/64 112/34/64 111/35/65 140/35/65
f 134/29/59 117/29/59 116/30/60 137/30/60
f 136/31/61 115/31/61 114/32/62 139/32/62
f 138/33/63 113/33/63 112/34/64 141/34/64
f 140/35/65 111/35/65 110/28/58 135/28/58
f 118/36/62 125/37/63 133/37/63 126/36/62
f 124/38/64 123/39/65 131/39/65 132/38/64
f 122/40/58 121/41/59 129/41/59 130/40/58
f 120/42/60 119/43/61 127/43/61 128/42/60
f 125/37/63 124/38/64 132/38/64 133/37/63
f 123/39/65 122/40/58 130/40/58 131/39/65
f 121/41/59 120/42/60 128/42/60 129/41/59
f 119/43/61 118/36/62 126/36/62 127/43/61
f 106/32/66 105/33/66 121/44/66 122/45/66
f 107/31/66 106/32/66 122/45/66 123/46/66
f 108/30/66 107/31/66 123/46/66 124/47/66
f 109/29/66 108/30/66 124/47/66 125/48/66
f 102/28/66 109/29/66 125/48/66 118/49/66
f 103/35/66 102/28/66 118/49/66 119/50/66
f 104/34/66 103/35/66 119/50/66 120/51/66
f 105/33/66 104/34/66 120/51/66 121/44/66
f 108/52/67 109/53/68 149/54/68 148/55/67
f 140/56/69 135/57/70 150/58/70 157/59/69
f 107/60/71 108/52/67 148/55/67 147/61/71
f 135/57/70 134/53/72 154/54/72 150/58/70
f 106/62/73 107/60/71 147/61/71 146/63/73
f 137/52/74 136/60/75 155/61/75 151/55/74
f 105/64/76 106/62/73 146/63/73 145/65/76
f 139/62/77 138/64/78 156/65/78 152/63/77
f 142/59/65 157/59/65 150/58/58 143/58/58
f 145/65/63 156/65/63 153/66/64 144/66/64
f 147/61/61 155/61/61 152/63/62 146/63/62
f 149/54/59 154/54/59 151/55/60 148/55/60
f 144/66/64 153/66/64 157/59/65 142/59/65
f 146/63/62 152/63/62 156/65/63 145/65/63
f 148/55/60 151/55/60 155/61/61 147/61/61
f 143/58/58 150/58/58 154/54/59 149/54/59
f 138/64/78 141/67/79 153/66/79 156/65/78
f 109/53/68 102/57/80 143/58/80 149/54/68
f 102/57/80 103/56/81 142/59/81 143/58/80
f 136/60/75 139/62/77 152/63/77 155/61/75
f 103/56/81 104/67/82 144/66/82 142/59/81
f 134/53/72 137/52/74 151/55/74 154/54/72
f 104/67/82 105/64/76 145/65/76 144/66/82
f 141/67/79 140/56/69 157/59/69 153/66/79
f 133/68/66 132/69/66 131/70/66 130/71/66 129/72/66 128/73/66 127/74/66 126/75/66
