# Blender 4.1.1
# www.blender.org
mtllib cGround_B_7_.mtl
o cGround_B_7_
v 7.247811 0.000000 -8.168986
v 7.145245 0.000001 6.873681
v -1.416374 0.000001 6.565969
v 0.698389 0.000001 7.283968
v 2.984102 0.000001 7.694252
v 5.269816 0.000001 7.283967
v 5.269811 -0.000000 -8.716033
v 2.984097 0.000000 -8.305746
v 0.698382 -0.000000 -8.716031
v 7.555526 0.000000 -6.049366
v 7.282003 0.000000 -3.553653
v 7.555528 0.000000 -0.716034
v 6.974292 0.000000 1.848062
v 7.555531 0.000001 4.617300
v -1.587331 0.000000 -6.049364
v 0.931141 0.348072 -6.027189
v 0.378919 0.271985 -3.394626
v 1.059644 0.328861 -0.752418
v 1.007690 0.320923 1.909638
v 0.698388 0.311672 4.617302
v 3.184338 0.105328 -5.896972
v 2.354783 0.008180 -3.250643
v 2.984099 0.000000 -0.482932
v 3.130478 0.208887 2.299604
v 3.157094 0.101520 4.767914
v 5.269811 0.411998 -6.049366
v 5.719553 0.420101 -3.451947
v 5.269813 0.411998 -0.716033
v 4.579012 0.364913 1.994605
v 5.269816 0.411998 4.617300
v -1.758279 0.000001 4.548922
v -1.313808 0.000000 -7.998031
v -1.382187 0.000000 -3.348507
v -1.245424 0.000000 -0.579269
v -1.587328 0.000000 1.950636
vn 0.1075 0.9899 -0.0921
vn -0.0879 0.9933 -0.0753
vn 0.0643 0.9935 -0.0938
vn -0.0822 0.9918 -0.0978
vn -0.0588 0.9943 0.0895
vn -0.1261 0.9916 0.0295
vn -0.1565 0.9867 -0.0446
vn -0.1437 0.9896 0.0076
vn -0.1302 0.9915 0.0074
vn 0.0353 0.9966 0.0747
vn 0.0671 0.9974 0.0261
vn 0.1144 0.9927 -0.0386
vn 0.1549 0.9868 -0.0464
vn 0.1147 0.9914 0.0626
vn -0.0802 0.9942 0.0720
vn -0.1242 0.9922 -0.0095
vn -0.1318 0.9912 -0.0085
vn -0.1456 0.9893 0.0116
vn -0.1434 0.9897 0.0048
vn 0.1071 0.9900 0.0918
vn 0.1621 0.9857 -0.0469
vn 0.1650 0.9851 0.0486
vn 0.2115 0.9773 0.0081
vn 0.2111 0.9774 -0.0089
vt 0.489440 0.569858
vt 0.489440 0.572733
vt 0.489440 0.572733
vt 0.489441 0.572733
vt 0.489441 0.570305
vt 0.489441 0.571998
vt 0.489441 0.572733
vt 0.489441 0.572025
vt 0.489440 0.570187
vt 0.489441 0.571276
vt 0.489440 0.569802
vt 0.489441 0.572676
vt 0.489441 0.570558
vt 0.489441 0.570494
vt 0.489441 0.570439
vt 0.489441 0.570835
s 1
usemtl City_Atlas
f 26/1/1 10/2/1 1/2/1 7/3/1
f 15/4/2 16/5/2 9/4/2 32/4/2
f 16/5/3 21/6/3 8/7/3 9/4/3
f 21/6/4 26/1/4 7/3/4 8/7/4
f 5/7/5 6/3/5 30/1/5 25/8/5
f 25/8/6 30/1/6 29/9/6 24/10/6
f 24/10/7 29/9/7 28/1/7 23/7/7
f 23/7/8 28/1/8 27/11/8 22/12/8
f 22/12/9 27/11/9 26/1/9 21/6/9
f 4/4/10 5/7/10 25/8/10 20/13/10
f 20/13/11 25/8/11 24/10/11 19/14/11
f 19/14/12 24/10/12 23/7/12 18/15/12
f 18/15/13 23/7/13 22/12/13 17/16/13
f 17/16/14 22/12/14 21/6/14 16/5/14
f 3/4/15 4/4/15 20/13/15 31/4/15
f 31/4/16 20/13/16 19/14/16 35/4/16
f 35/4/17 19/14/17 18/15/17 34/4/17
f 34/4/18 18/15/18 17/16/18 33/4/18
f 33/4/19 17/16/19 16/5/19 15/4/19
f 6/3/20 2/2/20 14/2/20 30/1/20
f 30/1/21 14/2/21 13/2/21 29/9/21
f 29/9/22 13/2/22 12/2/22 28/1/22
f 28/1/23 12/2/23 11/2/23 27/11/23
f 27/11/24 11/2/24 10/2/24 26/1/24
