# Blender 4.1.1
# www.blender.org
mtllib cGround_B_8_.mtl
o cGround_B_8_
v -3.258698 0.000000 -7.330356
v -2.692222 0.000001 6.934471
v -1.142852 0.000001 8.001970
v 1.142862 0.000001 8.001969
v 2.980604 0.000000 -7.758804
v 1.142856 0.000000 -7.998030
v -1.142858 0.000000 -7.998028
v -3.428571 0.000000 -5.331361
v -3.873943 0.000001 -2.094505
v -3.428570 0.000001 0.001972
v -3.428568 0.000001 2.668638
v -3.428567 0.000001 5.335304
v -1.360510 0.480268 -5.592389
v -1.498659 0.352225 -2.829117
v -0.756464 0.208155 -0.177357
v -1.396984 0.302660 2.520248
v -1.531349 0.179381 5.280113
v 1.054835 0.312444 -5.022888
v 1.562590 0.351768 -1.736785
v 0.968191 0.464095 0.018452
v 1.067759 0.411488 2.867227
v 1.752143 0.328228 5.052531
v 3.887971 0.000001 -3.030448
v 3.428573 0.000001 0.001969
v 3.785186 0.000001 2.466916
v 3.428575 0.000001 5.335303
v 2.967916 0.000001 7.200855
v 3.428571 0.000000 -5.331363
vn -0.2263 0.9739 -0.0196
vn -0.2602 0.9645 -0.0444
vn -0.2428 0.9699 -0.0206
vn 0.1038 0.9887 -0.1080
vn 0.0861 0.9904 -0.1080
vn 0.1121 0.9897 -0.0893
vn 0.1353 0.9904 -0.0289
vn 0.1384 0.9896 -0.0393
vn 0.1330 0.9909 -0.0180
vn 0.0544 0.9908 0.1237
vn 0.0640 0.9901 0.1249
vn 0.0512 0.9919 0.1164
vn 0.1902 0.9815 0.0216
vn 0.1880 0.9807 0.0539
vn 0.1859 0.9821 0.0317
vn 0.1505 0.9884 -0.0226
vn 0.1383 0.9901 -0.0233
vn 0.1468 0.9889 -0.0211
vn 0.1882 0.9821 0.0083
vn 0.1906 0.9816 -0.0102
vn 0.1853 0.9827 -0.0000
vn 0.1376 0.9902 -0.0247
vn 0.1354 0.9900 -0.0402
vn 0.1285 0.9911 -0.0335
vn -0.0327 0.9972 0.0666
vn 0.0023 0.9986 0.0523
vn -0.0128 0.9968 0.0786
vn -0.0321 0.9983 0.0477
vn -0.0442 0.9977 0.0510
vn -0.0436 0.9976 0.0545
vn -0.0423 0.9989 0.0183
vn -0.0485 0.9987 0.0166
vn -0.0474 0.9984 0.0307
vn -0.1247 0.9858 -0.1127
vn -0.1449 0.9831 -0.1120
vn -0.1389 0.9851 -0.1012
vn 0.0089 0.9999 -0.0121
vn -0.0010 0.9998 -0.0188
vn 0.0023 1.0000 -0.0039
vn -0.0494 0.9962 0.0717
vn -0.0601 0.9962 0.0634
vn -0.0503 0.9960 0.0741
vn -0.0827 0.9965 -0.0089
vn -0.0835 0.9965 -0.0019
vn -0.0954 0.9954 -0.0004
vn -0.1482 0.9890 0.0008
vn -0.1623 0.9867 -0.0032
vn -0.1522 0.9883 -0.0019
vn -0.0716 0.9946 0.0750
vn -0.0822 0.9939 0.0729
vn -0.0744 0.9941 0.0783
vn -0.1170 0.9927 -0.0275
vn -0.1386 0.9902 -0.0141
vn -0.1567 0.9874 -0.0238
vn -0.0624 0.9772 -0.2028
vn -0.0710 0.9746 -0.2126
vn -0.0479 0.9699 -0.2387
vn 0.0031 0.9779 -0.2091
vn 0.0066 0.9850 -0.1725
vn -0.0323 0.9752 -0.2188
vn 0.0160 0.9935 -0.1131
vn 0.0133 0.9953 -0.0963
vn 0.0294 0.9923 -0.1204
vn 0.1872 0.9812 0.0462
vn 0.1866 0.9816 0.0406
vn 0.2167 0.9750 0.0483
vn 0.1479 0.9889 -0.0113
vn 0.1418 0.9899 -0.0035
vn 0.1511 0.9885 -0.0057
vn 0.1875 0.9822 0.0081
vn 0.1855 0.9826 0.0118
vn 0.1971 0.9803 0.0133
vn 0.1720 0.9848 0.0253
vn 0.1627 0.9864 0.0247
vn 0.1600 0.9867 0.0269
vn 0.1367 0.9903 -0.0239
vn 0.1260 0.9916 -0.0287
vn 0.1118 0.9931 -0.0364
vn -0.0287 0.9938 0.1074
vn -0.0388 0.9937 0.1052
vn -0.0449 0.9984 0.0333
vn -0.0538 0.9976 0.0426
vn -0.0467 0.9979 0.0458
vn -0.1366 0.9880 -0.0721
vn -0.1474 0.9872 -0.0604
vn -0.1295 0.9895 -0.0635
vn -0.0219 0.9985 0.0505
vn -0.0296 0.9977 0.0617
vn -0.0194 0.9978 0.0641
vn 0.0605 0.9971 0.0458
vn 0.0490 0.9974 0.0519
vn 0.0683 0.9961 0.0557
vn -0.0934 0.9948 0.0415
vn -0.0939 0.9946 0.0435
vn -0.0872 0.9948 0.0519
vn -0.1446 0.9892 0.0223
vn -0.1451 0.9888 0.0359
vn -0.1482 0.9881 0.0409
vn -0.0812 0.9953 -0.0530
vn -0.0825 0.9948 -0.0590
vn -0.0853 0.9953 -0.0453
vn -0.1366 0.9902 0.0290
vn -0.1419 0.9894 0.0311
vn -0.1449 0.9885 0.0434
vn -0.2060 0.9785 -0.0004
vn -0.2223 0.9745 0.0294
vn -0.2275 0.9727 0.0465
vt 0.489441 0.572733
vt 0.489441 0.569382
vt 0.489441 0.570553
vt 0.489441 0.572733
vt 0.489440 0.572733
vt 0.489441 0.570443
vt 0.489440 0.572733
vt 0.489441 0.569862
vt 0.489441 0.570279
vt 0.489441 0.569495
vt 0.489441 0.571482
vt 0.489441 0.570621
vt 0.489441 0.571281
vt 0.489441 0.570276
s 1
usemtl City_Atlas
f 1/1/1 8/1/2 13/2/3
f 13/2/4 18/3/5 6/4/6
f 18/3/7 28/5/8 5/5/9
f 22/6/10 4/4/11 27/5/12
f 22/6/13 26/5/14 25/7/15
f 21/8/16 25/7/17 24/5/18
f 19/9/19 20/10/20 24/5/21
f 18/3/22 19/9/23 23/7/24
f 17/11/25 3/1/26 4/4/27
f 17/11/28 22/6/29 21/8/30
f 16/12/31 21/8/32 20/10/33
f 15/13/34 20/10/35 19/9/36
f 14/14/37 19/9/38 18/3/39
f 2/1/40 3/1/41 17/11/42
f 11/1/43 12/1/44 17/11/45
f 10/1/46 11/1/47 16/12/48
f 10/1/49 15/13/50 14/14/51
f 8/1/52 9/1/53 14/14/54
f 1/1/55 13/2/56 7/1/57
f 13/2/58 6/4/59 7/1/60
f 18/3/61 5/5/62 6/4/63
f 22/6/64 27/5/65 26/5/66
f 22/6/67 25/7/68 21/8/69
f 21/8/70 24/5/71 20/10/72
f 19/9/73 24/5/74 23/7/75
f 18/3/76 23/7/77 28/5/78
f 17/11/79 4/4/27 22/6/80
f 17/11/81 21/8/82 16/12/83
f 16/12/84 20/10/85 15/13/86
f 15/13/87 19/9/88 14/14/89
f 14/14/90 18/3/91 13/2/92
f 2/1/93 17/11/94 12/1/95
f 11/1/96 17/11/97 16/12/98
f 10/1/99 16/12/100 15/13/101
f 10/1/102 14/14/103 9/1/104
f 8/1/105 14/14/106 13/2/107
