# Blender 4.1.1
# www.blender.org
mtllib ConcrateSlabs_C_1_3.mtl
o ConcrateSlabs_C_1_3
v -4.000003 -0.000000 -3.999999
v 3.999997 -0.000000 -4.000001
v -4.000000 0.000001 4.000001
v 4.000000 0.000001 3.999999
v -3.910174 0.400000 -3.920000
v -4.000003 0.400000 -3.999999
v 3.910169 0.400000 -3.920002
v 3.999997 0.400000 -4.000001
v 3.910172 0.400001 3.920000
v 4.000000 0.400000 3.999999
v -3.910172 0.400001 3.920002
v -4.000000 0.400000 4.000001
v 1.031761 0.400000 -2.495788
v 0.105456 0.400000 -2.513043
v 0.640687 0.400000 -1.820357
v -2.054503 0.400000 -1.354231
v -2.157145 0.400000 -1.092263
v -1.703514 0.400000 -0.993699
v 2.912799 0.400000 1.937787
v 2.515987 0.400000 1.656884
v 2.582381 0.400000 2.438369
v 3.060339 0.400000 -1.187598
v 2.866122 0.400000 -1.043005
v 3.050224 0.400000 -0.807504
v 0.259102 0.400000 0.624020
v -0.285363 0.400000 0.435173
v -0.143423 0.400000 0.886656
v -2.617818 0.400000 0.628199
v -2.768146 0.400000 0.640685
v -2.550426 0.400000 0.977870
vn -1.0000 -0.0000 -0.0000
vn -0.0000 -1.0000 -0.0000
vn 1.0000 -0.0000 -0.0000
vn -0.0000 -0.0000 -1.0000
vn -0.0000 -0.0000 1.0000
vn -0.0000 1.0000 -0.0000
vt 0.572313 0.357292
vt 0.572313 0.357285
vt 0.572313 0.357285
vt 0.574239 0.338975
vt 0.574239 0.338977
vt 0.574239 0.338977
vt 0.574239 0.338975
vt 0.572313 0.357283
vt 0.572313 0.357283
vt 0.566181 0.369522
vt 0.566180 0.369522
vt 0.566181 0.369522
vt 0.572313 0.357283
vt 0.566180 0.369522
vt 0.572313 0.357283
s 1
usemtl City_Atlas
f 1/1/1 3/1/1 12/2/1 6/3/1
f 2/1/2 4/1/2 3/1/2 1/1/2
f 8/2/3 10/3/3 4/1/3 2/1/3
f 2/1/4 1/1/4 6/2/4 8/3/4
f 4/1/5 10/2/5 12/3/5 3/1/5
f 7/4/6 8/5/6 6/6/6 5/4/6
f 10/6/6 9/7/6 11/4/6 12/5/6
f 5/4/6 6/5/6 12/6/6 11/4/6
f 8/6/6 7/4/6 9/7/6 10/5/6
f 5/8/6 17/8/6 16/9/6 18/8/6 14/8/6
f 7/8/6 5/8/6 14/8/6 13/8/6
f 13/10/6 14/10/6 15/11/6
f 17/10/6 18/10/6 16/12/6
f 17/8/6 5/8/6 29/13/6
f 11/8/6 9/13/6 19/8/6 21/13/6 20/8/6
f 21/11/6 19/10/6 20/10/6
f 7/8/6 13/8/6 23/13/6 22/8/6
f 22/10/6 23/11/6 24/10/6
f 11/8/6 20/8/6 25/8/6 27/8/6 26/8/6
f 27/10/6 25/10/6 26/10/6
f 11/8/6 26/8/6 30/8/6 29/13/6
f 29/11/6 30/10/6 28/14/6
f 18/8/6 15/13/6 14/8/6
f 15/13/6 23/13/6 13/8/6
f 24/8/6 7/8/6 22/8/6
f 15/13/6 25/8/6 23/13/6
f 23/13/6 25/8/6 24/8/6
f 18/8/6 26/8/6 15/13/6
f 24/8/6 9/13/6 7/8/6
f 24/8/6 19/8/6 9/13/6
f 24/8/6 20/8/6 19/8/6
f 24/8/6 25/8/6 20/8/6
f 15/13/6 26/8/6 25/8/6
f 26/8/6 28/15/6 30/8/6
f 17/8/6 28/15/6 18/8/6
f 18/8/6 28/15/6 26/8/6
f 29/13/6 5/8/6 11/8/6
f 17/8/6 29/13/6 28/15/6
