# Blender 4.1.1
# www.blender.org
mtllib ConcrateFrame_2_2.mtl
o ConcrateFrame_2_2
v 0.539950 1.301470 -1.000000
v 0.539953 1.301470 0.999999
v -0.200001 1.301470 -1.000000
v -0.199999 1.301470 1.000000
v -0.289761 0.000000 1.089762
v -0.289764 -0.000000 -1.089762
v 0.629715 0.000000 1.089762
v 0.629712 -0.000000 -1.089763
v 0.539950 1.441440 -1.000000
v 0.539953 1.441440 0.999999
v -0.199999 1.441440 1.000000
v -0.200001 1.441440 -1.000000
v -0.289764 1.441440 -1.089762
v 0.629712 1.441440 -1.089763
v 0.629715 1.441440 1.089762
v -0.289761 1.441440 1.089762
v -0.286735 0.294905 -1.313068
v -0.434150 0.294905 -1.313068
v -0.286733 0.294905 1.313069
v -0.434148 0.294905 1.313069
v -0.286735 0.383164 -1.313068
v -0.434150 0.383164 -1.313068
v -0.286733 0.383165 1.313069
v -0.434148 0.383165 1.313069
v -0.286735 0.994662 -1.313068
v -0.434150 0.994662 -1.313068
v -0.286733 0.994662 1.313068
v -0.434148 0.994662 1.313069
v -0.286735 1.082922 -1.313068
v -0.434150 1.082922 -1.313068
v -0.286733 1.082922 1.313068
v -0.434148 1.082922 1.313069
v 0.777127 0.294904 -1.313069
v 0.629712 0.294904 -1.313069
v 0.777129 0.294905 1.313068
v 0.629714 0.294905 1.313068
v 0.777127 0.383164 -1.313069
v 0.629712 0.383164 -1.313069
v 0.777129 0.383165 1.313068
v 0.629714 0.383165 1.313068
v 0.777127 0.994662 -1.313069
v 0.629712 0.994662 -1.313069
v 0.777129 0.994662 1.313068
v 0.629714 0.994662 1.313068
v 0.777127 1.082922 -1.313069
v 0.629712 1.082922 -1.313069
v 0.777129 1.082922 1.313068
v 0.629714 1.082922 1.313068
v 0.865429 1.082922 -1.237177
v 0.865429 1.082922 -1.089763
v 0.865429 1.171181 -1.237177
v 0.865429 1.171181 -1.089763
v -0.522452 1.082922 -1.237177
v -0.522451 1.082922 -1.089762
v -0.522452 1.171181 -1.237177
v -0.522451 1.171181 -1.089762
v 0.865429 0.383164 -1.237177
v 0.865429 0.383164 -1.089763
v 0.865429 0.471424 -1.237177
v 0.865429 0.471424 -1.089763
v -0.522452 0.383164 -1.237177
v -0.522451 0.383164 -1.089762
v -0.522452 0.471424 -1.237177
v -0.522451 0.471424 -1.089762
v 0.865431 1.082922 1.089761
v 0.865431 1.082922 1.237176
v 0.865431 1.171181 1.089761
v 0.865431 1.171181 1.237176
v -0.522450 1.082922 1.089762
v -0.522450 1.082922 1.237176
v -0.522450 1.171181 1.089762
v -0.522450 1.171181 1.237176
v 0.865431 0.383165 1.089761
v 0.865431 0.383165 1.237176
v 0.865431 0.471424 1.089761
v 0.865431 0.471424 1.237176
v -0.522450 0.383165 1.089762
v -0.522450 0.383165 1.237176
v -0.522450 0.471424 1.089762
v -0.522450 0.471424 1.237176
v 0.777128 0.000000 0.377076
v 0.777129 0.000000 0.524490
v 0.865388 0.000000 0.377076
v 0.865388 0.000000 0.524490
v 0.777128 1.441440 0.377076
v 0.777129 1.441440 0.524490
v 0.865388 1.441440 0.377076
v 0.865388 1.441440 0.524490
v 0.777128 -0.000000 -0.594190
v 0.777128 -0.000000 -0.446775
v 0.865387 -0.000000 -0.594190
v 0.865387 -0.000000 -0.446775
v 0.777128 1.441440 -0.594190
v 0.777128 1.441440 -0.446775
v 0.865387 1.441440 -0.594190
v 0.865387 1.441440 -0.446775
v -0.522408 0.000000 0.377077
v -0.522408 0.000000 0.524491
v -0.434149 0.000000 0.377077
v -0.434149 0.000000 0.524491
v -0.522408 1.441440 0.377077
v -0.522408 1.441440 0.524491
v -0.434149 1.441440 0.377077
v -0.434149 1.441440 0.524491
v -0.522409 -0.000000 -0.594189
v -0.522409 -0.000000 -0.446775
v -0.434150 -0.000000 -0.594189
v -0.434149 -0.000000 -0.446775
v -0.522409 1.441440 -0.594189
v -0.522409 1.441440 -0.446775
v -0.434150 1.441440 -0.594189
v -0.434149 1.441440 -0.446775
v -0.522409 1.063152 -0.642212
v -0.522409 1.063152 -0.494797
v -0.434150 1.063152 -0.642212
v -0.434150 1.063152 -0.494797
v -0.522409 0.634992 -0.455414
v -0.522409 0.634992 -0.602828
v -0.434150 0.634992 -0.602828
v -0.434149 0.634992 -0.455414
vn -1.0000 -0.0000 -0.0000
vn -0.0000 1.0000 -0.0000
vn 1.0000 -0.0000 -0.0000
vn -0.0000 -0.0000 1.0000
vn -0.0000 -0.0000 -1.0000
vn -0.0000 -1.0000 -0.0000
vn -0.0000 0.1259 -0.9920
vn -0.0000 -0.1259 0.9920
vn -0.0000 0.0916 0.9958
vn -0.0000 -0.0916 -0.9958
vn -0.0000 -0.0136 -0.9999
vn -0.0000 0.0136 0.9999
vt 0.575011 0.460651
vt 0.575011 0.460502
vt 0.575016 0.460502
vt 0.575016 0.460651
vt 0.674756 0.081094
vt 0.674221 0.081094
vt 0.674221 0.075741
vt 0.674756 0.075741
vt 0.575006 0.460651
vt 0.575006 0.460502
vt 0.574773 0.460502
vt 0.574868 0.460502
vt 0.574868 0.460658
vt 0.574773 0.460658
vt 0.574795 0.460658
vt 0.574795 0.460753
vt 0.574773 0.460753
vt 0.574816 0.460658
vt 0.574816 0.460753
vt 0.574816 0.460673
vt 0.574822 0.460658
vt 0.574822 0.460673
vt 0.575006 0.460658
vt 0.574984 0.460658
vt 0.574984 0.460502
vt 0.574966 0.460505
vt 0.574966 0.460655
vt 0.574963 0.460658
vt 0.574963 0.460502
vt 0.574981 0.460655
vt 0.574981 0.460505
vt 0.574827 0.460658
vt 0.574827 0.460673
vt 0.483737 0.568053
vt 0.483727 0.568053
vt 0.483737 0.568265
vt 0.483727 0.568265
vt 0.491492 0.524232
vt 0.491497 0.524232
vt 0.491497 0.524341
vt 0.491492 0.524341
vt 0.483737 0.572367
vt 0.483727 0.572367
vt 0.483737 0.572578
vt 0.483727 0.572578
vt 0.491492 0.526453
vt 0.491497 0.526453
vt 0.491497 0.526562
vt 0.491492 0.526562
vt 0.483786 0.568053
vt 0.483776 0.568053
vt 0.483786 0.568265
vt 0.483776 0.568265
vt 0.491518 0.524232
vt 0.491523 0.524232
vt 0.491523 0.524341
vt 0.491518 0.524341
vt 0.483786 0.572367
vt 0.483776 0.572367
vt 0.483786 0.572578
vt 0.483776 0.572578
vt 0.491518 0.526453
vt 0.491523 0.526453
vt 0.491523 0.526562
vt 0.491518 0.526562
vt 0.491526 0.526562
vt 0.491526 0.526671
vt 0.491489 0.526562
vt 0.491489 0.526671
vt 0.489993 0.601469
vt 0.489993 0.601257
vt 0.489922 0.601257
vt 0.489922 0.601469
vt 0.491526 0.524341
vt 0.491526 0.524450
vt 0.491489 0.524341
vt 0.491489 0.524450
vt 0.489993 0.597155
vt 0.489993 0.596944
vt 0.489922 0.596944
vt 0.489922 0.597155
vt 0.483792 0.572790
vt 0.483792 0.572578
vt 0.483721 0.572578
vt 0.483721 0.572790
vt 0.483792 0.568477
vt 0.483792 0.568265
vt 0.483721 0.568265
vt 0.483721 0.568477
vt 0.491523 0.523868
vt 0.491526 0.523868
vt 0.491523 0.527005
vt 0.491526 0.527005
vt 0.486112 0.585948
vt 0.486112 0.592041
vt 0.486118 0.592041
vt 0.486118 0.585948
vt 0.489987 0.596024
vt 0.489987 0.602117
vt 0.489993 0.602117
vt 0.489993 0.596024
vt 0.491489 0.523868
vt 0.491492 0.523868
vt 0.491489 0.527005
vt 0.491492 0.527005
vt 0.483721 0.567346
vt 0.483721 0.573438
vt 0.483727 0.573438
vt 0.483727 0.567346
vt 0.489922 0.600177
vt 0.489922 0.602117
vt 0.489928 0.602117
vt 0.489928 0.600177
vt 0.489928 0.600177
vt 0.489928 0.597548
vt 0.489922 0.597548
vt 0.489922 0.596024
vt 0.489928 0.596024
s 1
usemtl City_Car
f 1/1/1 2/2/1 10/3/1 9/4/1
f 4/5/2 2/6/2 1/7/2 3/8/2
f 4/2/3 3/1/3 12/9/3 11/10/3
f 5/11/1 16/12/1 13/13/1 6/14/1
f 7/15/4 15/16/4 16/17/4 5/14/4
f 6/18/5 13/19/5 14/16/5 8/15/5
f 3/20/4 1/18/4 9/21/4 12/22/4
f 6/23/6 8/24/6 7/25/6 5/10/6
f 11/26/2 12/27/2 13/28/2 16/29/2
f 12/27/2 9/30/2 14/24/2 13/28/2
f 9/30/2 10/31/2 15/25/2 14/24/2
f 10/31/2 11/26/2 16/29/2 15/25/2
f 2/22/5 4/21/5 11/32/5 10/33/5
f 8/28/3 14/13/3 15/12/3 7/29/3
usemtl City_Atlas
f 17/34/6 19/34/6 20/35/6 18/35/6
f 21/36/2 22/37/2 24/37/2 23/36/2
f 18/35/1 20/35/1 24/37/1 22/37/1
f 19/34/3 17/34/3 21/36/3 23/36/3
f 20/38/4 19/39/4 23/40/4 24/41/4
f 17/39/5 18/38/5 22/41/5 21/40/5
f 25/42/6 27/42/6 28/43/6 26/43/6
f 29/44/2 30/45/2 32/45/2 31/44/2
f 26/43/1 28/43/1 32/45/1 30/45/1
f 27/42/3 25/42/3 29/44/3 31/44/3
f 28/46/4 27/47/4 31/48/4 32/49/4
f 25/47/5 26/46/5 30/49/5 29/48/5
f 33/50/6 35/50/6 36/51/6 34/51/6
f 37/52/2 38/53/2 40/53/2 39/52/2
f 34/51/1 36/51/1 40/53/1 38/53/1
f 35/50/3 33/50/3 37/52/3 39/52/3
f 36/54/4 35/55/4 39/56/4 40/57/4
f 33/55/5 34/54/5 38/57/5 37/56/5
f 41/58/6 43/58/6 44/59/6 42/59/6
f 45/60/2 46/61/2 48/61/2 47/60/2
f 42/59/1 44/59/1 48/61/1 46/61/1
f 43/58/3 41/58/3 45/60/3 47/60/3
f 44/62/4 43/63/4 47/64/4 48/65/4
f 41/63/5 42/62/5 46/65/5 45/64/5
f 49/66/3 51/67/3 52/67/3 50/66/3
f 53/68/1 54/68/1 56/69/1 55/69/1
f 51/70/5 49/71/5 53/72/5 55/73/5
f 52/70/2 51/70/2 55/73/2 56/73/2
f 50/71/4 52/70/4 56/73/4 54/72/4
f 49/71/6 50/71/6 54/72/6 53/72/6
f 57/74/3 59/75/3 60/75/3 58/74/3
f 61/76/1 62/76/1 64/77/1 63/77/1
f 59/78/5 57/79/5 61/80/5 63/81/5
f 60/78/2 59/78/2 63/81/2 64/81/2
f 58/79/4 60/78/4 64/81/4 62/80/4
f 57/79/6 58/79/6 62/80/6 61/80/6
f 65/66/3 67/67/3 68/67/3 66/66/3
f 69/68/1 70/68/1 72/69/1 71/69/1
f 67/82/5 65/83/5 69/84/5 71/85/5
f 68/82/2 67/82/2 71/85/2 72/85/2
f 66/83/4 68/82/4 72/85/4 70/84/4
f 65/83/6 66/83/6 70/84/6 69/84/6
f 73/74/3 75/75/3 76/75/3 74/74/3
f 77/76/1 78/76/1 80/77/1 79/77/1
f 75/86/5 73/87/5 77/88/5 79/89/5
f 76/86/2 75/86/2 79/89/2 80/89/2
f 74/87/4 76/86/4 80/89/4 78/88/4
f 73/87/6 74/87/6 78/88/6 77/88/6
f 81/90/6 83/91/6 84/91/6 82/90/6
f 85/92/2 86/92/2 88/93/2 87/93/2
f 82/94/1 86/95/1 85/95/1 81/94/1
f 81/94/5 85/95/5 87/96/5 83/97/5
f 83/97/3 87/96/3 88/96/3 84/97/3
f 84/97/4 88/96/4 86/95/4 82/94/4
f 89/90/6 91/91/6 92/91/6 90/90/6
f 93/92/2 94/92/2 96/93/2 95/93/2
f 90/98/1 94/99/1 93/99/1 89/98/1
f 89/98/5 93/99/5 95/100/5 91/101/5
f 91/101/3 95/100/3 96/100/3 92/101/3
f 92/101/4 96/100/4 94/99/4 90/98/4
f 97/102/6 99/103/6 100/103/6 98/102/6
f 101/104/2 102/104/2 104/105/2 103/105/2
f 98/106/1 102/107/1 101/107/1 97/106/1
f 97/106/5 101/107/5 103/108/5 99/109/5
f 99/109/3 103/108/3 104/108/3 100/109/3
f 100/109/4 104/108/4 102/107/4 98/106/4
f 105/102/6 107/103/6 108/103/6 106/102/6
f 109/104/2 110/104/2 112/105/2 111/105/2
f 114/110/1 110/111/1 109/111/1 113/110/1
f 113/110/7 109/111/7 111/112/7 115/113/7
f 115/113/3 111/112/3 112/112/3 116/114/3
f 116/114/8 112/112/8 110/111/8 114/110/8
f 120/115/9 116/114/9 114/110/9 117/116/9
f 119/115/3 115/113/3 116/114/3 120/115/3
f 118/116/10 113/110/10 115/113/10 119/115/10
f 117/116/1 114/110/1 113/110/1 118/116/1
f 106/117/1 117/116/1 118/116/1 105/117/1
f 105/117/11 118/116/11 119/115/11 107/118/11
f 107/118/3 119/115/3 120/115/3 108/118/3
f 108/118/12 120/115/12 117/116/12 106/117/12
