# Blender 4.1.1
# www.blender.org
mtllib ConcrateSlabs_B_2_2.mtl
o ConcrateSlabs_B_2_2
v -2.000001 -0.000001 -1.999999
v 1.999999 -0.000001 -2.000001
v -2.000000 0.000001 2.000001
v 2.000000 0.000001 1.999999
v -1.928213 0.399999 -1.933058
v -2.000001 0.399999 -1.999999
v 1.928211 0.399999 -1.933059
v 1.999999 0.399999 -2.000000
v 1.928212 0.400001 1.933058
v 2.000000 0.400001 1.999999
v -1.928212 0.400001 1.933059
v -2.000000 0.400001 2.000001
v 1.169749 0.400000 1.229773
v 1.175301 0.400000 0.918876
v 0.942137 0.400000 1.024352
v 0.209331 0.400000 -0.024880
v -0.051591 0.400000 0.308212
v -0.201483 0.400000 -0.085945
v 1.587200 0.400000 -0.066300
v 1.507257 0.400000 -0.332772
v 0.974310 0.400000 -0.212861
v 1.314064 0.400000 0.013641
v 1.479504 0.400000 0.034847
v -0.646898 0.400000 -1.321143
v -0.340452 0.400000 -1.514350
v -0.513661 0.400000 -1.607604
v -0.713517 0.400000 -1.494353
v -1.046608 0.400000 1.010505
v -0.966666 0.400000 0.863944
v -1.259788 0.400000 0.704056
v -1.346392 0.400000 0.930565
vn -1.0000 -0.0000 -0.0000
vn -0.0000 -1.0000 -0.0000
vn 1.0000 -0.0000 -0.0000
vn -0.0000 -0.0000 -1.0000
vn -0.0000 -0.0000 1.0000
vn -0.0000 1.0000 -0.0000
vt 0.673784 0.065957
vt 0.673784 0.065964
vt 0.673784 0.065964
vt 0.669109 0.080211
vt 0.669109 0.080209
vt 0.669109 0.080209
vt 0.669109 0.080211
vt 0.673784 0.065966
vt 0.673784 0.065966
vt 0.676244 0.056738
vt 0.676244 0.056738
vt 0.676244 0.056738
vt 0.673784 0.065966
vt 0.673784 0.065966
vt 0.676244 0.056738
vt 0.673784 0.065966
vt 0.676244 0.056738
vt 0.673784 0.065966
s 1
usemtl City_Atlas
f 1/1/1 3/1/1 12/2/1 6/3/1
f 2/1/2 4/1/2 3/1/2 1/1/2
f 8/2/3 10/3/3 4/1/3 2/1/3
f 2/1/4 1/1/4 6/2/4 8/3/4
f 4/1/5 10/2/5 12/3/5 3/1/5
f 7/4/6 8/5/6 6/6/6 5/4/6
f 10/6/6 9/7/6 11/4/6 12/5/6
f 5/4/6 6/5/6 12/6/6 11/4/6
f 8/6/6 7/4/6 9/7/6 10/5/6
f 23/8/6 14/8/6 9/9/6
f 13/9/6 9/9/6 14/8/6
f 13/10/6 14/10/6 15/11/6
f 7/8/6 5/8/6 26/8/6
f 16/12/6 18/11/6 17/10/6
f 7/8/6 21/8/6 20/13/6
f 20/11/6 21/10/6 22/12/6 23/10/6 19/11/6
f 25/9/6 18/13/6 16/14/6
f 24/15/6 25/10/6 26/10/6 27/10/6
f 11/8/6 15/16/6 28/14/6
f 28/12/6 29/10/6 30/17/6 31/17/6
f 5/8/6 30/18/6 18/13/6
f 18/13/6 29/8/6 17/8/6
f 30/18/6 29/8/6 18/13/6
f 17/8/6 15/16/6 16/14/6
f 16/14/6 15/16/6 21/8/6
f 15/16/6 14/8/6 21/8/6
f 21/8/6 14/8/6 22/14/6
f 31/18/6 5/8/6 11/8/6
f 15/16/6 17/8/6 29/8/6
f 30/18/6 5/8/6 31/18/6
f 22/14/6 14/8/6 23/8/6
f 19/13/6 9/9/6 7/8/6
f 23/8/6 9/9/6 19/13/6
f 9/9/6 13/9/6 11/8/6
f 11/8/6 13/9/6 15/16/6
f 7/8/6 25/9/6 16/14/6
f 26/8/6 5/8/6 27/8/6
f 7/8/6 26/8/6 25/9/6
f 7/8/6 20/13/6 19/13/6
f 21/8/6 7/8/6 16/14/6
f 18/13/6 24/8/6 5/8/6
f 5/8/6 24/8/6 27/8/6
f 24/8/6 18/13/6 25/9/6
f 11/8/6 28/14/6 31/18/6
f 28/14/6 15/16/6 29/8/6
