# Blender 4.1.1
# www.blender.org
mtllib ConcrateSlabs_E_2_2.mtl
o ConcrateSlabs_E_2_2
v -2.000001 -0.000001 -1.999999
v 1.999999 -0.000001 -2.000001
v -2.000000 0.000001 2.000001
v 2.000000 0.000001 1.999999
v -1.928213 0.399999 -1.933058
v -2.000001 0.399999 -1.999999
v 1.928211 0.399999 -1.933059
v 1.999999 0.399999 -2.000000
v 1.928212 0.400001 1.933058
v 2.000000 0.400001 1.999999
v -1.928212 0.400001 1.933059
v -2.000000 0.400001 2.000001
v 1.169749 0.400000 1.229773
v 1.175301 0.400000 0.918876
v 0.942137 0.400000 1.024352
v 0.209331 0.400000 -0.024880
v -0.051591 0.400000 0.308212
v -0.201483 0.400000 -0.085945
v 1.587200 0.400000 -0.066300
v 1.507257 0.400000 -0.332772
v 0.974310 0.400000 -0.212861
v 1.314064 0.400000 0.013641
v 1.479504 0.400000 0.034847
v -0.646898 0.400000 -1.321143
v -0.340452 0.400000 -1.514350
v -0.513661 0.400000 -1.607604
v -0.713517 0.400000 -1.494353
v -1.046608 0.400000 1.010505
v -0.966666 0.400000 0.863944
v -1.259788 0.400000 0.704056
v -1.346392 0.400000 0.930565
vn -1.0000 -0.0000 -0.0000
vn -0.0000 -1.0000 -0.0000
vn 1.0000 -0.0000 -0.0000
vn -0.0000 -0.0000 -1.0000
vn -0.0000 -0.0000 1.0000
vn -0.0000 1.0000 -0.0000
vt 0.512615 0.092752
vt 0.512615 0.092759
vt 0.512615 0.092759
vt 0.509931 0.106862
vt 0.509931 0.106860
vt 0.509931 0.106862
vt 0.512614 0.092761
vt 0.512615 0.092761
vt 0.515306 0.080995
vt 0.515306 0.080995
vt 0.512614 0.092761
s 1
usemtl City_Atlas
f 1/1/1 3/1/1 12/2/1 6/3/1
f 2/1/2 4/1/2 3/1/2 1/1/2
f 8/2/3 10/3/3 4/1/3 2/1/3
f 2/1/4 1/1/4 6/2/4 8/3/4
f 4/1/5 10/2/5 12/3/5 3/1/5
f 7/4/6 8/5/6 6/5/6 5/4/6
f 10/5/6 9/6/6 11/4/6 12/5/6
f 5/4/6 6/5/6 12/5/6 11/4/6
f 8/5/6 7/4/6 9/6/6 10/5/6
f 23/7/6 14/7/6 9/8/6
f 13/8/6 9/8/6 14/7/6
f 13/9/6 14/9/6 15/9/6
f 7/7/6 5/7/6 26/7/6
f 16/10/6 18/9/6 17/9/6
f 7/7/6 21/7/6 20/7/6
f 20/9/6 21/9/6 22/10/6 23/9/6 19/9/6
f 25/8/6 18/7/6 16/7/6
f 24/10/6 25/9/6 26/9/6 27/9/6
f 11/7/6 15/8/6 28/7/6
f 28/10/6 29/9/6 30/10/6 31/10/6
f 5/7/6 30/11/6 18/7/6
f 18/7/6 29/7/6 17/7/6
f 30/11/6 29/7/6 18/7/6
f 17/7/6 15/8/6 16/7/6
f 16/7/6 15/8/6 21/7/6
f 15/8/6 14/7/6 21/7/6
f 21/7/6 14/7/6 22/7/6
f 31/11/6 5/7/6 11/7/6
f 15/8/6 17/7/6 29/7/6
f 30/11/6 5/7/6 31/11/6
f 22/7/6 14/7/6 23/7/6
f 19/7/6 9/8/6 7/7/6
f 23/7/6 9/8/6 19/7/6
f 9/8/6 13/8/6 11/7/6
f 11/7/6 13/8/6 15/8/6
f 7/7/6 25/8/6 16/7/6
f 26/7/6 5/7/6 27/7/6
f 7/7/6 26/7/6 25/8/6
f 7/7/6 20/7/6 19/7/6
f 21/7/6 7/7/6 16/7/6
f 18/7/6 24/7/6 5/7/6
f 5/7/6 24/7/6 27/7/6
f 24/7/6 18/7/6 25/8/6
f 11/7/6 28/7/6 31/11/6
f 28/7/6 15/8/6 29/7/6
