# Blender 4.1.1
# www.blender.org
mtllib ConcrateSlabs_A_3_2.mtl
o ConcrateSlabs_A_3_2
v -2.000001 -0.000001 -3.999999
v 1.999999 -0.000001 -4.000000
v -1.999998 0.000001 4.000000
v 2.000002 0.000001 3.999999
v -1.928213 0.399999 -3.933058
v -2.000001 0.399999 -3.999999
v 1.928211 0.399999 -3.933059
v 1.999999 0.399999 -4.000000
v 1.928214 0.400001 3.933058
v 2.000002 0.400001 3.999999
v -1.928210 0.400001 3.933059
v -1.999998 0.400001 4.000000
v 0.934234 0.400000 -1.833519
v 1.131815 0.399999 -2.355698
v 0.595524 0.399999 -2.383918
v 0.722540 0.400000 -1.875862
v -0.829883 0.400000 -0.662147
v -0.547624 0.400000 -0.986747
v -1.027465 0.400000 -1.057311
v 1.045942 0.400000 1.047515
v 1.198362 0.400000 0.319282
v 0.639488 0.400000 0.471702
v -0.037933 0.400001 3.096709
v -0.342772 0.400001 2.537833
v -0.596805 0.400001 2.995094
vn -1.0000 -0.0000 -0.0000
vn -0.0000 -1.0000 -0.0000
vn 1.0000 -0.0000 -0.0000
vn -0.0000 -0.0000 -1.0000
vn -0.0000 -0.0000 1.0000
vn -0.0000 1.0000 -0.0000
vt 0.543567 0.196173
vt 0.543567 0.196181
vt 0.543567 0.196181
vt 0.538892 0.210427
vt 0.538892 0.210426
vt 0.538892 0.210425
vt 0.538892 0.210427
vt 0.543567 0.196183
vt 0.543567 0.196183
vt 0.543567 0.196183
vt 0.545893 0.185719
vt 0.545893 0.185719
vt 0.545893 0.185719
vt 0.545893 0.185719
vt 0.543567 0.196183
vt 0.545893 0.185719
vt 0.545893 0.185719
vt 0.545893 0.185719
vt 0.543567 0.196183
vt 0.543567 0.196183
vt 0.543567 0.196183
s 1
usemtl City_Atlas
f 1/1/1 3/1/1 12/2/1 6/3/1
f 2/1/2 4/1/2 3/1/2 1/1/2
f 8/2/3 10/3/3 4/1/3 2/1/3
f 2/1/4 1/1/4 6/2/4 8/3/4
f 4/1/5 10/2/5 12/3/5 3/1/5
f 7/4/6 8/5/6 6/6/6 5/4/6
f 10/6/6 9/7/6 11/4/6 12/5/6
f 5/4/6 6/5/6 12/6/6 11/4/6
f 8/6/6 7/4/6 9/7/6 10/5/6
f 15/8/6 19/9/6 18/10/6
f 7/8/6 5/8/6 15/8/6
f 14/11/6 15/12/6 16/11/6 13/12/6
f 19/13/6 17/13/6 18/14/6
f 13/8/6 22/9/6 21/8/6
f 22/9/6 24/15/6 20/9/6
f 20/13/6 21/12/6 22/13/6
f 25/16/6 23/17/6 24/18/6
f 23/19/6 25/20/6 11/8/6
f 19/9/6 15/8/6 5/8/6
f 15/8/6 18/10/6 16/21/6
f 7/8/6 15/8/6 14/21/6
f 17/9/6 22/9/6 18/10/6
f 18/10/6 22/9/6 16/21/6
f 22/9/6 13/8/6 16/21/6
f 13/8/6 21/8/6 14/21/6
f 14/21/6 21/8/6 7/8/6
f 11/8/6 19/9/6 5/8/6
f 11/8/6 17/9/6 19/9/6
f 22/9/6 17/9/6 11/8/6
f 7/8/6 21/8/6 9/15/6
f 25/20/6 24/15/6 11/8/6
f 11/8/6 24/15/6 22/9/6
f 20/9/6 9/15/6 21/8/6
f 9/15/6 20/9/6 23/19/6
f 23/19/6 20/9/6 24/15/6
f 23/19/6 11/8/6 9/15/6
