# Blender 4.1.1
# www.blender.org
mtllib ConcrateSlabs_E_2_1.mtl
o ConcrateSlabs_E_2_1
v -2.000001 -0.000001 -1.999999
v 1.999999 -0.000001 -2.000001
v -2.000000 0.000001 2.000001
v 2.000000 0.000001 1.999999
v -1.928213 0.399999 -1.933058
v -2.000001 0.399999 -1.999999
v 1.928211 0.399999 -1.933059
v 1.999999 0.399999 -2.000000
v 1.928212 0.400001 1.933058
v 2.000000 0.400001 1.999999
v -1.928212 0.400001 1.933059
v -2.000000 0.400001 2.000001
vn -1.0000 -0.0000 -0.0000
vn -0.0000 -1.0000 -0.0000
vn 1.0000 -0.0000 -0.0000
vn -0.0000 -0.0000 -1.0000
vn -0.0000 -0.0000 1.0000
vn -0.0000 1.0000 -0.0000
vt 0.512615 0.092752
vt 0.512615 0.092759
vt 0.512615 0.092759
vt 0.509931 0.106862
vt 0.509931 0.106860
vt 0.509931 0.106862
vt 0.512614 0.092761
vt 0.512615 0.092761
s 1
usemtl City_Atlas
f 1/1/1 3/1/1 12/2/1 6/3/1
f 2/1/2 4/1/2 3/1/2 1/1/2
f 8/2/3 10/3/3 4/1/3 2/1/3
f 2/1/4 1/1/4 6/2/4 8/3/4
f 4/1/5 10/2/5 12/3/5 3/1/5
f 7/4/6 8/5/6 6/5/6 5/4/6
f 10/5/6 9/6/6 11/4/6 12/5/6
f 5/4/6 6/5/6 12/5/6 11/4/6
f 8/5/6 7/4/6 9/6/6 10/5/6
f 5/7/6 11/7/6 9/8/6 7/7/6
