# Blender 4.1.1
# www.blender.org
mtllib ConcrateSlabs_B_2_3.mtl
o ConcrateSlabs_B_2_3
v -2.000001 -0.000001 -1.999999
v 1.999999 -0.000001 -2.000001
v -2.000000 0.000001 2.000001
v 2.000000 0.000001 1.999999
v -1.928213 0.399999 -1.933058
v -2.000001 0.319294 -1.999999
v 1.928211 0.399999 -1.933059
v 1.999999 0.319294 -2.000001
v 1.928212 0.400001 1.933058
v 2.000000 0.319295 1.999999
v -1.928212 0.400001 1.933059
v -2.000000 0.319295 2.000001
v 1.206283 0.400000 1.470519
v 1.426124 0.400000 1.237349
v 1.139665 0.400000 1.184050
v -0.539126 0.400000 0.877617
v -0.419212 0.400000 0.704399
v -0.738980 0.400000 0.657768
v 0.585721 0.400000 -0.010178
v 0.697640 0.400000 -0.289986
v 0.305923 0.400000 -0.393906
v 0.201998 0.400000 -0.162079
v -1.452809 0.400000 -0.865554
v -1.420832 0.400000 -1.145362
v -1.756590 0.400000 -1.209327
vn -1.0000 -0.0000 -0.0000
vn -0.0000 -1.0000 -0.0000
vn 1.0000 -0.0000 -0.0000
vn -0.0000 -0.0000 -1.0000
vn -0.0000 -0.0000 1.0000
vn -0.0000 0.6384 -0.7697
vn -0.0000 0.6384 0.7697
vn -0.7472 0.6646 -0.0000
vn 0.7472 0.6646 -0.0000
vn -0.0000 1.0000 -0.0000
vt 0.673784 0.065957
vt 0.673784 0.065964
vt 0.673784 0.065964
vt 0.669109 0.080211
vt 0.669109 0.080209
vt 0.669109 0.080209
vt 0.669109 0.080211
vt 0.673784 0.065966
vt 0.673784 0.065966
vt 0.673784 0.065966
vt 0.673784 0.065966
vt 0.676244 0.053662
vt 0.676244 0.053662
vt 0.676244 0.053662
vt 0.673784 0.065966
vt 0.676244 0.053662
vt 0.676245 0.053662
vt 0.673784 0.065966
s 1
usemtl City_Atlas
f 1/1/1 3/1/1 12/2/1 6/3/1
f 2/1/2 4/1/2 3/1/2 1/1/2
f 8/2/3 10/3/3 4/1/3 2/1/3
f 2/1/4 1/1/4 6/2/4 8/3/4
f 4/1/5 10/2/5 12/3/5 3/1/5
f 7/4/6 8/5/6 6/6/6 5/4/6
f 10/6/7 9/7/7 11/4/7 12/5/7
f 5/4/8 6/5/8 12/6/8 11/4/8
f 8/6/9 7/4/9 9/7/9 10/5/9
f 5/8/10 25/9/10 24/10/10
f 11/8/10 9/11/10 13/11/10
f 13/12/10 14/13/10 15/12/10
f 11/8/10 15/8/10 16/11/10
f 16/12/10 17/12/10 18/14/10
f 21/15/10 5/8/10 22/8/10
f 21/16/10 22/12/10 19/12/10 20/13/10
f 25/14/10 23/12/10 24/17/10
f 23/8/10 11/8/10 18/9/10
f 5/8/10 24/10/10 22/8/10
f 11/8/10 13/11/10 15/8/10
f 13/11/10 9/11/10 14/10/10
f 11/8/10 16/11/10 18/9/10
f 16/11/10 15/8/10 17/8/10
f 5/8/10 21/15/10 7/8/10
f 7/8/10 21/15/10 20/18/10
f 23/8/10 22/8/10 24/10/10
f 19/8/10 14/10/10 20/18/10
f 20/18/10 14/10/10 7/8/10
f 7/8/10 14/10/10 9/11/10
f 14/10/10 19/8/10 15/8/10
f 15/8/10 19/8/10 17/8/10
f 22/8/10 17/8/10 19/8/10
f 23/8/10 18/9/10 22/8/10
f 22/8/10 18/9/10 17/8/10
f 11/8/10 25/9/10 5/8/10
f 25/9/10 11/8/10 23/8/10
