# Blender 4.1.1
# www.blender.org
mtllib ConcrateSlabs_E_3_2.mtl
o ConcrateSlabs_E_3_2
v -2.000001 -0.000001 -3.999999
v 1.999999 -0.000001 -4.000000
v -1.999998 0.000001 4.000000
v 2.000002 0.000001 3.999999
v -1.928213 0.399999 -3.933058
v -2.000001 0.399999 -3.999999
v 1.928211 0.399999 -3.933059
v 1.999999 0.399999 -4.000000
v 1.928214 0.400001 3.933058
v 2.000002 0.400001 3.999999
v -1.928210 0.400001 3.933059
v -1.999998 0.400001 4.000000
v 0.934234 0.400000 -1.833519
v 1.131815 0.399999 -2.355698
v 0.595524 0.399999 -2.383918
v 0.722540 0.400000 -1.875862
v -0.829883 0.400000 -0.662147
v -0.547624 0.400000 -0.986747
v -1.027465 0.400000 -1.057311
v 1.045942 0.400000 1.047515
v 1.198362 0.400000 0.319282
v 0.639488 0.400000 0.471702
v -0.037933 0.400001 3.096709
v -0.342772 0.400001 2.537833
v -0.596805 0.400001 2.995094
vn -1.0000 -0.0000 -0.0000
vn -0.0000 -1.0000 -0.0000
vn 1.0000 -0.0000 -0.0000
vn -0.0000 -0.0000 -1.0000
vn -0.0000 -0.0000 1.0000
vn -0.0000 1.0000 -0.0000
vt 0.512615 0.092752
vt 0.512615 0.092759
vt 0.512615 0.092759
vt 0.509931 0.106862
vt 0.509931 0.106860
vt 0.509931 0.106862
vt 0.512614 0.092761
vt 0.512615 0.092761
vt 0.515170 0.079759
vt 0.515171 0.079759
vt 0.515171 0.079759
vt 0.512614 0.092761
s 1
usemtl City_Atlas
f 1/1/1 3/1/1 12/2/1 6/3/1
f 2/1/2 4/1/2 3/1/2 1/1/2
f 8/2/3 10/3/3 4/1/3 2/1/3
f 2/1/4 1/1/4 6/2/4 8/3/4
f 4/1/5 10/2/5 12/3/5 3/1/5
f 7/4/6 8/5/6 6/5/6 5/4/6
f 10/5/6 9/6/6 11/4/6 12/5/6
f 5/4/6 6/5/6 12/5/6 11/4/6
f 8/5/6 7/4/6 9/6/6 10/5/6
f 15/7/6 19/8/6 18/8/6
f 7/7/6 5/7/6 15/7/6
f 14/9/6 15/9/6 16/9/6 13/9/6
f 19/10/6 17/10/6 18/11/6
f 13/7/6 22/8/6 21/7/6
f 22/8/6 24/8/6 20/8/6
f 20/10/6 21/9/6 22/10/6
f 25/9/6 23/9/6 24/10/6
f 23/12/6 25/7/6 11/7/6
f 19/8/6 15/7/6 5/7/6
f 15/7/6 18/8/6 16/7/6
f 7/7/6 15/7/6 14/7/6
f 17/8/6 22/8/6 18/8/6
f 18/8/6 22/8/6 16/7/6
f 22/8/6 13/7/6 16/7/6
f 13/7/6 21/7/6 14/7/6
f 14/7/6 21/7/6 7/7/6
f 11/7/6 19/8/6 5/7/6
f 11/7/6 17/8/6 19/8/6
f 22/8/6 17/8/6 11/7/6
f 7/7/6 21/7/6 9/8/6
f 25/7/6 24/8/6 11/7/6
f 11/7/6 24/8/6 22/8/6
f 20/8/6 9/8/6 21/7/6
f 9/8/6 20/8/6 23/12/6
f 23/12/6 20/8/6 24/8/6
f 23/12/6 11/7/6 9/8/6
