# Blender 4.1.1
# www.blender.org
mtllib ConcrateSlabs_E_3_3.mtl
o ConcrateSlabs_E_3_3
v -2.000001 -0.000001 -3.999999
v 1.999999 -0.000001 -4.000000
v -1.999998 0.000001 4.000000
v 2.000002 0.000001 3.999999
v -1.928213 0.399999 -3.933058
v -2.000001 0.399999 -3.999999
v 1.928211 0.399999 -3.933059
v 1.999999 0.399999 -4.000000
v 1.928214 0.400001 3.933058
v 2.000002 0.400001 3.999999
v -1.928210 0.400001 3.933059
v -1.999998 0.400001 4.000000
v 1.346302 0.399999 -2.964744
v 1.485145 0.399999 -3.332267
v 1.191126 0.399999 -3.413940
v -0.352479 0.400000 -1.584487
v -0.123797 0.399999 -2.311370
v -0.695502 0.400000 -2.139854
v -0.671000 0.400000 -1.641655
v 1.060648 0.400000 0.281898
v 1.276260 0.400000 -0.168930
v 1.001842 0.400000 -0.384552
v 0.815629 0.400000 0.144684
v -0.899486 0.400000 1.330575
v -0.791678 0.400000 0.752319
v -1.350314 0.400000 0.801331
v 0.652507 0.400001 2.707153
v 0.664268 0.400001 3.201102
v 1.217025 0.400001 3.012931
vn -1.0000 -0.0000 -0.0000
vn -0.0000 -1.0000 -0.0000
vn 1.0000 -0.0000 -0.0000
vn -0.0000 -0.0000 -1.0000
vn -0.0000 -0.0000 1.0000
vn -0.0000 1.0000 -0.0000
vt 0.512615 0.092752
vt 0.512615 0.092759
vt 0.512615 0.092759
vt 0.509931 0.106862
vt 0.509931 0.106860
vt 0.509931 0.106862
vt 0.512614 0.092761
vt 0.512615 0.092761
vt 0.513233 0.079372
vt 0.513233 0.079372
vt 0.513233 0.079372
vt 0.513233 0.079372
vt 0.512614 0.092761
s 1
usemtl City_Atlas
f 1/1/1 3/1/1 12/2/1 6/3/1
f 2/1/2 4/1/2 3/1/2 1/1/2
f 8/2/3 10/3/3 4/1/3 2/1/3
f 2/1/4 1/1/4 6/2/4 8/3/4
f 4/1/5 10/2/5 12/3/5 3/1/5
f 7/4/6 8/5/6 6/5/6 5/4/6
f 10/5/6 9/6/6 11/4/6 12/5/6
f 5/4/6 6/5/6 12/5/6 11/4/6
f 8/5/6 7/4/6 9/6/6 10/5/6
f 15/7/6 17/8/6 13/8/6
f 7/7/6 5/7/6 15/7/6
f 14/9/6 15/10/6 13/11/6
f 18/10/6 19/10/6 16/10/6 17/11/6
f 19/7/6 25/7/6 16/7/6
f 20/8/6 29/8/6 21/8/6
f 20/11/6 21/11/6 22/12/6 23/10/6
f 11/7/6 23/7/6 24/7/6
f 24/10/6 25/10/6 26/10/6
f 27/10/6 28/11/6 29/11/6
f 28/8/6 11/7/6 9/8/6
f 18/13/6 17/8/6 5/7/6
f 5/7/6 17/8/6 15/7/6
f 7/7/6 15/7/6 14/8/6
f 16/7/6 22/7/6 17/8/6
f 17/8/6 22/7/6 13/8/6
f 13/8/6 7/7/6 14/8/6
f 7/7/6 13/8/6 21/8/6
f 21/8/6 13/8/6 22/7/6
f 22/7/6 16/7/6 23/7/6
f 23/7/6 16/7/6 25/7/6
f 26/7/6 5/7/6 11/7/6
f 25/7/6 19/7/6 26/7/6
f 26/7/6 19/7/6 5/7/6
f 5/7/6 19/7/6 18/13/6
f 27/7/6 23/7/6 11/7/6
f 27/7/6 20/8/6 23/7/6
f 7/7/6 21/8/6 9/8/6
f 9/8/6 21/8/6 29/8/6
f 29/8/6 20/8/6 27/7/6
f 11/7/6 24/7/6 26/7/6
f 24/7/6 23/7/6 25/7/6
f 28/8/6 9/8/6 29/8/6
f 11/7/6 28/8/6 27/7/6
