# Blender 4.1.1
# www.blender.org
mtllib Pilar_C_1.mtl
o Pilar_C_1
v -0.246220 2.371422 -0.273517
v -0.274796 2.371422 -0.244941
v -0.246220 2.399998 -0.244941
v 0.246220 2.371422 -0.273517
v 0.246220 2.399998 -0.244941
v 0.274796 2.371422 -0.244941
v 0.246220 2.371423 0.277456
v 0.274796 2.371423 0.248880
v 0.246220 2.399999 0.248880
v -0.246220 2.371423 0.277456
v -0.246220 2.399999 0.248880
v -0.274796 2.371423 0.248880
v 0.246220 -0.000002 -0.273517
v 0.274796 -0.000002 -0.244941
v -0.246220 -0.000002 -0.273516
v -0.274796 -0.000002 -0.244940
v -0.246220 -0.000001 0.277457
v -0.274796 -0.000001 0.248881
v 0.246220 -0.000001 0.277457
v 0.274796 -0.000001 0.248881
vn -1.0000 -0.0000 -0.0000
vn -0.0000 -0.0000 1.0000
vn 1.0000 -0.0000 -0.0000
vn -0.0000 1.0000 -0.0000
vn -0.4606 0.4606 -0.7588
vn -0.7588 0.4606 -0.4606
vn -0.4606 0.7588 -0.4606
vn 0.4606 0.4606 -0.7588
vn 0.4606 0.7588 -0.4606
vn 0.7588 0.4606 -0.4606
vn 0.4606 0.4606 0.7588
vn 0.7588 0.4606 0.4606
vn 0.4606 0.7588 0.4606
vn -0.4606 0.4606 0.7588
vn -0.4606 0.7588 0.4606
vn -0.7588 0.4606 0.4606
vn -0.0000 -1.0000 -0.0000
vn 0.7071 -0.0000 0.7071
vn 0.7071 -0.0000 -0.7071
vn -0.7071 -0.0000 0.7071
vn -0.7071 -0.0000 -0.7071
vn -0.0000 -0.0000 -1.0000
vt 0.568949 0.346452
vt 0.568949 0.346452
vt 0.568949 0.346452
vt 0.568949 0.346452
vt 0.568949 0.346452
vt 0.568949 0.346452
vt 0.568949 0.346452
vt 0.568949 0.346452
vt 0.567718 0.339685
vt 0.567718 0.339685
vt 0.567719 0.339685
vt 0.567718 0.339685
vt 0.567718 0.339685
vt 0.567718 0.339685
vt 0.567719 0.339685
vt 0.567718 0.339685
vt 0.567718 0.339685
vt 0.568949 0.346452
s 1
usemtl City_Atlas
f 12/1/1 2/2/1 16/3/1 18/3/1
f 7/4/2 10/1/2 17/5/2 19/4/2
f 6/6/3 8/4/3 20/7/3 14/1/3
f 3/8/4 11/8/4 9/6/4 5/2/4
f 1/9/5 2/10/6 3/11/7
f 4/9/8 5/10/9 6/12/10
f 7/13/11 8/13/12 9/12/13
f 10/14/14 11/11/15 12/14/16
f 4/9/8 1/9/5 3/11/7 5/10/9
f 10/14/14 7/13/11 9/12/13 11/11/15
f 2/10/6 12/14/16 11/11/15 3/11/7
f 8/13/12 6/12/10 5/10/9 9/12/13
f 15/9/17 13/15/17 14/14/17 20/16/17 19/13/17 17/9/17 18/17/17 16/17/17
f 7/13/11 19/13/18 20/16/18 8/13/12
f 13/15/19 4/9/8 6/12/10 14/14/19
f 12/14/16 18/17/20 17/9/20 10/14/14
f 1/9/5 15/9/21 16/17/21 2/10/6
f 1/5/22 4/5/22 13/18/22 15/5/22
