# Blender 4.1.1
# www.blender.org
mtllib Pilar_A_1.mtl
o Pilar_A_1
v -0.246220 2.371422 -0.273517
v -0.274796 2.371422 -0.244941
v -0.246220 2.399998 -0.244941
v 0.246220 2.371422 -0.273517
v 0.246220 2.399998 -0.244941
v 0.274796 2.371422 -0.244941
v 0.246220 2.371423 0.277456
v 0.274796 2.371423 0.248880
v 0.246220 2.399999 0.248880
v -0.246220 2.371423 0.277456
v -0.246220 2.399999 0.248880
v -0.274796 2.371423 0.248880
v 0.246220 -0.000002 -0.273517
v 0.274796 -0.000002 -0.244941
v -0.246220 -0.000002 -0.273516
v -0.274796 -0.000002 -0.244940
v -0.246220 -0.000001 0.277457
v -0.274796 -0.000001 0.248881
v 0.246220 -0.000001 0.277457
v 0.274796 -0.000001 0.248881
vn -1.0000 -0.0000 -0.0000
vn 1.0000 -0.0000 -0.0000
vn -0.0000 1.0000 -0.0000
vn -0.0000 -0.0000 1.0000
vn -0.4606 0.4606 -0.7588
vn -0.7588 0.4606 -0.4606
vn -0.4606 0.7588 -0.4606
vn 0.4606 0.4606 -0.7588
vn 0.4606 0.7588 -0.4606
vn 0.7588 0.4606 -0.4606
vn 0.4606 0.4606 0.7588
vn 0.7588 0.4606 0.4606
vn 0.4606 0.7588 0.4606
vn -0.4606 0.4606 0.7588
vn -0.4606 0.7588 0.4606
vn -0.7588 0.4606 0.4606
vn -0.0000 -1.0000 -0.0000
vn -0.7071 -0.0000 -0.7071
vn -0.7071 -0.0000 0.7071
vn 0.7071 -0.0000 -0.7071
vn 0.7071 -0.0000 0.7071
vn -0.0000 -0.0000 -1.0000
vt 0.543567 0.196183
vt 0.543567 0.196183
vt 0.543567 0.196183
vt 0.543567 0.196183
vt 0.543567 0.196183
vt 0.543567 0.196183
vt 0.543567 0.196183
vt 0.543567 0.205484
vt 0.543567 0.205484
vt 0.543567 0.205484
vt 0.543567 0.205484
vt 0.543567 0.205484
vt 0.543567 0.205484
vt 0.543567 0.205484
s 1
usemtl City_Atlas
f 12/1/1 2/2/1 16/2/1 18/3/1
f 6/1/2 8/4/2 20/5/2 14/6/2
f 3/4/3 11/4/3 9/7/3 5/5/3
f 7/1/4 10/1/4 17/1/4 19/1/4
f 1/8/5 2/9/6 3/10/7
f 4/8/8 5/11/9 6/8/10
f 7/8/11 8/10/12 9/12/13
f 10/8/14 11/10/15 12/8/16
f 4/8/8 1/8/5 3/10/7 5/11/9
f 10/8/14 7/8/11 9/12/13 11/10/15
f 2/9/6 12/8/16 11/10/15 3/10/7
f 8/10/12 6/8/10 5/11/9 9/12/13
f 15/10/17 13/13/17 14/14/17 20/11/17 19/8/17 17/8/17 18/13/17 16/9/17
f 1/8/5 15/10/18 16/9/18 2/9/6
f 17/8/19 10/8/14 12/8/16 18/13/19
f 6/8/10 14/14/20 13/13/20 4/8/8
f 7/8/11 19/8/21 20/11/21 8/10/12
f 1/1/22 4/1/22 13/3/22 15/4/22
