# Blender 4.1.1
# www.blender.org
mtllib Pilar_E_2.mtl
o Pilar_E_2
v -0.246220 1.925316 -0.273517
v -0.274796 1.925316 -0.244941
v -0.246220 1.953892 -0.244941
v 0.246220 1.925316 -0.273517
v 0.246220 1.953892 -0.244941
v 0.274796 1.925316 -0.244941
v 0.246220 1.925317 0.277456
v 0.274796 1.925317 0.248880
v 0.246220 1.953893 0.248880
v -0.246220 1.925317 0.277456
v -0.246220 1.953893 0.248880
v -0.274796 1.925317 0.248880
v 0.246220 -0.000003 -0.273517
v 0.274796 -0.000003 -0.244941
v -0.246220 -0.000003 -0.273516
v -0.274796 -0.000003 -0.244940
v -0.246220 -0.000002 0.277457
v -0.274796 -0.000002 0.248881
v 0.246220 -0.000002 0.277457
v 0.274796 -0.000002 0.248881
v -0.090602 1.901511 0.096444
v -0.129441 1.901493 0.124484
v -0.114773 1.901465 0.170101
v -0.066857 1.901465 0.170241
v -0.051924 1.901492 0.124708
v -0.089668 2.153918 0.097936
v -0.127530 2.156479 0.123855
v -0.114494 2.160795 0.167737
v -0.059994 2.158494 0.144744
v -0.053260 2.156626 0.125840
v -0.120586 1.901534 -0.129945
v -0.099036 1.901520 -0.087162
v -0.051675 1.901497 -0.094437
v -0.043965 1.901496 -0.141728
v -0.086564 1.901520 -0.163670
v -0.119129 2.177941 -0.130555
v -0.099350 2.212781 -0.089155
v -0.053969 2.217099 -0.095095
v -0.045523 2.217190 -0.140192
v -0.085662 2.212929 -0.162164
v 0.141816 1.901529 -0.152050
v 0.102976 1.901513 -0.124010
v 0.117642 1.901489 -0.078394
v 0.165558 1.901488 -0.078252
v 0.180492 1.901513 -0.123784
v 0.142747 2.193791 -0.150553
v 0.104892 2.196352 -0.124637
v 0.117927 2.200670 -0.080762
v 0.163794 2.200761 -0.079546
v 0.179150 2.196500 -0.122654
v 0.120683 1.901644 0.144969
v 0.162898 1.901639 0.167602
v 0.197482 1.901646 0.134453
v 0.176641 1.901652 0.091310
v 0.129157 1.901650 0.097813
v 0.120995 2.242802 0.157068
v 0.161039 2.241459 0.179671
v 0.194592 2.251981 0.149422
v 0.175349 2.259840 0.108177
v 0.129879 2.254118 0.112883
v 0.129608 2.074546 0.097396
v 0.120462 2.072999 0.144376
v 0.197368 2.076076 0.134874
v 0.177023 2.076468 0.091558
v 0.162406 2.073920 0.167648
vn -1.0000 -0.0000 -0.0000
vn 1.0000 -0.0000 -0.0000
vn -0.0000 1.0000 -0.0000
vn -0.0000 -0.0000 1.0000
vn -0.4606 0.4606 -0.7588
vn -0.7588 0.4606 -0.4606
vn -0.4606 0.7588 -0.4606
vn 0.4606 0.4606 -0.7588
vn 0.4606 0.7588 -0.4606
vn 0.7588 0.4606 -0.4606
vn 0.4606 0.4606 0.7588
vn 0.7588 0.4606 0.4606
vn 0.4606 0.7588 0.4606
vn -0.4606 0.4606 0.7588
vn -0.4606 0.7588 0.4606
vn -0.7588 0.4606 0.4606
vn -0.0000 -1.0000 -0.0000
vn -0.7071 -0.0000 -0.7071
vn -0.7071 -0.0000 0.7071
vn 0.7071 -0.0000 -0.7071
vn 0.7071 -0.0000 0.7071
vn -0.0000 -0.0000 -1.0000
vn 0.0132 0.0057 -0.9999
vn 0.0167 0.0057 -0.9998
vn 0.9646 0.0059 -0.2636
vn 0.9544 0.0059 -0.2984
vn 0.6517 0.0323 0.7578
vn 0.6739 0.0310 0.7382
vn -0.4878 0.0382 0.8721
vn -0.4994 0.0377 0.8655
vn -0.9470 0.0064 -0.3212
vn -0.9563 0.0065 -0.2923
vn 0.0006 0.9952 -0.0979
vn 0.0006 0.9952 -0.0981
vn -0.9853 0.0047 -0.1706
vn -0.9850 0.0047 -0.1726
vn 0.0652 0.0054 -0.9979
vn -0.1416 0.0054 -0.9899
vn 0.8980 0.0065 -0.4400
vn 0.9079 0.0065 -0.4191
vn 0.7109 0.0065 0.7033
vn 0.6968 0.0065 0.7172
vn -0.4667 0.0052 0.8844
vn -0.2796 0.0053 0.9601
vn -0.0968 0.9952 -0.0161
vn 0.0134 0.0049 -0.9999
vn 0.0165 0.0049 -0.9999
vn 0.9653 0.0056 -0.2612
vn 0.9552 0.0056 -0.2959
vn 0.5764 0.0069 0.8171
vn 0.5573 0.0069 0.8303
vn -0.5822 0.0069 0.8130
vn -0.5980 0.0069 0.8014
vn -0.9469 0.0056 -0.3214
vn -0.9564 0.0056 -0.2920
vn -0.9111 -0.0135 0.4120
vn -0.9217 -0.0267 0.3870
vn -0.6312 0.0685 -0.7726
vn -0.6757 0.0320 -0.7364
vn 0.4770 0.0420 -0.8779
vn 0.4888 0.0831 -0.8684
vn 0.9914 0.0047 0.1310
vn 0.9850 0.0007 0.1726
vn 0.1271 -0.0351 0.9913
vn 0.1574 -0.0695 0.9851
vn -0.0974 0.9685 0.2291
vn -0.0973 0.9685 0.2294
vn -0.0980 0.9682 0.2302
vn 0.9833 0.0002 0.1819
vn 0.1303 0.0004 0.9915
vn -0.6881 -0.0000 -0.7256
vn 0.4772 -0.0000 -0.8788
vn -0.9028 0.0003 0.4301
vn -0.7770 0.6127 -0.1444
vn 0.0006 0.9952 -0.0974
vn -0.0970 0.9686 0.2288
vn -0.0970 0.9685 0.2293
vt 0.512611 0.092761
vt 0.512611 0.092761
vt 0.512611 0.092761
vt 0.514936 0.102063
vt 0.514936 0.102063
vt 0.514936 0.102063
vt 0.664922 0.064745
vt 0.664918 0.090269
vt 0.664814 0.090515
vt 0.664815 0.064745
vt 0.664856 0.064745
vt 0.664834 0.090684
vt 0.664990 0.090891
vt 0.664987 0.064745
vt 0.665028 0.064745
vt 0.665027 0.090501
vt 0.664996 0.064745
vt 0.664995 0.092798
vt 0.664899 0.096320
vt 0.664903 0.064745
vt 0.664786 0.064745
vt 0.664784 0.096705
vt 0.664809 0.096696
vt 0.664806 0.064745
vt 0.664936 0.064745
vt 0.664939 0.096306
vt 0.664106 0.064745
vt 0.664103 0.094380
vt 0.663999 0.094626
vt 0.664000 0.064745
vt 0.664041 0.064745
vt 0.664043 0.095011
vt 0.664174 0.095002
vt 0.664172 0.064745
vt 0.664213 0.064745
vt 0.664211 0.094612
vt 0.664152 0.082440
vt 0.664155 0.099498
vt 0.664129 0.100503
vt 0.664127 0.082563
vt 0.663997 0.082756
vt 0.663999 0.101014
vt 0.663944 0.100325
vt 0.663942 0.082751
vt 0.664038 0.082556
vt 0.664040 0.099387
vt 0.663941 0.064745
vt 0.664036 0.064745
vt 0.664129 0.064745
vt 0.663999 0.064745
vt 0.664152 0.064745
s 1
usemtl City_Atlas
f 12/1/1 2/2/1 16/2/1 18/1/1
f 6/1/2 8/2/2 20/2/2 14/1/2
f 3/3/3 11/3/3 9/3/3 5/3/3
f 7/2/4 10/2/4 17/2/4 19/2/4
f 1/4/5 2/4/6 3/5/7
f 4/4/8 5/5/9 6/6/10
f 7/4/11 8/4/12 9/5/13
f 10/4/14 11/5/15 12/6/16
f 4/4/8 1/4/5 3/5/7 5/5/9
f 10/4/14 7/4/11 9/5/13 11/5/15
f 2/4/6 12/6/16 11/5/15 3/5/7
f 8/4/12 6/6/10 5/5/9 9/5/13
f 15/5/17 13/4/17 14/6/17 20/4/17 19/4/17 17/4/17 18/6/17 16/4/17
f 1/4/5 15/5/18 16/4/18 2/4/6
f 17/4/19 10/4/14 12/6/16 18/6/19
f 6/6/10 14/6/20 13/4/20 4/4/8
f 7/4/11 19/4/21 20/4/21 8/4/12
f 1/2/22 4/2/22 13/2/22 15/3/22
f 21/7/23 26/8/24 30/9/25 25/10/26
f 24/11/27 29/12/28 28/13/29 23/14/30
f 22/15/31 27/16/32 26/8/24 21/7/23
f 25/10/26 30/9/25 29/12/28 24/11/27
f 23/14/30 28/13/29 27/16/32 22/15/31
f 30/9/33 28/13/34 29/12/34
f 31/17/35 36/18/36 40/19/37 35/20/38
f 34/21/39 39/22/40 38/23/41 33/24/42
f 32/25/43 37/26/44 36/18/36 31/17/35
f 35/20/38 40/19/37 39/22/40 34/21/39
f 33/24/42 38/23/41 37/26/44 32/25/43
f 40/19/45 38/23/45 39/22/45
f 41/27/46 46/28/47 50/29/48 45/30/49
f 44/31/50 49/32/51 48/33/52 43/34/53
f 42/35/54 47/36/55 46/28/47 41/27/46
f 45/30/49 50/29/48 49/32/51 44/31/50
f 43/34/53 48/33/52 47/36/55 42/35/54
f 50/29/33 48/33/34 49/32/34
f 62/37/56 56/38/57 60/39/58 61/40/59
f 64/41/60 59/42/61 58/43/62 63/44/63
f 65/45/64 57/46/65 56/38/57 62/37/56
f 61/40/59 60/39/58 59/42/61 64/41/60
f 63/44/63 58/43/62 57/46/65 65/45/64
f 60/39/66 58/43/67 59/42/68
f 53/47/69 63/44/63 65/45/64 52/48/70
f 55/49/71 61/40/59 64/41/60 54/50/72
f 52/48/70 65/45/64 62/37/56 51/51/73
f 54/50/72 64/41/60 63/44/63 53/47/69
f 51/51/73 62/37/56 61/40/59 55/49/71
f 38/23/45 40/19/45 37/26/45
f 37/26/74 40/19/74 36/18/74
f 48/33/34 50/29/33 47/36/33
f 47/36/33 50/29/33 46/28/75
f 58/43/67 56/38/76 57/46/77
f 56/38/76 58/43/67 60/39/66
f 28/13/34 30/9/33 27/16/33
f 27/16/33 30/9/33 26/8/75
