# Blender 4.1.1
# www.blender.org
mtllib Pilar_E_1.mtl
o Pilar_E_1
v -0.246220 2.371422 -0.273517
v -0.274796 2.371422 -0.244941
v -0.246220 2.399998 -0.244941
v 0.246220 2.371422 -0.273517
v 0.246220 2.399998 -0.244941
v 0.274796 2.371422 -0.244941
v 0.246220 2.371423 0.277456
v 0.274796 2.371423 0.248880
v 0.246220 2.399999 0.248880
v -0.246220 2.371423 0.277456
v -0.246220 2.399999 0.248880
v -0.274796 2.371423 0.248880
v 0.246220 -0.000002 -0.273517
v 0.274796 -0.000002 -0.244941
v -0.246220 -0.000002 -0.273516
v -0.274796 -0.000002 -0.244940
v -0.246220 -0.000001 0.277457
v -0.274796 -0.000001 0.248881
v 0.246220 -0.000001 0.277457
v 0.274796 -0.000001 0.248881
vn -1.0000 -0.0000 -0.0000
vn 1.0000 -0.0000 -0.0000
vn -0.0000 1.0000 -0.0000
vn -0.0000 -0.0000 1.0000
vn -0.4606 0.4606 -0.7588
vn -0.7588 0.4606 -0.4606
vn -0.4606 0.7588 -0.4606
vn 0.4606 0.4606 -0.7588
vn 0.4606 0.7588 -0.4606
vn 0.7588 0.4606 -0.4606
vn 0.4606 0.4606 0.7588
vn 0.7588 0.4606 0.4606
vn 0.4606 0.7588 0.4606
vn -0.4606 0.4606 0.7588
vn -0.4606 0.7588 0.4606
vn -0.7588 0.4606 0.4606
vn -0.0000 -1.0000 -0.0000
vn -0.7071 -0.0000 -0.7071
vn -0.7071 -0.0000 0.7071
vn 0.7071 -0.0000 -0.7071
vn 0.7071 -0.0000 0.7071
vn -0.0000 -0.0000 -1.0000
vt 0.512611 0.092761
vt 0.512611 0.092761
vt 0.512611 0.092761
vt 0.514936 0.102063
vt 0.514936 0.102063
vt 0.514936 0.102063
s 1
usemtl City_Atlas
f 12/1/1 2/2/1 16/2/1 18/1/1
f 6/1/2 8/2/2 20/2/2 14/1/2
f 3/3/3 11/3/3 9/3/3 5/3/3
f 7/2/4 10/2/4 17/2/4 19/2/4
f 1/4/5 2/4/6 3/5/7
f 4/4/8 5/5/9 6/6/10
f 7/4/11 8/4/12 9/5/13
f 10/4/14 11/5/15 12/6/16
f 4/4/8 1/4/5 3/5/7 5/5/9
f 10/4/14 7/4/11 9/5/13 11/5/15
f 2/4/6 12/6/16 11/5/15 3/5/7
f 8/4/12 6/6/10 5/5/9 9/5/13
f 15/5/17 13/4/17 14/6/17 20/4/17 19/4/17 17/4/17 18/6/17 16/4/17
f 1/4/5 15/5/18 16/4/18 2/4/6
f 17/4/19 10/4/14 12/6/16 18/6/19
f 6/6/10 14/6/20 13/4/20 4/4/8
f 7/4/11 19/4/21 20/4/21 8/4/12
f 1/2/22 4/2/22 13/2/22 15/3/22
