# Blender 4.1.1
# www.blender.org
mtllib Pilar_D_1.mtl
o Pilar_D_1
v -0.246220 2.371422 -0.273517
v -0.274796 2.371422 -0.244941
v -0.246220 2.399998 -0.244941
v 0.246220 2.371422 -0.273517
v 0.246220 2.399998 -0.244941
v 0.274796 2.371422 -0.244941
v 0.246220 2.371423 0.277456
v 0.274796 2.371423 0.248880
v 0.246220 2.399999 0.248880
v -0.246220 2.371423 0.277456
v -0.246220 2.399999 0.248880
v -0.274796 2.371423 0.248880
v 0.246220 -0.000002 -0.273517
v 0.274796 -0.000002 -0.244941
v -0.246220 -0.000002 -0.273516
v -0.274796 -0.000002 -0.244940
v -0.246220 -0.000001 0.277457
v -0.274796 -0.000001 0.248881
v 0.246220 -0.000001 0.277457
v 0.274796 -0.000001 0.248881
vn -1.0000 -0.0000 -0.0000
vn 1.0000 -0.0000 -0.0000
vn -0.0000 1.0000 -0.0000
vn -0.0000 -0.0000 1.0000
vn -0.4606 0.4606 -0.7588
vn -0.7588 0.4606 -0.4606
vn -0.4606 0.7588 -0.4606
vn 0.4606 0.4606 -0.7588
vn 0.4606 0.7588 -0.4606
vn 0.7588 0.4606 -0.4606
vn 0.4606 0.4606 0.7588
vn 0.7588 0.4606 0.4606
vn 0.4606 0.7588 0.4606
vn -0.4606 0.4606 0.7588
vn -0.4606 0.7588 0.4606
vn -0.7588 0.4606 0.4606
vn -0.0000 -1.0000 -0.0000
vn -0.7071 -0.0000 -0.7071
vn -0.7071 -0.0000 0.7071
vn 0.7071 -0.0000 -0.7071
vn 0.7071 -0.0000 0.7071
vn -0.0000 -0.0000 -1.0000
vt 0.042466 0.195214
vt 0.042466 0.195214
vt 0.042466 0.195214
vt 0.042466 0.195214
vt 0.042466 0.195214
vt 0.042466 0.195214
vt 0.042466 0.195214
vt 0.042466 0.195214
vt 0.042466 0.195214
vt 0.042466 0.195214
vt 0.042466 0.195214
vt 0.042466 0.195214
vt 0.042466 0.195214
vt 0.043443 0.216698
vt 0.043443 0.216698
vt 0.043443 0.216698
vt 0.043443 0.216698
vt 0.043443 0.216698
vt 0.043443 0.216698
vt 0.043443 0.216698
vt 0.043443 0.216698
vt 0.043443 0.216698
vt 0.043443 0.216698
vt 0.043443 0.216698
vt 0.043443 0.216698
vt 0.043443 0.216698
vt 0.043443 0.216698
vt 0.042466 0.195214
s 1
usemtl City_Atlas
f 12/1/1 2/2/1 16/3/1 18/1/1
f 6/4/2 8/5/2 20/5/2 14/6/2
f 3/7/3 11/8/3 9/9/3 5/10/3
f 7/11/4 10/12/4 17/4/4 19/13/4
f 1/14/5 2/15/6 3/16/7
f 4/14/8 5/17/9 6/18/10
f 7/19/11 8/20/12 9/21/13
f 10/22/14 11/23/15 12/24/16
f 4/14/8 1/14/5 3/16/7 5/17/9
f 10/22/14 7/19/11 9/21/13 11/23/15
f 2/15/6 12/24/16 11/23/15 3/16/7
f 8/20/12 6/18/10 5/17/9 9/21/13
f 15/17/17 13/14/17 14/25/17 20/20/17 19/26/17 17/18/17 18/24/17 16/27/17
f 1/14/5 15/17/18 16/27/18 2/15/6
f 17/18/19 10/22/14 12/24/16 18/24/19
f 6/18/10 14/25/20 13/14/20 4/14/8
f 7/19/11 19/26/21 20/20/21 8/20/12
f 1/28/22 4/28/22 13/28/22 15/10/22
