# Blender 4.1.1
# www.blender.org
mtllib RreinforcingBars_A_3.mtl
o RreinforcingBars_A_3
v -0.004356 0.000000 -0.249441
v -0.000219 0.597995 -0.250174
v 0.012970 0.000000 -0.263001
v 0.016283 0.597995 -0.263090
v -0.018344 0.000000 -0.267313
v -0.013563 0.597995 -0.267224
v -0.001018 0.000000 -0.280873
v 0.002940 0.597995 -0.280140
v -0.004356 0.000000 0.300012
v -0.000219 0.597995 0.299278
v 0.012970 0.000000 0.286452
v 0.016283 0.597995 0.286362
v -0.018344 0.000000 0.282139
v -0.013563 0.597995 0.282228
v -0.001018 0.000000 0.268579
v 0.002940 0.597995 0.269313
v -0.002841 0.000000 0.107601
v -0.009179 0.597995 0.109460
v 0.019150 0.000000 0.106938
v 0.011768 0.597995 0.108828
v -0.003525 0.000000 0.084916
v -0.009832 0.597995 0.087819
v 0.018466 0.000000 0.084252
v 0.011115 0.597995 0.087187
v -0.033241 0.417417 -0.365852
v -0.029473 0.415558 0.361731
v -0.011249 0.418080 -0.365852
v -0.008526 0.416190 0.361731
v -0.033925 0.440102 -0.365852
v -0.030126 0.437198 0.361731
v -0.011934 0.440766 -0.365852
v -0.009179 0.437830 0.361731
v -0.033241 0.190949 -0.365852
v -0.029473 0.189090 0.361731
v -0.011249 0.191612 -0.365852
v -0.008526 0.189721 0.361731
v -0.033925 0.213634 -0.365852
v -0.030126 0.210730 0.361731
v -0.011934 0.214297 -0.365852
v -0.009179 0.211362 0.361731
v -0.010314 0.396000 -0.133232
v -0.031968 0.395347 -0.133232
v -0.032643 0.417695 -0.133232
v -0.010988 0.418348 -0.133232
v -0.009113 0.192141 0.078229
v -0.030484 0.191496 0.078229
v -0.031149 0.213561 0.078229
v -0.009779 0.214206 0.078229
v 0.016491 0.295068 0.118819
v -0.004978 0.295068 0.119466
v -0.005647 0.295068 0.097303
v 0.015822 0.295068 0.096656
v 0.014745 0.179591 0.284445
v -0.002328 0.179591 0.297808
v -0.016119 0.179591 0.280188
v 0.000955 0.179591 0.266825
v -0.011445 0.000000 -0.102072
v -0.007463 0.597995 -0.100731
v 0.010263 0.000000 -0.105655
v 0.013213 0.597995 -0.104143
v -0.015140 0.000000 -0.124465
v -0.010988 0.597995 -0.122092
v 0.006567 0.000000 -0.128048
v 0.009688 0.597995 -0.125505
vn 0.6163 -0.0033 0.7875
vn -0.6163 0.0050 -0.7875
vn 0.7875 -0.0045 -0.6163
vn -0.0000 1.0000 -0.0000
vn -0.7875 0.0062 0.6163
vn 0.6163 -0.0016 0.7875
vn 0.6163 -0.0059 0.7875
vn -0.6163 0.0033 -0.7875
vn -0.6163 0.0076 -0.7875
vn -0.6163 0.0034 -0.7875
vn 0.7875 -0.0074 -0.6163
vn 0.7874 -0.0147 -0.6163
vn -0.7875 0.0091 0.6163
vn -0.7875 0.0018 0.6163
vn 0.0302 -0.0030 0.9995
vn 0.0302 -0.0036 0.9995
vn 0.0301 0.0334 0.9990
vn -0.0302 0.0048 -0.9995
vn -0.0301 -0.0317 -0.9990
vn -0.0302 0.0053 -0.9995
vn 0.9995 0.0124 -0.0302
vn 0.9995 0.0102 -0.0302
vn -0.9995 -0.0107 0.0302
vn -0.9995 -0.0129 0.0302
vn 0.0301 -0.9992 -0.0272
vn 0.0301 -0.9992 -0.0269
vn 0.0301 -0.9987 0.0406
vn -0.0301 0.9991 0.0287
vn -0.0301 0.9988 -0.0392
vn -0.0301 0.9991 0.0283
vn 0.9995 0.0302 -0.0030
vn 0.9995 0.0302 -0.0012
vn -0.0000 -0.0000 1.0000
vn -0.9995 -0.0302 0.0045
vn -0.9995 -0.0302 0.0063
vn -0.9995 -0.0302 0.0044
vn 0.0302 -0.9995 -0.0038
vn 0.0302 -0.9995 -0.0086
vn -0.0302 0.9995 0.0052
vn -0.0302 0.9995 0.0101
vn 0.9995 0.0302 -0.0033
vn 0.9995 0.0302 -0.0048
vn -0.9995 -0.0302 0.0048
vn -0.9995 -0.0302 0.0033
vn -0.9995 -0.0302 0.0026
vn -0.0300 0.9949 0.0960
vn 0.0300 -0.9951 -0.0946
vn -0.9995 -0.0302 0.0062
vn 0.9995 0.0302 -0.0018
vn -0.0302 0.9995 0.0004
vn 0.0302 -0.9995 0.0010
vn -0.9995 -0.0085 0.0302
vn 0.9994 0.0146 -0.0302
vn -0.0301 0.0417 -0.9987
vn 0.0301 -0.0399 0.9987
vn -0.7874 0.0165 0.6162
vn 0.7875 -0.0001 -0.6163
vn -0.6163 -0.0009 -0.7875
vn 0.6163 0.0027 0.7875
vn 0.1628 -0.0033 0.9866
vn -0.1628 0.0050 -0.9866
vn 0.9866 -0.0045 -0.1628
vn -0.9866 0.0062 0.1628
vn -0.0000 -0.0000 -1.0000
vn -0.0000 -1.0000 -0.0000
vt 0.482140 0.811584
vt 0.482139 0.811584
vt 0.482139 0.706717
vt 0.482139 0.706717
vt 0.482140 0.811584
vt 0.482140 0.706717
vt 0.482139 0.706717
vt 0.482139 0.811584
vt 0.482140 0.780090
vt 0.482139 0.780090
vt 0.482140 0.780090
vt 0.482139 0.780090
vt 0.482140 0.759840
vt 0.482139 0.759840
vt 0.482139 0.706717
vt 0.482140 0.706717
vt 0.482140 0.706717
vt 0.482139 0.811584
vt 0.482139 0.811584
vt 0.482141 0.742254
vt 0.482140 0.742140
vt 0.482140 0.738599
vt 0.482141 0.738710
vt 0.482141 0.738335
vt 0.482141 0.734915
vt 0.482140 0.734804
vt 0.482140 0.738221
vt 0.482140 0.738268
vt 0.482140 0.734290
vt 0.482141 0.778002
vt 0.482140 0.777889
vt 0.482140 0.778314
vt 0.482141 0.778424
vt 0.482141 0.774133
vt 0.482141 0.774629
vt 0.482140 0.774519
vt 0.482140 0.774020
vt 0.482140 0.777982
vt 0.482140 0.774004
vt 0.482141 0.738384
vt 0.482141 0.734406
vt 0.482141 0.778098
vt 0.482141 0.774120
vt 0.482140 0.811584
vt 0.482139 0.811584
vt 0.482139 0.706717
vt 0.482140 0.811584
vt 0.482139 0.811584
s 1
usemtl City_Metal
f 1/1/1 3/2/1 4/3/1 2/4/1
f 5/5/2 6/6/2 8/7/2 7/8/2
f 4/3/3 3/2/3 7/8/3 8/7/3
f 2/4/4 4/3/4 8/7/4 6/6/4
f 1/1/5 2/4/5 6/6/5 5/5/5
f 54/9/6 53/10/6 12/3/7 10/4/7
f 55/11/8 14/6/9 16/7/9 56/12/10
f 53/10/11 11/2/12 15/8/12 56/12/11
f 10/4/4 12/3/4 16/7/4 14/6/4
f 54/9/13 10/4/14 14/6/14 55/11/13
f 50/13/15 49/14/16 20/15/17 18/16/17
f 51/13/18 22/17/19 24/15/19 52/14/20
f 49/14/21 19/18/22 23/19/22 52/14/21
f 18/16/4 20/15/4 24/15/4 22/17/4
f 50/13/23 18/16/24 22/17/24 51/13/23
f 42/20/25 41/21/26 28/22/27 26/23/27
f 43/24/28 30/25/29 32/26/29 44/27/30
f 41/21/31 27/28/32 31/29/32 44/27/31
f 26/23/33 28/22/33 32/26/33 30/25/33
f 42/20/34 26/23/35 30/25/35 43/24/36
f 46/30/37 45/31/37 36/32/38 34/33/38
f 47/34/39 38/35/40 40/36/40 48/37/39
f 45/31/41 35/38/42 39/39/42 48/37/41
f 34/33/33 36/32/33 40/36/33 38/35/33
f 46/30/43 34/33/44 38/35/44 47/34/43
f 25/40/45 42/20/34 43/24/36 29/41/45
f 28/22/42 41/21/31 44/27/31 32/26/42
f 29/41/46 43/24/28 44/27/30 31/29/46
f 25/40/47 27/28/47 41/21/26 42/20/25
f 33/42/48 46/30/43 47/34/43 37/43/48
f 36/32/49 45/31/41 48/37/41 40/36/49
f 37/43/50 47/34/39 48/37/39 39/39/50
f 33/42/51 35/38/51 45/31/37 46/30/37
f 17/1/52 50/13/23 51/13/23 21/1/52
f 20/15/53 49/14/21 52/14/21 24/15/53
f 21/1/54 51/13/18 52/14/20 23/19/54
f 17/1/55 19/18/55 49/14/16 50/13/15
f 9/1/56 54/9/13 55/11/13 13/5/56
f 12/3/57 53/10/11 56/12/11 16/7/57
f 13/5/58 55/11/8 56/12/10 15/8/58
f 9/1/59 11/2/59 53/10/6 54/9/6
f 57/44/60 59/45/60 60/46/60 58/16/60
f 61/47/61 62/17/61 64/15/61 63/48/61
f 60/46/62 59/45/62 63/48/62 64/15/62
f 58/16/4 60/46/4 64/15/4 62/17/4
f 57/44/63 58/16/63 62/17/63 61/47/63
f 27/28/64 25/40/64 29/41/64 31/29/64
f 35/38/64 33/42/64 37/43/64 39/39/64
f 3/2/65 1/1/65 5/5/65 7/8/65
f 11/2/65 9/1/65 13/5/65 15/8/65
f 19/18/65 17/1/65 21/1/65 23/19/65
f 59/45/65 57/44/65 61/47/65 63/48/65
