# Blender 4.1.1
# www.blender.org
mtllib Stairs_C_1_3.mtl
o Stairs_C_1_3
v 1.700004 2.720394 0.691026
v 1.700003 2.720394 -0.687087
v 1.500004 2.720394 0.691026
v 1.500003 2.720394 -0.687087
v 1.500003 2.560371 -0.687087
v 1.500004 2.560371 0.691026
v 1.300004 2.560371 -0.687087
v 1.300004 2.400348 -0.687087
v 1.300004 2.560371 0.691026
v 1.300004 2.400348 0.691026
v 1.100004 2.400348 -0.687087
v 1.100004 2.240325 -0.687087
v 1.100004 2.400348 0.691026
v 1.100004 2.240325 0.691026
v 0.900004 2.240325 -0.687087
v 0.900004 2.080302 -0.687087
v 0.900005 2.240325 0.691026
v 0.900005 2.080302 0.691027
v 1.700004 0.000000 0.691026
v 0.700004 2.080302 -0.687087
v 0.700004 1.920280 -0.687087
v 0.700005 2.080302 0.691027
v 0.700005 1.920280 0.691026
v 0.500005 1.920280 -0.687087
v 0.500005 1.760256 -0.687087
v 0.500005 1.920280 0.691027
v 0.500005 1.760256 0.691027
v 0.300005 1.760256 -0.687087
v 0.300005 1.600233 -0.687087
v 0.300005 1.760256 0.691027
v 0.300005 1.600233 0.691027
v 0.100004 1.600233 -0.687087
v 0.100004 1.440210 -0.687087
v 0.100004 1.600233 0.691027
v 0.100004 1.440210 0.691027
v -0.099997 1.440210 -0.687087
v -0.099997 1.280188 -0.687087
v 1.700003 0.000000 -0.687087
v -0.099996 1.440210 0.691027
v -0.099996 1.280188 0.691027
v -0.299998 1.280188 -0.687087
v -0.299998 1.120164 -0.687087
v -0.299997 1.280188 0.691027
v -0.299997 1.120164 0.691027
v -0.499998 1.120164 -0.687087
v -0.499998 0.960142 -0.687087
v -0.499998 1.120164 0.691027
v -0.499998 0.960140 0.691027
v -0.699999 0.960142 -0.687087
v -0.699999 0.800118 -0.687087
v -0.699999 0.960140 0.691027
v -0.699999 0.800117 0.691027
v -0.900000 0.800118 -0.687087
v -0.900000 0.640095 -0.687087
v -0.899999 0.800117 0.691027
v -0.899999 0.640094 0.691027
v -1.100001 0.640095 -0.687087
v -1.100001 0.480071 -0.687087
v -1.100000 0.640094 0.691027
v -1.100000 0.480071 0.691027
v -1.300001 0.480071 -0.687086
v -1.300001 0.320048 -0.687087
v -1.300001 0.480071 0.691027
v -1.300001 0.320047 0.691027
v -1.500002 0.320048 -0.687086
v -1.500002 0.160025 -0.687086
v -1.500002 0.320047 0.691027
v -1.500002 0.160023 0.691027
v -1.700003 0.000001 -0.687086
v -1.700002 0.000000 0.691027
v -1.700003 0.160025 -0.687086
v -1.700002 0.160023 0.691027
vn 1.0000 -0.0000 -0.0000
vn -1.0000 -0.0000 -0.0000
vn -0.0000 -0.0000 1.0000
vn -0.0000 -0.0000 -1.0000
vn -0.0000 1.0000 -0.0000
vn -0.0000 -1.0000 -0.0000
vt 0.535543 0.184889
vt 0.535543 0.197988
vt 0.535533 0.197218
vt 0.535533 0.197988
vt 0.535523 0.197218
vt 0.535523 0.196447
vt 0.535513 0.195676
vt 0.535513 0.196447
vt 0.535504 0.194906
vt 0.535494 0.194906
vt 0.535504 0.195676
vt 0.535494 0.194135
vt 0.535484 0.193365
vt 0.535484 0.194135
vt 0.535474 0.193365
vt 0.535474 0.192594
vt 0.535464 0.191824
vt 0.535454 0.191824
vt 0.535454 0.191053
vt 0.535464 0.192594
vt 0.535444 0.191053
vt 0.535444 0.190283
vt 0.535435 0.189512
vt 0.535435 0.190283
vt 0.535425 0.188741
vt 0.535425 0.189512
vt 0.535415 0.188741
vt 0.535415 0.187971
vt 0.535405 0.187200
vt 0.535405 0.187971
vt 0.535395 0.186430
vt 0.535385 0.186430
vt 0.535395 0.187200
vt 0.535385 0.185659
vt 0.535376 0.185659
vt 0.535376 0.184889
s 1
usemtl City_Atlas
f 19/1/1 38/1/1 2/2/1 1/2/1
f 6/3/2 3/4/2 4/4/2 5/3/2
f 19/1/3 6/3/3 9/5/3 10/6/3
f 5/3/4 38/1/4 8/6/4 7/5/4
f 2/2/4 38/1/4 5/3/4 4/4/4
f 19/1/3 1/2/3 3/4/3 6/3/3
f 1/2/5 2/2/5 4/4/5 3/4/5
f 10/6/2 9/5/2 7/5/2 8/6/2
f 6/3/5 5/3/5 7/5/5 9/5/5
f 14/7/2 13/8/2 11/8/2 12/7/2
f 8/6/4 38/1/4 12/7/4 11/8/4
f 19/1/3 10/6/3 13/8/3 14/7/3
f 10/6/5 8/6/5 11/8/5 13/8/5
f 18/9/5 16/9/5 20/10/5 22/10/5
f 18/9/2 17/11/2 15/11/2 16/9/2
f 14/7/5 12/7/5 15/11/5 17/11/5
f 12/7/4 38/1/4 16/9/4 15/11/4
f 19/1/3 14/7/3 17/11/3 18/9/3
f 21/12/4 38/1/4 25/13/4 24/14/4
f 23/12/2 22/10/2 20/10/2 21/12/2
f 19/1/3 18/9/3 22/10/3 23/12/3
f 16/9/4 38/1/4 21/12/4 20/10/4
f 19/1/3 27/13/3 30/15/3 31/16/3
f 27/13/2 26/14/2 24/14/2 25/13/2
f 23/12/5 21/12/5 24/14/5 26/14/5
f 19/1/3 23/12/3 26/14/3 27/13/3
f 31/16/2 30/15/2 28/15/2 29/16/2
f 25/13/4 38/1/4 29/16/4 28/15/4
f 27/13/5 25/13/5 28/15/5 30/15/5
f 35/17/5 33/17/5 36/18/5 39/18/5
f 19/1/3 35/17/3 39/18/3 40/19/3
f 33/17/4 38/1/4 37/19/4 36/18/4
f 35/17/2 34/20/2 32/20/2 33/17/2
f 31/16/5 29/16/5 32/20/5 34/20/5
f 29/16/4 38/1/4 33/17/4 32/20/4
f 19/1/3 31/16/3 34/20/3 35/17/3
f 19/1/3 40/19/3 43/21/3 44/22/3
f 37/19/4 38/1/4 42/22/4 41/21/4
f 40/19/5 37/19/5 41/21/5 43/21/5
f 40/19/2 39/18/2 36/18/2 37/19/2
f 42/22/4 38/1/4 46/23/4 45/24/4
f 19/1/3 44/22/3 47/24/3 48/23/3
f 44/22/5 42/22/5 45/24/5 47/24/5
f 44/22/2 43/21/2 41/21/2 42/22/2
f 46/23/4 38/1/4 50/25/4 49/26/4
f 19/1/3 48/23/3 51/26/3 52/25/3
f 48/23/2 47/24/2 45/24/2 46/23/2
f 52/25/5 50/25/5 53/27/5 55/27/5
f 52/25/2 51/26/2 49/26/2 50/25/2
f 48/23/5 46/23/5 49/26/5 51/26/5
f 56/28/2 55/27/2 53/27/2 54/28/2
f 50/25/4 38/1/4 54/28/4 53/27/4
f 19/1/3 52/25/3 55/27/3 56/28/3
f 60/29/2 59/30/2 57/30/2 58/29/2
f 56/28/5 54/28/5 57/30/5 59/30/5
f 54/28/4 38/1/4 58/29/4 57/30/4
f 19/1/3 56/28/3 59/30/3 60/29/3
f 64/31/5 62/31/5 65/32/5 67/32/5
f 64/31/2 63/33/2 61/33/2 62/31/2
f 58/29/4 38/1/4 62/31/4 61/33/4
f 60/29/5 58/29/5 61/33/5 63/33/5
f 19/1/3 60/29/3 63/33/3 64/31/3
f 19/1/3 68/34/3 72/35/3 70/36/3
f 68/34/2 67/32/2 65/32/2 66/34/2
f 19/1/3 64/31/3 67/32/3 68/34/3
f 62/31/4 38/1/4 66/34/4 65/32/4
f 70/36/2 72/35/2 71/35/2 69/36/2
f 38/1/6 19/1/6 70/36/6 69/36/6
f 68/34/5 66/34/5 71/35/5 72/35/5
f 66/34/4 38/1/4 69/36/4 71/35/4
