# Blender 4.1.1
# www.blender.org
mtllib Wall_B_2_1.mtl
o Wall_B_2_1
v -0.200000 -0.000002 -0.998029
v 0.200000 -0.000002 -0.998029
v 0.200000 -0.000001 1.001969
v -0.200000 -0.000001 1.001969
v 0.200000 2.399997 -0.998031
v -0.200000 2.399997 -0.998030
v -0.200000 2.399997 1.001968
v 0.200000 2.399997 1.001968
v 0.200000 2.399997 0.779443
v 0.200000 2.399997 -0.884477
v -0.200000 2.223767 -0.477671
v -0.200000 1.915175 -0.017932
v -0.200000 2.242661 0.769292
v 0.200000 2.204873 -0.783114
v 0.200000 2.223767 -0.477671
v 0.200000 2.091513 -0.263546
v 0.200000 1.915175 -0.017932
v 0.200000 1.993897 0.202491
v 0.200000 1.918324 0.501636
v 0.200000 2.170235 0.637039
v 0.200000 2.242660 0.769292
v -0.200000 2.399997 -0.884477
v -0.200000 2.399997 0.779444
v -0.200000 2.204873 -0.783114
v -0.200000 2.091513 -0.263546
v -0.200000 1.993897 0.202491
v -0.200000 1.918323 0.501636
v -0.200000 2.170235 0.637039
vn -0.0000 -1.0000 -0.0000
vn -0.0000 1.0000 -0.0000
vn -1.0000 -0.0000 -0.0000
vn -0.0000 -0.0000 -1.0000
vn 1.0000 -0.0000 -0.0000
vn -0.0000 -0.0000 1.0000
vn -0.0000 0.9695 0.2449
vn -0.0000 0.4734 -0.8808
vn -0.0000 0.8771 -0.4803
vn -0.0000 0.4610 0.8874
vn -0.0000 0.0644 -0.9979
vn -0.0000 0.9981 -0.0617
vn -0.0000 0.8508 0.5255
vn -0.0000 0.8123 0.5832
vn -0.0000 0.9417 -0.3363
vt 0.673784 0.065966
vt 0.673784 0.065966
vt 0.673784 0.065966
vt 0.673784 0.065966
vt 0.673784 0.065966
vt 0.673784 0.065966
vt 0.673784 0.065966
vt 0.673784 0.065966
vt 0.673784 0.065966
s 1
usemtl City_Atlas
f 1/1/1 2/1/1 3/2/1 4/1/1
f 6/1/2 22/1/2 10/1/2 5/1/2
f 4/1/3 7/1/3 23/1/3 13/3/3 28/3/3 27/4/3 26/5/3 12/1/3 25/1/3 11/6/3 24/1/3 22/1/3 6/1/3 1/1/3
f 1/1/4 6/1/4 5/1/4 2/1/4
f 2/1/5 5/1/5 10/1/5 14/1/5 15/1/5 16/6/5 17/1/5 18/3/5 19/6/5 20/6/5 21/7/5 9/2/5 8/2/5 3/2/5
f 3/2/6 8/2/6 7/1/6 4/1/6
f 23/1/2 7/1/2 8/2/2 9/2/2
f 18/3/7 26/8/7 27/4/7 19/6/7
f 19/6/8 27/4/8 28/3/8 20/6/8
f 20/6/9 28/3/9 13/3/9 21/7/9
f 10/1/10 22/1/10 24/9/10 14/1/10
f 21/7/11 13/3/11 23/1/11 9/2/11
f 14/1/12 24/9/12 11/3/12 15/1/12
f 15/1/13 11/3/13 25/1/13 16/6/13
f 16/6/14 25/1/14 12/3/14 17/1/14
f 17/1/15 12/3/15 26/8/15 18/3/15
