# Blender 4.1.1
# www.blender.org
mtllib Wall_D_2_1.mtl
o Wall_D_2_1
v -0.200000 -0.000002 -0.998029
v 0.200000 -0.000002 -0.998029
v 0.200000 -0.000001 1.001969
v -0.200000 -0.000001 1.001969
v 0.200000 2.399997 -0.998031
v -0.200000 2.399997 -0.998030
v -0.200000 2.399997 1.001968
v 0.200000 2.399997 1.001968
v -0.200000 2.399997 -0.884477
v -0.200000 2.399997 0.779444
v -0.200000 2.204873 -0.783114
v -0.200000 2.223767 -0.477671
v -0.200000 2.091513 -0.263546
v -0.200000 1.915175 -0.017932
v -0.200000 1.993897 0.202491
v -0.200000 1.918323 0.501636
v -0.200000 2.170235 0.637039
v -0.200000 2.242661 0.769292
v 0.200000 2.091513 -0.263546
v 0.200000 1.993897 0.202491
v 0.200000 1.918324 0.501636
v 0.200000 2.170235 0.637039
v 0.200000 2.399997 -0.884477
v 0.200000 2.399997 0.779443
v 0.200000 2.204873 -0.783114
v 0.200000 2.223767 -0.477671
v 0.200000 1.915175 -0.017932
v 0.200000 2.242660 0.769292
vn -0.0000 -1.0000 -0.0000
vn -0.0000 1.0000 -0.0000
vn -1.0000 -0.0000 -0.0000
vn -0.0000 -0.0000 -1.0000
vn 1.0000 -0.0000 -0.0000
vn -0.0000 -0.0000 1.0000
vn -0.0000 0.9417 -0.3363
vn -0.0000 0.9695 0.2449
vn -0.0000 0.4734 -0.8808
vn -0.0000 0.8771 -0.4803
vn -0.0000 0.4610 0.8874
vn -0.0000 0.0644 -0.9979
vn -0.0000 0.9981 -0.0617
vn -0.0000 0.8508 0.5255
vn -0.0000 0.8123 0.5832
vt 0.042466 0.195214
vt 0.042466 0.195214
vt 0.042466 0.195214
vt 0.042466 0.195214
vt 0.042466 0.195214
vt 0.042466 0.195214
vt 0.042466 0.195214
vt 0.042466 0.195214
vt 0.042466 0.195214
vt 0.042466 0.195214
vt 0.042466 0.195214
vt 0.042466 0.195214
vt 0.042466 0.195214
vt 0.042466 0.195214
vt 0.042466 0.195214
vt 0.042466 0.195214
vt 0.042466 0.195214
vt 0.042466 0.195214
s 1
usemtl City_Atlas
f 1/1/1 2/1/1 3/2/1 4/1/1
f 6/1/2 9/1/2 23/3/2 5/1/2
f 4/1/3 7/1/3 10/1/3 18/4/3 17/5/3 16/6/3 15/4/3 14/3/3 13/6/3 12/7/3 11/5/3 9/1/3 6/1/3 1/1/3
f 1/1/4 6/1/4 5/1/4 2/1/4
f 2/1/5 5/1/5 23/3/5 25/8/5 26/9/5 19/10/5 27/11/5 20/12/5 21/13/5 22/14/5 28/15/5 24/16/5 8/2/5 3/2/5
f 3/2/6 8/2/6 7/1/6 4/1/6
f 10/1/2 7/1/2 8/2/2 24/16/2
f 15/4/7 20/17/7 27/11/7 14/3/7
f 16/6/8 21/18/8 20/17/8 15/4/8
f 17/5/9 22/14/9 21/18/9 16/6/9
f 18/4/10 28/15/10 22/14/10 17/5/10
f 11/5/11 25/8/11 23/3/11 9/1/11
f 10/1/12 24/16/12 28/15/12 18/4/12
f 12/7/13 26/9/13 25/8/13 11/5/13
f 13/6/14 19/10/14 26/9/14 12/7/14
f 14/3/15 27/11/15 19/10/15 13/6/15
