# Blender 4.1.1
# www.blender.org
mtllib Wall_E_1_1.mtl
o Wall_E_1_1
v -0.200000 -0.000002 -0.998029
v -0.200000 -0.000001 1.001969
v -0.200000 2.399997 1.001968
v 0.200000 2.399997 1.001968
v -0.142066 2.399997 -0.940096
v 0.142066 2.399997 -0.940096
v 0.142066 2.399997 0.944034
v -0.142066 2.399997 0.944034
v 0.200000 0.057932 -0.940095
v 0.200000 0.057933 0.944035
v 0.200000 2.342063 0.944034
v 0.200000 2.342062 -0.940096
v 0.142066 0.057933 1.001969
v -0.142066 0.057933 1.001969
v -0.142066 2.342063 1.001968
v 0.142066 2.342063 1.001968
v -0.200000 0.057933 0.944035
v -0.200000 0.057932 -0.940095
v -0.200000 2.342062 -0.940096
v -0.200000 2.342063 0.944034
v -0.142066 0.057932 -0.998029
v 0.142066 0.057932 -0.998029
v 0.142066 2.342062 -0.998031
v -0.142066 2.342062 -0.998031
v 0.200000 2.399997 -0.998031
v 0.200000 -0.000001 1.001969
v 0.200000 -0.000002 -0.998029
v -0.200000 2.399997 -0.998030
vn -0.0000 -1.0000 -0.0000
vn -0.0000 1.0000 -0.0000
vn 1.0000 -0.0000 -0.0000
vn -0.0000 -0.0000 1.0000
vn -1.0000 -0.0000 -0.0000
vn -0.0000 -0.0000 -1.0000
vt 0.513099 0.100086
vt 0.512611 0.092761
vt 0.512611 0.092761
vt 0.513099 0.100086
s 1
usemtl City_Atlas
f 1/1/1 27/1/1 26/1/1 2/1/1
f 5/2/2 8/2/2 7/2/2 6/2/2
f 9/2/3 12/2/3 11/2/3 10/2/3
f 13/2/4 16/2/4 15/3/4 14/2/4
f 17/2/5 20/2/5 19/2/5 18/2/5
f 21/2/6 24/2/6 23/2/6 22/2/6
f 6/1/2 25/1/2 28/1/2 5/1/2
f 7/1/2 4/1/2 25/1/2 6/1/2
f 8/1/2 3/1/2 4/1/2 7/1/2
f 5/1/2 28/1/2 3/1/2 8/1/2
f 10/1/3 26/1/3 27/1/3 9/1/3
f 11/1/3 4/1/3 26/1/3 10/1/3
f 12/1/3 25/1/3 4/1/3 11/1/3
f 9/1/3 27/1/3 25/1/3 12/1/3
f 14/1/4 2/1/4 26/1/4 13/1/4
f 15/4/4 3/1/4 2/1/4 14/1/4
f 16/1/4 4/1/4 3/1/4 15/4/4
f 13/1/4 26/1/4 4/1/4 16/1/4
f 18/1/5 1/1/5 2/1/5 17/1/5
f 19/1/5 28/1/5 1/1/5 18/1/5
f 20/1/5 3/1/5 28/1/5 19/1/5
f 17/1/5 2/1/5 3/1/5 20/1/5
f 22/1/6 27/1/6 1/1/6 21/1/6
f 23/1/6 25/1/6 27/1/6 22/1/6
f 24/1/6 28/1/6 25/1/6 23/1/6
f 21/1/6 1/1/6 28/1/6 24/1/6
