# Blender 4.1.1
# www.blender.org
mtllib Wall_E_3_1.mtl
o Wall_E_3_1
v -0.159047 0.040951 -0.998029
v -0.200000 0.040951 -0.957076
v -0.159047 -0.000002 -0.957076
v 0.159047 0.040951 -0.998029
v 0.159047 -0.000002 -0.957076
v 0.200000 0.040951 -0.957076
v 0.159047 0.040952 1.001969
v 0.200000 0.040952 0.961016
v 0.159047 -0.000001 0.961016
v -0.159047 0.040952 1.001969
v -0.159047 -0.000001 0.961016
v -0.200000 0.040952 0.961016
v 0.159047 1.159044 -0.998030
v 0.200000 1.159045 -0.957078
v 0.159047 1.199997 -0.957078
v -0.159047 1.159044 -0.998030
v -0.159047 1.199997 -0.957077
v -0.200000 1.159045 -0.957077
v -0.159047 1.159045 1.001968
v -0.200000 1.159045 0.961015
v -0.159047 1.199998 0.961015
v 0.159047 1.159045 1.001968
v 0.159047 1.199998 0.961015
v 0.200000 1.159045 0.961015
vn -1.0000 -0.0000 -0.0000
vn -0.0000 -0.0000 1.0000
vn -0.0000 1.0000 -0.0000
vn 1.0000 -0.0000 -0.0000
vn -0.0000 -1.0000 -0.0000
vn -0.5773 -0.5774 -0.5773
vn 0.5773 -0.5774 -0.5774
vn 0.5774 -0.5774 0.5774
vn -0.5774 -0.5773 0.5774
vn 0.5773 0.5774 -0.5774
vn -0.5773 0.5774 -0.5774
vn -0.5774 0.5774 0.5773
vn 0.5774 0.5774 0.5773
vn -0.0000 -0.7071 -0.7071
vn -0.0000 -0.7071 0.7071
vn -0.7071 -0.7071 -0.0000
vn 0.7071 -0.7071 -0.0000
vn -0.0000 0.7071 -0.7071
vn -0.0000 0.7071 0.7071
vn -0.7071 0.7071 -0.0000
vn 0.7071 0.7071 -0.0000
vn 0.7071 -0.0000 0.7071
vn 0.7071 -0.0000 -0.7071
vn -0.7071 -0.0000 0.7071
vn -0.7071 -0.0000 -0.7071
vn -0.0000 -0.0000 -1.0000
vt 0.512611 0.092761
vt 0.512611 0.092761
vt 0.512611 0.092761
vt 0.512611 0.092761
vt 0.510150 0.106296
vt 0.510150 0.106296
vt 0.510150 0.106296
vt 0.510150 0.106296
s 1
usemtl City_Atlas
f 12/1/1 20/1/1 18/2/1 2/3/1
f 7/3/2 22/4/2 19/3/2 10/2/2
f 17/4/3 21/3/3 23/1/3 15/4/3
f 6/1/4 14/2/4 24/2/4 8/1/4
f 3/3/5 5/3/5 9/4/5 11/4/5
f 1/5/6 3/5/6 2/5/6
f 4/6/7 6/7/7 5/5/7
f 7/5/8 9/8/8 8/7/8
f 10/6/9 12/7/9 11/8/9
f 13/5/10 15/8/10 14/6/10
f 16/8/11 18/6/11 17/8/11
f 19/5/12 21/5/12 20/7/12
f 22/8/13 24/6/13 23/7/13
f 4/6/14 5/5/14 3/5/14 1/5/14
f 10/6/15 11/8/15 9/8/15 7/5/15
f 2/5/16 3/5/16 11/8/16 12/7/16
f 8/7/17 9/8/17 5/5/17 6/7/17
f 15/8/18 13/5/18 16/8/18 17/8/18
f 21/5/19 19/5/19 22/8/19 23/7/19
f 17/8/20 18/6/20 20/7/20 21/5/20
f 23/7/21 24/6/21 14/6/21 15/8/21
f 7/5/22 8/7/22 24/6/22 22/8/22
f 13/5/23 14/6/23 6/7/23 4/6/23
f 12/7/24 10/6/24 19/5/24 20/7/24
f 1/5/25 2/5/25 18/6/25 16/8/25
f 1/3/26 16/4/26 13/3/26 4/2/26
