# Blender 4.1.1
# www.blender.org
mtllib Wall_A_3_1.mtl
o Wall_A_3_1
v -0.159047 0.040951 -0.998029
v -0.200000 0.040951 -0.957076
v -0.159047 -0.000002 -0.957076
v 0.159047 0.040951 -0.998029
v 0.159047 -0.000002 -0.957076
v 0.200000 0.040951 -0.957076
v 0.159047 0.040952 1.001969
v 0.200000 0.040952 0.961016
v 0.159047 -0.000001 0.961016
v -0.159047 0.040952 1.001969
v -0.159047 -0.000001 0.961016
v -0.200000 0.040952 0.961016
v 0.159047 1.159044 -0.998030
v 0.200000 1.159045 -0.957078
v 0.159047 1.199997 -0.957078
v -0.159047 1.159044 -0.998030
v -0.159047 1.199997 -0.957077
v -0.200000 1.159045 -0.957077
v -0.159047 1.159045 1.001968
v -0.200000 1.159045 0.961015
v -0.159047 1.199998 0.961015
v 0.159047 1.159045 1.001968
v 0.159047 1.199998 0.961015
v 0.200000 1.159045 0.961015
vn -1.0000 -0.0000 -0.0000
vn 1.0000 -0.0000 -0.0000
vn -0.0000 -1.0000 -0.0000
vn -0.0000 -0.0000 1.0000
vn -0.0000 1.0000 -0.0000
vn -0.5773 -0.5774 -0.5773
vn 0.5773 -0.5774 -0.5774
vn 0.5774 -0.5774 0.5774
vn -0.5774 -0.5773 0.5774
vn 0.5773 0.5774 -0.5774
vn -0.5773 0.5774 -0.5774
vn -0.5774 0.5774 0.5773
vn 0.5774 0.5774 0.5773
vn -0.0000 -0.7071 -0.7071
vn -0.0000 -0.7071 0.7071
vn -0.7071 -0.7071 -0.0000
vn 0.7071 -0.7071 -0.0000
vn -0.0000 0.7071 -0.7071
vn -0.0000 0.7071 0.7071
vn -0.7071 0.7071 -0.0000
vn 0.7071 0.7071 -0.0000
vn -0.7071 -0.0000 -0.7071
vn -0.7071 -0.0000 0.7071
vn 0.7071 -0.0000 -0.7071
vn 0.7071 -0.0000 0.7071
vn -0.0000 -0.0000 -1.0000
vt 0.543567 0.196183
vt 0.543567 0.196183
vt 0.543567 0.196183
vt 0.543567 0.196183
vt 0.543567 0.196183
vt 0.543567 0.196183
vt 0.543567 0.196183
vt 0.543567 0.196183
vt 0.543567 0.196183
vt 0.543567 0.196183
vt 0.543567 0.196183
vt 0.538684 0.222550
vt 0.538684 0.222550
vt 0.538684 0.222550
vt 0.538684 0.222550
vt 0.538684 0.222550
vt 0.538684 0.222550
vt 0.538684 0.222550
vt 0.538684 0.222550
vt 0.538684 0.222550
vt 0.538684 0.222550
vt 0.538684 0.222550
vt 0.538685 0.222550
vt 0.543567 0.196183
s 1
usemtl City_Atlas
f 12/1/1 20/2/1 18/3/1 2/4/1
f 6/5/2 14/1/2 24/6/2 8/3/2
f 3/7/3 5/8/3 9/4/3 11/7/3
f 7/9/4 22/10/4 19/4/4 10/1/4
f 17/11/5 21/8/5 23/3/5 15/11/5
f 1/12/6 3/13/6 2/14/6
f 4/14/7 6/15/7 5/16/7
f 7/17/8 9/14/8 8/18/8
f 10/19/9 12/19/9 11/13/9
f 13/14/10 15/20/10 14/19/10
f 16/14/11 18/18/11 17/20/11
f 19/14/12 21/16/12 20/21/12
f 22/22/13 24/23/13 23/18/13
f 4/14/14 5/16/14 3/13/14 1/12/14
f 10/19/15 11/13/15 9/14/15 7/17/15
f 2/14/16 3/13/16 11/13/16 12/19/16
f 8/18/17 9/14/17 5/16/17 6/15/17
f 15/20/18 13/14/18 16/14/18 17/20/18
f 21/16/19 19/14/19 22/22/19 23/18/19
f 17/20/20 18/18/20 20/21/20 21/16/20
f 23/18/21 24/23/21 14/19/21 15/20/21
f 1/12/22 2/14/22 18/18/22 16/14/22
f 19/14/23 20/21/23 12/19/23 10/19/23
f 6/15/24 4/14/24 13/14/24 14/19/24
f 7/17/25 8/18/25 24/23/25 22/22/25
f 1/24/26 16/4/26 13/4/26 4/4/26
