# Blender 4.1.1
# www.blender.org
mtllib Wall_D_1_1.mtl
o Wall_D_1_1
v 0.200000 -0.000002 -0.998029
v 0.200000 2.399997 1.001968
v -0.142066 2.399997 -0.940096
v 0.142066 2.399997 -0.940096
v 0.142066 2.399997 0.944034
v -0.142066 2.399997 0.944034
v -0.200000 0.057933 0.944035
v -0.200000 0.057932 -0.940095
v -0.200000 2.342062 -0.940096
v -0.200000 2.342063 0.944034
v -0.142066 0.057932 -0.998029
v 0.142066 0.057932 -0.998029
v 0.142066 2.342062 -0.998031
v -0.142066 2.342062 -0.998031
v 0.200000 0.057932 -0.940095
v 0.200000 0.057933 0.944035
v 0.200000 2.342063 0.944034
v 0.200000 2.342062 -0.940096
v 0.142066 0.057933 1.001969
v -0.142066 0.057933 1.001969
v -0.142066 2.342063 1.001968
v 0.142066 2.342063 1.001968
v 0.200000 2.399997 -0.998031
v -0.200000 2.399997 -0.998030
v -0.200000 -0.000001 1.001969
v -0.200000 -0.000002 -0.998029
v 0.200000 -0.000001 1.001969
v -0.200000 2.399997 1.001968
vn -0.0000 -1.0000 -0.0000
vn -0.0000 1.0000 -0.0000
vn -1.0000 -0.0000 -0.0000
vn -0.0000 -0.0000 -1.0000
vn 1.0000 -0.0000 -0.0000
vn -0.0000 -0.0000 1.0000
vt 0.042466 0.215722
vt 0.042466 0.215722
vt 0.042466 0.195214
vt 0.042466 0.195214
vt 0.042466 0.195214
vt 0.042466 0.195214
vt 0.042466 0.195214
vt 0.042466 0.195214
vt 0.042466 0.195214
vt 0.042466 0.195214
vt 0.042466 0.195214
vt 0.042466 0.195214
vt 0.042466 0.215722
vt 0.042466 0.215722
vt 0.042466 0.215722
vt 0.042466 0.215722
vt 0.042466 0.215722
vt 0.042466 0.215722
vt 0.042466 0.215722
vt 0.042466 0.215722
s 1
usemtl City_Atlas
f 26/1/1 1/1/1 27/2/1 25/1/1
f 3/3/2 6/4/2 5/5/2 4/3/2
f 7/6/3 10/3/3 9/3/3 8/6/3
f 11/7/4 14/3/4 13/8/4 12/7/4
f 15/6/5 18/6/5 17/9/5 16/10/5
f 19/5/6 22/11/6 21/12/6 20/4/6
f 4/1/2 23/1/2 24/1/2 3/1/2
f 5/13/2 2/2/2 23/1/2 4/1/2
f 6/14/2 28/1/2 2/2/2 5/13/2
f 3/1/2 24/1/2 28/1/2 6/14/2
f 8/15/3 26/1/3 25/1/3 7/15/3
f 9/1/3 24/1/3 26/1/3 8/15/3
f 10/1/3 28/1/3 24/1/3 9/1/3
f 7/15/3 25/1/3 28/1/3 10/1/3
f 12/16/4 1/1/4 26/1/4 11/16/4
f 13/17/4 23/1/4 1/1/4 12/16/4
f 14/1/4 24/1/4 23/1/4 13/17/4
f 11/16/4 26/1/4 24/1/4 14/1/4
f 16/18/5 27/2/5 1/1/5 15/15/5
f 17/2/5 2/2/5 27/2/5 16/18/5
f 18/15/5 23/1/5 2/2/5 17/2/5
f 15/15/5 1/1/5 23/1/5 18/15/5
f 20/14/6 25/1/6 27/2/6 19/13/6
f 21/19/6 28/1/6 25/1/6 20/14/6
f 22/20/6 2/2/6 28/1/6 21/19/6
f 19/13/6 27/2/6 2/2/6 22/20/6
