# Blender 4.1.1
# www.blender.org
mtllib Wall_B_4.mtl
o Wall_B_4
v 0.200000 0.000000 -0.998029
v 0.200000 2.400000 1.001968
v -0.142066 2.399999 -0.940096
v 0.142066 2.399999 -0.940096
v 0.142066 2.400000 0.944034
v -0.142066 2.400000 0.944034
v -0.200000 0.057935 0.944035
v -0.200000 0.057934 -0.940095
v -0.200000 2.342065 -0.940096
v -0.200000 2.342066 0.944034
v -0.142066 0.057934 -0.998029
v 0.142066 0.057934 -0.998029
v 0.142066 2.342065 -0.998031
v -0.142066 2.342065 -0.998031
v 0.200000 0.057934 -0.940095
v 0.200000 0.057935 0.944035
v 0.200000 2.342066 0.944034
v 0.200000 2.342065 -0.940096
v 0.142066 0.057935 1.001969
v -0.142066 0.057935 1.001969
v -0.142066 2.342066 1.001968
v 0.142066 2.342066 1.001968
v 0.200000 2.399999 -0.998031
v -0.200000 2.399999 -0.998030
v -0.200000 0.000001 1.001969
v -0.200000 0.000000 -0.998029
v 0.200000 0.000001 1.001969
v -0.200000 2.400000 1.001968
v 0.200000 1.804334 0.490728
v 0.200000 0.713849 0.490728
v 0.200000 0.713849 -0.551290
v 0.200000 1.804334 -0.551290
v 0.200000 1.804334 0.490728
v -0.200000 1.804334 0.490728
v -0.200000 0.713849 0.490728
v -0.200000 0.713849 -0.551290
v -0.200000 1.804334 -0.551290
v -0.200000 1.804334 0.490728
vn -0.0000 -1.0000 -0.0000
vn -0.0000 1.0000 -0.0000
vn -1.0000 -0.0000 -0.0000
vn -0.0000 -0.0000 -1.0000
vn 1.0000 -0.0000 -0.0000
vn -0.0000 -0.0000 1.0000
vt 0.671458 0.080693
vt 0.671458 0.080693
vt 0.673784 0.065966
vt 0.673784 0.065966
vt 0.673784 0.065966
vt 0.673784 0.065966
vt 0.673784 0.065966
vt 0.673784 0.065966
vt 0.673784 0.065966
vt 0.671458 0.080693
vt 0.671458 0.080693
vt 0.671458 0.080693
vt 0.671458 0.080693
vt 0.671458 0.080693
vt 0.673784 0.065966
vt 0.673784 0.065966
vt 0.681313 0.072246
vt 0.681271 0.072243
vt 0.681237 0.072209
vt 0.681331 0.072221
vt 0.681313 0.072247
vt 0.681331 0.072221
vt 0.681308 0.072288
vt 0.681337 0.072311
vt 0.681265 0.072287
vt 0.681237 0.072323
vt 0.673784 0.065966
vt 0.673784 0.065966
s 1
usemtl City_Atlas
f 26/1/1 1/1/1 27/2/1 25/1/1
f 3/3/2 6/4/2 5/5/2 4/3/2
f 10/4/3 38/4/3 35/6/3
f 11/7/4 14/4/4 13/4/4 12/7/4
f 30/8/5 33/9/5 17/9/5
f 19/5/6 22/9/6 21/7/6 20/4/6
f 4/10/2 23/1/2 24/1/2 3/10/2
f 5/11/2 2/2/2 23/1/2 4/10/2
f 6/1/2 28/1/2 2/2/2 5/11/2
f 3/10/2 24/1/2 28/1/2 6/1/2
f 8/12/3 26/1/3 25/1/3 7/12/3
f 9/1/3 24/1/3 26/1/3 8/12/3
f 10/1/3 28/1/3 24/1/3 9/1/3
f 7/12/3 25/1/3 28/1/3 10/1/3
f 12/13/4 1/1/4 26/1/4 11/13/4
f 13/1/4 23/1/4 1/1/4 12/13/4
f 14/1/4 24/1/4 23/1/4 13/1/4
f 11/13/4 26/1/4 24/1/4 14/1/4
f 16/14/5 27/2/5 1/1/5 15/12/5
f 17/2/5 2/2/5 27/2/5 16/14/5
f 18/1/5 23/1/5 2/2/5 17/2/5
f 15/12/5 1/1/5 23/1/5 18/1/5
f 20/1/6 25/1/6 27/2/6 19/11/6
f 21/13/6 28/1/6 25/1/6 20/1/6
f 22/2/6 2/2/6 28/1/6 21/13/6
f 19/11/6 27/2/6 2/2/6 22/2/6
f 17/9/5 33/9/5 32/15/5 18/4/5
f 9/4/3 37/16/3 38/4/3 10/4/3
f 38/17/1 37/18/1 32/19/1 33/20/1
f 34/21/1 38/17/1 33/20/1 29/22/1
f 35/23/4 34/21/4 29/22/4 30/24/4
f 36/25/2 35/23/2 30/24/2 31/26/2
f 37/18/6 36/25/6 31/26/6 32/19/6
f 36/27/3 37/16/3 9/4/3
f 36/27/3 9/4/3 8/27/3
f 35/6/3 36/27/3 8/27/3
f 35/6/3 8/27/3 7/27/3
f 35/6/3 7/27/3 10/4/3
f 38/4/2 34/28/2 35/6/2
f 15/27/5 18/4/5 31/28/5
f 18/4/5 32/15/5 31/28/5
f 15/27/5 31/28/5 30/8/5
f 16/15/5 15/27/5 30/8/5
f 17/9/5 16/15/5 30/8/5
f 30/8/2 29/8/2 33/9/2
