# Blender 4.1.1
# www.blender.org
mtllib Wall_B_3_1.mtl
o Wall_B_3_1
v -0.159047 0.040951 -0.998029
v -0.200000 0.040951 -0.957076
v -0.159047 -0.000002 -0.957076
v 0.159047 0.040951 -0.998029
v 0.159047 -0.000002 -0.957076
v 0.200000 0.040951 -0.957076
v 0.159047 0.040952 1.001969
v 0.200000 0.040952 0.961016
v 0.159047 -0.000001 0.961016
v -0.159047 0.040952 1.001969
v -0.159047 -0.000001 0.961016
v -0.200000 0.040952 0.961016
v 0.159047 1.159044 -0.998030
v 0.200000 1.159045 -0.957078
v 0.159047 1.199997 -0.957078
v -0.159047 1.159044 -0.998030
v -0.159047 1.199997 -0.957077
v -0.200000 1.159045 -0.957077
v -0.159047 1.159045 1.001968
v -0.200000 1.159045 0.961015
v -0.159047 1.199998 0.961015
v 0.159047 1.159045 1.001968
v 0.159047 1.199998 0.961015
v 0.200000 1.159045 0.961015
vn -1.0000 -0.0000 -0.0000
vn 1.0000 -0.0000 -0.0000
vn -0.0000 -1.0000 -0.0000
vn -0.0000 -0.0000 1.0000
vn -0.0000 1.0000 -0.0000
vn -0.5773 -0.5774 -0.5773
vn 0.5773 -0.5774 -0.5774
vn 0.5774 -0.5774 0.5774
vn -0.5774 -0.5773 0.5774
vn 0.5773 0.5774 -0.5774
vn -0.5773 0.5774 -0.5774
vn -0.5774 0.5774 0.5773
vn 0.5774 0.5774 0.5773
vn -0.0000 -0.7071 -0.7071
vn -0.0000 -0.7071 0.7071
vn -0.7071 -0.7071 -0.0000
vn 0.7071 -0.7071 -0.0000
vn -0.0000 0.7071 -0.7071
vn -0.0000 0.7071 0.7071
vn -0.7071 0.7071 -0.0000
vn 0.7071 0.7071 -0.0000
vn -0.7071 -0.0000 -0.7071
vn -0.7071 -0.0000 0.7071
vn 0.7071 -0.0000 -0.7071
vn 0.7071 -0.0000 0.7071
vn -0.0000 -0.0000 -1.0000
vt 0.673784 0.065966
vt 0.673784 0.065966
vt 0.673784 0.065966
vt 0.673784 0.065966
vt 0.673784 0.065966
vt 0.673784 0.065966
vt 0.673784 0.065966
vt 0.673784 0.065966
vt 0.673784 0.065966
vt 0.671323 0.080731
vt 0.671323 0.080731
vt 0.671323 0.080731
vt 0.671323 0.080731
vt 0.671323 0.080731
vt 0.671323 0.080731
vt 0.671323 0.080731
vt 0.671323 0.080731
vt 0.671323 0.080731
vt 0.671323 0.080731
vt 0.673784 0.065966
s 1
usemtl City_Atlas
f 12/1/1 20/2/1 18/3/1 2/4/1
f 6/3/2 14/5/2 24/6/2 8/7/2
f 3/3/3 5/3/3 9/5/3 11/3/3
f 7/8/4 22/5/4 19/3/4 10/3/4
f 17/3/5 21/3/5 23/9/5 15/3/5
f 1/10/6 3/11/6 2/12/6
f 4/11/7 6/11/7 5/11/7
f 7/13/8 9/14/8 8/15/8
f 10/11/9 12/16/9 11/11/9
f 13/11/10 15/11/10 14/14/10
f 16/11/11 18/11/11 17/11/11
f 19/11/12 21/11/12 20/17/12
f 22/14/13 24/18/13 23/19/13
f 4/11/14 5/11/14 3/11/14 1/10/14
f 10/11/15 11/11/15 9/14/15 7/13/15
f 2/12/16 3/11/16 11/11/16 12/16/16
f 8/15/17 9/14/17 5/11/17 6/11/17
f 15/11/18 13/11/18 16/11/18 17/11/18
f 21/11/19 19/11/19 22/14/19 23/19/19
f 17/11/20 18/11/20 20/17/20 21/11/20
f 23/19/21 24/18/21 14/14/21 15/11/21
f 1/10/22 2/12/22 18/11/22 16/11/22
f 19/11/23 20/17/23 12/16/23 10/11/23
f 6/11/24 4/11/24 13/11/24 14/14/24
f 7/13/25 8/15/25 24/18/25 22/14/25
f 1/20/26 16/3/26 13/3/26 4/3/26
