# Blender 4.1.1
# www.blender.org
mtllib WoodFrame_1_1.mtl
o WoodFrame_1_1
v -0.044130 0.278651 -0.971489
v -0.191545 0.278651 -0.971489
v -0.044129 0.278651 1.028511
v -0.191545 0.278651 1.028511
v -0.044130 0.362047 -0.971489
v -0.191545 0.362047 -0.971489
v -0.044129 0.362048 1.028511
v -0.191545 0.362048 1.028511
v -0.044130 1.111412 -0.971489
v -0.191545 1.111412 -0.971489
v -0.044129 1.111412 1.028511
v -0.191545 1.111412 1.028511
v -0.044130 1.194808 -0.971489
v -0.191545 1.194808 -0.971489
v -0.044129 1.194808 1.028511
v -0.191545 1.194808 1.028511
v -0.044130 1.977841 -0.971489
v -0.191545 1.977841 -0.971489
v -0.044129 1.977841 1.028511
v -0.191545 1.977841 1.028511
v -0.044130 2.061237 -0.971489
v -0.191545 2.061237 -0.971489
v -0.044129 2.061237 1.028511
v -0.191545 2.061237 1.028511
v -0.044130 -0.000002 0.315683
v -0.044130 -0.000002 0.427950
v 0.044130 -0.000002 0.315683
v 0.044130 -0.000002 0.427950
v -0.044130 2.399998 0.315683
v -0.044130 2.399998 0.427950
v 0.044130 2.399998 0.315683
v 0.044130 2.399998 0.427950
v -0.044130 -0.000002 -0.424009
v -0.044130 -0.000002 -0.311742
v 0.044129 -0.000002 -0.424009
v 0.044129 -0.000002 -0.311742
v -0.044130 2.399998 -0.424009
v -0.044130 2.399998 -0.311742
v 0.044129 2.399998 -0.424009
v 0.044129 2.399998 -0.311742
v -0.044130 1.927361 -0.074584
v -0.191545 1.927361 -0.074584
v -0.044130 2.010757 -0.074584
v -0.191545 2.010757 -0.074584
vn -0.0000 -1.0000 -0.0000
vn -0.0000 1.0000 -0.0000
vn -1.0000 -0.0000 -0.0000
vn 1.0000 -0.0000 -0.0000
vn -0.0000 -0.0000 1.0000
vn -0.0000 -0.0000 -1.0000
vn -0.0000 -0.9990 0.0457
vn -0.0000 0.9990 -0.0457
vn -0.0000 0.9984 0.0562
vn -0.0000 -0.9984 -0.0562
vt 0.483786 0.568053
vt 0.483776 0.568053
vt 0.483786 0.568265
vt 0.483776 0.568265
vt 0.491518 0.524232
vt 0.491523 0.524232
vt 0.491523 0.524341
vt 0.491518 0.524341
vt 0.483786 0.570167
vt 0.483776 0.570167
vt 0.483786 0.570379
vt 0.483776 0.570379
vt 0.491518 0.525321
vt 0.491523 0.525321
vt 0.491523 0.525430
vt 0.491518 0.525430
vt 0.483786 0.572367
vt 0.483786 0.572367
vt 0.483776 0.572367
vt 0.483776 0.572367
vt 0.483786 0.572579
vt 0.483776 0.572578
vt 0.483776 0.572578
vt 0.483786 0.572578
vt 0.491518 0.526453
vt 0.491523 0.526453
vt 0.491523 0.526562
vt 0.491518 0.526562
vt 0.491523 0.523868
vt 0.491526 0.523868
vt 0.491523 0.527005
vt 0.491526 0.527005
vt 0.486112 0.585948
vt 0.486112 0.592041
vt 0.486118 0.592041
vt 0.486118 0.585948
vt 0.489987 0.596024
vt 0.489987 0.602117
vt 0.489993 0.602117
vt 0.489993 0.596024
s 1
usemtl City_Atlas
f 1/1/1 3/1/1 4/2/1 2/2/1
f 5/3/2 6/4/2 8/4/2 7/3/2
f 2/2/3 4/2/3 8/4/3 6/4/3
f 3/1/4 1/1/4 5/3/4 7/3/4
f 4/5/5 3/6/5 7/7/5 8/8/5
f 1/6/6 2/5/6 6/8/6 5/7/6
f 9/9/1 11/9/1 12/10/1 10/10/1
f 13/11/2 14/12/2 16/12/2 15/11/2
f 10/10/3 12/10/3 16/12/3 14/12/3
f 11/9/4 9/9/4 13/11/4 15/11/4
f 12/13/5 11/14/5 15/15/5 16/16/5
f 9/14/6 10/13/6 14/16/6 13/15/6
f 41/17/7 19/18/7 20/19/7 42/20/7
f 43/21/8 44/22/8 24/23/8 23/24/8
f 42/20/3 20/19/3 24/23/3 44/22/3
f 41/17/4 17/18/4 21/24/4 43/21/4
f 20/25/5 19/26/5 23/27/5 24/28/5
f 17/26/6 18/25/6 22/28/6 21/27/6
f 25/29/1 27/30/1 28/30/1 26/29/1
f 29/31/2 30/31/2 32/32/2 31/32/2
f 26/33/3 30/34/3 29/34/3 25/33/3
f 25/33/6 29/34/6 31/35/6 27/36/6
f 27/36/4 31/35/4 32/35/4 28/36/4
f 28/36/5 32/35/5 30/34/5 26/33/5
f 33/29/1 35/30/1 36/30/1 34/29/1
f 37/31/2 38/31/2 40/32/2 39/32/2
f 34/37/3 38/38/3 37/38/3 33/37/3
f 33/37/6 37/38/6 39/39/6 35/40/6
f 35/40/4 39/39/4 40/39/4 36/40/4
f 36/40/5 40/39/5 38/38/5 34/37/5
f 19/18/4 41/17/4 43/21/4 23/24/4
f 18/19/3 42/20/3 44/22/3 22/23/3
f 21/24/9 22/23/9 44/22/9 43/21/9
f 17/18/10 41/17/10 42/20/10 18/19/10
