# Blender 4.1.1
# www.blender.org
mtllib WoodFrame_2_1.mtl
o WoodFrame_2_1
v -0.191544 0.278652 0.975435
v -0.044129 0.278652 0.975435
v -0.191545 0.278651 -1.024565
v -0.044130 0.278651 -1.024565
v -0.191544 0.362048 0.975435
v -0.044129 0.362048 0.975435
v -0.191545 0.362047 -1.024565
v -0.044130 0.362047 -1.024565
v -0.191544 1.111412 0.975435
v -0.044129 1.111412 0.975435
v -0.191545 1.111412 -1.024565
v -0.044130 1.111412 -1.024565
v -0.191544 1.194808 0.975435
v -0.044129 1.194808 0.975435
v -0.191545 1.194808 -1.024565
v -0.044130 1.194808 -1.024565
v -0.191544 1.977841 0.975435
v -0.044129 1.977841 0.975434
v -0.191545 1.977841 -1.024565
v -0.044130 1.977841 -1.024565
v -0.191544 2.061237 0.975435
v -0.044129 2.061237 0.975434
v -0.191545 2.061237 -1.024565
v -0.044130 2.061237 -1.024565
v 0.044130 -0.000002 -0.311737
v 0.044130 -0.000002 -0.424004
v -0.044130 -0.000002 -0.311737
v -0.044130 -0.000002 -0.424004
v 0.044130 2.399998 -0.311737
v 0.044130 2.399998 -0.424005
v -0.044130 2.399998 -0.311737
v -0.044130 2.399998 -0.424005
v 0.044130 -0.000002 0.427954
v 0.044130 -0.000002 0.315687
v -0.044129 -0.000002 0.427954
v -0.044129 -0.000002 0.315687
v 0.044130 2.399998 0.427954
v 0.044130 2.399998 0.315687
v -0.044129 2.399998 0.427954
v -0.044129 2.399998 0.315687
v 0.044130 1.199998 0.485391
v 0.044130 1.199998 0.373124
v -0.044129 1.199998 0.485391
v -0.044129 1.199998 0.373124
v 0.044130 0.599998 0.322267
v 0.044130 0.599998 0.434534
v -0.044129 0.599998 0.434534
v -0.044129 0.599998 0.322267
vn -0.0000 -1.0000 -0.0000
vn -0.0000 1.0000 -0.0000
vn 1.0000 -0.0000 -0.0000
vn -1.0000 -0.0000 -0.0000
vn -0.0000 -0.0000 -1.0000
vn -0.0000 -0.0000 1.0000
vn -0.0000 0.0478 0.9989
vn -0.0000 -0.0478 -0.9989
vn -0.0000 0.0845 -0.9964
vn -0.0000 -0.0845 0.9964
vn -0.0000 -0.0110 0.9999
vn -0.0000 0.0110 -0.9999
vt 0.483737 0.568053
vt 0.483727 0.568053
vt 0.483737 0.568265
vt 0.483727 0.568265
vt 0.491492 0.524232
vt 0.491497 0.524232
vt 0.491497 0.524341
vt 0.491492 0.524341
vt 0.483737 0.570167
vt 0.483727 0.570167
vt 0.483737 0.570379
vt 0.483727 0.570379
vt 0.491492 0.525321
vt 0.491497 0.525321
vt 0.491497 0.525430
vt 0.491492 0.525430
vt 0.483737 0.572367
vt 0.483727 0.572367
vt 0.483737 0.572578
vt 0.483727 0.572578
vt 0.491492 0.526453
vt 0.491497 0.526453
vt 0.491497 0.526562
vt 0.491492 0.526562
vt 0.491489 0.523868
vt 0.491492 0.523868
vt 0.491489 0.527005
vt 0.491492 0.527005
vt 0.483721 0.567346
vt 0.483721 0.573438
vt 0.483727 0.573438
vt 0.483727 0.567346
vt 0.489922 0.599071
vt 0.489922 0.602117
vt 0.489928 0.602117
vt 0.489928 0.599071
vt 0.489928 0.597548
vt 0.489922 0.597548
vt 0.489922 0.596024
vt 0.489928 0.596024
s 1
usemtl City_Atlas
f 1/1/1 3/1/1 4/2/1 2/2/1
f 5/3/2 6/4/2 8/4/2 7/3/2
f 2/2/3 4/2/3 8/4/3 6/4/3
f 3/1/4 1/1/4 5/3/4 7/3/4
f 4/5/5 3/6/5 7/7/5 8/8/5
f 1/6/6 2/5/6 6/8/6 5/7/6
f 9/9/1 11/9/1 12/10/1 10/10/1
f 13/11/2 14/12/2 16/12/2 15/11/2
f 10/10/3 12/10/3 16/12/3 14/12/3
f 11/9/4 9/9/4 13/11/4 15/11/4
f 12/13/5 11/14/5 15/15/5 16/16/5
f 9/14/6 10/13/6 14/16/6 13/15/6
f 17/17/1 19/17/1 20/18/1 18/18/1
f 21/19/2 22/20/2 24/20/2 23/19/2
f 18/18/3 20/18/3 24/20/3 22/20/3
f 19/17/4 17/17/4 21/19/4 23/19/4
f 20/21/5 19/22/5 23/23/5 24/24/5
f 17/22/6 18/21/6 22/24/6 21/23/6
f 25/25/1 27/26/1 28/26/1 26/25/1
f 29/27/2 30/27/2 32/28/2 31/28/2
f 26/29/3 30/30/3 29/30/3 25/29/3
f 25/29/6 29/30/6 31/31/6 27/32/6
f 27/32/4 31/31/4 32/31/4 28/32/4
f 28/32/5 32/31/5 30/30/5 26/29/5
f 33/25/1 35/26/1 36/26/1 34/25/1
f 37/27/2 38/27/2 40/28/2 39/28/2
f 42/33/3 38/34/3 37/34/3 41/33/3
f 41/33/7 37/34/7 39/35/7 43/36/7
f 43/36/4 39/35/4 40/35/4 44/36/4
f 44/36/8 40/35/8 38/34/8 42/33/8
f 48/37/9 44/36/9 42/33/9 45/38/9
f 47/37/4 43/36/4 44/36/4 48/37/4
f 46/38/10 41/33/10 43/36/10 47/37/10
f 45/38/3 42/33/3 41/33/3 46/38/3
f 34/39/3 45/38/3 46/38/3 33/39/3
f 33/39/11 46/38/11 47/37/11 35/40/11
f 35/40/4 47/37/4 48/37/4 36/40/4
f 36/40/12 48/37/12 45/38/12 34/39/12
