{
	"asset":{
		"generator":"Khronos glTF Blender I/O v4.1.63",
		"version":"2.0"
	},
	"extensionsUsed":[
		"EXT_texture_webp"
	],
	"scene":0,
	"scenes":[
		{
			"name":"Scene",
			"nodes":[
				0,
				1,
				2,
				3,
				4
			]
		}
	],
	"nodes":[
		{
			"mesh":0,
			"name":"Car_9_A"
		},
		{
			"mesh":1,
			"name":"RL",
			"translation":[
				0.754535436630249,
				0.015300925821065903,
				0.6915459036827087
			]
		},
		{
			"mesh":2,
			"name":"FL",
			"translation":[
				-0.7513875365257263,
				0.015300922095775604,
				0.6915456056594849
			]
		},
		{
			"mesh":3,
			"name":"RR",
			"translation":[
				0.7545353770256042,
				0.015300922095775604,
				-0.6915459036827087
			]
		},
		{
			"mesh":4,
			"name":"FR",
			"translation":[
				-0.7513875365257263,
				0.015300922095775604,
				-0.6915459036827087
			]
		}
	],
	"materials":[
		{
			"name":"City Car",
			"pbrMetallicRoughness":{
				"baseColorTexture":{
					"index":0
				},
				"metallicFactor":0.34545451402664185,
				"roughnessFactor":0.48181819915771484
			}
		},
		{
			"name":"City Metal",
			"pbrMetallicRoughness":{
				"baseColorTexture":{
					"index":1
				},
				"roughnessFactor":0.2708495557308197
			}
		},
		{
			"name":"City Atlas",
			"pbrMetallicRoughness":{
				"baseColorTexture":{
					"index":2
				},
				"metallicFactor":0
			}
		},
		{
			"name":"Windows",
			"pbrMetallicRoughness":{
				"baseColorTexture":{
					"index":3
				},
				"metallicFactor":0.5454545617103577,
				"roughnessFactor":0.8727272748947144
			}
		}
	],
	"meshes":[
		{
			"name":"Car_9_A",
			"primitives":[
				{
					"attributes":{
						"POSITION":0,
						"NORMAL":1,
						"TEXCOORD_0":2
					},
					"indices":3,
					"material":0
				},
				{
					"attributes":{
						"POSITION":4,
						"NORMAL":5,
						"TEXCOORD_0":6
					},
					"indices":7,
					"material":1
				},
				{
					"attributes":{
						"POSITION":8,
						"NORMAL":9,
						"TEXCOORD_0":10
					},
					"indices":11,
					"material":2
				},
				{
					"attributes":{
						"POSITION":12,
						"NORMAL":13,
						"TEXCOORD_0":14
					},
					"indices":15,
					"material":3
				}
			]
		},
		{
			"name":"RL",
			"primitives":[
				{
					"attributes":{
						"POSITION":16,
						"NORMAL":17,
						"TEXCOORD_0":18
					},
					"indices":19,
					"material":0
				},
				{
					"attributes":{
						"POSITION":20,
						"NORMAL":21,
						"TEXCOORD_0":22
					},
					"indices":23,
					"material":1
				}
			]
		},
		{
			"name":"FL",
			"primitives":[
				{
					"attributes":{
						"POSITION":24,
						"NORMAL":25,
						"TEXCOORD_0":26
					},
					"indices":27,
					"material":0
				},
				{
					"attributes":{
						"POSITION":28,
						"NORMAL":29,
						"TEXCOORD_0":30
					},
					"indices":31,
					"material":1
				}
			]
		},
		{
			"name":"RR",
			"primitives":[
				{
					"attributes":{
						"POSITION":32,
						"NORMAL":33,
						"TEXCOORD_0":34
					},
					"indices":35,
					"material":0
				},
				{
					"attributes":{
						"POSITION":36,
						"NORMAL":37,
						"TEXCOORD_0":38
					},
					"indices":39,
					"material":1
				}
			]
		},
		{
			"name":"FR",
			"primitives":[
				{
					"attributes":{
						"POSITION":40,
						"NORMAL":41,
						"TEXCOORD_0":42
					},
					"indices":43,
					"material":0
				},
				{
					"attributes":{
						"POSITION":44,
						"NORMAL":45,
						"TEXCOORD_0":46
					},
					"indices":39,
					"material":1
				}
			]
		}
	],
	"textures":[
		{
			"extensions":{
				"EXT_texture_webp":{
					"source":0
				}
			},
			"sampler":0,
			"source":1
		},
		{
			"extensions":{
				"EXT_texture_webp":{
					"source":0
				}
			},
			"sampler":0,
			"source":1
		},
		{
			"extensions":{
				"EXT_texture_webp":{
					"source":0
				}
			},
			"sampler":0,
			"source":1
		},
		{
			"extensions":{
				"EXT_texture_webp":{
					"source":2
				}
			},
			"sampler":0,
			"source":3
		}
	],
	"images":[
		{
			"mimeType":"image/webp",
			"name":"City Atlas Map.png",
			"uri":"City%20Atlas%20Map_png.webp"
		},
		{
			"mimeType":"image/png",
			"name":"City Atlas Map.png",
			"uri":"City%20Atlas%20Map_png.png"
		},
		{
			"mimeType":"image/webp",
			"name":"Windows",
			"uri":"Windows.webp"
		},
		{
			"mimeType":"image/png",
			"name":"Windows",
			"uri":"Windows.png"
		}
	],
	"accessors":[
		{
			"bufferView":0,
			"componentType":5126,
			"count":1393,
			"max":[
				1.5124492645263672,
				1.0435223579406738,
				0.7302810549736023
			],
			"min":[
				-1.5550588369369507,
				-0.00025078654289245605,
				-0.7302810549736023
			],
			"type":"VEC3"
		},
		{
			"bufferView":1,
			"componentType":5126,
			"count":1393,
			"type":"VEC3"
		},
		{
			"bufferView":2,
			"componentType":5126,
			"count":1393,
			"type":"VEC2"
		},
		{
			"bufferView":3,
			"componentType":5123,
			"count":3090,
			"type":"SCALAR"
		},
		{
			"bufferView":4,
			"componentType":5126,
			"count":1052,
			"max":[
				1.5402904748916626,
				0.7621808052062988,
				0.7567936778068542
			],
			"min":[
				-1.517702579498291,
				0.005490750074386597,
				-0.7567936778068542
			],
			"type":"VEC3"
		},
		{
			"bufferView":5,
			"componentType":5126,
			"count":1052,
			"type":"VEC3"
		},
		{
			"bufferView":6,
			"componentType":5126,
			"count":1052,
			"type":"VEC2"
		},
		{
			"bufferView":7,
			"componentType":5123,
			"count":2004,
			"type":"SCALAR"
		},
		{
			"bufferView":8,
			"componentType":5126,
			"count":96,
			"max":[
				1.4296587705612183,
				0.5701135396957397,
				0.5528436899185181
			],
			"min":[
				-1.48806893825531,
				0.22670552134513855,
				-0.5528436899185181
			],
			"type":"VEC3"
		},
		{
			"bufferView":9,
			"componentType":5126,
			"count":96,
			"type":"VEC3"
		},
		{
			"bufferView":10,
			"componentType":5126,
			"count":96,
			"type":"VEC2"
		},
		{
			"bufferView":11,
			"componentType":5123,
			"count":144,
			"type":"SCALAR"
		},
		{
			"bufferView":12,
			"componentType":5126,
			"count":24,
			"max":[
				0.8013750314712524,
				0.9648531079292297,
				0.5601787567138672
			],
			"min":[
				-0.4822460412979126,
				0.6282169222831726,
				-0.5601787567138672
			],
			"type":"VEC3"
		},
		{
			"bufferView":13,
			"componentType":5126,
			"count":24,
			"type":"VEC3"
		},
		{
			"bufferView":14,
			"componentType":5126,
			"count":24,
			"type":"VEC2"
		},
		{
			"bufferView":15,
			"componentType":5123,
			"count":36,
			"type":"SCALAR"
		},
		{
			"bufferView":16,
			"componentType":5126,
			"count":130,
			"max":[
				0.2644486427307129,
				0.25150564312934875,
				0.036725759506225586
			],
			"min":[
				-0.2644491195678711,
				-0.2515057325363159,
				-0.11668622493743896
			],
			"type":"VEC3"
		},
		{
			"bufferView":17,
			"componentType":5126,
			"count":130,
			"type":"VEC3"
		},
		{
			"bufferView":18,
			"componentType":5126,
			"count":130,
			"type":"VEC2"
		},
		{
			"bufferView":19,
			"componentType":5123,
			"count":324,
			"type":"SCALAR"
		},
		{
			"bufferView":20,
			"componentType":5126,
			"count":94,
			"max":[
				0.10574615001678467,
				0.10057078301906586,
				0.03828096389770508
			],
			"min":[
				-0.10574668645858765,
				-0.10057085752487183,
				0.022822201251983643
			],
			"type":"VEC3"
		},
		{
			"bufferView":21,
			"componentType":5126,
			"count":94,
			"type":"VEC3"
		},
		{
			"bufferView":22,
			"componentType":5126,
			"count":94,
			"type":"VEC2"
		},
		{
			"bufferView":23,
			"componentType":5123,
			"count":204,
			"type":"SCALAR"
		},
		{
			"bufferView":24,
			"componentType":5126,
			"count":130,
			"max":[
				0.264448881149292,
				0.25150564312934875,
				0.03672605752944946
			],
			"min":[
				-0.26444870233535767,
				-0.2515057325363159,
				-0.11668592691421509
			],
			"type":"VEC3"
		},
		{
			"bufferView":25,
			"componentType":5126,
			"count":130,
			"type":"VEC3"
		},
		{
			"bufferView":26,
			"componentType":5126,
			"count":130,
			"type":"VEC2"
		},
		{
			"bufferView":27,
			"componentType":5123,
			"count":324,
			"type":"SCALAR"
		},
		{
			"bufferView":28,
			"componentType":5126,
			"count":94,
			"max":[
				0.1057465672492981,
				0.10057079046964645,
				0.038281261920928955
			],
			"min":[
				-0.10574644804000854,
				-0.10057085007429123,
				0.02282249927520752
			],
			"type":"VEC3"
		},
		{
			"bufferView":29,
			"componentType":5126,
			"count":94,
			"type":"VEC3"
		},
		{
			"bufferView":30,
			"componentType":5126,
			"count":94,
			"type":"VEC2"
		},
		{
			"bufferView":31,
			"componentType":5123,
			"count":204,
			"type":"SCALAR"
		},
		{
			"bufferView":32,
			"componentType":5126,
			"count":130,
			"max":[
				0.26444870233535767,
				0.25150564312934875,
				0.11668592691421509
			],
			"min":[
				-0.2644490599632263,
				-0.2515057325363159,
				-0.03672611713409424
			],
			"type":"VEC3"
		},
		{
			"bufferView":33,
			"componentType":5126,
			"count":130,
			"type":"VEC3"
		},
		{
			"bufferView":34,
			"componentType":5126,
			"count":130,
			"type":"VEC2"
		},
		{
			"bufferView":35,
			"componentType":5123,
			"count":324,
			"type":"SCALAR"
		},
		{
			"bufferView":36,
			"componentType":5126,
			"count":70,
			"max":[
				0.10574620962142944,
				0.10057079046964645,
				-0.022822558879852295
			],
			"min":[
				-0.10574662685394287,
				-0.10057085007429123,
				-0.03828132152557373
			],
			"type":"VEC3"
		},
		{
			"bufferView":37,
			"componentType":5126,
			"count":70,
			"type":"VEC3"
		},
		{
			"bufferView":38,
			"componentType":5126,
			"count":70,
			"type":"VEC2"
		},
		{
			"bufferView":39,
			"componentType":5123,
			"count":204,
			"type":"SCALAR"
		},
		{
			"bufferView":40,
			"componentType":5126,
			"count":130,
			"max":[
				0.264448881149292,
				0.25150564312934875,
				0.11668592691421509
			],
			"min":[
				-0.26444870233535767,
				-0.2515057325363159,
				-0.03672611713409424
			],
			"type":"VEC3"
		},
		{
			"bufferView":41,
			"componentType":5126,
			"count":130,
			"type":"VEC3"
		},
		{
			"bufferView":42,
			"componentType":5126,
			"count":130,
			"type":"VEC2"
		},
		{
			"bufferView":43,
			"componentType":5123,
			"count":324,
			"type":"SCALAR"
		},
		{
			"bufferView":44,
			"componentType":5126,
			"count":70,
			"max":[
				0.1057465672492981,
				0.10057079046964645,
				-0.022822558879852295
			],
			"min":[
				-0.10574644804000854,
				-0.10057085007429123,
				-0.03828132152557373
			],
			"type":"VEC3"
		},
		{
			"bufferView":45,
			"componentType":5126,
			"count":70,
			"type":"VEC3"
		},
		{
			"bufferView":46,
			"componentType":5126,
			"count":70,
			"type":"VEC2"
		}
	],
	"bufferViews":[
		{
			"buffer":0,
			"byteLength":16716,
			"byteOffset":0,
			"target":34962
		},
		{
			"buffer":0,
			"byteLength":16716,
			"byteOffset":16716,
			"target":34962
		},
		{
			"buffer":0,
			"byteLength":11144,
			"byteOffset":33432,
			"target":34962
		},
		{
			"buffer":0,
			"byteLength":6180,
			"byteOffset":44576,
			"target":34963
		},
		{
			"buffer":0,
			"byteLength":12624,
			"byteOffset":50756,
			"target":34962
		},
		{
			"buffer":0,
			"byteLength":12624,
			"byteOffset":63380,
			"target":34962
		},
		{
			"buffer":0,
			"byteLength":8416,
			"byteOffset":76004,
			"target":34962
		},
		{
			"buffer":0,
			"byteLength":4008,
			"byteOffset":84420,
			"target":34963
		},
		{
			"buffer":0,
			"byteLength":1152,
			"byteOffset":88428,
			"target":34962
		},
		{
			"buffer":0,
			"byteLength":1152,
			"byteOffset":89580,
			"target":34962
		},
		{
			"buffer":0,
			"byteLength":768,
			"byteOffset":90732,
			"target":34962
		},
		{
			"buffer":0,
			"byteLength":288,
			"byteOffset":91500,
			"target":34963
		},
		{
			"buffer":0,
			"byteLength":288,
			"byteOffset":91788,
			"target":34962
		},
		{
			"buffer":0,
			"byteLength":288,
			"byteOffset":92076,
			"target":34962
		},
		{
			"buffer":0,
			"byteLength":192,
			"byteOffset":92364,
			"target":34962
		},
		{
			"buffer":0,
			"byteLength":72,
			"byteOffset":92556,
			"target":34963
		},
		{
			"buffer":0,
			"byteLength":1560,
			"byteOffset":92628,
			"target":34962
		},
		{
			"buffer":0,
			"byteLength":1560,
			"byteOffset":94188,
			"target":34962
		},
		{
			"buffer":0,
			"byteLength":1040,
			"byteOffset":95748,
			"target":34962
		},
		{
			"buffer":0,
			"byteLength":648,
			"byteOffset":96788,
			"target":34963
		},
		{
			"buffer":0,
			"byteLength":1128,
			"byteOffset":97436,
			"target":34962
		},
		{
			"buffer":0,
			"byteLength":1128,
			"byteOffset":98564,
			"target":34962
		},
		{
			"buffer":0,
			"byteLength":752,
			"byteOffset":99692,
			"target":34962
		},
		{
			"buffer":0,
			"byteLength":408,
			"byteOffset":100444,
			"target":34963
		},
		{
			"buffer":0,
			"byteLength":1560,
			"byteOffset":100852,
			"target":34962
		},
		{
			"buffer":0,
			"byteLength":1560,
			"byteOffset":102412,
			"target":34962
		},
		{
			"buffer":0,
			"byteLength":1040,
			"byteOffset":103972,
			"target":34962
		},
		{
			"buffer":0,
			"byteLength":648,
			"byteOffset":105012,
			"target":34963
		},
		{
			"buffer":0,
			"byteLength":1128,
			"byteOffset":105660,
			"target":34962
		},
		{
			"buffer":0,
			"byteLength":1128,
			"byteOffset":106788,
			"target":34962
		},
		{
			"buffer":0,
			"byteLength":752,
			"byteOffset":107916,
			"target":34962
		},
		{
			"buffer":0,
			"byteLength":408,
			"byteOffset":108668,
			"target":34963
		},
		{
			"buffer":0,
			"byteLength":1560,
			"byteOffset":109076,
			"target":34962
		},
		{
			"buffer":0,
			"byteLength":1560,
			"byteOffset":110636,
			"target":34962
		},
		{
			"buffer":0,
			"byteLength":1040,
			"byteOffset":112196,
			"target":34962
		},
		{
			"buffer":0,
			"byteLength":648,
			"byteOffset":113236,
			"target":34963
		},
		{
			"buffer":0,
			"byteLength":840,
			"byteOffset":113884,
			"target":34962
		},
		{
			"buffer":0,
			"byteLength":840,
			"byteOffset":114724,
			"target":34962
		},
		{
			"buffer":0,
			"byteLength":560,
			"byteOffset":115564,
			"target":34962
		},
		{
			"buffer":0,
			"byteLength":408,
			"byteOffset":116124,
			"target":34963
		},
		{
			"buffer":0,
			"byteLength":1560,
			"byteOffset":116532,
			"target":34962
		},
		{
			"buffer":0,
			"byteLength":1560,
			"byteOffset":118092,
			"target":34962
		},
		{
			"buffer":0,
			"byteLength":1040,
			"byteOffset":119652,
			"target":34962
		},
		{
			"buffer":0,
			"byteLength":648,
			"byteOffset":120692,
			"target":34963
		},
		{
			"buffer":0,
			"byteLength":840,
			"byteOffset":121340,
			"target":34962
		},
		{
			"buffer":0,
			"byteLength":840,
			"byteOffset":122180,
			"target":34962
		},
		{
			"buffer":0,
			"byteLength":560,
			"byteOffset":123020,
			"target":34962
		}
	],
	"samplers":[
		{
			"magFilter":9729,
			"minFilter":9987
		}
	],
	"buffers":[
		{
			"byteLength":123580,
			"uri":"Car_9_A.bin"
		}
	]
}
