{
	"asset":{
		"generator":"Khronos glTF Blender I/O v4.1.63",
		"version":"2.0"
	},
	"extensionsUsed":[
		"EXT_texture_webp"
	],
	"scene":0,
	"scenes":[
		{
			"name":"Scene",
			"nodes":[
				0,
				1,
				2,
				3,
				4
			]
		}
	],
	"nodes":[
		{
			"mesh":0,
			"name":"Car_16_E"
		},
		{
			"mesh":1,
			"name":"FL",
			"translation":[
				-1.0377817153930664,
				0.009606203064322472,
				0.6844437718391418
			]
		},
		{
			"mesh":2,
			"name":"RL",
			"translation":[
				1.037506103515625,
				0.00960620492696762,
				0.684444010257721
			]
		},
		{
			"mesh":3,
			"name":"FR",
			"translation":[
				-1.0377815961837769,
				0.009606203995645046,
				-0.684444010257721
			]
		},
		{
			"mesh":4,
			"name":"RR",
			"translation":[
				1.037506103515625,
				0.00960620492696762,
				-0.684444010257721
			]
		}
	],
	"materials":[
		{
			"name":"City Atlas",
			"pbrMetallicRoughness":{
				"baseColorTexture":{
					"index":0
				},
				"metallicFactor":0
			}
		},
		{
			"name":"City Metal",
			"pbrMetallicRoughness":{
				"baseColorTexture":{
					"index":1
				},
				"roughnessFactor":0.2708495557308197
			}
		},
		{
			"name":"City Car",
			"pbrMetallicRoughness":{
				"baseColorTexture":{
					"index":2
				},
				"metallicFactor":0.34545451402664185,
				"roughnessFactor":0.48181819915771484
			}
		},
		{
			"name":"Windows",
			"pbrMetallicRoughness":{
				"baseColorTexture":{
					"index":3
				},
				"metallicFactor":0.5454545617103577,
				"roughnessFactor":0.8727272748947144
			}
		}
	],
	"meshes":[
		{
			"name":"Car_16_E",
			"primitives":[
				{
					"attributes":{
						"POSITION":0,
						"NORMAL":1,
						"TEXCOORD_0":2
					},
					"indices":3,
					"material":0
				},
				{
					"attributes":{
						"POSITION":4,
						"NORMAL":5,
						"TEXCOORD_0":6
					},
					"indices":7,
					"material":1
				},
				{
					"attributes":{
						"POSITION":8,
						"NORMAL":9,
						"TEXCOORD_0":10
					},
					"indices":11,
					"material":2
				},
				{
					"attributes":{
						"POSITION":12,
						"NORMAL":13,
						"TEXCOORD_0":14
					},
					"indices":15,
					"material":3
				}
			]
		},
		{
			"name":"FL",
			"primitives":[
				{
					"attributes":{
						"POSITION":16,
						"NORMAL":17,
						"TEXCOORD_0":18
					},
					"indices":19,
					"material":1
				},
				{
					"attributes":{
						"POSITION":20,
						"NORMAL":21,
						"TEXCOORD_0":22
					},
					"indices":23,
					"material":2
				}
			]
		},
		{
			"name":"RL",
			"primitives":[
				{
					"attributes":{
						"POSITION":24,
						"NORMAL":25,
						"TEXCOORD_0":26
					},
					"indices":27,
					"material":1
				},
				{
					"attributes":{
						"POSITION":28,
						"NORMAL":29,
						"TEXCOORD_0":30
					},
					"indices":31,
					"material":2
				}
			]
		},
		{
			"name":"FR",
			"primitives":[
				{
					"attributes":{
						"POSITION":32,
						"NORMAL":33,
						"TEXCOORD_0":34
					},
					"indices":35,
					"material":1
				},
				{
					"attributes":{
						"POSITION":36,
						"NORMAL":37,
						"TEXCOORD_0":38
					},
					"indices":39,
					"material":2
				}
			]
		},
		{
			"name":"RR",
			"primitives":[
				{
					"attributes":{
						"POSITION":40,
						"NORMAL":41,
						"TEXCOORD_0":42
					},
					"indices":35,
					"material":1
				},
				{
					"attributes":{
						"POSITION":43,
						"NORMAL":44,
						"TEXCOORD_0":45
					},
					"indices":39,
					"material":2
				}
			]
		}
	],
	"textures":[
		{
			"extensions":{
				"EXT_texture_webp":{
					"source":0
				}
			},
			"sampler":0,
			"source":1
		},
		{
			"extensions":{
				"EXT_texture_webp":{
					"source":0
				}
			},
			"sampler":0,
			"source":1
		},
		{
			"extensions":{
				"EXT_texture_webp":{
					"source":0
				}
			},
			"sampler":0,
			"source":1
		},
		{
			"extensions":{
				"EXT_texture_webp":{
					"source":2
				}
			},
			"sampler":0,
			"source":3
		}
	],
	"images":[
		{
			"mimeType":"image/webp",
			"name":"City Atlas Map.png",
			"uri":"City%20Atlas%20Map_png.webp"
		},
		{
			"mimeType":"image/png",
			"name":"City Atlas Map.png",
			"uri":"City%20Atlas%20Map_png.png"
		},
		{
			"mimeType":"image/webp",
			"name":"Windows",
			"uri":"Windows.webp"
		},
		{
			"mimeType":"image/png",
			"name":"Windows",
			"uri":"Windows.png"
		}
	],
	"accessors":[
		{
			"bufferView":0,
			"componentType":5126,
			"count":542,
			"max":[
				1.874388575553894,
				0.6939576864242554,
				0.7436251640319824
			],
			"min":[
				-1.7245495319366455,
				-0.00022045336663722992,
				-0.7436251044273376
			],
			"type":"VEC3"
		},
		{
			"bufferView":1,
			"componentType":5126,
			"count":542,
			"type":"VEC3"
		},
		{
			"bufferView":2,
			"componentType":5126,
			"count":542,
			"type":"VEC2"
		},
		{
			"bufferView":3,
			"componentType":5123,
			"count":1272,
			"type":"SCALAR"
		},
		{
			"bufferView":4,
			"componentType":5126,
			"count":1197,
			"max":[
				1.9346587657928467,
				1.1742888689041138,
				0.8990495204925537
			],
			"min":[
				-1.7054014205932617,
				-0.038754113018512726,
				-0.8990495204925537
			],
			"type":"VEC3"
		},
		{
			"bufferView":5,
			"componentType":5126,
			"count":1197,
			"type":"VEC3"
		},
		{
			"bufferView":6,
			"componentType":5126,
			"count":1197,
			"type":"VEC2"
		},
		{
			"bufferView":7,
			"componentType":5123,
			"count":2589,
			"type":"SCALAR"
		},
		{
			"bufferView":8,
			"componentType":5126,
			"count":462,
			"max":[
				1.8965027332305908,
				1.7933249473571777,
				0.7312008142471313
			],
			"min":[
				-1.6184900999069214,
				0.014010297134518623,
				-0.7312008142471313
			],
			"type":"VEC3"
		},
		{
			"bufferView":9,
			"componentType":5126,
			"count":462,
			"type":"VEC3"
		},
		{
			"bufferView":10,
			"componentType":5126,
			"count":462,
			"type":"VEC2"
		},
		{
			"bufferView":11,
			"componentType":5123,
			"count":951,
			"type":"SCALAR"
		},
		{
			"bufferView":12,
			"componentType":5126,
			"count":40,
			"max":[
				1.8173713684082031,
				1.625063180923462,
				0.6599246859550476
			],
			"min":[
				-1.0358161926269531,
				0.8610621094703674,
				-0.6599246859550476
			],
			"type":"VEC3"
		},
		{
			"bufferView":13,
			"componentType":5126,
			"count":40,
			"type":"VEC3"
		},
		{
			"bufferView":14,
			"componentType":5126,
			"count":40,
			"type":"VEC2"
		},
		{
			"bufferView":15,
			"componentType":5123,
			"count":84,
			"type":"SCALAR"
		},
		{
			"bufferView":16,
			"componentType":5126,
			"count":70,
			"max":[
				0.1380358338356018,
				0.1312798261642456,
				0.039485275745391846
			],
			"min":[
				-0.13803577423095703,
				-0.1312798112630844,
				0.0198097825050354
			],
			"type":"VEC3"
		},
		{
			"bufferView":17,
			"componentType":5126,
			"count":70,
			"type":"VEC3"
		},
		{
			"bufferView":18,
			"componentType":5126,
			"count":70,
			"type":"VEC2"
		},
		{
			"bufferView":19,
			"componentType":5123,
			"count":204,
			"type":"SCALAR"
		},
		{
			"bufferView":20,
			"componentType":5126,
			"count":132,
			"max":[
				0.2683486342430115,
				0.2552146017551422,
				0.040053367614746094
			],
			"min":[
				-0.2683485746383667,
				-0.255214661359787,
				-0.11634629964828491
			],
			"type":"VEC3"
		},
		{
			"bufferView":21,
			"componentType":5126,
			"count":132,
			"type":"VEC3"
		},
		{
			"bufferView":22,
			"componentType":5126,
			"count":132,
			"type":"VEC2"
		},
		{
			"bufferView":23,
			"componentType":5123,
			"count":324,
			"type":"SCALAR"
		},
		{
			"bufferView":24,
			"componentType":5126,
			"count":70,
			"max":[
				0.13803613185882568,
				0.1312798261642456,
				0.039485037326812744
			],
			"min":[
				-0.13803571462631226,
				-0.1312798261642456,
				0.0198095440864563
			],
			"type":"VEC3"
		},
		{
			"bufferView":25,
			"componentType":5126,
			"count":70,
			"type":"VEC3"
		},
		{
			"bufferView":26,
			"componentType":5126,
			"count":70,
			"type":"VEC2"
		},
		{
			"bufferView":27,
			"componentType":5123,
			"count":204,
			"type":"SCALAR"
		},
		{
			"bufferView":28,
			"componentType":5126,
			"count":132,
			"max":[
				0.26834869384765625,
				0.2552146017551422,
				0.04005312919616699
			],
			"min":[
				-0.2683483958244324,
				-0.255214661359787,
				-0.11634653806686401
			],
			"type":"VEC3"
		},
		{
			"bufferView":29,
			"componentType":5126,
			"count":132,
			"type":"VEC3"
		},
		{
			"bufferView":30,
			"componentType":5126,
			"count":132,
			"type":"VEC2"
		},
		{
			"bufferView":31,
			"componentType":5123,
			"count":324,
			"type":"SCALAR"
		},
		{
			"bufferView":32,
			"componentType":5126,
			"count":70,
			"max":[
				0.13803571462631226,
				0.1312798261642456,
				-0.0198095440864563
			],
			"min":[
				-0.13803589344024658,
				-0.1312798112630844,
				-0.039485037326812744
			],
			"type":"VEC3"
		},
		{
			"bufferView":33,
			"componentType":5126,
			"count":70,
			"type":"VEC3"
		},
		{
			"bufferView":34,
			"componentType":5126,
			"count":70,
			"type":"VEC2"
		},
		{
			"bufferView":35,
			"componentType":5123,
			"count":204,
			"type":"SCALAR"
		},
		{
			"bufferView":36,
			"componentType":5126,
			"count":132,
			"max":[
				0.2683485150337219,
				0.2552146017551422,
				0.11634653806686401
			],
			"min":[
				-0.26834869384765625,
				-0.255214661359787,
				-0.04005312919616699
			],
			"type":"VEC3"
		},
		{
			"bufferView":37,
			"componentType":5126,
			"count":132,
			"type":"VEC3"
		},
		{
			"bufferView":38,
			"componentType":5126,
			"count":132,
			"type":"VEC2"
		},
		{
			"bufferView":39,
			"componentType":5123,
			"count":324,
			"type":"SCALAR"
		},
		{
			"bufferView":40,
			"componentType":5126,
			"count":70,
			"max":[
				0.13803613185882568,
				0.1312798261642456,
				-0.0198095440864563
			],
			"min":[
				-0.13803571462631226,
				-0.1312798261642456,
				-0.039485037326812744
			],
			"type":"VEC3"
		},
		{
			"bufferView":41,
			"componentType":5126,
			"count":70,
			"type":"VEC3"
		},
		{
			"bufferView":42,
			"componentType":5126,
			"count":70,
			"type":"VEC2"
		},
		{
			"bufferView":43,
			"componentType":5126,
			"count":132,
			"max":[
				0.26834869384765625,
				0.2552146017551422,
				0.11634653806686401
			],
			"min":[
				-0.2683483958244324,
				-0.255214661359787,
				-0.04005312919616699
			],
			"type":"VEC3"
		},
		{
			"bufferView":44,
			"componentType":5126,
			"count":132,
			"type":"VEC3"
		},
		{
			"bufferView":45,
			"componentType":5126,
			"count":132,
			"type":"VEC2"
		}
	],
	"bufferViews":[
		{
			"buffer":0,
			"byteLength":6504,
			"byteOffset":0,
			"target":34962
		},
		{
			"buffer":0,
			"byteLength":6504,
			"byteOffset":6504,
			"target":34962
		},
		{
			"buffer":0,
			"byteLength":4336,
			"byteOffset":13008,
			"target":34962
		},
		{
			"buffer":0,
			"byteLength":2544,
			"byteOffset":17344,
			"target":34963
		},
		{
			"buffer":0,
			"byteLength":14364,
			"byteOffset":19888,
			"target":34962
		},
		{
			"buffer":0,
			"byteLength":14364,
			"byteOffset":34252,
			"target":34962
		},
		{
			"buffer":0,
			"byteLength":9576,
			"byteOffset":48616,
			"target":34962
		},
		{
			"buffer":0,
			"byteLength":5178,
			"byteOffset":58192,
			"target":34963
		},
		{
			"buffer":0,
			"byteLength":5544,
			"byteOffset":63372,
			"target":34962
		},
		{
			"buffer":0,
			"byteLength":5544,
			"byteOffset":68916,
			"target":34962
		},
		{
			"buffer":0,
			"byteLength":3696,
			"byteOffset":74460,
			"target":34962
		},
		{
			"buffer":0,
			"byteLength":1902,
			"byteOffset":78156,
			"target":34963
		},
		{
			"buffer":0,
			"byteLength":480,
			"byteOffset":80060,
			"target":34962
		},
		{
			"buffer":0,
			"byteLength":480,
			"byteOffset":80540,
			"target":34962
		},
		{
			"buffer":0,
			"byteLength":320,
			"byteOffset":81020,
			"target":34962
		},
		{
			"buffer":0,
			"byteLength":168,
			"byteOffset":81340,
			"target":34963
		},
		{
			"buffer":0,
			"byteLength":840,
			"byteOffset":81508,
			"target":34962
		},
		{
			"buffer":0,
			"byteLength":840,
			"byteOffset":82348,
			"target":34962
		},
		{
			"buffer":0,
			"byteLength":560,
			"byteOffset":83188,
			"target":34962
		},
		{
			"buffer":0,
			"byteLength":408,
			"byteOffset":83748,
			"target":34963
		},
		{
			"buffer":0,
			"byteLength":1584,
			"byteOffset":84156,
			"target":34962
		},
		{
			"buffer":0,
			"byteLength":1584,
			"byteOffset":85740,
			"target":34962
		},
		{
			"buffer":0,
			"byteLength":1056,
			"byteOffset":87324,
			"target":34962
		},
		{
			"buffer":0,
			"byteLength":648,
			"byteOffset":88380,
			"target":34963
		},
		{
			"buffer":0,
			"byteLength":840,
			"byteOffset":89028,
			"target":34962
		},
		{
			"buffer":0,
			"byteLength":840,
			"byteOffset":89868,
			"target":34962
		},
		{
			"buffer":0,
			"byteLength":560,
			"byteOffset":90708,
			"target":34962
		},
		{
			"buffer":0,
			"byteLength":408,
			"byteOffset":91268,
			"target":34963
		},
		{
			"buffer":0,
			"byteLength":1584,
			"byteOffset":91676,
			"target":34962
		},
		{
			"buffer":0,
			"byteLength":1584,
			"byteOffset":93260,
			"target":34962
		},
		{
			"buffer":0,
			"byteLength":1056,
			"byteOffset":94844,
			"target":34962
		},
		{
			"buffer":0,
			"byteLength":648,
			"byteOffset":95900,
			"target":34963
		},
		{
			"buffer":0,
			"byteLength":840,
			"byteOffset":96548,
			"target":34962
		},
		{
			"buffer":0,
			"byteLength":840,
			"byteOffset":97388,
			"target":34962
		},
		{
			"buffer":0,
			"byteLength":560,
			"byteOffset":98228,
			"target":34962
		},
		{
			"buffer":0,
			"byteLength":408,
			"byteOffset":98788,
			"target":34963
		},
		{
			"buffer":0,
			"byteLength":1584,
			"byteOffset":99196,
			"target":34962
		},
		{
			"buffer":0,
			"byteLength":1584,
			"byteOffset":100780,
			"target":34962
		},
		{
			"buffer":0,
			"byteLength":1056,
			"byteOffset":102364,
			"target":34962
		},
		{
			"buffer":0,
			"byteLength":648,
			"byteOffset":103420,
			"target":34963
		},
		{
			"buffer":0,
			"byteLength":840,
			"byteOffset":104068,
			"target":34962
		},
		{
			"buffer":0,
			"byteLength":840,
			"byteOffset":104908,
			"target":34962
		},
		{
			"buffer":0,
			"byteLength":560,
			"byteOffset":105748,
			"target":34962
		},
		{
			"buffer":0,
			"byteLength":1584,
			"byteOffset":106308,
			"target":34962
		},
		{
			"buffer":0,
			"byteLength":1584,
			"byteOffset":107892,
			"target":34962
		},
		{
			"buffer":0,
			"byteLength":1056,
			"byteOffset":109476,
			"target":34962
		}
	],
	"samplers":[
		{
			"magFilter":9729,
			"minFilter":9987
		}
	],
	"buffers":[
		{
			"byteLength":110532,
			"uri":"Car_16_E.bin"
		}
	]
}
