{
	"asset":{
		"generator":"Khronos glTF Blender I/O v4.1.63",
		"version":"2.0"
	},
	"extensionsUsed":[
		"EXT_texture_webp"
	],
	"scene":0,
	"scenes":[
		{
			"name":"Scene",
			"nodes":[
				0,
				1,
				2,
				3,
				4
			]
		}
	],
	"nodes":[
		{
			"mesh":0,
			"name":"Car_7_X"
		},
		{
			"mesh":1,
			"name":"RL",
			"translation":[
				1.029369831085205,
				0.018125878646969795,
				0.7248015999794006
			]
		},
		{
			"mesh":2,
			"name":"FL",
			"translation":[
				-0.9097042679786682,
				0.018125882372260094,
				0.7248016595840454
			]
		},
		{
			"mesh":3,
			"name":"RR",
			"translation":[
				1.0293697118759155,
				0.018125882372260094,
				-0.7248016595840454
			]
		},
		{
			"mesh":4,
			"name":"FR",
			"translation":[
				-0.9097042679786682,
				0.018125882372260094,
				-0.7248016595840454
			]
		}
	],
	"materials":[
		{
			"name":"City Car",
			"pbrMetallicRoughness":{
				"baseColorTexture":{
					"index":0
				},
				"metallicFactor":0.34545451402664185,
				"roughnessFactor":0.48181819915771484
			}
		},
		{
			"name":"City Metal",
			"pbrMetallicRoughness":{
				"baseColorTexture":{
					"index":1
				},
				"roughnessFactor":0.2708495557308197
			}
		},
		{
			"name":"Windows",
			"pbrMetallicRoughness":{
				"baseColorTexture":{
					"index":2
				},
				"metallicFactor":0.5454545617103577,
				"roughnessFactor":0.8727272748947144
			}
		}
	],
	"meshes":[
		{
			"name":"Car_7_X",
			"primitives":[
				{
					"attributes":{
						"POSITION":0,
						"NORMAL":1,
						"TEXCOORD_0":2
					},
					"indices":3,
					"material":0
				},
				{
					"attributes":{
						"POSITION":4,
						"NORMAL":5,
						"TEXCOORD_0":6
					},
					"indices":7,
					"material":1
				},
				{
					"attributes":{
						"POSITION":8,
						"NORMAL":9,
						"TEXCOORD_0":10
					},
					"indices":11,
					"material":2
				}
			]
		},
		{
			"name":"RL",
			"primitives":[
				{
					"attributes":{
						"POSITION":12,
						"NORMAL":13,
						"TEXCOORD_0":14
					},
					"indices":15,
					"material":0
				},
				{
					"attributes":{
						"POSITION":16,
						"NORMAL":17,
						"TEXCOORD_0":18
					},
					"indices":19,
					"material":1
				}
			]
		},
		{
			"name":"FL",
			"primitives":[
				{
					"attributes":{
						"POSITION":20,
						"NORMAL":21,
						"TEXCOORD_0":22
					},
					"indices":23,
					"material":0
				},
				{
					"attributes":{
						"POSITION":24,
						"NORMAL":25,
						"TEXCOORD_0":26
					},
					"indices":27,
					"material":1
				}
			]
		},
		{
			"name":"RR",
			"primitives":[
				{
					"attributes":{
						"POSITION":28,
						"NORMAL":29,
						"TEXCOORD_0":30
					},
					"indices":31,
					"material":0
				},
				{
					"attributes":{
						"POSITION":32,
						"NORMAL":33,
						"TEXCOORD_0":34
					},
					"indices":35,
					"material":1
				}
			]
		},
		{
			"name":"FR",
			"primitives":[
				{
					"attributes":{
						"POSITION":36,
						"NORMAL":37,
						"TEXCOORD_0":38
					},
					"indices":39,
					"material":0
				},
				{
					"attributes":{
						"POSITION":40,
						"NORMAL":41,
						"TEXCOORD_0":42
					},
					"indices":35,
					"material":1
				}
			]
		}
	],
	"textures":[
		{
			"extensions":{
				"EXT_texture_webp":{
					"source":0
				}
			},
			"sampler":0,
			"source":1
		},
		{
			"extensions":{
				"EXT_texture_webp":{
					"source":0
				}
			},
			"sampler":0,
			"source":1
		},
		{
			"extensions":{
				"EXT_texture_webp":{
					"source":2
				}
			},
			"sampler":0,
			"source":3
		}
	],
	"images":[
		{
			"mimeType":"image/webp",
			"name":"City Atlas Map.png",
			"uri":"City%20Atlas%20Map_png.webp"
		},
		{
			"mimeType":"image/png",
			"name":"City Atlas Map.png",
			"uri":"City%20Atlas%20Map_png.png"
		},
		{
			"mimeType":"image/webp",
			"name":"Windows",
			"uri":"Windows.webp"
		},
		{
			"mimeType":"image/png",
			"name":"Windows",
			"uri":"Windows.png"
		}
	],
	"accessors":[
		{
			"bufferView":0,
			"componentType":5126,
			"count":1195,
			"max":[
				1.6185417175292969,
				1.2858320474624634,
				0.7759714722633362
			],
			"min":[
				-1.64601469039917,
				1.30385160446167e-08,
				-0.7759709358215332
			],
			"type":"VEC3"
		},
		{
			"bufferView":1,
			"componentType":5126,
			"count":1195,
			"type":"VEC3"
		},
		{
			"bufferView":2,
			"componentType":5126,
			"count":1195,
			"type":"VEC2"
		},
		{
			"bufferView":3,
			"componentType":5123,
			"count":2655,
			"type":"SCALAR"
		},
		{
			"bufferView":4,
			"componentType":5126,
			"count":1121,
			"max":[
				1.6699085235595703,
				0.8423672318458557,
				0.8485715389251709
			],
			"min":[
				-1.7079439163208008,
				-0.04378312826156616,
				-0.8485711812973022
			],
			"type":"VEC3"
		},
		{
			"bufferView":5,
			"componentType":5126,
			"count":1121,
			"type":"VEC3"
		},
		{
			"bufferView":6,
			"componentType":5126,
			"count":1121,
			"type":"VEC2"
		},
		{
			"bufferView":7,
			"componentType":5123,
			"count":2403,
			"type":"SCALAR"
		},
		{
			"bufferView":8,
			"componentType":5126,
			"count":32,
			"max":[
				0.940361738204956,
				1.223718285560608,
				0.6266999840736389
			],
			"min":[
				-0.567163348197937,
				0.6852610111236572,
				-0.6266996264457703
			],
			"type":"VEC3"
		},
		{
			"bufferView":9,
			"componentType":5126,
			"count":32,
			"type":"VEC3"
		},
		{
			"bufferView":10,
			"componentType":5126,
			"count":32,
			"type":"VEC2"
		},
		{
			"bufferView":11,
			"componentType":5123,
			"count":60,
			"type":"SCALAR"
		},
		{
			"bufferView":12,
			"componentType":5126,
			"count":130,
			"max":[
				0.26444900035858154,
				0.25150564312934875,
				0.04902029037475586
			],
			"min":[
				-0.2644486427307129,
				-0.2515057325363159,
				-0.11398696899414062
			],
			"type":"VEC3"
		},
		{
			"bufferView":13,
			"componentType":5126,
			"count":130,
			"type":"VEC3"
		},
		{
			"bufferView":14,
			"componentType":5126,
			"count":130,
			"type":"VEC2"
		},
		{
			"bufferView":15,
			"componentType":5123,
			"count":324,
			"type":"SCALAR"
		},
		{
			"bufferView":16,
			"componentType":5126,
			"count":30,
			"max":[
				0.10574662685394287,
				0.10057079046964645,
				0.05067276954650879
			],
			"min":[
				-0.10574615001678467,
				-0.10057083517313004,
				0.03424710035324097
			],
			"type":"VEC3"
		},
		{
			"bufferView":17,
			"componentType":5126,
			"count":30,
			"type":"VEC3"
		},
		{
			"bufferView":18,
			"componentType":5126,
			"count":30,
			"type":"VEC2"
		},
		{
			"bufferView":19,
			"componentType":5123,
			"count":84,
			"type":"SCALAR"
		},
		{
			"bufferView":20,
			"componentType":5126,
			"count":130,
			"max":[
				0.26444894075393677,
				0.25150564312934875,
				0.049020230770111084
			],
			"min":[
				-0.26444870233535767,
				-0.2515057325363159,
				-0.1139870285987854
			],
			"type":"VEC3"
		},
		{
			"bufferView":21,
			"componentType":5126,
			"count":130,
			"type":"VEC3"
		},
		{
			"bufferView":22,
			"componentType":5126,
			"count":130,
			"type":"VEC2"
		},
		{
			"bufferView":23,
			"componentType":5123,
			"count":324,
			"type":"SCALAR"
		},
		{
			"bufferView":24,
			"componentType":5126,
			"count":30,
			"max":[
				0.10574668645858765,
				0.10057078301906586,
				0.050672709941864014
			],
			"min":[
				-0.105746328830719,
				-0.10057084262371063,
				0.03424704074859619
			],
			"type":"VEC3"
		},
		{
			"bufferView":25,
			"componentType":5126,
			"count":30,
			"type":"VEC3"
		},
		{
			"bufferView":26,
			"componentType":5126,
			"count":30,
			"type":"VEC2"
		},
		{
			"bufferView":27,
			"componentType":5123,
			"count":84,
			"type":"SCALAR"
		},
		{
			"bufferView":28,
			"componentType":5126,
			"count":130,
			"max":[
				0.2644491195678711,
				0.25150564312934875,
				0.11398696899414062
			],
			"min":[
				-0.26444852352142334,
				-0.2515057325363159,
				-0.049020230770111084
			],
			"type":"VEC3"
		},
		{
			"bufferView":29,
			"componentType":5126,
			"count":130,
			"type":"VEC3"
		},
		{
			"bufferView":30,
			"componentType":5126,
			"count":130,
			"type":"VEC2"
		},
		{
			"bufferView":31,
			"componentType":5123,
			"count":324,
			"type":"SCALAR"
		},
		{
			"bufferView":32,
			"componentType":5126,
			"count":30,
			"max":[
				0.10574674606323242,
				0.10057078301906586,
				-0.03424710035324097
			],
			"min":[
				-0.10574603080749512,
				-0.10057084262371063,
				-0.050672709941864014
			],
			"type":"VEC3"
		},
		{
			"bufferView":33,
			"componentType":5126,
			"count":30,
			"type":"VEC3"
		},
		{
			"bufferView":34,
			"componentType":5126,
			"count":30,
			"type":"VEC2"
		},
		{
			"bufferView":35,
			"componentType":5123,
			"count":84,
			"type":"SCALAR"
		},
		{
			"bufferView":36,
			"componentType":5126,
			"count":130,
			"max":[
				0.26444894075393677,
				0.25150564312934875,
				0.11398696899414062
			],
			"min":[
				-0.26444870233535767,
				-0.2515057325363159,
				-0.049020230770111084
			],
			"type":"VEC3"
		},
		{
			"bufferView":37,
			"componentType":5126,
			"count":130,
			"type":"VEC3"
		},
		{
			"bufferView":38,
			"componentType":5126,
			"count":130,
			"type":"VEC2"
		},
		{
			"bufferView":39,
			"componentType":5123,
			"count":324,
			"type":"SCALAR"
		},
		{
			"bufferView":40,
			"componentType":5126,
			"count":30,
			"max":[
				0.10574668645858765,
				0.10057078301906586,
				-0.03424710035324097
			],
			"min":[
				-0.105746328830719,
				-0.10057084262371063,
				-0.050672709941864014
			],
			"type":"VEC3"
		},
		{
			"bufferView":41,
			"componentType":5126,
			"count":30,
			"type":"VEC3"
		},
		{
			"bufferView":42,
			"componentType":5126,
			"count":30,
			"type":"VEC2"
		}
	],
	"bufferViews":[
		{
			"buffer":0,
			"byteLength":14340,
			"byteOffset":0,
			"target":34962
		},
		{
			"buffer":0,
			"byteLength":14340,
			"byteOffset":14340,
			"target":34962
		},
		{
			"buffer":0,
			"byteLength":9560,
			"byteOffset":28680,
			"target":34962
		},
		{
			"buffer":0,
			"byteLength":5310,
			"byteOffset":38240,
			"target":34963
		},
		{
			"buffer":0,
			"byteLength":13452,
			"byteOffset":43552,
			"target":34962
		},
		{
			"buffer":0,
			"byteLength":13452,
			"byteOffset":57004,
			"target":34962
		},
		{
			"buffer":0,
			"byteLength":8968,
			"byteOffset":70456,
			"target":34962
		},
		{
			"buffer":0,
			"byteLength":4806,
			"byteOffset":79424,
			"target":34963
		},
		{
			"buffer":0,
			"byteLength":384,
			"byteOffset":84232,
			"target":34962
		},
		{
			"buffer":0,
			"byteLength":384,
			"byteOffset":84616,
			"target":34962
		},
		{
			"buffer":0,
			"byteLength":256,
			"byteOffset":85000,
			"target":34962
		},
		{
			"buffer":0,
			"byteLength":120,
			"byteOffset":85256,
			"target":34963
		},
		{
			"buffer":0,
			"byteLength":1560,
			"byteOffset":85376,
			"target":34962
		},
		{
			"buffer":0,
			"byteLength":1560,
			"byteOffset":86936,
			"target":34962
		},
		{
			"buffer":0,
			"byteLength":1040,
			"byteOffset":88496,
			"target":34962
		},
		{
			"buffer":0,
			"byteLength":648,
			"byteOffset":89536,
			"target":34963
		},
		{
			"buffer":0,
			"byteLength":360,
			"byteOffset":90184,
			"target":34962
		},
		{
			"buffer":0,
			"byteLength":360,
			"byteOffset":90544,
			"target":34962
		},
		{
			"buffer":0,
			"byteLength":240,
			"byteOffset":90904,
			"target":34962
		},
		{
			"buffer":0,
			"byteLength":168,
			"byteOffset":91144,
			"target":34963
		},
		{
			"buffer":0,
			"byteLength":1560,
			"byteOffset":91312,
			"target":34962
		},
		{
			"buffer":0,
			"byteLength":1560,
			"byteOffset":92872,
			"target":34962
		},
		{
			"buffer":0,
			"byteLength":1040,
			"byteOffset":94432,
			"target":34962
		},
		{
			"buffer":0,
			"byteLength":648,
			"byteOffset":95472,
			"target":34963
		},
		{
			"buffer":0,
			"byteLength":360,
			"byteOffset":96120,
			"target":34962
		},
		{
			"buffer":0,
			"byteLength":360,
			"byteOffset":96480,
			"target":34962
		},
		{
			"buffer":0,
			"byteLength":240,
			"byteOffset":96840,
			"target":34962
		},
		{
			"buffer":0,
			"byteLength":168,
			"byteOffset":97080,
			"target":34963
		},
		{
			"buffer":0,
			"byteLength":1560,
			"byteOffset":97248,
			"target":34962
		},
		{
			"buffer":0,
			"byteLength":1560,
			"byteOffset":98808,
			"target":34962
		},
		{
			"buffer":0,
			"byteLength":1040,
			"byteOffset":100368,
			"target":34962
		},
		{
			"buffer":0,
			"byteLength":648,
			"byteOffset":101408,
			"target":34963
		},
		{
			"buffer":0,
			"byteLength":360,
			"byteOffset":102056,
			"target":34962
		},
		{
			"buffer":0,
			"byteLength":360,
			"byteOffset":102416,
			"target":34962
		},
		{
			"buffer":0,
			"byteLength":240,
			"byteOffset":102776,
			"target":34962
		},
		{
			"buffer":0,
			"byteLength":168,
			"byteOffset":103016,
			"target":34963
		},
		{
			"buffer":0,
			"byteLength":1560,
			"byteOffset":103184,
			"target":34962
		},
		{
			"buffer":0,
			"byteLength":1560,
			"byteOffset":104744,
			"target":34962
		},
		{
			"buffer":0,
			"byteLength":1040,
			"byteOffset":106304,
			"target":34962
		},
		{
			"buffer":0,
			"byteLength":648,
			"byteOffset":107344,
			"target":34963
		},
		{
			"buffer":0,
			"byteLength":360,
			"byteOffset":107992,
			"target":34962
		},
		{
			"buffer":0,
			"byteLength":360,
			"byteOffset":108352,
			"target":34962
		},
		{
			"buffer":0,
			"byteLength":240,
			"byteOffset":108712,
			"target":34962
		}
	],
	"samplers":[
		{
			"magFilter":9729,
			"minFilter":9987
		}
	],
	"buffers":[
		{
			"byteLength":108952,
			"uri":"Car_7_X.bin"
		}
	]
}
