{
	"asset":{
		"generator":"Khronos glTF Blender I/O v4.1.63",
		"version":"2.0"
	},
	"extensionsUsed":[
		"EXT_texture_webp"
	],
	"scene":0,
	"scenes":[
		{
			"name":"Scene",
			"nodes":[
				0,
				1,
				2,
				3,
				4
			]
		}
	],
	"nodes":[
		{
			"mesh":0,
			"name":"Car_Police_4_B_2"
		},
		{
			"mesh":1,
			"name":"RL",
			"translation":[
				0.971110999584198,
				0.013336710631847382,
				0.7253350019454956
			]
		},
		{
			"mesh":2,
			"name":"FL",
			"translation":[
				-0.9649403095245361,
				0.013336710631847382,
				0.7253350615501404
			]
		},
		{
			"mesh":3,
			"name":"RR",
			"translation":[
				0.9711108803749084,
				0.013336710631847382,
				-0.7253354787826538
			]
		},
		{
			"mesh":4,
			"name":"FR",
			"translation":[
				-0.9649403095245361,
				0.013336710631847382,
				-0.7253354787826538
			]
		}
	],
	"materials":[
		{
			"name":"City Car",
			"pbrMetallicRoughness":{
				"baseColorTexture":{
					"index":0
				},
				"metallicFactor":0.34545451402664185,
				"roughnessFactor":0.48181819915771484
			}
		},
		{
			"name":"City Metal",
			"pbrMetallicRoughness":{
				"baseColorTexture":{
					"index":1
				},
				"roughnessFactor":0.2708495557308197
			}
		},
		{
			"name":"Windows",
			"pbrMetallicRoughness":{
				"baseColorTexture":{
					"index":2
				},
				"metallicFactor":0.5454545617103577,
				"roughnessFactor":0.8727272748947144
			}
		}
	],
	"meshes":[
		{
			"name":"Car_Police_4_B_2",
			"primitives":[
				{
					"attributes":{
						"POSITION":0,
						"NORMAL":1,
						"TEXCOORD_0":2
					},
					"indices":3,
					"material":0
				},
				{
					"attributes":{
						"POSITION":4,
						"NORMAL":5,
						"TEXCOORD_0":6
					},
					"indices":7,
					"material":1
				},
				{
					"attributes":{
						"POSITION":8,
						"NORMAL":9,
						"TEXCOORD_0":10
					},
					"indices":11,
					"material":2
				}
			]
		},
		{
			"name":"RL",
			"primitives":[
				{
					"attributes":{
						"POSITION":12,
						"NORMAL":13,
						"TEXCOORD_0":14
					},
					"indices":15,
					"material":0
				},
				{
					"attributes":{
						"POSITION":16,
						"NORMAL":17,
						"TEXCOORD_0":18
					},
					"indices":19,
					"material":1
				}
			]
		},
		{
			"name":"FL",
			"primitives":[
				{
					"attributes":{
						"POSITION":20,
						"NORMAL":21,
						"TEXCOORD_0":22
					},
					"indices":23,
					"material":0
				},
				{
					"attributes":{
						"POSITION":24,
						"NORMAL":25,
						"TEXCOORD_0":26
					},
					"indices":27,
					"material":1
				}
			]
		},
		{
			"name":"RR",
			"primitives":[
				{
					"attributes":{
						"POSITION":28,
						"NORMAL":29,
						"TEXCOORD_0":30
					},
					"indices":31,
					"material":0
				},
				{
					"attributes":{
						"POSITION":32,
						"NORMAL":33,
						"TEXCOORD_0":34
					},
					"indices":35,
					"material":1
				}
			]
		},
		{
			"name":"FR",
			"primitives":[
				{
					"attributes":{
						"POSITION":36,
						"NORMAL":37,
						"TEXCOORD_0":38
					},
					"indices":39,
					"material":0
				},
				{
					"attributes":{
						"POSITION":40,
						"NORMAL":41,
						"TEXCOORD_0":42
					},
					"indices":35,
					"material":1
				}
			]
		}
	],
	"textures":[
		{
			"extensions":{
				"EXT_texture_webp":{
					"source":0
				}
			},
			"sampler":0,
			"source":1
		},
		{
			"extensions":{
				"EXT_texture_webp":{
					"source":0
				}
			},
			"sampler":0,
			"source":1
		},
		{
			"extensions":{
				"EXT_texture_webp":{
					"source":2
				}
			},
			"sampler":0,
			"source":3
		}
	],
	"images":[
		{
			"mimeType":"image/webp",
			"name":"City Atlas Map.png",
			"uri":"City%20Atlas%20Map_png.webp"
		},
		{
			"mimeType":"image/png",
			"name":"City Atlas Map.png",
			"uri":"City%20Atlas%20Map_png.png"
		},
		{
			"mimeType":"image/webp",
			"name":"Windows",
			"uri":"Windows.webp"
		},
		{
			"mimeType":"image/png",
			"name":"Windows",
			"uri":"Windows.png"
		}
	],
	"accessors":[
		{
			"bufferView":0,
			"componentType":5126,
			"count":1500,
			"max":[
				1.5645889043807983,
				1.7646756172180176,
				0.7759714722633362
			],
			"min":[
				-1.7121833562850952,
				0,
				-0.7759709358215332
			],
			"type":"VEC3"
		},
		{
			"bufferView":1,
			"componentType":5126,
			"count":1500,
			"type":"VEC3"
		},
		{
			"bufferView":2,
			"componentType":5126,
			"count":1500,
			"type":"VEC2"
		},
		{
			"bufferView":3,
			"componentType":5123,
			"count":3462,
			"type":"SCALAR"
		},
		{
			"bufferView":4,
			"componentType":5126,
			"count":1057,
			"max":[
				1.6159557104110718,
				0.8529372215270996,
				0.8485715389251709
			],
			"min":[
				-1.7405906915664673,
				-0.03321315720677376,
				-0.8485711812973022
			],
			"type":"VEC3"
		},
		{
			"bufferView":5,
			"componentType":5126,
			"count":1057,
			"type":"VEC3"
		},
		{
			"bufferView":6,
			"componentType":5126,
			"count":1057,
			"type":"VEC2"
		},
		{
			"bufferView":7,
			"componentType":5123,
			"count":2211,
			"type":"SCALAR"
		},
		{
			"bufferView":8,
			"componentType":5126,
			"count":32,
			"max":[
				0.8853773474693298,
				1.5516713857650757,
				0.6266999840736389
			],
			"min":[
				-0.6211162805557251,
				0.6958310008049011,
				-0.6266996264457703
			],
			"type":"VEC3"
		},
		{
			"bufferView":9,
			"componentType":5126,
			"count":32,
			"type":"VEC3"
		},
		{
			"bufferView":10,
			"componentType":5126,
			"count":32,
			"type":"VEC2"
		},
		{
			"bufferView":11,
			"componentType":5123,
			"count":60,
			"type":"SCALAR"
		},
		{
			"bufferView":12,
			"componentType":5126,
			"count":132,
			"max":[
				0.26444870233535767,
				0.25150561332702637,
				0.049056410789489746
			],
			"min":[
				-0.264448881149292,
				-0.25150570273399353,
				-0.1140708327293396
			],
			"type":"VEC3"
		},
		{
			"bufferView":13,
			"componentType":5126,
			"count":132,
			"type":"VEC3"
		},
		{
			"bufferView":14,
			"componentType":5126,
			"count":132,
			"type":"VEC2"
		},
		{
			"bufferView":15,
			"componentType":5123,
			"count":324,
			"type":"SCALAR"
		},
		{
			"bufferView":16,
			"componentType":5126,
			"count":30,
			"max":[
				0.105746328830719,
				0.10057078301906586,
				0.050710082054138184
			],
			"min":[
				-0.10574650764465332,
				-0.10057082772254944,
				0.03427243232727051
			],
			"type":"VEC3"
		},
		{
			"bufferView":17,
			"componentType":5126,
			"count":30,
			"type":"VEC3"
		},
		{
			"bufferView":18,
			"componentType":5126,
			"count":30,
			"type":"VEC2"
		},
		{
			"bufferView":19,
			"componentType":5123,
			"count":84,
			"type":"SCALAR"
		},
		{
			"bufferView":20,
			"componentType":5126,
			"count":132,
			"max":[
				0.2644488215446472,
				0.25150561332702637,
				0.04905635118484497
			],
			"min":[
				-0.2644486427307129,
				-0.25150570273399353,
				-0.11407089233398438
			],
			"type":"VEC3"
		},
		{
			"bufferView":21,
			"componentType":5126,
			"count":132,
			"type":"VEC3"
		},
		{
			"bufferView":22,
			"componentType":5126,
			"count":132,
			"type":"VEC2"
		},
		{
			"bufferView":23,
			"componentType":5123,
			"count":324,
			"type":"SCALAR"
		},
		{
			"bufferView":24,
			"componentType":5126,
			"count":30,
			"max":[
				0.10574650764465332,
				0.10057078301906586,
				0.05071002244949341
			],
			"min":[
				-0.10574626922607422,
				-0.10057082772254944,
				0.03427237272262573
			],
			"type":"VEC3"
		},
		{
			"bufferView":25,
			"componentType":5126,
			"count":30,
			"type":"VEC3"
		},
		{
			"bufferView":26,
			"componentType":5126,
			"count":30,
			"type":"VEC2"
		},
		{
			"bufferView":27,
			"componentType":5123,
			"count":84,
			"type":"SCALAR"
		},
		{
			"bufferView":28,
			"componentType":5126,
			"count":136,
			"max":[
				0.2644488215446472,
				0.25150561332702637,
				0.11407089233398438
			],
			"min":[
				-0.26444876194000244,
				-0.25150570273399353,
				-0.04905635118484497
			],
			"type":"VEC3"
		},
		{
			"bufferView":29,
			"componentType":5126,
			"count":136,
			"type":"VEC3"
		},
		{
			"bufferView":30,
			"componentType":5126,
			"count":136,
			"type":"VEC2"
		},
		{
			"bufferView":31,
			"componentType":5123,
			"count":324,
			"type":"SCALAR"
		},
		{
			"bufferView":32,
			"componentType":5126,
			"count":34,
			"max":[
				0.10574644804000854,
				0.10057078301906586,
				-0.03427231311798096
			],
			"min":[
				-0.10574638843536377,
				-0.10057082772254944,
				-0.05070996284484863
			],
			"type":"VEC3"
		},
		{
			"bufferView":33,
			"componentType":5126,
			"count":34,
			"type":"VEC3"
		},
		{
			"bufferView":34,
			"componentType":5126,
			"count":34,
			"type":"VEC2"
		},
		{
			"bufferView":35,
			"componentType":5123,
			"count":84,
			"type":"SCALAR"
		},
		{
			"bufferView":36,
			"componentType":5126,
			"count":136,
			"max":[
				0.2644488215446472,
				0.25150561332702637,
				0.11407089233398438
			],
			"min":[
				-0.2644486427307129,
				-0.25150570273399353,
				-0.04905635118484497
			],
			"type":"VEC3"
		},
		{
			"bufferView":37,
			"componentType":5126,
			"count":136,
			"type":"VEC3"
		},
		{
			"bufferView":38,
			"componentType":5126,
			"count":136,
			"type":"VEC2"
		},
		{
			"bufferView":39,
			"componentType":5123,
			"count":324,
			"type":"SCALAR"
		},
		{
			"bufferView":40,
			"componentType":5126,
			"count":34,
			"max":[
				0.10574650764465332,
				0.10057078301906586,
				-0.03427231311798096
			],
			"min":[
				-0.10574626922607422,
				-0.10057082772254944,
				-0.05070996284484863
			],
			"type":"VEC3"
		},
		{
			"bufferView":41,
			"componentType":5126,
			"count":34,
			"type":"VEC3"
		},
		{
			"bufferView":42,
			"componentType":5126,
			"count":34,
			"type":"VEC2"
		}
	],
	"bufferViews":[
		{
			"buffer":0,
			"byteLength":18000,
			"byteOffset":0,
			"target":34962
		},
		{
			"buffer":0,
			"byteLength":18000,
			"byteOffset":18000,
			"target":34962
		},
		{
			"buffer":0,
			"byteLength":12000,
			"byteOffset":36000,
			"target":34962
		},
		{
			"buffer":0,
			"byteLength":6924,
			"byteOffset":48000,
			"target":34963
		},
		{
			"buffer":0,
			"byteLength":12684,
			"byteOffset":54924,
			"target":34962
		},
		{
			"buffer":0,
			"byteLength":12684,
			"byteOffset":67608,
			"target":34962
		},
		{
			"buffer":0,
			"byteLength":8456,
			"byteOffset":80292,
			"target":34962
		},
		{
			"buffer":0,
			"byteLength":4422,
			"byteOffset":88748,
			"target":34963
		},
		{
			"buffer":0,
			"byteLength":384,
			"byteOffset":93172,
			"target":34962
		},
		{
			"buffer":0,
			"byteLength":384,
			"byteOffset":93556,
			"target":34962
		},
		{
			"buffer":0,
			"byteLength":256,
			"byteOffset":93940,
			"target":34962
		},
		{
			"buffer":0,
			"byteLength":120,
			"byteOffset":94196,
			"target":34963
		},
		{
			"buffer":0,
			"byteLength":1584,
			"byteOffset":94316,
			"target":34962
		},
		{
			"buffer":0,
			"byteLength":1584,
			"byteOffset":95900,
			"target":34962
		},
		{
			"buffer":0,
			"byteLength":1056,
			"byteOffset":97484,
			"target":34962
		},
		{
			"buffer":0,
			"byteLength":648,
			"byteOffset":98540,
			"target":34963
		},
		{
			"buffer":0,
			"byteLength":360,
			"byteOffset":99188,
			"target":34962
		},
		{
			"buffer":0,
			"byteLength":360,
			"byteOffset":99548,
			"target":34962
		},
		{
			"buffer":0,
			"byteLength":240,
			"byteOffset":99908,
			"target":34962
		},
		{
			"buffer":0,
			"byteLength":168,
			"byteOffset":100148,
			"target":34963
		},
		{
			"buffer":0,
			"byteLength":1584,
			"byteOffset":100316,
			"target":34962
		},
		{
			"buffer":0,
			"byteLength":1584,
			"byteOffset":101900,
			"target":34962
		},
		{
			"buffer":0,
			"byteLength":1056,
			"byteOffset":103484,
			"target":34962
		},
		{
			"buffer":0,
			"byteLength":648,
			"byteOffset":104540,
			"target":34963
		},
		{
			"buffer":0,
			"byteLength":360,
			"byteOffset":105188,
			"target":34962
		},
		{
			"buffer":0,
			"byteLength":360,
			"byteOffset":105548,
			"target":34962
		},
		{
			"buffer":0,
			"byteLength":240,
			"byteOffset":105908,
			"target":34962
		},
		{
			"buffer":0,
			"byteLength":168,
			"byteOffset":106148,
			"target":34963
		},
		{
			"buffer":0,
			"byteLength":1632,
			"byteOffset":106316,
			"target":34962
		},
		{
			"buffer":0,
			"byteLength":1632,
			"byteOffset":107948,
			"target":34962
		},
		{
			"buffer":0,
			"byteLength":1088,
			"byteOffset":109580,
			"target":34962
		},
		{
			"buffer":0,
			"byteLength":648,
			"byteOffset":110668,
			"target":34963
		},
		{
			"buffer":0,
			"byteLength":408,
			"byteOffset":111316,
			"target":34962
		},
		{
			"buffer":0,
			"byteLength":408,
			"byteOffset":111724,
			"target":34962
		},
		{
			"buffer":0,
			"byteLength":272,
			"byteOffset":112132,
			"target":34962
		},
		{
			"buffer":0,
			"byteLength":168,
			"byteOffset":112404,
			"target":34963
		},
		{
			"buffer":0,
			"byteLength":1632,
			"byteOffset":112572,
			"target":34962
		},
		{
			"buffer":0,
			"byteLength":1632,
			"byteOffset":114204,
			"target":34962
		},
		{
			"buffer":0,
			"byteLength":1088,
			"byteOffset":115836,
			"target":34962
		},
		{
			"buffer":0,
			"byteLength":648,
			"byteOffset":116924,
			"target":34963
		},
		{
			"buffer":0,
			"byteLength":408,
			"byteOffset":117572,
			"target":34962
		},
		{
			"buffer":0,
			"byteLength":408,
			"byteOffset":117980,
			"target":34962
		},
		{
			"buffer":0,
			"byteLength":272,
			"byteOffset":118388,
			"target":34962
		}
	],
	"samplers":[
		{
			"magFilter":9729,
			"minFilter":9987
		}
	],
	"buffers":[
		{
			"byteLength":118660,
			"uri":"Car_Police_4_B_2.bin"
		}
	]
}
