{
	"asset":{
		"generator":"Khronos glTF Blender I/O v4.1.63",
		"version":"2.0"
	},
	"extensionsUsed":[
		"EXT_texture_webp"
	],
	"scene":0,
	"scenes":[
		{
			"name":"Scene",
			"nodes":[
				0,
				1,
				2,
				3,
				4
			]
		}
	],
	"nodes":[
		{
			"mesh":0,
			"name":"Car_17_K"
		},
		{
			"mesh":1,
			"name":"RL",
			"translation":[
				0.8774738311767578,
				0.03726895526051521,
				0.7611622214317322
			]
		},
		{
			"mesh":2,
			"name":"FL",
			"translation":[
				-0.8743258118629456,
				0.03726895526051521,
				0.7611624598503113
			]
		},
		{
			"mesh":3,
			"name":"RR",
			"translation":[
				0.8774735331535339,
				0.03726895526051521,
				-0.7611626386642456
			]
		},
		{
			"mesh":4,
			"name":"FR",
			"translation":[
				-0.8743258118629456,
				0.03726895526051521,
				-0.7611626386642456
			]
		}
	],
	"materials":[
		{
			"name":"City Car",
			"pbrMetallicRoughness":{
				"baseColorTexture":{
					"index":0
				},
				"metallicFactor":0.34545451402664185,
				"roughnessFactor":0.48181819915771484
			}
		},
		{
			"name":"City Metal",
			"pbrMetallicRoughness":{
				"baseColorTexture":{
					"index":1
				},
				"roughnessFactor":0.2708495557308197
			}
		},
		{
			"name":"Windows",
			"pbrMetallicRoughness":{
				"baseColorTexture":{
					"index":2
				},
				"metallicFactor":0.5454545617103577,
				"roughnessFactor":0.8727272748947144
			}
		},
		{
			"name":"City Atlas",
			"pbrMetallicRoughness":{
				"baseColorTexture":{
					"index":3
				},
				"metallicFactor":0
			}
		}
	],
	"meshes":[
		{
			"name":"Car_17_K",
			"primitives":[
				{
					"attributes":{
						"POSITION":0,
						"NORMAL":1,
						"TEXCOORD_0":2
					},
					"indices":3,
					"material":0
				},
				{
					"attributes":{
						"POSITION":4,
						"NORMAL":5,
						"TEXCOORD_0":6
					},
					"indices":7,
					"material":1
				},
				{
					"attributes":{
						"POSITION":8,
						"NORMAL":9,
						"TEXCOORD_0":10
					},
					"indices":11,
					"material":2
				},
				{
					"attributes":{
						"POSITION":12,
						"NORMAL":13,
						"TEXCOORD_0":14
					},
					"indices":15,
					"material":3
				}
			]
		},
		{
			"name":"RL",
			"primitives":[
				{
					"attributes":{
						"POSITION":16,
						"NORMAL":17,
						"TEXCOORD_0":18
					},
					"indices":19,
					"material":0
				},
				{
					"attributes":{
						"POSITION":20,
						"NORMAL":21,
						"TEXCOORD_0":22
					},
					"indices":23,
					"material":1
				}
			]
		},
		{
			"name":"FL",
			"primitives":[
				{
					"attributes":{
						"POSITION":24,
						"NORMAL":25,
						"TEXCOORD_0":26
					},
					"indices":27,
					"material":0
				},
				{
					"attributes":{
						"POSITION":28,
						"NORMAL":29,
						"TEXCOORD_0":30
					},
					"indices":31,
					"material":1
				}
			]
		},
		{
			"name":"RR",
			"primitives":[
				{
					"attributes":{
						"POSITION":32,
						"NORMAL":33,
						"TEXCOORD_0":34
					},
					"indices":35,
					"material":0
				},
				{
					"attributes":{
						"POSITION":36,
						"NORMAL":37,
						"TEXCOORD_0":38
					},
					"indices":39,
					"material":1
				}
			]
		},
		{
			"name":"FR",
			"primitives":[
				{
					"attributes":{
						"POSITION":40,
						"NORMAL":41,
						"TEXCOORD_0":42
					},
					"indices":43,
					"material":0
				},
				{
					"attributes":{
						"POSITION":44,
						"NORMAL":45,
						"TEXCOORD_0":46
					},
					"indices":47,
					"material":1
				}
			]
		}
	],
	"textures":[
		{
			"extensions":{
				"EXT_texture_webp":{
					"source":0
				}
			},
			"sampler":0,
			"source":1
		},
		{
			"extensions":{
				"EXT_texture_webp":{
					"source":0
				}
			},
			"sampler":0,
			"source":1
		},
		{
			"extensions":{
				"EXT_texture_webp":{
					"source":2
				}
			},
			"sampler":0,
			"source":3
		},
		{
			"extensions":{
				"EXT_texture_webp":{
					"source":0
				}
			},
			"sampler":0,
			"source":1
		}
	],
	"images":[
		{
			"mimeType":"image/webp",
			"name":"City Atlas Map.png",
			"uri":"City%20Atlas%20Map_png.webp"
		},
		{
			"mimeType":"image/png",
			"name":"City Atlas Map.png",
			"uri":"City%20Atlas%20Map_png.png"
		},
		{
			"mimeType":"image/webp",
			"name":"Windows",
			"uri":"Windows.webp"
		},
		{
			"mimeType":"image/png",
			"name":"Windows",
			"uri":"Windows.png"
		}
	],
	"accessors":[
		{
			"bufferView":0,
			"componentType":5126,
			"count":1248,
			"max":[
				1.7740540504455566,
				1.3174660205841064,
				0.8202416896820068
			],
			"min":[
				-1.5883877277374268,
				-0.0012275464832782745,
				-0.8202416896820068
			],
			"type":"VEC3"
		},
		{
			"bufferView":1,
			"componentType":5126,
			"count":1248,
			"type":"VEC3"
		},
		{
			"bufferView":2,
			"componentType":5126,
			"count":1248,
			"type":"VEC2"
		},
		{
			"bufferView":3,
			"componentType":5123,
			"count":2472,
			"type":"SCALAR"
		},
		{
			"bufferView":4,
			"componentType":5126,
			"count":1041,
			"max":[
				1.6632294654846191,
				0.8578060865402222,
				0.9267914891242981
			],
			"min":[
				-1.620889663696289,
				0.023931004106998444,
				-0.9267914891242981
			],
			"type":"VEC3"
		},
		{
			"bufferView":5,
			"componentType":5126,
			"count":1041,
			"type":"VEC3"
		},
		{
			"bufferView":6,
			"componentType":5126,
			"count":1041,
			"type":"VEC2"
		},
		{
			"bufferView":7,
			"componentType":5123,
			"count":2082,
			"type":"SCALAR"
		},
		{
			"bufferView":8,
			"componentType":5126,
			"count":24,
			"max":[
				0.8941545486450195,
				1.2303937673568726,
				0.6467150449752808
			],
			"min":[
				-0.40489378571510315,
				0.7056427001953125,
				-0.6467150449752808
			],
			"type":"VEC3"
		},
		{
			"bufferView":9,
			"componentType":5126,
			"count":24,
			"type":"VEC3"
		},
		{
			"bufferView":10,
			"componentType":5126,
			"count":24,
			"type":"VEC2"
		},
		{
			"bufferView":11,
			"componentType":5123,
			"count":36,
			"type":"SCALAR"
		},
		{
			"bufferView":12,
			"componentType":5126,
			"count":82,
			"max":[
				-1.4448814392089844,
				0.6160057783126831,
				0.5820384621620178
			],
			"min":[
				-1.5419902801513672,
				0.3863646686077118,
				-0.5820384621620178
			],
			"type":"VEC3"
		},
		{
			"bufferView":13,
			"componentType":5126,
			"count":82,
			"type":"VEC3"
		},
		{
			"bufferView":14,
			"componentType":5126,
			"count":82,
			"type":"VEC2"
		},
		{
			"bufferView":15,
			"componentType":5123,
			"count":240,
			"type":"SCALAR"
		},
		{
			"bufferView":16,
			"componentType":5126,
			"count":130,
			"max":[
				0.2644486427307129,
				0.25150564312934875,
				0.044422805309295654
			],
			"min":[
				-0.2644491195678711,
				-0.2515057325363159,
				-0.12527543306350708
			],
			"type":"VEC3"
		},
		{
			"bufferView":17,
			"componentType":5126,
			"count":130,
			"type":"VEC3"
		},
		{
			"bufferView":18,
			"componentType":5126,
			"count":130,
			"type":"VEC2"
		},
		{
			"bufferView":19,
			"componentType":5123,
			"count":324,
			"type":"SCALAR"
		},
		{
			"bufferView":20,
			"componentType":5126,
			"count":60,
			"max":[
				0.10574626922607422,
				0.10057079792022705,
				0.0461430549621582
			],
			"min":[
				-0.10574674606323242,
				-0.10057082772254944,
				0.029043257236480713
			],
			"type":"VEC3"
		},
		{
			"bufferView":21,
			"componentType":5126,
			"count":60,
			"type":"VEC3"
		},
		{
			"bufferView":22,
			"componentType":5126,
			"count":60,
			"type":"VEC2"
		},
		{
			"bufferView":23,
			"componentType":5123,
			"count":150,
			"type":"SCALAR"
		},
		{
			"bufferView":24,
			"componentType":5126,
			"count":130,
			"max":[
				0.2644488215446472,
				0.25150564312934875,
				0.04442256689071655
			],
			"min":[
				-0.2644488215446472,
				-0.2515057325363159,
				-0.12527567148208618
			],
			"type":"VEC3"
		},
		{
			"bufferView":25,
			"componentType":5126,
			"count":130,
			"type":"VEC3"
		},
		{
			"bufferView":26,
			"componentType":5126,
			"count":130,
			"type":"VEC2"
		},
		{
			"bufferView":27,
			"componentType":5123,
			"count":324,
			"type":"SCALAR"
		},
		{
			"bufferView":28,
			"componentType":5126,
			"count":60,
			"max":[
				0.1057465672492981,
				0.10057079792022705,
				0.0461428165435791
			],
			"min":[
				-0.10574644804000854,
				-0.10057082772254944,
				0.02904301881790161
			],
			"type":"VEC3"
		},
		{
			"bufferView":29,
			"componentType":5126,
			"count":60,
			"type":"VEC3"
		},
		{
			"bufferView":30,
			"componentType":5126,
			"count":60,
			"type":"VEC2"
		},
		{
			"bufferView":31,
			"componentType":5123,
			"count":150,
			"type":"SCALAR"
		},
		{
			"bufferView":32,
			"componentType":5126,
			"count":129,
			"max":[
				0.26444894075393677,
				0.25150564312934875,
				0.12527549266815186
			],
			"min":[
				-0.2644488215446472,
				-0.2515057325363159,
				-0.04442274570465088
			],
			"type":"VEC3"
		},
		{
			"bufferView":33,
			"componentType":5126,
			"count":129,
			"type":"VEC3"
		},
		{
			"bufferView":34,
			"componentType":5126,
			"count":129,
			"type":"VEC2"
		},
		{
			"bufferView":35,
			"componentType":5123,
			"count":324,
			"type":"SCALAR"
		},
		{
			"bufferView":36,
			"componentType":5126,
			"count":60,
			"max":[
				0.1057465672492981,
				0.10057079792022705,
				-0.029043257236480713
			],
			"min":[
				-0.10574644804000854,
				-0.10057082772254944,
				-0.0461430549621582
			],
			"type":"VEC3"
		},
		{
			"bufferView":37,
			"componentType":5126,
			"count":60,
			"type":"VEC3"
		},
		{
			"bufferView":38,
			"componentType":5126,
			"count":60,
			"type":"VEC2"
		},
		{
			"bufferView":39,
			"componentType":5123,
			"count":150,
			"type":"SCALAR"
		},
		{
			"bufferView":40,
			"componentType":5126,
			"count":130,
			"max":[
				0.2644488215446472,
				0.25150564312934875,
				0.12527549266815186
			],
			"min":[
				-0.2644488215446472,
				-0.2515057325363159,
				-0.04442274570465088
			],
			"type":"VEC3"
		},
		{
			"bufferView":41,
			"componentType":5126,
			"count":130,
			"type":"VEC3"
		},
		{
			"bufferView":42,
			"componentType":5126,
			"count":130,
			"type":"VEC2"
		},
		{
			"bufferView":43,
			"componentType":5123,
			"count":324,
			"type":"SCALAR"
		},
		{
			"bufferView":44,
			"componentType":5126,
			"count":60,
			"max":[
				0.1057465672492981,
				0.10057079792022705,
				-0.029043257236480713
			],
			"min":[
				-0.10574644804000854,
				-0.10057082772254944,
				-0.0461430549621582
			],
			"type":"VEC3"
		},
		{
			"bufferView":45,
			"componentType":5126,
			"count":60,
			"type":"VEC3"
		},
		{
			"bufferView":46,
			"componentType":5126,
			"count":60,
			"type":"VEC2"
		},
		{
			"bufferView":47,
			"componentType":5123,
			"count":150,
			"type":"SCALAR"
		}
	],
	"bufferViews":[
		{
			"buffer":0,
			"byteLength":14976,
			"byteOffset":0,
			"target":34962
		},
		{
			"buffer":0,
			"byteLength":14976,
			"byteOffset":14976,
			"target":34962
		},
		{
			"buffer":0,
			"byteLength":9984,
			"byteOffset":29952,
			"target":34962
		},
		{
			"buffer":0,
			"byteLength":4944,
			"byteOffset":39936,
			"target":34963
		},
		{
			"buffer":0,
			"byteLength":12492,
			"byteOffset":44880,
			"target":34962
		},
		{
			"buffer":0,
			"byteLength":12492,
			"byteOffset":57372,
			"target":34962
		},
		{
			"buffer":0,
			"byteLength":8328,
			"byteOffset":69864,
			"target":34962
		},
		{
			"buffer":0,
			"byteLength":4164,
			"byteOffset":78192,
			"target":34963
		},
		{
			"buffer":0,
			"byteLength":288,
			"byteOffset":82356,
			"target":34962
		},
		{
			"buffer":0,
			"byteLength":288,
			"byteOffset":82644,
			"target":34962
		},
		{
			"buffer":0,
			"byteLength":192,
			"byteOffset":82932,
			"target":34962
		},
		{
			"buffer":0,
			"byteLength":72,
			"byteOffset":83124,
			"target":34963
		},
		{
			"buffer":0,
			"byteLength":984,
			"byteOffset":83196,
			"target":34962
		},
		{
			"buffer":0,
			"byteLength":984,
			"byteOffset":84180,
			"target":34962
		},
		{
			"buffer":0,
			"byteLength":656,
			"byteOffset":85164,
			"target":34962
		},
		{
			"buffer":0,
			"byteLength":480,
			"byteOffset":85820,
			"target":34963
		},
		{
			"buffer":0,
			"byteLength":1560,
			"byteOffset":86300,
			"target":34962
		},
		{
			"buffer":0,
			"byteLength":1560,
			"byteOffset":87860,
			"target":34962
		},
		{
			"buffer":0,
			"byteLength":1040,
			"byteOffset":89420,
			"target":34962
		},
		{
			"buffer":0,
			"byteLength":648,
			"byteOffset":90460,
			"target":34963
		},
		{
			"buffer":0,
			"byteLength":720,
			"byteOffset":91108,
			"target":34962
		},
		{
			"buffer":0,
			"byteLength":720,
			"byteOffset":91828,
			"target":34962
		},
		{
			"buffer":0,
			"byteLength":480,
			"byteOffset":92548,
			"target":34962
		},
		{
			"buffer":0,
			"byteLength":300,
			"byteOffset":93028,
			"target":34963
		},
		{
			"buffer":0,
			"byteLength":1560,
			"byteOffset":93328,
			"target":34962
		},
		{
			"buffer":0,
			"byteLength":1560,
			"byteOffset":94888,
			"target":34962
		},
		{
			"buffer":0,
			"byteLength":1040,
			"byteOffset":96448,
			"target":34962
		},
		{
			"buffer":0,
			"byteLength":648,
			"byteOffset":97488,
			"target":34963
		},
		{
			"buffer":0,
			"byteLength":720,
			"byteOffset":98136,
			"target":34962
		},
		{
			"buffer":0,
			"byteLength":720,
			"byteOffset":98856,
			"target":34962
		},
		{
			"buffer":0,
			"byteLength":480,
			"byteOffset":99576,
			"target":34962
		},
		{
			"buffer":0,
			"byteLength":300,
			"byteOffset":100056,
			"target":34963
		},
		{
			"buffer":0,
			"byteLength":1548,
			"byteOffset":100356,
			"target":34962
		},
		{
			"buffer":0,
			"byteLength":1548,
			"byteOffset":101904,
			"target":34962
		},
		{
			"buffer":0,
			"byteLength":1032,
			"byteOffset":103452,
			"target":34962
		},
		{
			"buffer":0,
			"byteLength":648,
			"byteOffset":104484,
			"target":34963
		},
		{
			"buffer":0,
			"byteLength":720,
			"byteOffset":105132,
			"target":34962
		},
		{
			"buffer":0,
			"byteLength":720,
			"byteOffset":105852,
			"target":34962
		},
		{
			"buffer":0,
			"byteLength":480,
			"byteOffset":106572,
			"target":34962
		},
		{
			"buffer":0,
			"byteLength":300,
			"byteOffset":107052,
			"target":34963
		},
		{
			"buffer":0,
			"byteLength":1560,
			"byteOffset":107352,
			"target":34962
		},
		{
			"buffer":0,
			"byteLength":1560,
			"byteOffset":108912,
			"target":34962
		},
		{
			"buffer":0,
			"byteLength":1040,
			"byteOffset":110472,
			"target":34962
		},
		{
			"buffer":0,
			"byteLength":648,
			"byteOffset":111512,
			"target":34963
		},
		{
			"buffer":0,
			"byteLength":720,
			"byteOffset":112160,
			"target":34962
		},
		{
			"buffer":0,
			"byteLength":720,
			"byteOffset":112880,
			"target":34962
		},
		{
			"buffer":0,
			"byteLength":480,
			"byteOffset":113600,
			"target":34962
		},
		{
			"buffer":0,
			"byteLength":300,
			"byteOffset":114080,
			"target":34963
		}
	],
	"samplers":[
		{
			"magFilter":9729,
			"minFilter":9987
		}
	],
	"buffers":[
		{
			"byteLength":114380,
			"uri":"Car_17_K.bin"
		}
	]
}
