{
	"asset":{
		"generator":"Khronos glTF Blender I/O v4.1.63",
		"version":"2.0"
	},
	"extensionsUsed":[
		"EXT_texture_webp"
	],
	"scene":0,
	"scenes":[
		{
			"name":"Scene",
			"nodes":[
				0,
				1
			]
		}
	],
	"nodes":[
		{
			"mesh":0,
			"name":"VENTS_1_A"
		},
		{
			"mesh":1,
			"name":"VENTS_1p_A",
			"translation":[
				-0.4454270005226135,
				0.00028700000257231295,
				0.12247499823570251
			]
		}
	],
	"materials":[
		{
			"doubleSided":true,
			"name":"City Metal",
			"pbrMetallicRoughness":{
				"baseColorTexture":{
					"index":0
				},
				"metallicFactor":0.5596330165863037,
				"roughnessFactor":0.2981222867965698
			}
		},
		{
			"doubleSided":true,
			"name":"City Atlas",
			"pbrMetallicRoughness":{
				"baseColorTexture":{
					"index":1
				},
				"metallicFactor":0
			}
		}
	],
	"meshes":[
		{
			"name":"VENTS_1_A",
			"primitives":[
				{
					"attributes":{
						"POSITION":0,
						"NORMAL":1,
						"TEXCOORD_0":2
					},
					"indices":3,
					"material":0
				},
				{
					"attributes":{
						"POSITION":4,
						"NORMAL":5,
						"TEXCOORD_0":6
					},
					"indices":7,
					"material":1
				}
			]
		},
		{
			"name":"VENTS_1p_A",
			"primitives":[
				{
					"attributes":{
						"POSITION":8,
						"NORMAL":9,
						"TEXCOORD_0":10
					},
					"indices":11,
					"material":0
				}
			]
		}
	],
	"textures":[
		{
			"extensions":{
				"EXT_texture_webp":{
					"source":0
				}
			},
			"sampler":0,
			"source":1
		},
		{
			"extensions":{
				"EXT_texture_webp":{
					"source":0
				}
			},
			"sampler":0,
			"source":1
		}
	],
	"images":[
		{
			"mimeType":"image/webp",
			"name":"City Atlas Map",
			"uri":"City%20Atlas%20Map.webp"
		},
		{
			"mimeType":"image/png",
			"name":"City Atlas Map",
			"uri":"City%20Atlas%20Map.png"
		}
	],
	"accessors":[
		{
			"bufferView":0,
			"componentType":5126,
			"count":282,
			"max":[
				0.014709128066897392,
				0.3355896770954132,
				0.5322130918502808
			],
			"min":[
				-0.4875209629535675,
				-0.3355890214443207,
				-0.6325126886367798
			],
			"type":"VEC3"
		},
		{
			"bufferView":1,
			"componentType":5126,
			"count":282,
			"type":"VEC3"
		},
		{
			"bufferView":2,
			"componentType":5126,
			"count":282,
			"type":"VEC2"
		},
		{
			"bufferView":3,
			"componentType":5123,
			"count":588,
			"type":"SCALAR"
		},
		{
			"bufferView":4,
			"componentType":5126,
			"count":52,
			"max":[
				0.014709128066897392,
				0.3355896770954132,
				0.532213032245636
			],
			"min":[
				-0.32168900966644287,
				-0.3355890214443207,
				-0.5406993627548218
			],
			"type":"VEC3"
		},
		{
			"bufferView":5,
			"componentType":5126,
			"count":52,
			"type":"VEC3"
		},
		{
			"bufferView":6,
			"componentType":5126,
			"count":52,
			"type":"VEC2"
		},
		{
			"bufferView":7,
			"componentType":5123,
			"count":96,
			"type":"SCALAR"
		},
		{
			"bufferView":8,
			"componentType":5126,
			"count":131,
			"max":[
				8.175064181159541e-08,
				0.11622525006532669,
				0.16518200933933258
			],
			"min":[
				-0.06334253400564194,
				-0.19232456386089325,
				-0.17725050449371338
			],
			"type":"VEC3"
		},
		{
			"bufferView":9,
			"componentType":5126,
			"count":131,
			"type":"VEC3"
		},
		{
			"bufferView":10,
			"componentType":5126,
			"count":131,
			"type":"VEC2"
		},
		{
			"bufferView":11,
			"componentType":5123,
			"count":297,
			"type":"SCALAR"
		}
	],
	"bufferViews":[
		{
			"buffer":0,
			"byteLength":3384,
			"byteOffset":0,
			"target":34962
		},
		{
			"buffer":0,
			"byteLength":3384,
			"byteOffset":3384,
			"target":34962
		},
		{
			"buffer":0,
			"byteLength":2256,
			"byteOffset":6768,
			"target":34962
		},
		{
			"buffer":0,
			"byteLength":1176,
			"byteOffset":9024,
			"target":34963
		},
		{
			"buffer":0,
			"byteLength":624,
			"byteOffset":10200,
			"target":34962
		},
		{
			"buffer":0,
			"byteLength":624,
			"byteOffset":10824,
			"target":34962
		},
		{
			"buffer":0,
			"byteLength":416,
			"byteOffset":11448,
			"target":34962
		},
		{
			"buffer":0,
			"byteLength":192,
			"byteOffset":11864,
			"target":34963
		},
		{
			"buffer":0,
			"byteLength":1572,
			"byteOffset":12056,
			"target":34962
		},
		{
			"buffer":0,
			"byteLength":1572,
			"byteOffset":13628,
			"target":34962
		},
		{
			"buffer":0,
			"byteLength":1048,
			"byteOffset":15200,
			"target":34962
		},
		{
			"buffer":0,
			"byteLength":594,
			"byteOffset":16248,
			"target":34963
		}
	],
	"samplers":[
		{
			"magFilter":9729,
			"minFilter":9987
		}
	],
	"buffers":[
		{
			"byteLength":16844,
			"uri":"VENTS_1_A.bin"
		}
	]
}
