{
	"asset":{
		"generator":"Khronos glTF Blender I/O v4.1.63",
		"version":"2.0"
	},
	"extensionsUsed":[
		"EXT_texture_webp"
	],
	"scene":0,
	"scenes":[
		{
			"name":"Scene",
			"nodes":[
				0,
				1,
				2,
				3,
				4
			]
		}
	],
	"nodes":[
		{
			"mesh":0,
			"name":"Car_12_T"
		},
		{
			"mesh":1,
			"name":"FL"
		},
		{
			"mesh":2,
			"name":"RL"
		},
		{
			"mesh":3,
			"name":"FR"
		},
		{
			"mesh":4,
			"name":"RR"
		}
	],
	"materials":[
		{
			"name":"City Car",
			"pbrMetallicRoughness":{
				"baseColorTexture":{
					"index":0
				},
				"metallicFactor":0.34545451402664185,
				"roughnessFactor":0.48181819915771484
			}
		},
		{
			"name":"City Atlas",
			"pbrMetallicRoughness":{
				"baseColorTexture":{
					"index":1
				},
				"metallicFactor":0
			}
		},
		{
			"name":"City Metal",
			"pbrMetallicRoughness":{
				"baseColorTexture":{
					"index":2
				},
				"roughnessFactor":0.2708495557308197
			}
		},
		{
			"name":"Windows",
			"pbrMetallicRoughness":{
				"baseColorTexture":{
					"index":3
				},
				"metallicFactor":0.5454545617103577,
				"roughnessFactor":0.8727272748947144
			}
		}
	],
	"meshes":[
		{
			"name":"Car_12_T",
			"primitives":[
				{
					"attributes":{
						"POSITION":0,
						"NORMAL":1,
						"TEXCOORD_0":2
					},
					"indices":3,
					"material":0
				},
				{
					"attributes":{
						"POSITION":4,
						"NORMAL":5,
						"TEXCOORD_0":6
					},
					"indices":7,
					"material":1
				},
				{
					"attributes":{
						"POSITION":8,
						"NORMAL":9,
						"TEXCOORD_0":10
					},
					"indices":11,
					"material":2
				},
				{
					"attributes":{
						"POSITION":12,
						"NORMAL":13,
						"TEXCOORD_0":14
					},
					"indices":15,
					"material":3
				}
			]
		},
		{
			"name":"FL",
			"primitives":[
				{
					"attributes":{
						"POSITION":16,
						"NORMAL":17,
						"TEXCOORD_0":18
					},
					"indices":19,
					"material":0
				},
				{
					"attributes":{
						"POSITION":20,
						"NORMAL":21,
						"TEXCOORD_0":22
					},
					"indices":23,
					"material":2
				}
			]
		},
		{
			"name":"RL",
			"primitives":[
				{
					"attributes":{
						"POSITION":24,
						"NORMAL":25,
						"TEXCOORD_0":26
					},
					"indices":27,
					"material":0
				},
				{
					"attributes":{
						"POSITION":28,
						"NORMAL":29,
						"TEXCOORD_0":30
					},
					"indices":31,
					"material":2
				}
			]
		},
		{
			"name":"FR",
			"primitives":[
				{
					"attributes":{
						"POSITION":32,
						"NORMAL":33,
						"TEXCOORD_0":34
					},
					"indices":35,
					"material":0
				},
				{
					"attributes":{
						"POSITION":36,
						"NORMAL":37,
						"TEXCOORD_0":38
					},
					"indices":39,
					"material":2
				}
			]
		},
		{
			"name":"RR",
			"primitives":[
				{
					"attributes":{
						"POSITION":40,
						"NORMAL":41,
						"TEXCOORD_0":42
					},
					"indices":43,
					"material":0
				},
				{
					"attributes":{
						"POSITION":44,
						"NORMAL":45,
						"TEXCOORD_0":46
					},
					"indices":39,
					"material":2
				}
			]
		}
	],
	"textures":[
		{
			"extensions":{
				"EXT_texture_webp":{
					"source":0
				}
			},
			"sampler":0,
			"source":1
		},
		{
			"extensions":{
				"EXT_texture_webp":{
					"source":0
				}
			},
			"sampler":0,
			"source":1
		},
		{
			"extensions":{
				"EXT_texture_webp":{
					"source":0
				}
			},
			"sampler":0,
			"source":1
		},
		{
			"extensions":{
				"EXT_texture_webp":{
					"source":2
				}
			},
			"sampler":0,
			"source":3
		}
	],
	"images":[
		{
			"mimeType":"image/webp",
			"name":"City Atlas Map.png",
			"uri":"City%20Atlas%20Map_png.webp"
		},
		{
			"mimeType":"image/png",
			"name":"City Atlas Map.png",
			"uri":"City%20Atlas%20Map_png.png"
		},
		{
			"mimeType":"image/webp",
			"name":"Windows",
			"uri":"Windows.webp"
		},
		{
			"mimeType":"image/png",
			"name":"Windows",
			"uri":"Windows.png"
		}
	],
	"accessors":[
		{
			"bufferView":0,
			"componentType":5126,
			"count":1097,
			"max":[
				1.8609540462493896,
				1.8015155792236328,
				0.8640974164009094
			],
			"min":[
				-1.8165373802185059,
				-1.4901161193847656e-08,
				-0.8640974164009094
			],
			"type":"VEC3"
		},
		{
			"bufferView":1,
			"componentType":5126,
			"count":1097,
			"type":"VEC3"
		},
		{
			"bufferView":2,
			"componentType":5126,
			"count":1097,
			"type":"VEC2"
		},
		{
			"bufferView":3,
			"componentType":5123,
			"count":2193,
			"type":"SCALAR"
		},
		{
			"bufferView":4,
			"componentType":5126,
			"count":388,
			"max":[
				1.7527995109558105,
				1.3798604011535645,
				0.6708296537399292
			],
			"min":[
				-1.906949520111084,
				0.3207722306251526,
				-0.6708296537399292
			],
			"type":"VEC3"
		},
		{
			"bufferView":5,
			"componentType":5126,
			"count":388,
			"type":"VEC3"
		},
		{
			"bufferView":6,
			"componentType":5126,
			"count":388,
			"type":"VEC2"
		},
		{
			"bufferView":7,
			"componentType":5123,
			"count":816,
			"type":"SCALAR"
		},
		{
			"bufferView":8,
			"componentType":5126,
			"count":1183,
			"max":[
				1.9128191471099854,
				1.224684715270996,
				0.8564966917037964
			],
			"min":[
				-1.9116275310516357,
				-0.012772869318723679,
				-0.8564966917037964
			],
			"type":"VEC3"
		},
		{
			"bufferView":9,
			"componentType":5126,
			"count":1183,
			"type":"VEC3"
		},
		{
			"bufferView":10,
			"componentType":5126,
			"count":1183,
			"type":"VEC2"
		},
		{
			"bufferView":11,
			"componentType":5123,
			"count":2319,
			"type":"SCALAR"
		},
		{
			"bufferView":12,
			"componentType":5126,
			"count":26,
			"max":[
				-0.06823241710662842,
				1.6777348518371582,
				0.5815681219100952
			],
			"min":[
				-0.9267790913581848,
				0.9857529401779175,
				-0.5815681219100952
			],
			"type":"VEC3"
		},
		{
			"bufferView":13,
			"componentType":5126,
			"count":26,
			"type":"VEC3"
		},
		{
			"bufferView":14,
			"componentType":5126,
			"count":26,
			"type":"VEC2"
		},
		{
			"bufferView":15,
			"componentType":5123,
			"count":45,
			"type":"SCALAR"
		},
		{
			"bufferView":16,
			"componentType":5126,
			"count":122,
			"max":[
				-0.9471895098686218,
				0.27175793051719666,
				0.8502758145332336
			],
			"min":[
				-1.449721336364746,
				-0.20617805421352386,
				0.6879458427429199
			],
			"type":"VEC3"
		},
		{
			"bufferView":17,
			"componentType":5126,
			"count":122,
			"type":"VEC3"
		},
		{
			"bufferView":18,
			"componentType":5126,
			"count":122,
			"type":"VEC2"
		},
		{
			"bufferView":19,
			"componentType":5123,
			"count":264,
			"type":"SCALAR"
		},
		{
			"bufferView":20,
			"componentType":5126,
			"count":50,
			"max":[
				-1.0954029560089111,
				0.13079848885536194,
				0.8496618270874023
			],
			"min":[
				-1.3015077114105225,
				-0.06521858274936676,
				0.8376072645187378
			],
			"type":"VEC3"
		},
		{
			"bufferView":21,
			"componentType":5126,
			"count":50,
			"type":"VEC3"
		},
		{
			"bufferView":22,
			"componentType":5126,
			"count":50,
			"type":"VEC2"
		},
		{
			"bufferView":23,
			"componentType":5123,
			"count":144,
			"type":"SCALAR"
		},
		{
			"bufferView":24,
			"componentType":5126,
			"count":122,
			"max":[
				1.319110631942749,
				0.27175793051719666,
				0.8502758145332336
			],
			"min":[
				0.8165791034698486,
				-0.20617805421352386,
				0.6879458427429199
			],
			"type":"VEC3"
		},
		{
			"bufferView":25,
			"componentType":5126,
			"count":122,
			"type":"VEC3"
		},
		{
			"bufferView":26,
			"componentType":5126,
			"count":122,
			"type":"VEC2"
		},
		{
			"bufferView":27,
			"componentType":5123,
			"count":264,
			"type":"SCALAR"
		},
		{
			"bufferView":28,
			"componentType":5126,
			"count":50,
			"max":[
				1.1708972454071045,
				0.13079848885536194,
				0.8496618270874023
			],
			"min":[
				0.9647927284240723,
				-0.06521858274936676,
				0.8376072645187378
			],
			"type":"VEC3"
		},
		{
			"bufferView":29,
			"componentType":5126,
			"count":50,
			"type":"VEC3"
		},
		{
			"bufferView":30,
			"componentType":5126,
			"count":50,
			"type":"VEC2"
		},
		{
			"bufferView":31,
			"componentType":5123,
			"count":144,
			"type":"SCALAR"
		},
		{
			"bufferView":32,
			"componentType":5126,
			"count":122,
			"max":[
				-0.9471895098686218,
				0.27175793051719666,
				-0.6879458427429199
			],
			"min":[
				-1.449721336364746,
				-0.20617805421352386,
				-0.8502758145332336
			],
			"type":"VEC3"
		},
		{
			"bufferView":33,
			"componentType":5126,
			"count":122,
			"type":"VEC3"
		},
		{
			"bufferView":34,
			"componentType":5126,
			"count":122,
			"type":"VEC2"
		},
		{
			"bufferView":35,
			"componentType":5123,
			"count":264,
			"type":"SCALAR"
		},
		{
			"bufferView":36,
			"componentType":5126,
			"count":50,
			"max":[
				-1.0954031944274902,
				0.13079848885536194,
				-0.8376072645187378
			],
			"min":[
				-1.3015077114105225,
				-0.06521858274936676,
				-0.8496618270874023
			],
			"type":"VEC3"
		},
		{
			"bufferView":37,
			"componentType":5126,
			"count":50,
			"type":"VEC3"
		},
		{
			"bufferView":38,
			"componentType":5126,
			"count":50,
			"type":"VEC2"
		},
		{
			"bufferView":39,
			"componentType":5123,
			"count":144,
			"type":"SCALAR"
		},
		{
			"bufferView":40,
			"componentType":5126,
			"count":122,
			"max":[
				1.319110631942749,
				0.27175793051719666,
				-0.6879458427429199
			],
			"min":[
				0.8165791034698486,
				-0.20617805421352386,
				-0.8502758145332336
			],
			"type":"VEC3"
		},
		{
			"bufferView":41,
			"componentType":5126,
			"count":122,
			"type":"VEC3"
		},
		{
			"bufferView":42,
			"componentType":5126,
			"count":122,
			"type":"VEC2"
		},
		{
			"bufferView":43,
			"componentType":5123,
			"count":264,
			"type":"SCALAR"
		},
		{
			"bufferView":44,
			"componentType":5126,
			"count":50,
			"max":[
				1.1708972454071045,
				0.13079848885536194,
				-0.8376072645187378
			],
			"min":[
				0.9647927284240723,
				-0.06521858274936676,
				-0.8496618270874023
			],
			"type":"VEC3"
		},
		{
			"bufferView":45,
			"componentType":5126,
			"count":50,
			"type":"VEC3"
		},
		{
			"bufferView":46,
			"componentType":5126,
			"count":50,
			"type":"VEC2"
		}
	],
	"bufferViews":[
		{
			"buffer":0,
			"byteLength":13164,
			"byteOffset":0,
			"target":34962
		},
		{
			"buffer":0,
			"byteLength":13164,
			"byteOffset":13164,
			"target":34962
		},
		{
			"buffer":0,
			"byteLength":8776,
			"byteOffset":26328,
			"target":34962
		},
		{
			"buffer":0,
			"byteLength":4386,
			"byteOffset":35104,
			"target":34963
		},
		{
			"buffer":0,
			"byteLength":4656,
			"byteOffset":39492,
			"target":34962
		},
		{
			"buffer":0,
			"byteLength":4656,
			"byteOffset":44148,
			"target":34962
		},
		{
			"buffer":0,
			"byteLength":3104,
			"byteOffset":48804,
			"target":34962
		},
		{
			"buffer":0,
			"byteLength":1632,
			"byteOffset":51908,
			"target":34963
		},
		{
			"buffer":0,
			"byteLength":14196,
			"byteOffset":53540,
			"target":34962
		},
		{
			"buffer":0,
			"byteLength":14196,
			"byteOffset":67736,
			"target":34962
		},
		{
			"buffer":0,
			"byteLength":9464,
			"byteOffset":81932,
			"target":34962
		},
		{
			"buffer":0,
			"byteLength":4638,
			"byteOffset":91396,
			"target":34963
		},
		{
			"buffer":0,
			"byteLength":312,
			"byteOffset":96036,
			"target":34962
		},
		{
			"buffer":0,
			"byteLength":312,
			"byteOffset":96348,
			"target":34962
		},
		{
			"buffer":0,
			"byteLength":208,
			"byteOffset":96660,
			"target":34962
		},
		{
			"buffer":0,
			"byteLength":90,
			"byteOffset":96868,
			"target":34963
		},
		{
			"buffer":0,
			"byteLength":1464,
			"byteOffset":96960,
			"target":34962
		},
		{
			"buffer":0,
			"byteLength":1464,
			"byteOffset":98424,
			"target":34962
		},
		{
			"buffer":0,
			"byteLength":976,
			"byteOffset":99888,
			"target":34962
		},
		{
			"buffer":0,
			"byteLength":528,
			"byteOffset":100864,
			"target":34963
		},
		{
			"buffer":0,
			"byteLength":600,
			"byteOffset":101392,
			"target":34962
		},
		{
			"buffer":0,
			"byteLength":600,
			"byteOffset":101992,
			"target":34962
		},
		{
			"buffer":0,
			"byteLength":400,
			"byteOffset":102592,
			"target":34962
		},
		{
			"buffer":0,
			"byteLength":288,
			"byteOffset":102992,
			"target":34963
		},
		{
			"buffer":0,
			"byteLength":1464,
			"byteOffset":103280,
			"target":34962
		},
		{
			"buffer":0,
			"byteLength":1464,
			"byteOffset":104744,
			"target":34962
		},
		{
			"buffer":0,
			"byteLength":976,
			"byteOffset":106208,
			"target":34962
		},
		{
			"buffer":0,
			"byteLength":528,
			"byteOffset":107184,
			"target":34963
		},
		{
			"buffer":0,
			"byteLength":600,
			"byteOffset":107712,
			"target":34962
		},
		{
			"buffer":0,
			"byteLength":600,
			"byteOffset":108312,
			"target":34962
		},
		{
			"buffer":0,
			"byteLength":400,
			"byteOffset":108912,
			"target":34962
		},
		{
			"buffer":0,
			"byteLength":288,
			"byteOffset":109312,
			"target":34963
		},
		{
			"buffer":0,
			"byteLength":1464,
			"byteOffset":109600,
			"target":34962
		},
		{
			"buffer":0,
			"byteLength":1464,
			"byteOffset":111064,
			"target":34962
		},
		{
			"buffer":0,
			"byteLength":976,
			"byteOffset":112528,
			"target":34962
		},
		{
			"buffer":0,
			"byteLength":528,
			"byteOffset":113504,
			"target":34963
		},
		{
			"buffer":0,
			"byteLength":600,
			"byteOffset":114032,
			"target":34962
		},
		{
			"buffer":0,
			"byteLength":600,
			"byteOffset":114632,
			"target":34962
		},
		{
			"buffer":0,
			"byteLength":400,
			"byteOffset":115232,
			"target":34962
		},
		{
			"buffer":0,
			"byteLength":288,
			"byteOffset":115632,
			"target":34963
		},
		{
			"buffer":0,
			"byteLength":1464,
			"byteOffset":115920,
			"target":34962
		},
		{
			"buffer":0,
			"byteLength":1464,
			"byteOffset":117384,
			"target":34962
		},
		{
			"buffer":0,
			"byteLength":976,
			"byteOffset":118848,
			"target":34962
		},
		{
			"buffer":0,
			"byteLength":528,
			"byteOffset":119824,
			"target":34963
		},
		{
			"buffer":0,
			"byteLength":600,
			"byteOffset":120352,
			"target":34962
		},
		{
			"buffer":0,
			"byteLength":600,
			"byteOffset":120952,
			"target":34962
		},
		{
			"buffer":0,
			"byteLength":400,
			"byteOffset":121552,
			"target":34962
		}
	],
	"samplers":[
		{
			"magFilter":9729,
			"minFilter":9987
		}
	],
	"buffers":[
		{
			"byteLength":121952,
			"uri":"Car_12_T.bin"
		}
	]
}
