{
	"asset":{
		"generator":"Khronos glTF Blender I/O v4.1.63",
		"version":"2.0"
	},
	"extensionsUsed":[
		"EXT_texture_webp"
	],
	"scene":0,
	"scenes":[
		{
			"name":"Scene",
			"nodes":[
				0,
				1,
				2,
				3,
				4
			]
		}
	],
	"nodes":[
		{
			"mesh":0,
			"name":"PostCar_1_E"
		},
		{
			"mesh":1,
			"name":"FL",
			"translation":[
				-1.3665834665298462,
				0.009606169536709785,
				0.6844437122344971
			]
		},
		{
			"mesh":2,
			"name":"RL",
			"translation":[
				1.2046701908111572,
				0.009606166742742062,
				0.6844439506530762
			]
		},
		{
			"mesh":3,
			"name":"FR",
			"translation":[
				-1.3665838241577148,
				0.009606188163161278,
				-0.6844439506530762
			]
		},
		{
			"mesh":4,
			"name":"RR",
			"translation":[
				1.2046700716018677,
				0.009606189094483852,
				-0.6844439506530762
			]
		}
	],
	"materials":[
		{
			"name":"City Atlas",
			"pbrMetallicRoughness":{
				"baseColorTexture":{
					"index":0
				},
				"metallicFactor":0
			}
		},
		{
			"name":"City Metal",
			"pbrMetallicRoughness":{
				"baseColorTexture":{
					"index":1
				},
				"roughnessFactor":0.2708495557308197
			}
		},
		{
			"name":"City Car",
			"pbrMetallicRoughness":{
				"baseColorTexture":{
					"index":2
				},
				"metallicFactor":0.34545451402664185,
				"roughnessFactor":0.48181819915771484
			}
		},
		{
			"name":"Windows",
			"pbrMetallicRoughness":{
				"baseColorTexture":{
					"index":3
				},
				"metallicFactor":0.5454545617103577,
				"roughnessFactor":0.8727272748947144
			}
		},
		{
			"doubleSided":true,
			"name":"Signs_2",
			"pbrMetallicRoughness":{
				"baseColorTexture":{
					"index":4
				},
				"metallicFactor":0.1596638709306717,
				"roughnessFactor":0.651260495185852
			}
		}
	],
	"meshes":[
		{
			"name":"PostCar_1_E",
			"primitives":[
				{
					"attributes":{
						"POSITION":0,
						"NORMAL":1,
						"TEXCOORD_0":2
					},
					"indices":3,
					"material":0
				},
				{
					"attributes":{
						"POSITION":4,
						"NORMAL":5,
						"TEXCOORD_0":6
					},
					"indices":7,
					"material":1
				},
				{
					"attributes":{
						"POSITION":8,
						"NORMAL":9,
						"TEXCOORD_0":10
					},
					"indices":11,
					"material":2
				},
				{
					"attributes":{
						"POSITION":12,
						"NORMAL":13,
						"TEXCOORD_0":14
					},
					"indices":15,
					"material":3
				},
				{
					"attributes":{
						"POSITION":16,
						"NORMAL":17,
						"TEXCOORD_0":18
					},
					"indices":19,
					"material":4
				}
			]
		},
		{
			"name":"FL",
			"primitives":[
				{
					"attributes":{
						"POSITION":20,
						"NORMAL":21,
						"TEXCOORD_0":22
					},
					"indices":23,
					"material":1
				},
				{
					"attributes":{
						"POSITION":24,
						"NORMAL":25,
						"TEXCOORD_0":26
					},
					"indices":27,
					"material":2
				}
			]
		},
		{
			"name":"RL",
			"primitives":[
				{
					"attributes":{
						"POSITION":28,
						"NORMAL":29,
						"TEXCOORD_0":30
					},
					"indices":31,
					"material":1
				},
				{
					"attributes":{
						"POSITION":32,
						"NORMAL":33,
						"TEXCOORD_0":34
					},
					"indices":35,
					"material":2
				}
			]
		},
		{
			"name":"FR",
			"primitives":[
				{
					"attributes":{
						"POSITION":36,
						"NORMAL":37,
						"TEXCOORD_0":38
					},
					"indices":39,
					"material":1
				},
				{
					"attributes":{
						"POSITION":40,
						"NORMAL":41,
						"TEXCOORD_0":42
					},
					"indices":43,
					"material":2
				}
			]
		},
		{
			"name":"RR",
			"primitives":[
				{
					"attributes":{
						"POSITION":44,
						"NORMAL":45,
						"TEXCOORD_0":46
					},
					"indices":39,
					"material":1
				},
				{
					"attributes":{
						"POSITION":47,
						"NORMAL":48,
						"TEXCOORD_0":49
					},
					"indices":43,
					"material":2
				}
			]
		}
	],
	"textures":[
		{
			"extensions":{
				"EXT_texture_webp":{
					"source":0
				}
			},
			"sampler":0,
			"source":1
		},
		{
			"extensions":{
				"EXT_texture_webp":{
					"source":0
				}
			},
			"sampler":0,
			"source":1
		},
		{
			"extensions":{
				"EXT_texture_webp":{
					"source":0
				}
			},
			"sampler":0,
			"source":1
		},
		{
			"extensions":{
				"EXT_texture_webp":{
					"source":2
				}
			},
			"sampler":0,
			"source":3
		},
		{
			"extensions":{
				"EXT_texture_webp":{
					"source":4
				}
			},
			"sampler":0,
			"source":5
		}
	],
	"images":[
		{
			"mimeType":"image/webp",
			"name":"City Atlas Map.png",
			"uri":"City%20Atlas%20Map_png.webp"
		},
		{
			"mimeType":"image/png",
			"name":"City Atlas Map.png",
			"uri":"City%20Atlas%20Map_png.png"
		},
		{
			"mimeType":"image/webp",
			"name":"Windows",
			"uri":"Windows.webp"
		},
		{
			"mimeType":"image/png",
			"name":"Windows",
			"uri":"Windows.png"
		},
		{
			"mimeType":"image/webp",
			"name":"Signs 2",
			"uri":"Signs%202.webp"
		},
		{
			"mimeType":"image/png",
			"name":"Signs 2",
			"uri":"Signs%202.png"
		}
	],
	"accessors":[
		{
			"bufferView":0,
			"componentType":5126,
			"count":962,
			"max":[
				2.063666582107544,
				1.770685076713562,
				0.7436250448226929
			],
			"min":[
				-2.033127784729004,
				-0.00022048130631446838,
				-0.7436250448226929
			],
			"type":"VEC3"
		},
		{
			"bufferView":1,
			"componentType":5126,
			"count":962,
			"type":"VEC3"
		},
		{
			"bufferView":2,
			"componentType":5126,
			"count":962,
			"type":"VEC2"
		},
		{
			"bufferView":3,
			"componentType":5123,
			"count":2310,
			"type":"SCALAR"
		},
		{
			"bufferView":4,
			"componentType":5126,
			"count":1551,
			"max":[
				2.1018226146698,
				1.5283714532852173,
				0.8990494012832642
			],
			"min":[
				-2.0342037677764893,
				-0.038754064589738846,
				-0.8990495204925537
			],
			"type":"VEC3"
		},
		{
			"bufferView":5,
			"componentType":5126,
			"count":1551,
			"type":"VEC3"
		},
		{
			"bufferView":6,
			"componentType":5126,
			"count":1551,
			"type":"VEC2"
		},
		{
			"bufferView":7,
			"componentType":5123,
			"count":3495,
			"type":"SCALAR"
		},
		{
			"bufferView":8,
			"componentType":5126,
			"count":515,
			"max":[
				2.023597478866577,
				1.7071996927261353,
				0.719828724861145
			],
			"min":[
				-1.9472923278808594,
				0.014010276645421982,
				-0.6863898038864136
			],
			"type":"VEC3"
		},
		{
			"bufferView":9,
			"componentType":5126,
			"count":515,
			"type":"VEC3"
		},
		{
			"bufferView":10,
			"componentType":5126,
			"count":515,
			"type":"VEC2"
		},
		{
			"bufferView":11,
			"componentType":5123,
			"count":918,
			"type":"SCALAR"
		},
		{
			"bufferView":12,
			"componentType":5126,
			"count":24,
			"max":[
				0.08133585005998611,
				1.625063180923462,
				0.7084417343139648
			],
			"min":[
				-1.3646184206008911,
				0.8610619902610779,
				-0.6599246263504028
			],
			"type":"VEC3"
		},
		{
			"bufferView":13,
			"componentType":5126,
			"count":24,
			"type":"VEC3"
		},
		{
			"bufferView":14,
			"componentType":5126,
			"count":24,
			"type":"VEC2"
		},
		{
			"bufferView":15,
			"componentType":5123,
			"count":48,
			"type":"SCALAR"
		},
		{
			"bufferView":16,
			"componentType":5126,
			"count":6,
			"max":[
				1.9110478162765503,
				1.6439505815505981,
				0.5035017728805542
			],
			"min":[
				1.9110478162765503,
				0.19553399085998535,
				-0.5035020112991333
			],
			"type":"VEC3"
		},
		{
			"bufferView":17,
			"componentType":5126,
			"count":6,
			"type":"VEC3"
		},
		{
			"bufferView":18,
			"componentType":5126,
			"count":6,
			"type":"VEC2"
		},
		{
			"bufferView":19,
			"componentType":5123,
			"count":12,
			"type":"SCALAR"
		},
		{
			"bufferView":20,
			"componentType":5126,
			"count":70,
			"max":[
				0.13803565502166748,
				0.1312798261642456,
				0.03948521614074707
			],
			"min":[
				-0.13803613185882568,
				-0.13127975165843964,
				0.019809722900390625
			],
			"type":"VEC3"
		},
		{
			"bufferView":21,
			"componentType":5126,
			"count":70,
			"type":"VEC3"
		},
		{
			"bufferView":22,
			"componentType":5126,
			"count":70,
			"type":"VEC2"
		},
		{
			"bufferView":23,
			"componentType":5123,
			"count":204,
			"type":"SCALAR"
		},
		{
			"bufferView":24,
			"componentType":5126,
			"count":132,
			"max":[
				0.2683480978012085,
				0.25521454215049744,
				0.040053367614746094
			],
			"min":[
				-0.26834917068481445,
				-0.25521472096443176,
				-0.11634635925292969
			],
			"type":"VEC3"
		},
		{
			"bufferView":25,
			"componentType":5126,
			"count":132,
			"type":"VEC3"
		},
		{
			"bufferView":26,
			"componentType":5126,
			"count":132,
			"type":"VEC2"
		},
		{
			"bufferView":27,
			"componentType":5123,
			"count":324,
			"type":"SCALAR"
		},
		{
			"bufferView":28,
			"componentType":5126,
			"count":70,
			"max":[
				0.13803601264953613,
				0.1312798261642456,
				0.03948497772216797
			],
			"min":[
				-0.13803565502166748,
				-0.13127975165843964,
				0.019809484481811523
			],
			"type":"VEC3"
		},
		{
			"bufferView":29,
			"componentType":5126,
			"count":70,
			"type":"VEC3"
		},
		{
			"bufferView":30,
			"componentType":5126,
			"count":70,
			"type":"VEC2"
		},
		{
			"bufferView":31,
			"componentType":5123,
			"count":204,
			"type":"SCALAR"
		},
		{
			"bufferView":32,
			"componentType":5126,
			"count":132,
			"max":[
				0.26834869384765625,
				0.2552145719528198,
				0.04005312919616699
			],
			"min":[
				-0.26834845542907715,
				-0.25521472096443176,
				-0.11634659767150879
			],
			"type":"VEC3"
		},
		{
			"bufferView":33,
			"componentType":5126,
			"count":132,
			"type":"VEC3"
		},
		{
			"bufferView":34,
			"componentType":5126,
			"count":132,
			"type":"VEC2"
		},
		{
			"bufferView":35,
			"componentType":5123,
			"count":324,
			"type":"SCALAR"
		},
		{
			"bufferView":36,
			"componentType":5126,
			"count":70,
			"max":[
				0.13803601264953613,
				0.1312798112630844,
				-0.019809484481811523
			],
			"min":[
				-0.13803577423095703,
				-0.13127976655960083,
				-0.03948497772216797
			],
			"type":"VEC3"
		},
		{
			"bufferView":37,
			"componentType":5126,
			"count":70,
			"type":"VEC3"
		},
		{
			"bufferView":38,
			"componentType":5126,
			"count":70,
			"type":"VEC2"
		},
		{
			"bufferView":39,
			"componentType":5123,
			"count":204,
			"type":"SCALAR"
		},
		{
			"bufferView":40,
			"componentType":5126,
			"count":132,
			"max":[
				0.26834845542907715,
				0.2552146315574646,
				0.11634659767150879
			],
			"min":[
				-0.2683488130569458,
				-0.25521475076675415,
				-0.04005324840545654
			],
			"type":"VEC3"
		},
		{
			"bufferView":41,
			"componentType":5126,
			"count":132,
			"type":"VEC3"
		},
		{
			"bufferView":42,
			"componentType":5126,
			"count":132,
			"type":"VEC2"
		},
		{
			"bufferView":43,
			"componentType":5123,
			"count":324,
			"type":"SCALAR"
		},
		{
			"bufferView":44,
			"componentType":5126,
			"count":70,
			"max":[
				0.13803613185882568,
				0.1312798112630844,
				-0.019809484481811523
			],
			"min":[
				-0.13803553581237793,
				-0.13127976655960083,
				-0.03948497772216797
			],
			"type":"VEC3"
		},
		{
			"bufferView":45,
			"componentType":5126,
			"count":70,
			"type":"VEC3"
		},
		{
			"bufferView":46,
			"componentType":5126,
			"count":70,
			"type":"VEC2"
		},
		{
			"bufferView":47,
			"componentType":5126,
			"count":132,
			"max":[
				0.2683488130569458,
				0.2552146315574646,
				0.11634659767150879
			],
			"min":[
				-0.2683483362197876,
				-0.25521475076675415,
				-0.04005324840545654
			],
			"type":"VEC3"
		},
		{
			"bufferView":48,
			"componentType":5126,
			"count":132,
			"type":"VEC3"
		},
		{
			"bufferView":49,
			"componentType":5126,
			"count":132,
			"type":"VEC2"
		}
	],
	"bufferViews":[
		{
			"buffer":0,
			"byteLength":11544,
			"byteOffset":0,
			"target":34962
		},
		{
			"buffer":0,
			"byteLength":11544,
			"byteOffset":11544,
			"target":34962
		},
		{
			"buffer":0,
			"byteLength":7696,
			"byteOffset":23088,
			"target":34962
		},
		{
			"buffer":0,
			"byteLength":4620,
			"byteOffset":30784,
			"target":34963
		},
		{
			"buffer":0,
			"byteLength":18612,
			"byteOffset":35404,
			"target":34962
		},
		{
			"buffer":0,
			"byteLength":18612,
			"byteOffset":54016,
			"target":34962
		},
		{
			"buffer":0,
			"byteLength":12408,
			"byteOffset":72628,
			"target":34962
		},
		{
			"buffer":0,
			"byteLength":6990,
			"byteOffset":85036,
			"target":34963
		},
		{
			"buffer":0,
			"byteLength":6180,
			"byteOffset":92028,
			"target":34962
		},
		{
			"buffer":0,
			"byteLength":6180,
			"byteOffset":98208,
			"target":34962
		},
		{
			"buffer":0,
			"byteLength":4120,
			"byteOffset":104388,
			"target":34962
		},
		{
			"buffer":0,
			"byteLength":1836,
			"byteOffset":108508,
			"target":34963
		},
		{
			"buffer":0,
			"byteLength":288,
			"byteOffset":110344,
			"target":34962
		},
		{
			"buffer":0,
			"byteLength":288,
			"byteOffset":110632,
			"target":34962
		},
		{
			"buffer":0,
			"byteLength":192,
			"byteOffset":110920,
			"target":34962
		},
		{
			"buffer":0,
			"byteLength":96,
			"byteOffset":111112,
			"target":34963
		},
		{
			"buffer":0,
			"byteLength":72,
			"byteOffset":111208,
			"target":34962
		},
		{
			"buffer":0,
			"byteLength":72,
			"byteOffset":111280,
			"target":34962
		},
		{
			"buffer":0,
			"byteLength":48,
			"byteOffset":111352,
			"target":34962
		},
		{
			"buffer":0,
			"byteLength":24,
			"byteOffset":111400,
			"target":34963
		},
		{
			"buffer":0,
			"byteLength":840,
			"byteOffset":111424,
			"target":34962
		},
		{
			"buffer":0,
			"byteLength":840,
			"byteOffset":112264,
			"target":34962
		},
		{
			"buffer":0,
			"byteLength":560,
			"byteOffset":113104,
			"target":34962
		},
		{
			"buffer":0,
			"byteLength":408,
			"byteOffset":113664,
			"target":34963
		},
		{
			"buffer":0,
			"byteLength":1584,
			"byteOffset":114072,
			"target":34962
		},
		{
			"buffer":0,
			"byteLength":1584,
			"byteOffset":115656,
			"target":34962
		},
		{
			"buffer":0,
			"byteLength":1056,
			"byteOffset":117240,
			"target":34962
		},
		{
			"buffer":0,
			"byteLength":648,
			"byteOffset":118296,
			"target":34963
		},
		{
			"buffer":0,
			"byteLength":840,
			"byteOffset":118944,
			"target":34962
		},
		{
			"buffer":0,
			"byteLength":840,
			"byteOffset":119784,
			"target":34962
		},
		{
			"buffer":0,
			"byteLength":560,
			"byteOffset":120624,
			"target":34962
		},
		{
			"buffer":0,
			"byteLength":408,
			"byteOffset":121184,
			"target":34963
		},
		{
			"buffer":0,
			"byteLength":1584,
			"byteOffset":121592,
			"target":34962
		},
		{
			"buffer":0,
			"byteLength":1584,
			"byteOffset":123176,
			"target":34962
		},
		{
			"buffer":0,
			"byteLength":1056,
			"byteOffset":124760,
			"target":34962
		},
		{
			"buffer":0,
			"byteLength":648,
			"byteOffset":125816,
			"target":34963
		},
		{
			"buffer":0,
			"byteLength":840,
			"byteOffset":126464,
			"target":34962
		},
		{
			"buffer":0,
			"byteLength":840,
			"byteOffset":127304,
			"target":34962
		},
		{
			"buffer":0,
			"byteLength":560,
			"byteOffset":128144,
			"target":34962
		},
		{
			"buffer":0,
			"byteLength":408,
			"byteOffset":128704,
			"target":34963
		},
		{
			"buffer":0,
			"byteLength":1584,
			"byteOffset":129112,
			"target":34962
		},
		{
			"buffer":0,
			"byteLength":1584,
			"byteOffset":130696,
			"target":34962
		},
		{
			"buffer":0,
			"byteLength":1056,
			"byteOffset":132280,
			"target":34962
		},
		{
			"buffer":0,
			"byteLength":648,
			"byteOffset":133336,
			"target":34963
		},
		{
			"buffer":0,
			"byteLength":840,
			"byteOffset":133984,
			"target":34962
		},
		{
			"buffer":0,
			"byteLength":840,
			"byteOffset":134824,
			"target":34962
		},
		{
			"buffer":0,
			"byteLength":560,
			"byteOffset":135664,
			"target":34962
		},
		{
			"buffer":0,
			"byteLength":1584,
			"byteOffset":136224,
			"target":34962
		},
		{
			"buffer":0,
			"byteLength":1584,
			"byteOffset":137808,
			"target":34962
		},
		{
			"buffer":0,
			"byteLength":1056,
			"byteOffset":139392,
			"target":34962
		}
	],
	"samplers":[
		{
			"magFilter":9729,
			"minFilter":9987
		}
	],
	"buffers":[
		{
			"byteLength":140448,
			"uri":"PostCar_1_E.bin"
		}
	]
}
