{
	"asset":{
		"generator":"Khronos glTF Blender I/O v4.1.63",
		"version":"2.0"
	},
	"extensionsUsed":[
		"EXT_texture_webp"
	],
	"scene":1,
	"scenes":[
		{
			"name":"Scene"
		},
		{
			"name":"Scene.001",
			"nodes":[
				0
			]
		},
		{
			"name":"To Do",
			"nodes":[
				1
			]
		}
	],
	"nodes":[
		{
			"mesh":0,
			"name":"Sign_35",
			"rotation":[
				-1,
				0,
				0,
				1.6292068494294654e-07
			]
		},
		{
			"mesh":1,
			"name":"Barier",
			"scale":[
				0.7816358208656311,
				0.7816358208656311,
				0.7816358208656311
			],
			"translation":[
				2.666576862335205,
				-0.1763431876897812,
				2.686831474304199
			]
		}
	],
	"materials":[
		{
			"doubleSided":true,
			"name":"Signs 2",
			"pbrMetallicRoughness":{
				"baseColorTexture":{
					"index":0
				},
				"metallicFactor":0,
				"roughnessFactor":0.699999988079071
			}
		},
		{
			"doubleSided":true,
			"name":"LowPoly ModelsWorld",
			"pbrMetallicRoughness":{
				"baseColorTexture":{
					"index":1
				},
				"metallicFactor":0,
				"roughnessFactor":0.5
			}
		}
	],
	"meshes":[
		{
			"name":"Sign_35.001",
			"primitives":[
				{
					"attributes":{
						"POSITION":0,
						"NORMAL":1,
						"TEXCOORD_0":2
					},
					"indices":3,
					"material":0
				}
			]
		},
		{
			"name":"Plane.010",
			"primitives":[
				{
					"attributes":{
						"POSITION":4,
						"NORMAL":5,
						"TEXCOORD_0":6
					},
					"indices":7,
					"material":1
				}
			]
		}
	],
	"textures":[
		{
			"extensions":{
				"EXT_texture_webp":{
					"source":0
				}
			},
			"sampler":0,
			"source":1
		},
		{
			"extensions":{
				"EXT_texture_webp":{
					"source":2
				}
			},
			"sampler":0,
			"source":3
		}
	],
	"images":[
		{
			"mimeType":"image/webp",
			"name":"Signs 2",
			"uri":"Signs%202.webp"
		},
		{
			"mimeType":"image/png",
			"name":"Signs 2",
			"uri":"Signs%202.png"
		},
		{
			"mimeType":"image/webp",
			"name":"DCLLPMW-SKFB-COLOR-V1",
			"uri":"DCLLPMW-SKFB-COLOR-V1.webp"
		},
		{
			"mimeType":"image/png",
			"name":"DCLLPMW-SKFB-COLOR-V1",
			"uri":"DCLLPMW-SKFB-COLOR-V1.png"
		}
	],
	"accessors":[
		{
			"bufferView":0,
			"componentType":5126,
			"count":24,
			"max":[
				-9.462237358093262e-07,
				0.20190776884555817,
				0.41936683654785156
			],
			"min":[
				-0.04527924582362175,
				-0.20191140472888947,
				-0.41936710476875305
			],
			"type":"VEC3"
		},
		{
			"bufferView":1,
			"componentType":5126,
			"count":24,
			"type":"VEC3"
		},
		{
			"bufferView":2,
			"componentType":5126,
			"count":24,
			"type":"VEC2"
		},
		{
			"bufferView":3,
			"componentType":5123,
			"count":36,
			"type":"SCALAR"
		},
		{
			"bufferView":4,
			"componentType":5126,
			"count":164,
			"max":[
				0.23443661630153656,
				1.2793720960617065,
				1.2988768815994263
			],
			"min":[
				-0.23443661630153656,
				-0.009600766003131866,
				-1.2863490581512451
			],
			"type":"VEC3"
		},
		{
			"bufferView":5,
			"componentType":5126,
			"count":164,
			"type":"VEC3"
		},
		{
			"bufferView":6,
			"componentType":5126,
			"count":164,
			"type":"VEC2"
		},
		{
			"bufferView":7,
			"componentType":5123,
			"count":528,
			"type":"SCALAR"
		}
	],
	"bufferViews":[
		{
			"buffer":0,
			"byteLength":288,
			"byteOffset":0,
			"target":34962
		},
		{
			"buffer":0,
			"byteLength":288,
			"byteOffset":288,
			"target":34962
		},
		{
			"buffer":0,
			"byteLength":192,
			"byteOffset":576,
			"target":34962
		},
		{
			"buffer":0,
			"byteLength":72,
			"byteOffset":768,
			"target":34963
		},
		{
			"buffer":0,
			"byteLength":1968,
			"byteOffset":840,
			"target":34962
		},
		{
			"buffer":0,
			"byteLength":1968,
			"byteOffset":2808,
			"target":34962
		},
		{
			"buffer":0,
			"byteLength":1312,
			"byteOffset":4776,
			"target":34962
		},
		{
			"buffer":0,
			"byteLength":1056,
			"byteOffset":6088,
			"target":34963
		}
	],
	"samplers":[
		{
			"magFilter":9729,
			"minFilter":9987
		}
	],
	"buffers":[
		{
			"byteLength":7144,
			"uri":"Sign_35.bin"
		}
	]
}
