{
	"asset":{
		"generator":"Khronos glTF Blender I/O v4.1.63",
		"version":"2.0"
	},
	"extensionsUsed":[
		"EXT_texture_webp"
	],
	"scene":0,
	"scenes":[
		{
			"name":"Scene",
			"nodes":[
				0,
				1,
				2,
				3,
				4
			]
		}
	],
	"nodes":[
		{
			"mesh":0,
			"name":"Car_6_Y"
		},
		{
			"mesh":1,
			"name":"RL"
		},
		{
			"mesh":2,
			"name":"FL"
		},
		{
			"mesh":3,
			"name":"RR"
		},
		{
			"mesh":4,
			"name":"FR"
		}
	],
	"materials":[
		{
			"name":"City Car",
			"pbrMetallicRoughness":{
				"baseColorTexture":{
					"index":0
				},
				"metallicFactor":0.34545451402664185,
				"roughnessFactor":0.48181819915771484
			}
		},
		{
			"name":"City Metal",
			"pbrMetallicRoughness":{
				"baseColorTexture":{
					"index":1
				},
				"roughnessFactor":0.2708495557308197
			}
		},
		{
			"name":"City Atlas",
			"pbrMetallicRoughness":{
				"baseColorTexture":{
					"index":2
				},
				"metallicFactor":0
			}
		},
		{
			"name":"Windows",
			"pbrMetallicRoughness":{
				"baseColorTexture":{
					"index":3
				},
				"metallicFactor":0.5454545617103577,
				"roughnessFactor":0.8727272748947144
			}
		}
	],
	"meshes":[
		{
			"name":"Car_6_Y",
			"primitives":[
				{
					"attributes":{
						"POSITION":0,
						"NORMAL":1,
						"TEXCOORD_0":2
					},
					"indices":3,
					"material":0
				},
				{
					"attributes":{
						"POSITION":4,
						"NORMAL":5,
						"TEXCOORD_0":6
					},
					"indices":7,
					"material":1
				},
				{
					"attributes":{
						"POSITION":8,
						"NORMAL":9,
						"TEXCOORD_0":10
					},
					"indices":11,
					"material":2
				},
				{
					"attributes":{
						"POSITION":12,
						"NORMAL":13,
						"TEXCOORD_0":14
					},
					"indices":15,
					"material":3
				}
			]
		},
		{
			"name":"RL",
			"primitives":[
				{
					"attributes":{
						"POSITION":16,
						"NORMAL":17,
						"TEXCOORD_0":18
					},
					"indices":19,
					"material":0
				},
				{
					"attributes":{
						"POSITION":20,
						"NORMAL":21,
						"TEXCOORD_0":22
					},
					"indices":23,
					"material":1
				}
			]
		},
		{
			"name":"FL",
			"primitives":[
				{
					"attributes":{
						"POSITION":24,
						"NORMAL":25,
						"TEXCOORD_0":26
					},
					"indices":27,
					"material":0
				},
				{
					"attributes":{
						"POSITION":28,
						"NORMAL":29,
						"TEXCOORD_0":30
					},
					"indices":31,
					"material":1
				}
			]
		},
		{
			"name":"RR",
			"primitives":[
				{
					"attributes":{
						"POSITION":32,
						"NORMAL":33,
						"TEXCOORD_0":34
					},
					"indices":35,
					"material":0
				},
				{
					"attributes":{
						"POSITION":36,
						"NORMAL":37,
						"TEXCOORD_0":38
					},
					"indices":39,
					"material":1
				}
			]
		},
		{
			"name":"FR",
			"primitives":[
				{
					"attributes":{
						"POSITION":40,
						"NORMAL":41,
						"TEXCOORD_0":42
					},
					"indices":43,
					"material":0
				},
				{
					"attributes":{
						"POSITION":44,
						"NORMAL":45,
						"TEXCOORD_0":46
					},
					"indices":39,
					"material":1
				}
			]
		}
	],
	"textures":[
		{
			"extensions":{
				"EXT_texture_webp":{
					"source":0
				}
			},
			"sampler":0,
			"source":1
		},
		{
			"extensions":{
				"EXT_texture_webp":{
					"source":0
				}
			},
			"sampler":0,
			"source":1
		},
		{
			"extensions":{
				"EXT_texture_webp":{
					"source":0
				}
			},
			"sampler":0,
			"source":1
		},
		{
			"extensions":{
				"EXT_texture_webp":{
					"source":2
				}
			},
			"sampler":0,
			"source":3
		}
	],
	"images":[
		{
			"mimeType":"image/webp",
			"name":"City Atlas Map.png",
			"uri":"City%20Atlas%20Map_png.webp"
		},
		{
			"mimeType":"image/png",
			"name":"City Atlas Map.png",
			"uri":"City%20Atlas%20Map_png.png"
		},
		{
			"mimeType":"image/webp",
			"name":"Windows",
			"uri":"Windows.webp"
		},
		{
			"mimeType":"image/png",
			"name":"Windows",
			"uri":"Windows.png"
		}
	],
	"accessors":[
		{
			"bufferView":0,
			"componentType":5126,
			"count":1383,
			"max":[
				1.5124492645263672,
				1.4815216064453125,
				0.7302810549736023
			],
			"min":[
				-1.5550587177276611,
				-0.00025078654289245605,
				-0.7302810549736023
			],
			"type":"VEC3"
		},
		{
			"bufferView":1,
			"componentType":5126,
			"count":1383,
			"type":"VEC3"
		},
		{
			"bufferView":2,
			"componentType":5126,
			"count":1383,
			"type":"VEC2"
		},
		{
			"bufferView":3,
			"componentType":5123,
			"count":3090,
			"type":"SCALAR"
		},
		{
			"bufferView":4,
			"componentType":5126,
			"count":1104,
			"max":[
				1.5402905941009521,
				0.7621808052062988,
				0.7567936778068542
			],
			"min":[
				-1.517702579498291,
				0.005490750074386597,
				-0.7567936778068542
			],
			"type":"VEC3"
		},
		{
			"bufferView":5,
			"componentType":5126,
			"count":1104,
			"type":"VEC3"
		},
		{
			"bufferView":6,
			"componentType":5126,
			"count":1104,
			"type":"VEC2"
		},
		{
			"bufferView":7,
			"componentType":5123,
			"count":2088,
			"type":"SCALAR"
		},
		{
			"bufferView":8,
			"componentType":5126,
			"count":96,
			"max":[
				1.4296588897705078,
				0.5701135396957397,
				0.5528436899185181
			],
			"min":[
				-1.4880688190460205,
				0.22670552134513855,
				-0.5528436899185181
			],
			"type":"VEC3"
		},
		{
			"bufferView":9,
			"componentType":5126,
			"count":96,
			"type":"VEC3"
		},
		{
			"bufferView":10,
			"componentType":5126,
			"count":96,
			"type":"VEC2"
		},
		{
			"bufferView":11,
			"componentType":5123,
			"count":144,
			"type":"SCALAR"
		},
		{
			"bufferView":12,
			"componentType":5126,
			"count":24,
			"max":[
				0.8013750314712524,
				1.3959991931915283,
				0.5601787567138672
			],
			"min":[
				-0.4822460412979126,
				0.6282169222831726,
				-0.5601787567138672
			],
			"type":"VEC3"
		},
		{
			"bufferView":13,
			"componentType":5126,
			"count":24,
			"type":"VEC3"
		},
		{
			"bufferView":14,
			"componentType":5126,
			"count":24,
			"type":"VEC2"
		},
		{
			"bufferView":15,
			"componentType":5123,
			"count":36,
			"type":"SCALAR"
		},
		{
			"bufferView":16,
			"componentType":5126,
			"count":130,
			"max":[
				1.018984079360962,
				0.26680657267570496,
				0.7282716631889343
			],
			"min":[
				0.49008631706237793,
				-0.23620480298995972,
				0.5748596787452698
			],
			"type":"VEC3"
		},
		{
			"bufferView":17,
			"componentType":5126,
			"count":130,
			"type":"VEC3"
		},
		{
			"bufferView":18,
			"componentType":5126,
			"count":130,
			"type":"VEC2"
		},
		{
			"bufferView":19,
			"componentType":5123,
			"count":324,
			"type":"SCALAR"
		},
		{
			"bufferView":20,
			"componentType":5126,
			"count":94,
			"max":[
				0.8602817058563232,
				0.11587171256542206,
				0.7298268675804138
			],
			"min":[
				0.6487887501716614,
				-0.08526992797851562,
				0.7143681049346924
			],
			"type":"VEC3"
		},
		{
			"bufferView":21,
			"componentType":5126,
			"count":94,
			"type":"VEC3"
		},
		{
			"bufferView":22,
			"componentType":5126,
			"count":94,
			"type":"VEC2"
		},
		{
			"bufferView":23,
			"componentType":5123,
			"count":204,
			"type":"SCALAR"
		},
		{
			"bufferView":24,
			"componentType":5126,
			"count":130,
			"max":[
				-0.4869386553764343,
				0.26680657267570496,
				0.7282716631889343
			],
			"min":[
				-1.015836238861084,
				-0.23620480298995972,
				0.5748596787452698
			],
			"type":"VEC3"
		},
		{
			"bufferView":25,
			"componentType":5126,
			"count":130,
			"type":"VEC3"
		},
		{
			"bufferView":26,
			"componentType":5126,
			"count":130,
			"type":"VEC2"
		},
		{
			"bufferView":27,
			"componentType":5123,
			"count":324,
			"type":"SCALAR"
		},
		{
			"bufferView":28,
			"componentType":5126,
			"count":94,
			"max":[
				-0.6456409692764282,
				0.11587171256542206,
				0.7298268675804138
			],
			"min":[
				-0.8571339845657349,
				-0.08526992797851562,
				0.7143681049346924
			],
			"type":"VEC3"
		},
		{
			"bufferView":29,
			"componentType":5126,
			"count":94,
			"type":"VEC3"
		},
		{
			"bufferView":30,
			"componentType":5126,
			"count":94,
			"type":"VEC2"
		},
		{
			"bufferView":31,
			"componentType":5123,
			"count":204,
			"type":"SCALAR"
		},
		{
			"bufferView":32,
			"componentType":5126,
			"count":130,
			"max":[
				1.018984079360962,
				0.26680657267570496,
				-0.5748599767684937
			],
			"min":[
				0.49008631706237793,
				-0.23620480298995972,
				-0.728272020816803
			],
			"type":"VEC3"
		},
		{
			"bufferView":33,
			"componentType":5126,
			"count":130,
			"type":"VEC3"
		},
		{
			"bufferView":34,
			"componentType":5126,
			"count":130,
			"type":"VEC2"
		},
		{
			"bufferView":35,
			"componentType":5123,
			"count":324,
			"type":"SCALAR"
		},
		{
			"bufferView":36,
			"componentType":5126,
			"count":70,
			"max":[
				0.8602817058563232,
				0.11587171256542206,
				-0.714368462562561
			],
			"min":[
				0.6487887501716614,
				-0.08526992797851562,
				-0.7298272252082825
			],
			"type":"VEC3"
		},
		{
			"bufferView":37,
			"componentType":5126,
			"count":70,
			"type":"VEC3"
		},
		{
			"bufferView":38,
			"componentType":5126,
			"count":70,
			"type":"VEC2"
		},
		{
			"bufferView":39,
			"componentType":5123,
			"count":204,
			"type":"SCALAR"
		},
		{
			"bufferView":40,
			"componentType":5126,
			"count":130,
			"max":[
				-0.4869386553764343,
				0.26680657267570496,
				-0.5748599767684937
			],
			"min":[
				-1.015836238861084,
				-0.23620480298995972,
				-0.728272020816803
			],
			"type":"VEC3"
		},
		{
			"bufferView":41,
			"componentType":5126,
			"count":130,
			"type":"VEC3"
		},
		{
			"bufferView":42,
			"componentType":5126,
			"count":130,
			"type":"VEC2"
		},
		{
			"bufferView":43,
			"componentType":5123,
			"count":324,
			"type":"SCALAR"
		},
		{
			"bufferView":44,
			"componentType":5126,
			"count":70,
			"max":[
				-0.6456409692764282,
				0.11587171256542206,
				-0.714368462562561
			],
			"min":[
				-0.8571339845657349,
				-0.08526992797851562,
				-0.7298272252082825
			],
			"type":"VEC3"
		},
		{
			"bufferView":45,
			"componentType":5126,
			"count":70,
			"type":"VEC3"
		},
		{
			"bufferView":46,
			"componentType":5126,
			"count":70,
			"type":"VEC2"
		}
	],
	"bufferViews":[
		{
			"buffer":0,
			"byteLength":16596,
			"byteOffset":0,
			"target":34962
		},
		{
			"buffer":0,
			"byteLength":16596,
			"byteOffset":16596,
			"target":34962
		},
		{
			"buffer":0,
			"byteLength":11064,
			"byteOffset":33192,
			"target":34962
		},
		{
			"buffer":0,
			"byteLength":6180,
			"byteOffset":44256,
			"target":34963
		},
		{
			"buffer":0,
			"byteLength":13248,
			"byteOffset":50436,
			"target":34962
		},
		{
			"buffer":0,
			"byteLength":13248,
			"byteOffset":63684,
			"target":34962
		},
		{
			"buffer":0,
			"byteLength":8832,
			"byteOffset":76932,
			"target":34962
		},
		{
			"buffer":0,
			"byteLength":4176,
			"byteOffset":85764,
			"target":34963
		},
		{
			"buffer":0,
			"byteLength":1152,
			"byteOffset":89940,
			"target":34962
		},
		{
			"buffer":0,
			"byteLength":1152,
			"byteOffset":91092,
			"target":34962
		},
		{
			"buffer":0,
			"byteLength":768,
			"byteOffset":92244,
			"target":34962
		},
		{
			"buffer":0,
			"byteLength":288,
			"byteOffset":93012,
			"target":34963
		},
		{
			"buffer":0,
			"byteLength":288,
			"byteOffset":93300,
			"target":34962
		},
		{
			"buffer":0,
			"byteLength":288,
			"byteOffset":93588,
			"target":34962
		},
		{
			"buffer":0,
			"byteLength":192,
			"byteOffset":93876,
			"target":34962
		},
		{
			"buffer":0,
			"byteLength":72,
			"byteOffset":94068,
			"target":34963
		},
		{
			"buffer":0,
			"byteLength":1560,
			"byteOffset":94140,
			"target":34962
		},
		{
			"buffer":0,
			"byteLength":1560,
			"byteOffset":95700,
			"target":34962
		},
		{
			"buffer":0,
			"byteLength":1040,
			"byteOffset":97260,
			"target":34962
		},
		{
			"buffer":0,
			"byteLength":648,
			"byteOffset":98300,
			"target":34963
		},
		{
			"buffer":0,
			"byteLength":1128,
			"byteOffset":98948,
			"target":34962
		},
		{
			"buffer":0,
			"byteLength":1128,
			"byteOffset":100076,
			"target":34962
		},
		{
			"buffer":0,
			"byteLength":752,
			"byteOffset":101204,
			"target":34962
		},
		{
			"buffer":0,
			"byteLength":408,
			"byteOffset":101956,
			"target":34963
		},
		{
			"buffer":0,
			"byteLength":1560,
			"byteOffset":102364,
			"target":34962
		},
		{
			"buffer":0,
			"byteLength":1560,
			"byteOffset":103924,
			"target":34962
		},
		{
			"buffer":0,
			"byteLength":1040,
			"byteOffset":105484,
			"target":34962
		},
		{
			"buffer":0,
			"byteLength":648,
			"byteOffset":106524,
			"target":34963
		},
		{
			"buffer":0,
			"byteLength":1128,
			"byteOffset":107172,
			"target":34962
		},
		{
			"buffer":0,
			"byteLength":1128,
			"byteOffset":108300,
			"target":34962
		},
		{
			"buffer":0,
			"byteLength":752,
			"byteOffset":109428,
			"target":34962
		},
		{
			"buffer":0,
			"byteLength":408,
			"byteOffset":110180,
			"target":34963
		},
		{
			"buffer":0,
			"byteLength":1560,
			"byteOffset":110588,
			"target":34962
		},
		{
			"buffer":0,
			"byteLength":1560,
			"byteOffset":112148,
			"target":34962
		},
		{
			"buffer":0,
			"byteLength":1040,
			"byteOffset":113708,
			"target":34962
		},
		{
			"buffer":0,
			"byteLength":648,
			"byteOffset":114748,
			"target":34963
		},
		{
			"buffer":0,
			"byteLength":840,
			"byteOffset":115396,
			"target":34962
		},
		{
			"buffer":0,
			"byteLength":840,
			"byteOffset":116236,
			"target":34962
		},
		{
			"buffer":0,
			"byteLength":560,
			"byteOffset":117076,
			"target":34962
		},
		{
			"buffer":0,
			"byteLength":408,
			"byteOffset":117636,
			"target":34963
		},
		{
			"buffer":0,
			"byteLength":1560,
			"byteOffset":118044,
			"target":34962
		},
		{
			"buffer":0,
			"byteLength":1560,
			"byteOffset":119604,
			"target":34962
		},
		{
			"buffer":0,
			"byteLength":1040,
			"byteOffset":121164,
			"target":34962
		},
		{
			"buffer":0,
			"byteLength":648,
			"byteOffset":122204,
			"target":34963
		},
		{
			"buffer":0,
			"byteLength":840,
			"byteOffset":122852,
			"target":34962
		},
		{
			"buffer":0,
			"byteLength":840,
			"byteOffset":123692,
			"target":34962
		},
		{
			"buffer":0,
			"byteLength":560,
			"byteOffset":124532,
			"target":34962
		}
	],
	"samplers":[
		{
			"magFilter":9729,
			"minFilter":9987
		}
	],
	"buffers":[
		{
			"byteLength":125092,
			"uri":"Car_6_Y.bin"
		}
	]
}
