{
	"asset":{
		"generator":"Khronos glTF Blender I/O v4.1.63",
		"version":"2.0"
	},
	"extensionsUsed":[
		"EXT_texture_webp"
	],
	"scene":0,
	"scenes":[
		{
			"name":"Scene",
			"nodes":[
				0,
				1,
				2,
				3,
				4
			]
		}
	],
	"nodes":[
		{
			"mesh":0,
			"name":"Ambulance_2_B"
		},
		{
			"mesh":1,
			"name":"FL",
			"translation":[
				-1.2573778629302979,
				0.04853466898202896,
				0.7900034189224243
			]
		},
		{
			"mesh":2,
			"name":"RL",
			"translation":[
				1.242935299873352,
				0.04853464663028717,
				0.7900037169456482
			]
		},
		{
			"mesh":3,
			"name":"FR",
			"translation":[
				-1.2573778629302979,
				0.04853464663028717,
				-0.7544681429862976
			]
		},
		{
			"mesh":4,
			"name":"RR",
			"translation":[
				1.242935299873352,
				0.04853464663028717,
				-0.7544680237770081
			]
		}
	],
	"materials":[
		{
			"name":"City Car",
			"pbrMetallicRoughness":{
				"baseColorTexture":{
					"index":0
				},
				"metallicFactor":0.34545451402664185,
				"roughnessFactor":0.48181819915771484
			}
		},
		{
			"name":"City Metal",
			"pbrMetallicRoughness":{
				"baseColorTexture":{
					"index":1
				},
				"roughnessFactor":0.2708495557308197
			}
		},
		{
			"name":"Windows",
			"pbrMetallicRoughness":{
				"baseColorTexture":{
					"index":2
				},
				"metallicFactor":0.5454545617103577,
				"roughnessFactor":0.8727272748947144
			}
		},
		{
			"name":"City Atlas",
			"pbrMetallicRoughness":{
				"baseColorTexture":{
					"index":3
				},
				"metallicFactor":0
			}
		}
	],
	"meshes":[
		{
			"name":"Ambulance_2_B",
			"primitives":[
				{
					"attributes":{
						"POSITION":0,
						"NORMAL":1,
						"TEXCOORD_0":2
					},
					"indices":3,
					"material":0
				},
				{
					"attributes":{
						"POSITION":4,
						"NORMAL":5,
						"TEXCOORD_0":6
					},
					"indices":7,
					"material":1
				},
				{
					"attributes":{
						"POSITION":8,
						"NORMAL":9,
						"TEXCOORD_0":10
					},
					"indices":11,
					"material":2
				},
				{
					"attributes":{
						"POSITION":12,
						"NORMAL":13,
						"TEXCOORD_0":14
					},
					"indices":15,
					"material":3
				}
			]
		},
		{
			"name":"FL",
			"primitives":[
				{
					"attributes":{
						"POSITION":16,
						"NORMAL":17,
						"TEXCOORD_0":18
					},
					"indices":19,
					"material":0
				},
				{
					"attributes":{
						"POSITION":20,
						"NORMAL":21,
						"TEXCOORD_0":22
					},
					"indices":23,
					"material":1
				}
			]
		},
		{
			"name":"RL",
			"primitives":[
				{
					"attributes":{
						"POSITION":24,
						"NORMAL":25,
						"TEXCOORD_0":26
					},
					"indices":27,
					"material":0
				},
				{
					"attributes":{
						"POSITION":28,
						"NORMAL":29,
						"TEXCOORD_0":30
					},
					"indices":31,
					"material":1
				}
			]
		},
		{
			"name":"FR",
			"primitives":[
				{
					"attributes":{
						"POSITION":32,
						"NORMAL":33,
						"TEXCOORD_0":34
					},
					"indices":35,
					"material":0
				},
				{
					"attributes":{
						"POSITION":36,
						"NORMAL":37,
						"TEXCOORD_0":38
					},
					"indices":39,
					"material":1
				}
			]
		},
		{
			"name":"RR",
			"primitives":[
				{
					"attributes":{
						"POSITION":40,
						"NORMAL":41,
						"TEXCOORD_0":42
					},
					"indices":35,
					"material":0
				},
				{
					"attributes":{
						"POSITION":43,
						"NORMAL":44,
						"TEXCOORD_0":45
					},
					"indices":39,
					"material":1
				}
			]
		}
	],
	"textures":[
		{
			"extensions":{
				"EXT_texture_webp":{
					"source":0
				}
			},
			"sampler":0,
			"source":1
		},
		{
			"extensions":{
				"EXT_texture_webp":{
					"source":0
				}
			},
			"sampler":0,
			"source":1
		},
		{
			"extensions":{
				"EXT_texture_webp":{
					"source":2
				}
			},
			"sampler":0,
			"source":3
		},
		{
			"extensions":{
				"EXT_texture_webp":{
					"source":0
				}
			},
			"sampler":0,
			"source":1
		}
	],
	"images":[
		{
			"mimeType":"image/webp",
			"name":"City Atlas Map.png",
			"uri":"City%20Atlas%20Map_png.webp"
		},
		{
			"mimeType":"image/png",
			"name":"City Atlas Map.png",
			"uri":"City%20Atlas%20Map_png.png"
		},
		{
			"mimeType":"image/webp",
			"name":"Windows",
			"uri":"Windows.webp"
		},
		{
			"mimeType":"image/png",
			"name":"Windows",
			"uri":"Windows.png"
		}
	],
	"accessors":[
		{
			"bufferView":0,
			"componentType":5126,
			"count":1236,
			"max":[
				1.959895133972168,
				1.7934458255767822,
				0.8394536972045898
			],
			"min":[
				-1.820078730583191,
				2.73803513195503e-09,
				-0.839453399181366
			],
			"type":"VEC3"
		},
		{
			"bufferView":1,
			"componentType":5126,
			"count":1236,
			"type":"VEC3"
		},
		{
			"bufferView":2,
			"componentType":5126,
			"count":1236,
			"type":"VEC2"
		},
		{
			"bufferView":3,
			"componentType":5123,
			"count":2610,
			"type":"SCALAR"
		},
		{
			"bufferView":4,
			"componentType":5126,
			"count":1064,
			"max":[
				2.12374210357666,
				1.2319698333740234,
				0.8362088203430176
			],
			"min":[
				-1.9514340162277222,
				0.10922805964946747,
				-0.8006735444068909
			],
			"type":"VEC3"
		},
		{
			"bufferView":5,
			"componentType":5126,
			"count":1064,
			"type":"VEC3"
		},
		{
			"bufferView":6,
			"componentType":5126,
			"count":1064,
			"type":"VEC2"
		},
		{
			"bufferView":7,
			"componentType":5123,
			"count":2160,
			"type":"SCALAR"
		},
		{
			"bufferView":8,
			"componentType":5126,
			"count":24,
			"max":[
				1.8384573459625244,
				1.5835579633712769,
				0.6534380316734314
			],
			"min":[
				-0.9913305640220642,
				0.8964777588844299,
				-0.6529039740562439
			],
			"type":"VEC3"
		},
		{
			"bufferView":9,
			"componentType":5126,
			"count":24,
			"type":"VEC3"
		},
		{
			"bufferView":10,
			"componentType":5126,
			"count":24,
			"type":"VEC2"
		},
		{
			"bufferView":11,
			"componentType":5123,
			"count":42,
			"type":"SCALAR"
		},
		{
			"bufferView":12,
			"componentType":5126,
			"count":410,
			"max":[
				1.9869154691696167,
				0.786912202835083,
				0.7316018342971802
			],
			"min":[
				-1.8916516304016113,
				0.29818135499954224,
				-0.6960667371749878
			],
			"type":"VEC3"
		},
		{
			"bufferView":13,
			"componentType":5126,
			"count":410,
			"type":"VEC3"
		},
		{
			"bufferView":14,
			"componentType":5126,
			"count":410,
			"type":"VEC2"
		},
		{
			"bufferView":15,
			"componentType":5123,
			"count":1200,
			"type":"SCALAR"
		},
		{
			"bufferView":16,
			"componentType":5126,
			"count":132,
			"max":[
				0.253644734621048,
				0.24122998118400574,
				0.03427083045244217
			],
			"min":[
				-0.2536441385746002,
				-0.2412300556898117,
				-0.09954790771007538
			],
			"type":"VEC3"
		},
		{
			"bufferView":17,
			"componentType":5126,
			"count":132,
			"type":"VEC3"
		},
		{
			"bufferView":18,
			"componentType":5126,
			"count":132,
			"type":"VEC2"
		},
		{
			"bufferView":19,
			"componentType":5123,
			"count":324,
			"type":"SCALAR"
		},
		{
			"bufferView":20,
			"componentType":5126,
			"count":70,
			"max":[
				0.1304723173379898,
				0.12408623844385147,
				0.03378481790423393
			],
			"min":[
				-0.1304716169834137,
				-0.12408626079559326,
				0.016950055956840515
			],
			"type":"VEC3"
		},
		{
			"bufferView":21,
			"componentType":5126,
			"count":70,
			"type":"VEC3"
		},
		{
			"bufferView":22,
			"componentType":5126,
			"count":70,
			"type":"VEC2"
		},
		{
			"bufferView":23,
			"componentType":5123,
			"count":204,
			"type":"SCALAR"
		},
		{
			"bufferView":24,
			"componentType":5126,
			"count":132,
			"max":[
				0.2536443769931793,
				0.24123001098632812,
				0.03427055478096008
			],
			"min":[
				-0.2536444664001465,
				-0.24123002588748932,
				-0.09954817593097687
			],
			"type":"VEC3"
		},
		{
			"bufferView":25,
			"componentType":5126,
			"count":132,
			"type":"VEC3"
		},
		{
			"bufferView":26,
			"componentType":5126,
			"count":132,
			"type":"VEC2"
		},
		{
			"bufferView":27,
			"componentType":5123,
			"count":324,
			"type":"SCALAR"
		},
		{
			"bufferView":28,
			"componentType":5126,
			"count":70,
			"max":[
				0.13047197461128235,
				0.12408626079559326,
				0.03378446772694588
			],
			"min":[
				-0.13047197461128235,
				-0.12408623844385147,
				0.01694970577955246
			],
			"type":"VEC3"
		},
		{
			"bufferView":29,
			"componentType":5126,
			"count":70,
			"type":"VEC3"
		},
		{
			"bufferView":30,
			"componentType":5126,
			"count":70,
			"type":"VEC2"
		},
		{
			"bufferView":31,
			"componentType":5123,
			"count":204,
			"type":"SCALAR"
		},
		{
			"bufferView":32,
			"componentType":5126,
			"count":132,
			"max":[
				0.253644734621048,
				0.24123001098632812,
				0.09954776614904404
			],
			"min":[
				-0.2536441385746002,
				-0.24123002588748932,
				-0.03427083045244217
			],
			"type":"VEC3"
		},
		{
			"bufferView":33,
			"componentType":5126,
			"count":132,
			"type":"VEC3"
		},
		{
			"bufferView":34,
			"componentType":5126,
			"count":132,
			"type":"VEC2"
		},
		{
			"bufferView":35,
			"componentType":5123,
			"count":324,
			"type":"SCALAR"
		},
		{
			"bufferView":36,
			"componentType":5126,
			"count":70,
			"max":[
				0.1304723173379898,
				0.12408626079559326,
				-0.016950055956840515
			],
			"min":[
				-0.1304716169834137,
				-0.12408623844385147,
				-0.03378481790423393
			],
			"type":"VEC3"
		},
		{
			"bufferView":37,
			"componentType":5126,
			"count":70,
			"type":"VEC3"
		},
		{
			"bufferView":38,
			"componentType":5126,
			"count":70,
			"type":"VEC2"
		},
		{
			"bufferView":39,
			"componentType":5123,
			"count":204,
			"type":"SCALAR"
		},
		{
			"bufferView":40,
			"componentType":5126,
			"count":132,
			"max":[
				0.2536443769931793,
				0.24123001098632812,
				0.09954764693975449
			],
			"min":[
				-0.2536444664001465,
				-0.24123002588748932,
				-0.0342710055410862
			],
			"type":"VEC3"
		},
		{
			"bufferView":41,
			"componentType":5126,
			"count":132,
			"type":"VEC3"
		},
		{
			"bufferView":42,
			"componentType":5126,
			"count":132,
			"type":"VEC2"
		},
		{
			"bufferView":43,
			"componentType":5126,
			"count":70,
			"max":[
				0.13047197461128235,
				0.12408626079559326,
				-0.016950231045484543
			],
			"min":[
				-0.13047197461128235,
				-0.12408623844385147,
				-0.03378499299287796
			],
			"type":"VEC3"
		},
		{
			"bufferView":44,
			"componentType":5126,
			"count":70,
			"type":"VEC3"
		},
		{
			"bufferView":45,
			"componentType":5126,
			"count":70,
			"type":"VEC2"
		}
	],
	"bufferViews":[
		{
			"buffer":0,
			"byteLength":14832,
			"byteOffset":0,
			"target":34962
		},
		{
			"buffer":0,
			"byteLength":14832,
			"byteOffset":14832,
			"target":34962
		},
		{
			"buffer":0,
			"byteLength":9888,
			"byteOffset":29664,
			"target":34962
		},
		{
			"buffer":0,
			"byteLength":5220,
			"byteOffset":39552,
			"target":34963
		},
		{
			"buffer":0,
			"byteLength":12768,
			"byteOffset":44772,
			"target":34962
		},
		{
			"buffer":0,
			"byteLength":12768,
			"byteOffset":57540,
			"target":34962
		},
		{
			"buffer":0,
			"byteLength":8512,
			"byteOffset":70308,
			"target":34962
		},
		{
			"buffer":0,
			"byteLength":4320,
			"byteOffset":78820,
			"target":34963
		},
		{
			"buffer":0,
			"byteLength":288,
			"byteOffset":83140,
			"target":34962
		},
		{
			"buffer":0,
			"byteLength":288,
			"byteOffset":83428,
			"target":34962
		},
		{
			"buffer":0,
			"byteLength":192,
			"byteOffset":83716,
			"target":34962
		},
		{
			"buffer":0,
			"byteLength":84,
			"byteOffset":83908,
			"target":34963
		},
		{
			"buffer":0,
			"byteLength":4920,
			"byteOffset":83992,
			"target":34962
		},
		{
			"buffer":0,
			"byteLength":4920,
			"byteOffset":88912,
			"target":34962
		},
		{
			"buffer":0,
			"byteLength":3280,
			"byteOffset":93832,
			"target":34962
		},
		{
			"buffer":0,
			"byteLength":2400,
			"byteOffset":97112,
			"target":34963
		},
		{
			"buffer":0,
			"byteLength":1584,
			"byteOffset":99512,
			"target":34962
		},
		{
			"buffer":0,
			"byteLength":1584,
			"byteOffset":101096,
			"target":34962
		},
		{
			"buffer":0,
			"byteLength":1056,
			"byteOffset":102680,
			"target":34962
		},
		{
			"buffer":0,
			"byteLength":648,
			"byteOffset":103736,
			"target":34963
		},
		{
			"buffer":0,
			"byteLength":840,
			"byteOffset":104384,
			"target":34962
		},
		{
			"buffer":0,
			"byteLength":840,
			"byteOffset":105224,
			"target":34962
		},
		{
			"buffer":0,
			"byteLength":560,
			"byteOffset":106064,
			"target":34962
		},
		{
			"buffer":0,
			"byteLength":408,
			"byteOffset":106624,
			"target":34963
		},
		{
			"buffer":0,
			"byteLength":1584,
			"byteOffset":107032,
			"target":34962
		},
		{
			"buffer":0,
			"byteLength":1584,
			"byteOffset":108616,
			"target":34962
		},
		{
			"buffer":0,
			"byteLength":1056,
			"byteOffset":110200,
			"target":34962
		},
		{
			"buffer":0,
			"byteLength":648,
			"byteOffset":111256,
			"target":34963
		},
		{
			"buffer":0,
			"byteLength":840,
			"byteOffset":111904,
			"target":34962
		},
		{
			"buffer":0,
			"byteLength":840,
			"byteOffset":112744,
			"target":34962
		},
		{
			"buffer":0,
			"byteLength":560,
			"byteOffset":113584,
			"target":34962
		},
		{
			"buffer":0,
			"byteLength":408,
			"byteOffset":114144,
			"target":34963
		},
		{
			"buffer":0,
			"byteLength":1584,
			"byteOffset":114552,
			"target":34962
		},
		{
			"buffer":0,
			"byteLength":1584,
			"byteOffset":116136,
			"target":34962
		},
		{
			"buffer":0,
			"byteLength":1056,
			"byteOffset":117720,
			"target":34962
		},
		{
			"buffer":0,
			"byteLength":648,
			"byteOffset":118776,
			"target":34963
		},
		{
			"buffer":0,
			"byteLength":840,
			"byteOffset":119424,
			"target":34962
		},
		{
			"buffer":0,
			"byteLength":840,
			"byteOffset":120264,
			"target":34962
		},
		{
			"buffer":0,
			"byteLength":560,
			"byteOffset":121104,
			"target":34962
		},
		{
			"buffer":0,
			"byteLength":408,
			"byteOffset":121664,
			"target":34963
		},
		{
			"buffer":0,
			"byteLength":1584,
			"byteOffset":122072,
			"target":34962
		},
		{
			"buffer":0,
			"byteLength":1584,
			"byteOffset":123656,
			"target":34962
		},
		{
			"buffer":0,
			"byteLength":1056,
			"byteOffset":125240,
			"target":34962
		},
		{
			"buffer":0,
			"byteLength":840,
			"byteOffset":126296,
			"target":34962
		},
		{
			"buffer":0,
			"byteLength":840,
			"byteOffset":127136,
			"target":34962
		},
		{
			"buffer":0,
			"byteLength":560,
			"byteOffset":127976,
			"target":34962
		}
	],
	"samplers":[
		{
			"magFilter":9729,
			"minFilter":9987
		}
	],
	"buffers":[
		{
			"byteLength":128536,
			"uri":"Ambulance_2_B.bin"
		}
	]
}
