{
	"asset":{
		"generator":"Khronos glTF Blender I/O v4.1.63",
		"version":"2.0"
	},
	"extensionsUsed":[
		"EXT_texture_webp"
	],
	"scene":0,
	"scenes":[
		{
			"name":"Scene",
			"nodes":[
				0,
				1,
				2,
				3,
				4
			]
		}
	],
	"nodes":[
		{
			"mesh":0,
			"name":"Ambulance_1_A"
		},
		{
			"mesh":1,
			"name":"FL",
			"translation":[
				-0.6136358380317688,
				0.009606203064322472,
				0.6844437718391418
			]
		},
		{
			"mesh":2,
			"name":"RL",
			"translation":[
				0.6133601665496826,
				0.009606205858290195,
				0.684444010257721
			]
		},
		{
			"mesh":3,
			"name":"FR",
			"translation":[
				-0.613635778427124,
				0.00960620492696762,
				-0.684444010257721
			]
		},
		{
			"mesh":4,
			"name":"RR",
			"translation":[
				0.6133601665496826,
				0.009606205858290195,
				-0.684444010257721
			]
		}
	],
	"materials":[
		{
			"name":"City Atlas",
			"pbrMetallicRoughness":{
				"baseColorTexture":{
					"index":0
				},
				"metallicFactor":0
			}
		},
		{
			"name":"City Metal",
			"pbrMetallicRoughness":{
				"baseColorTexture":{
					"index":1
				},
				"roughnessFactor":0.2708495557308197
			}
		},
		{
			"name":"City Car",
			"pbrMetallicRoughness":{
				"baseColorTexture":{
					"index":2
				},
				"metallicFactor":0.34545451402664185,
				"roughnessFactor":0.48181819915771484
			}
		},
		{
			"name":"Windows",
			"pbrMetallicRoughness":{
				"baseColorTexture":{
					"index":3
				},
				"metallicFactor":0.5454545617103577,
				"roughnessFactor":0.8727272748947144
			}
		}
	],
	"meshes":[
		{
			"name":"Ambulance_1_A",
			"primitives":[
				{
					"attributes":{
						"POSITION":0,
						"NORMAL":1,
						"TEXCOORD_0":2
					},
					"indices":3,
					"material":0
				},
				{
					"attributes":{
						"POSITION":4,
						"NORMAL":5,
						"TEXCOORD_0":6
					},
					"indices":7,
					"material":1
				},
				{
					"attributes":{
						"POSITION":8,
						"NORMAL":9,
						"TEXCOORD_0":10
					},
					"indices":11,
					"material":2
				},
				{
					"attributes":{
						"POSITION":12,
						"NORMAL":13,
						"TEXCOORD_0":14
					},
					"indices":15,
					"material":3
				}
			]
		},
		{
			"name":"FL",
			"primitives":[
				{
					"attributes":{
						"POSITION":16,
						"NORMAL":17,
						"TEXCOORD_0":18
					},
					"indices":19,
					"material":1
				},
				{
					"attributes":{
						"POSITION":20,
						"NORMAL":21,
						"TEXCOORD_0":22
					},
					"indices":23,
					"material":2
				}
			]
		},
		{
			"name":"RL",
			"primitives":[
				{
					"attributes":{
						"POSITION":24,
						"NORMAL":25,
						"TEXCOORD_0":26
					},
					"indices":27,
					"material":1
				},
				{
					"attributes":{
						"POSITION":28,
						"NORMAL":29,
						"TEXCOORD_0":30
					},
					"indices":31,
					"material":2
				}
			]
		},
		{
			"name":"FR",
			"primitives":[
				{
					"attributes":{
						"POSITION":32,
						"NORMAL":33,
						"TEXCOORD_0":34
					},
					"indices":35,
					"material":1
				},
				{
					"attributes":{
						"POSITION":36,
						"NORMAL":37,
						"TEXCOORD_0":38
					},
					"indices":39,
					"material":2
				}
			]
		},
		{
			"name":"RR",
			"primitives":[
				{
					"attributes":{
						"POSITION":40,
						"NORMAL":41,
						"TEXCOORD_0":42
					},
					"indices":35,
					"material":1
				},
				{
					"attributes":{
						"POSITION":43,
						"NORMAL":44,
						"TEXCOORD_0":45
					},
					"indices":39,
					"material":2
				}
			]
		}
	],
	"textures":[
		{
			"extensions":{
				"EXT_texture_webp":{
					"source":0
				}
			},
			"sampler":0,
			"source":1
		},
		{
			"extensions":{
				"EXT_texture_webp":{
					"source":0
				}
			},
			"sampler":0,
			"source":1
		},
		{
			"extensions":{
				"EXT_texture_webp":{
					"source":0
				}
			},
			"sampler":0,
			"source":1
		},
		{
			"extensions":{
				"EXT_texture_webp":{
					"source":2
				}
			},
			"sampler":0,
			"source":3
		}
	],
	"images":[
		{
			"mimeType":"image/webp",
			"name":"City Atlas Map.png",
			"uri":"City%20Atlas%20Map_png.webp"
		},
		{
			"mimeType":"image/png",
			"name":"City Atlas Map.png",
			"uri":"City%20Atlas%20Map_png.png"
		},
		{
			"mimeType":"image/webp",
			"name":"Windows",
			"uri":"Windows.webp"
		},
		{
			"mimeType":"image/png",
			"name":"Windows",
			"uri":"Windows.png"
		}
	],
	"accessors":[
		{
			"bufferView":0,
			"componentType":5126,
			"count":863,
			"max":[
				1.3916726112365723,
				0.7705248594284058,
				0.7436251640319824
			],
			"min":[
				-1.3004035949707031,
				-0.00022045522928237915,
				-0.7436251044273376
			],
			"type":"VEC3"
		},
		{
			"bufferView":1,
			"componentType":5126,
			"count":863,
			"type":"VEC3"
		},
		{
			"bufferView":2,
			"componentType":5126,
			"count":863,
			"type":"VEC2"
		},
		{
			"bufferView":3,
			"componentType":5123,
			"count":2145,
			"type":"SCALAR"
		},
		{
			"bufferView":4,
			"componentType":5126,
			"count":1634,
			"max":[
				1.4519429206848145,
				1.1742888689041138,
				0.8990495204925537
			],
			"min":[
				-1.2812554836273193,
				-0.038754113018512726,
				-0.8990495204925537
			],
			"type":"VEC3"
		},
		{
			"bufferView":5,
			"componentType":5126,
			"count":1634,
			"type":"VEC3"
		},
		{
			"bufferView":6,
			"componentType":5126,
			"count":1634,
			"type":"VEC2"
		},
		{
			"bufferView":7,
			"componentType":5123,
			"count":3294,
			"type":"SCALAR"
		},
		{
			"bufferView":8,
			"componentType":5126,
			"count":718,
			"max":[
				1.4137868881225586,
				1.9785782098770142,
				0.7407321333885193
			],
			"min":[
				-1.1943440437316895,
				0.014010295271873474,
				-0.740731954574585
			],
			"type":"VEC3"
		},
		{
			"bufferView":9,
			"componentType":5126,
			"count":718,
			"type":"VEC3"
		},
		{
			"bufferView":10,
			"componentType":5126,
			"count":718,
			"type":"VEC2"
		},
		{
			"bufferView":11,
			"componentType":5123,
			"count":1563,
			"type":"SCALAR"
		},
		{
			"bufferView":12,
			"componentType":5126,
			"count":40,
			"max":[
				1.334655523300171,
				1.625063180923462,
				0.6599246859550476
			],
			"min":[
				-0.611670196056366,
				0.8610620498657227,
				-0.6599246859550476
			],
			"type":"VEC3"
		},
		{
			"bufferView":13,
			"componentType":5126,
			"count":40,
			"type":"VEC3"
		},
		{
			"bufferView":14,
			"componentType":5126,
			"count":40,
			"type":"VEC2"
		},
		{
			"bufferView":15,
			"componentType":5123,
			"count":84,
			"type":"SCALAR"
		},
		{
			"bufferView":16,
			"componentType":5126,
			"count":70,
			"max":[
				0.13803601264953613,
				0.1312798112630844,
				0.039485275745391846
			],
			"min":[
				-0.13803565502166748,
				-0.1312798112630844,
				0.0198097825050354
			],
			"type":"VEC3"
		},
		{
			"bufferView":17,
			"componentType":5126,
			"count":70,
			"type":"VEC3"
		},
		{
			"bufferView":18,
			"componentType":5126,
			"count":70,
			"type":"VEC2"
		},
		{
			"bufferView":19,
			"componentType":5123,
			"count":204,
			"type":"SCALAR"
		},
		{
			"bufferView":20,
			"componentType":5126,
			"count":132,
			"max":[
				0.2683488130569458,
				0.2552146017551422,
				0.040053367614746094
			],
			"min":[
				-0.26834845542907715,
				-0.2552146911621094,
				-0.11634629964828491
			],
			"type":"VEC3"
		},
		{
			"bufferView":21,
			"componentType":5126,
			"count":132,
			"type":"VEC3"
		},
		{
			"bufferView":22,
			"componentType":5126,
			"count":132,
			"type":"VEC2"
		},
		{
			"bufferView":23,
			"componentType":5123,
			"count":324,
			"type":"SCALAR"
		},
		{
			"bufferView":24,
			"componentType":5126,
			"count":70,
			"max":[
				0.1380358338356018,
				0.13127979636192322,
				0.039485037326812744
			],
			"min":[
				-0.13803568482398987,
				-0.1312798261642456,
				0.0198095440864563
			],
			"type":"VEC3"
		},
		{
			"bufferView":25,
			"componentType":5126,
			"count":70,
			"type":"VEC3"
		},
		{
			"bufferView":26,
			"componentType":5126,
			"count":70,
			"type":"VEC2"
		},
		{
			"bufferView":27,
			"componentType":5123,
			"count":204,
			"type":"SCALAR"
		},
		{
			"bufferView":28,
			"componentType":5126,
			"count":132,
			"max":[
				0.2683485150337219,
				0.2552146017551422,
				0.04005312919616699
			],
			"min":[
				-0.2683486044406891,
				-0.2552146911621094,
				-0.11634653806686401
			],
			"type":"VEC3"
		},
		{
			"bufferView":29,
			"componentType":5126,
			"count":132,
			"type":"VEC3"
		},
		{
			"bufferView":30,
			"componentType":5126,
			"count":132,
			"type":"VEC2"
		},
		{
			"bufferView":31,
			"componentType":5123,
			"count":324,
			"type":"SCALAR"
		},
		{
			"bufferView":32,
			"componentType":5126,
			"count":70,
			"max":[
				0.13803595304489136,
				0.13127979636192322,
				-0.0198095440864563
			],
			"min":[
				-0.13803571462631226,
				-0.1312798261642456,
				-0.039485037326812744
			],
			"type":"VEC3"
		},
		{
			"bufferView":33,
			"componentType":5126,
			"count":70,
			"type":"VEC3"
		},
		{
			"bufferView":34,
			"componentType":5126,
			"count":70,
			"type":"VEC2"
		},
		{
			"bufferView":35,
			"componentType":5123,
			"count":204,
			"type":"SCALAR"
		},
		{
			"bufferView":36,
			"componentType":5126,
			"count":132,
			"max":[
				0.268348753452301,
				0.2552146017551422,
				0.11634653806686401
			],
			"min":[
				-0.2683485150337219,
				-0.2552146911621094,
				-0.04005312919616699
			],
			"type":"VEC3"
		},
		{
			"bufferView":37,
			"componentType":5126,
			"count":132,
			"type":"VEC3"
		},
		{
			"bufferView":38,
			"componentType":5126,
			"count":132,
			"type":"VEC2"
		},
		{
			"bufferView":39,
			"componentType":5123,
			"count":324,
			"type":"SCALAR"
		},
		{
			"bufferView":40,
			"componentType":5126,
			"count":70,
			"max":[
				0.1380358338356018,
				0.13127979636192322,
				-0.0198095440864563
			],
			"min":[
				-0.13803568482398987,
				-0.1312798261642456,
				-0.039485037326812744
			],
			"type":"VEC3"
		},
		{
			"bufferView":41,
			"componentType":5126,
			"count":70,
			"type":"VEC3"
		},
		{
			"bufferView":42,
			"componentType":5126,
			"count":70,
			"type":"VEC2"
		},
		{
			"bufferView":43,
			"componentType":5126,
			"count":132,
			"max":[
				0.2683485150337219,
				0.2552146017551422,
				0.11634653806686401
			],
			"min":[
				-0.2683486044406891,
				-0.2552146911621094,
				-0.04005312919616699
			],
			"type":"VEC3"
		},
		{
			"bufferView":44,
			"componentType":5126,
			"count":132,
			"type":"VEC3"
		},
		{
			"bufferView":45,
			"componentType":5126,
			"count":132,
			"type":"VEC2"
		}
	],
	"bufferViews":[
		{
			"buffer":0,
			"byteLength":10356,
			"byteOffset":0,
			"target":34962
		},
		{
			"buffer":0,
			"byteLength":10356,
			"byteOffset":10356,
			"target":34962
		},
		{
			"buffer":0,
			"byteLength":6904,
			"byteOffset":20712,
			"target":34962
		},
		{
			"buffer":0,
			"byteLength":4290,
			"byteOffset":27616,
			"target":34963
		},
		{
			"buffer":0,
			"byteLength":19608,
			"byteOffset":31908,
			"target":34962
		},
		{
			"buffer":0,
			"byteLength":19608,
			"byteOffset":51516,
			"target":34962
		},
		{
			"buffer":0,
			"byteLength":13072,
			"byteOffset":71124,
			"target":34962
		},
		{
			"buffer":0,
			"byteLength":6588,
			"byteOffset":84196,
			"target":34963
		},
		{
			"buffer":0,
			"byteLength":8616,
			"byteOffset":90784,
			"target":34962
		},
		{
			"buffer":0,
			"byteLength":8616,
			"byteOffset":99400,
			"target":34962
		},
		{
			"buffer":0,
			"byteLength":5744,
			"byteOffset":108016,
			"target":34962
		},
		{
			"buffer":0,
			"byteLength":3126,
			"byteOffset":113760,
			"target":34963
		},
		{
			"buffer":0,
			"byteLength":480,
			"byteOffset":116888,
			"target":34962
		},
		{
			"buffer":0,
			"byteLength":480,
			"byteOffset":117368,
			"target":34962
		},
		{
			"buffer":0,
			"byteLength":320,
			"byteOffset":117848,
			"target":34962
		},
		{
			"buffer":0,
			"byteLength":168,
			"byteOffset":118168,
			"target":34963
		},
		{
			"buffer":0,
			"byteLength":840,
			"byteOffset":118336,
			"target":34962
		},
		{
			"buffer":0,
			"byteLength":840,
			"byteOffset":119176,
			"target":34962
		},
		{
			"buffer":0,
			"byteLength":560,
			"byteOffset":120016,
			"target":34962
		},
		{
			"buffer":0,
			"byteLength":408,
			"byteOffset":120576,
			"target":34963
		},
		{
			"buffer":0,
			"byteLength":1584,
			"byteOffset":120984,
			"target":34962
		},
		{
			"buffer":0,
			"byteLength":1584,
			"byteOffset":122568,
			"target":34962
		},
		{
			"buffer":0,
			"byteLength":1056,
			"byteOffset":124152,
			"target":34962
		},
		{
			"buffer":0,
			"byteLength":648,
			"byteOffset":125208,
			"target":34963
		},
		{
			"buffer":0,
			"byteLength":840,
			"byteOffset":125856,
			"target":34962
		},
		{
			"buffer":0,
			"byteLength":840,
			"byteOffset":126696,
			"target":34962
		},
		{
			"buffer":0,
			"byteLength":560,
			"byteOffset":127536,
			"target":34962
		},
		{
			"buffer":0,
			"byteLength":408,
			"byteOffset":128096,
			"target":34963
		},
		{
			"buffer":0,
			"byteLength":1584,
			"byteOffset":128504,
			"target":34962
		},
		{
			"buffer":0,
			"byteLength":1584,
			"byteOffset":130088,
			"target":34962
		},
		{
			"buffer":0,
			"byteLength":1056,
			"byteOffset":131672,
			"target":34962
		},
		{
			"buffer":0,
			"byteLength":648,
			"byteOffset":132728,
			"target":34963
		},
		{
			"buffer":0,
			"byteLength":840,
			"byteOffset":133376,
			"target":34962
		},
		{
			"buffer":0,
			"byteLength":840,
			"byteOffset":134216,
			"target":34962
		},
		{
			"buffer":0,
			"byteLength":560,
			"byteOffset":135056,
			"target":34962
		},
		{
			"buffer":0,
			"byteLength":408,
			"byteOffset":135616,
			"target":34963
		},
		{
			"buffer":0,
			"byteLength":1584,
			"byteOffset":136024,
			"target":34962
		},
		{
			"buffer":0,
			"byteLength":1584,
			"byteOffset":137608,
			"target":34962
		},
		{
			"buffer":0,
			"byteLength":1056,
			"byteOffset":139192,
			"target":34962
		},
		{
			"buffer":0,
			"byteLength":648,
			"byteOffset":140248,
			"target":34963
		},
		{
			"buffer":0,
			"byteLength":840,
			"byteOffset":140896,
			"target":34962
		},
		{
			"buffer":0,
			"byteLength":840,
			"byteOffset":141736,
			"target":34962
		},
		{
			"buffer":0,
			"byteLength":560,
			"byteOffset":142576,
			"target":34962
		},
		{
			"buffer":0,
			"byteLength":1584,
			"byteOffset":143136,
			"target":34962
		},
		{
			"buffer":0,
			"byteLength":1584,
			"byteOffset":144720,
			"target":34962
		},
		{
			"buffer":0,
			"byteLength":1056,
			"byteOffset":146304,
			"target":34962
		}
	],
	"samplers":[
		{
			"magFilter":9729,
			"minFilter":9987
		}
	],
	"buffers":[
		{
			"byteLength":147360,
			"uri":"Ambulance_1_A.bin"
		}
	]
}
