{
	"asset":{
		"generator":"Khronos glTF Blender I/O v4.1.63",
		"version":"2.0"
	},
	"extensionsUsed":[
		"EXT_texture_webp"
	],
	"scene":0,
	"scenes":[
		{
			"name":"Scene",
			"nodes":[
				0,
				1,
				2,
				3,
				4
			]
		}
	],
	"nodes":[
		{
			"mesh":0,
			"name":"RR",
			"translation":[
				1.0629029273986816,
				0.011973175220191479,
				-0.7722364664077759
			]
		},
		{
			"mesh":1,
			"name":"FR",
			"translation":[
				-1.0632457733154297,
				0.011973174288868904,
				-0.7722364664077759
			]
		},
		{
			"mesh":2,
			"name":"RL",
			"translation":[
				1.0629029273986816,
				0.011973175220191479,
				0.7722364664077759
			]
		},
		{
			"mesh":3,
			"name":"FL",
			"translation":[
				-1.0632458925247192,
				0.01197317149490118,
				0.772236168384552
			]
		},
		{
			"mesh":4,
			"name":"SMAT_1"
		}
	],
	"materials":[
		{
			"name":"City Metal",
			"pbrMetallicRoughness":{
				"baseColorTexture":{
					"index":0
				},
				"roughnessFactor":0.2708495557308197
			}
		},
		{
			"name":"City Car",
			"pbrMetallicRoughness":{
				"baseColorTexture":{
					"index":1
				},
				"metallicFactor":0.34545451402664185,
				"roughnessFactor":0.48181819915771484
			}
		},
		{
			"name":"City Atlas",
			"pbrMetallicRoughness":{
				"baseColorTexture":{
					"index":2
				},
				"metallicFactor":0
			}
		},
		{
			"name":"Windows",
			"pbrMetallicRoughness":{
				"baseColorTexture":{
					"index":3
				},
				"metallicFactor":0.5454545617103577,
				"roughnessFactor":0.8727272748947144
			}
		},
		{
			"doubleSided":true,
			"name":"Signs_2",
			"pbrMetallicRoughness":{
				"baseColorTexture":{
					"index":4
				},
				"metallicFactor":0.1596638709306717,
				"roughnessFactor":0.651260495185852
			}
		}
	],
	"meshes":[
		{
			"name":"RR",
			"primitives":[
				{
					"attributes":{
						"POSITION":0,
						"NORMAL":1,
						"TEXCOORD_0":2
					},
					"indices":3,
					"material":0
				},
				{
					"attributes":{
						"POSITION":4,
						"NORMAL":5,
						"TEXCOORD_0":6
					},
					"indices":7,
					"material":1
				}
			]
		},
		{
			"name":"FR",
			"primitives":[
				{
					"attributes":{
						"POSITION":8,
						"NORMAL":9,
						"TEXCOORD_0":10
					},
					"indices":3,
					"material":0
				},
				{
					"attributes":{
						"POSITION":11,
						"NORMAL":12,
						"TEXCOORD_0":13
					},
					"indices":7,
					"material":1
				}
			]
		},
		{
			"name":"RL",
			"primitives":[
				{
					"attributes":{
						"POSITION":14,
						"NORMAL":15,
						"TEXCOORD_0":16
					},
					"indices":17,
					"material":0
				},
				{
					"attributes":{
						"POSITION":18,
						"NORMAL":19,
						"TEXCOORD_0":20
					},
					"indices":21,
					"material":1
				}
			]
		},
		{
			"name":"FL",
			"primitives":[
				{
					"attributes":{
						"POSITION":22,
						"NORMAL":23,
						"TEXCOORD_0":24
					},
					"indices":25,
					"material":0
				},
				{
					"attributes":{
						"POSITION":26,
						"NORMAL":27,
						"TEXCOORD_0":28
					},
					"indices":29,
					"material":1
				}
			]
		},
		{
			"name":"SMAT_1",
			"primitives":[
				{
					"attributes":{
						"POSITION":30,
						"NORMAL":31,
						"TEXCOORD_0":32
					},
					"indices":33,
					"material":2
				},
				{
					"attributes":{
						"POSITION":34,
						"NORMAL":35,
						"TEXCOORD_0":36
					},
					"indices":37,
					"material":0
				},
				{
					"attributes":{
						"POSITION":38,
						"NORMAL":39,
						"TEXCOORD_0":40
					},
					"indices":41,
					"material":1
				},
				{
					"attributes":{
						"POSITION":42,
						"NORMAL":43,
						"TEXCOORD_0":44
					},
					"indices":45,
					"material":3
				},
				{
					"attributes":{
						"POSITION":46,
						"NORMAL":47,
						"TEXCOORD_0":48
					},
					"indices":49,
					"material":4
				}
			]
		}
	],
	"textures":[
		{
			"extensions":{
				"EXT_texture_webp":{
					"source":0
				}
			},
			"sampler":0,
			"source":1
		},
		{
			"extensions":{
				"EXT_texture_webp":{
					"source":0
				}
			},
			"sampler":0,
			"source":1
		},
		{
			"extensions":{
				"EXT_texture_webp":{
					"source":0
				}
			},
			"sampler":0,
			"source":1
		},
		{
			"extensions":{
				"EXT_texture_webp":{
					"source":2
				}
			},
			"sampler":0,
			"source":3
		},
		{
			"extensions":{
				"EXT_texture_webp":{
					"source":4
				}
			},
			"sampler":0,
			"source":5
		}
	],
	"images":[
		{
			"mimeType":"image/webp",
			"name":"City Atlas Map.png",
			"uri":"City%20Atlas%20Map_png.webp"
		},
		{
			"mimeType":"image/png",
			"name":"City Atlas Map.png",
			"uri":"City%20Atlas%20Map_png.png"
		},
		{
			"mimeType":"image/webp",
			"name":"Windows",
			"uri":"Windows.webp"
		},
		{
			"mimeType":"image/png",
			"name":"Windows",
			"uri":"Windows.png"
		},
		{
			"mimeType":"image/webp",
			"name":"Signs 2",
			"uri":"Signs%202.webp"
		},
		{
			"mimeType":"image/png",
			"name":"Signs 2",
			"uri":"Signs%202.png"
		}
	],
	"accessors":[
		{
			"bufferView":0,
			"componentType":5126,
			"count":70,
			"max":[
				0.172047421336174,
				0.16362695395946503,
				-0.022350478917360306
			],
			"min":[
				-0.1720477193593979,
				-0.16362695395946503,
				-0.044549714773893356
			],
			"type":"VEC3"
		},
		{
			"bufferView":1,
			"componentType":5126,
			"count":70,
			"type":"VEC3"
		},
		{
			"bufferView":2,
			"componentType":5126,
			"count":70,
			"type":"VEC2"
		},
		{
			"bufferView":3,
			"componentType":5123,
			"count":204,
			"type":"SCALAR"
		},
		{
			"bufferView":4,
			"componentType":5126,
			"count":132,
			"max":[
				0.3344689607620239,
				0.31809908151626587,
				0.13127011060714722
			],
			"min":[
				-0.3344695568084717,
				-0.3180992007255554,
				-0.04519067332148552
			],
			"type":"VEC3"
		},
		{
			"bufferView":5,
			"componentType":5126,
			"count":132,
			"type":"VEC3"
		},
		{
			"bufferView":6,
			"componentType":5126,
			"count":132,
			"type":"VEC2"
		},
		{
			"bufferView":7,
			"componentType":5123,
			"count":324,
			"type":"SCALAR"
		},
		{
			"bufferView":8,
			"componentType":5126,
			"count":70,
			"max":[
				0.17204757034778595,
				0.16362695395946503,
				-0.022350478917360306
			],
			"min":[
				-0.1720477193593979,
				-0.16362695395946503,
				-0.044549714773893356
			],
			"type":"VEC3"
		},
		{
			"bufferView":9,
			"componentType":5126,
			"count":70,
			"type":"VEC3"
		},
		{
			"bufferView":10,
			"componentType":5126,
			"count":70,
			"type":"VEC2"
		},
		{
			"bufferView":11,
			"componentType":5126,
			"count":132,
			"max":[
				0.3344692587852478,
				0.31809908151626587,
				0.13127011060714722
			],
			"min":[
				-0.3344694674015045,
				-0.3180992007255554,
				-0.04519067332148552
			],
			"type":"VEC3"
		},
		{
			"bufferView":12,
			"componentType":5126,
			"count":132,
			"type":"VEC3"
		},
		{
			"bufferView":13,
			"componentType":5126,
			"count":132,
			"type":"VEC2"
		},
		{
			"bufferView":14,
			"componentType":5126,
			"count":70,
			"max":[
				0.172047421336174,
				0.16362695395946503,
				0.044549714773893356
			],
			"min":[
				-0.1720477193593979,
				-0.16362695395946503,
				0.022350478917360306
			],
			"type":"VEC3"
		},
		{
			"bufferView":15,
			"componentType":5126,
			"count":70,
			"type":"VEC3"
		},
		{
			"bufferView":16,
			"componentType":5126,
			"count":70,
			"type":"VEC2"
		},
		{
			"bufferView":17,
			"componentType":5123,
			"count":204,
			"type":"SCALAR"
		},
		{
			"bufferView":18,
			"componentType":5126,
			"count":132,
			"max":[
				0.3344689607620239,
				0.31809908151626587,
				0.04519067332148552
			],
			"min":[
				-0.3344695568084717,
				-0.3180992007255554,
				-0.13127011060714722
			],
			"type":"VEC3"
		},
		{
			"bufferView":19,
			"componentType":5126,
			"count":132,
			"type":"VEC3"
		},
		{
			"bufferView":20,
			"componentType":5126,
			"count":132,
			"type":"VEC2"
		},
		{
			"bufferView":21,
			"componentType":5123,
			"count":324,
			"type":"SCALAR"
		},
		{
			"bufferView":22,
			"componentType":5126,
			"count":70,
			"max":[
				0.1720477193593979,
				0.16362695395946503,
				0.044549982994794846
			],
			"min":[
				-0.17204757034778595,
				-0.16362695395946503,
				0.022350749000906944
			],
			"type":"VEC3"
		},
		{
			"bufferView":23,
			"componentType":5126,
			"count":70,
			"type":"VEC3"
		},
		{
			"bufferView":24,
			"componentType":5126,
			"count":70,
			"type":"VEC2"
		},
		{
			"bufferView":25,
			"componentType":5123,
			"count":204,
			"type":"SCALAR"
		},
		{
			"bufferView":26,
			"componentType":5126,
			"count":132,
			"max":[
				0.33446940779685974,
				0.31809908151626587,
				0.04519094154238701
			],
			"min":[
				-0.3344693183898926,
				-0.3180992007255554,
				-0.13126984238624573
			],
			"type":"VEC3"
		},
		{
			"bufferView":27,
			"componentType":5126,
			"count":132,
			"type":"VEC3"
		},
		{
			"bufferView":28,
			"componentType":5126,
			"count":132,
			"type":"VEC2"
		},
		{
			"bufferView":29,
			"componentType":5123,
			"count":324,
			"type":"SCALAR"
		},
		{
			"bufferView":30,
			"componentType":5126,
			"count":632,
			"max":[
				2.032989978790283,
				1.3824957609176636,
				0.8459824919700623
			],
			"min":[
				-1.5327165126800537,
				-0.000274761114269495,
				-0.840501070022583
			],
			"type":"VEC3"
		},
		{
			"bufferView":31,
			"componentType":5126,
			"count":632,
			"type":"VEC3"
		},
		{
			"bufferView":32,
			"componentType":5126,
			"count":632,
			"type":"VEC2"
		},
		{
			"bufferView":33,
			"componentType":5123,
			"count":1464,
			"type":"SCALAR"
		},
		{
			"bufferView":34,
			"componentType":5126,
			"count":1680,
			"max":[
				2.1081109046936035,
				1.8700839281082153,
				1.014369010925293
			],
			"min":[
				-1.9565314054489136,
				-0.04830305278301239,
				-1.014369010925293
			],
			"type":"VEC3"
		},
		{
			"bufferView":35,
			"componentType":5126,
			"count":1680,
			"type":"VEC3"
		},
		{
			"bufferView":36,
			"componentType":5126,
			"count":1680,
			"type":"VEC2"
		},
		{
			"bufferView":37,
			"componentType":5123,
			"count":3252,
			"type":"SCALAR"
		},
		{
			"bufferView":38,
			"componentType":5126,
			"count":862,
			"max":[
				2.060821771621704,
				1.9499748945236206,
				0.8357445597648621
			],
			"min":[
				-1.8409953117370605,
				0.01746242493391037,
				-0.835744321346283
			],
			"type":"VEC3"
		},
		{
			"bufferView":39,
			"componentType":5126,
			"count":862,
			"type":"VEC3"
		},
		{
			"bufferView":40,
			"componentType":5126,
			"count":862,
			"type":"VEC2"
		},
		{
			"bufferView":41,
			"componentType":5123,
			"count":1725,
			"type":"SCALAR"
		},
		{
			"bufferView":42,
			"componentType":5126,
			"count":24,
			"max":[
				-0.26887157559394836,
				1.5093543529510498,
				0.7445720434188843
			],
			"min":[
				-1.0607961416244507,
				1.0732264518737793,
				-0.7445720434188843
			],
			"type":"VEC3"
		},
		{
			"bufferView":43,
			"componentType":5126,
			"count":24,
			"type":"VEC3"
		},
		{
			"bufferView":44,
			"componentType":5126,
			"count":24,
			"type":"VEC2"
		},
		{
			"bufferView":45,
			"componentType":5123,
			"count":48,
			"type":"SCALAR"
		},
		{
			"bufferView":46,
			"componentType":5126,
			"count":4,
			"max":[
				1.9300347566604614,
				1.4446159601211548,
				0.5894315838813782
			],
			"min":[
				1.9300347566604614,
				0.22766534984111786,
				-0.5894315838813782
			],
			"type":"VEC3"
		},
		{
			"bufferView":47,
			"componentType":5126,
			"count":4,
			"type":"VEC3"
		},
		{
			"bufferView":48,
			"componentType":5126,
			"count":4,
			"type":"VEC2"
		},
		{
			"bufferView":49,
			"componentType":5123,
			"count":6,
			"type":"SCALAR"
		}
	],
	"bufferViews":[
		{
			"buffer":0,
			"byteLength":840,
			"byteOffset":0,
			"target":34962
		},
		{
			"buffer":0,
			"byteLength":840,
			"byteOffset":840,
			"target":34962
		},
		{
			"buffer":0,
			"byteLength":560,
			"byteOffset":1680,
			"target":34962
		},
		{
			"buffer":0,
			"byteLength":408,
			"byteOffset":2240,
			"target":34963
		},
		{
			"buffer":0,
			"byteLength":1584,
			"byteOffset":2648,
			"target":34962
		},
		{
			"buffer":0,
			"byteLength":1584,
			"byteOffset":4232,
			"target":34962
		},
		{
			"buffer":0,
			"byteLength":1056,
			"byteOffset":5816,
			"target":34962
		},
		{
			"buffer":0,
			"byteLength":648,
			"byteOffset":6872,
			"target":34963
		},
		{
			"buffer":0,
			"byteLength":840,
			"byteOffset":7520,
			"target":34962
		},
		{
			"buffer":0,
			"byteLength":840,
			"byteOffset":8360,
			"target":34962
		},
		{
			"buffer":0,
			"byteLength":560,
			"byteOffset":9200,
			"target":34962
		},
		{
			"buffer":0,
			"byteLength":1584,
			"byteOffset":9760,
			"target":34962
		},
		{
			"buffer":0,
			"byteLength":1584,
			"byteOffset":11344,
			"target":34962
		},
		{
			"buffer":0,
			"byteLength":1056,
			"byteOffset":12928,
			"target":34962
		},
		{
			"buffer":0,
			"byteLength":840,
			"byteOffset":13984,
			"target":34962
		},
		{
			"buffer":0,
			"byteLength":840,
			"byteOffset":14824,
			"target":34962
		},
		{
			"buffer":0,
			"byteLength":560,
			"byteOffset":15664,
			"target":34962
		},
		{
			"buffer":0,
			"byteLength":408,
			"byteOffset":16224,
			"target":34963
		},
		{
			"buffer":0,
			"byteLength":1584,
			"byteOffset":16632,
			"target":34962
		},
		{
			"buffer":0,
			"byteLength":1584,
			"byteOffset":18216,
			"target":34962
		},
		{
			"buffer":0,
			"byteLength":1056,
			"byteOffset":19800,
			"target":34962
		},
		{
			"buffer":0,
			"byteLength":648,
			"byteOffset":20856,
			"target":34963
		},
		{
			"buffer":0,
			"byteLength":840,
			"byteOffset":21504,
			"target":34962
		},
		{
			"buffer":0,
			"byteLength":840,
			"byteOffset":22344,
			"target":34962
		},
		{
			"buffer":0,
			"byteLength":560,
			"byteOffset":23184,
			"target":34962
		},
		{
			"buffer":0,
			"byteLength":408,
			"byteOffset":23744,
			"target":34963
		},
		{
			"buffer":0,
			"byteLength":1584,
			"byteOffset":24152,
			"target":34962
		},
		{
			"buffer":0,
			"byteLength":1584,
			"byteOffset":25736,
			"target":34962
		},
		{
			"buffer":0,
			"byteLength":1056,
			"byteOffset":27320,
			"target":34962
		},
		{
			"buffer":0,
			"byteLength":648,
			"byteOffset":28376,
			"target":34963
		},
		{
			"buffer":0,
			"byteLength":7584,
			"byteOffset":29024,
			"target":34962
		},
		{
			"buffer":0,
			"byteLength":7584,
			"byteOffset":36608,
			"target":34962
		},
		{
			"buffer":0,
			"byteLength":5056,
			"byteOffset":44192,
			"target":34962
		},
		{
			"buffer":0,
			"byteLength":2928,
			"byteOffset":49248,
			"target":34963
		},
		{
			"buffer":0,
			"byteLength":20160,
			"byteOffset":52176,
			"target":34962
		},
		{
			"buffer":0,
			"byteLength":20160,
			"byteOffset":72336,
			"target":34962
		},
		{
			"buffer":0,
			"byteLength":13440,
			"byteOffset":92496,
			"target":34962
		},
		{
			"buffer":0,
			"byteLength":6504,
			"byteOffset":105936,
			"target":34963
		},
		{
			"buffer":0,
			"byteLength":10344,
			"byteOffset":112440,
			"target":34962
		},
		{
			"buffer":0,
			"byteLength":10344,
			"byteOffset":122784,
			"target":34962
		},
		{
			"buffer":0,
			"byteLength":6896,
			"byteOffset":133128,
			"target":34962
		},
		{
			"buffer":0,
			"byteLength":3450,
			"byteOffset":140024,
			"target":34963
		},
		{
			"buffer":0,
			"byteLength":288,
			"byteOffset":143476,
			"target":34962
		},
		{
			"buffer":0,
			"byteLength":288,
			"byteOffset":143764,
			"target":34962
		},
		{
			"buffer":0,
			"byteLength":192,
			"byteOffset":144052,
			"target":34962
		},
		{
			"buffer":0,
			"byteLength":96,
			"byteOffset":144244,
			"target":34963
		},
		{
			"buffer":0,
			"byteLength":48,
			"byteOffset":144340,
			"target":34962
		},
		{
			"buffer":0,
			"byteLength":48,
			"byteOffset":144388,
			"target":34962
		},
		{
			"buffer":0,
			"byteLength":32,
			"byteOffset":144436,
			"target":34962
		},
		{
			"buffer":0,
			"byteLength":12,
			"byteOffset":144468,
			"target":34963
		}
	],
	"samplers":[
		{
			"magFilter":9729,
			"minFilter":9987
		}
	],
	"buffers":[
		{
			"byteLength":144480,
			"uri":"SMAT_1.bin"
		}
	]
}
