{
	"asset":{
		"generator":"Khronos glTF Blender I/O v4.1.63",
		"version":"2.0"
	},
	"extensionsUsed":[
		"EXT_texture_webp"
	],
	"scene":0,
	"scenes":[
		{
			"name":"Scene",
			"nodes":[
				0,
				1,
				2,
				3,
				4,
				5,
				6
			]
		}
	],
	"nodes":[
		{
			"mesh":0,
			"name":"ConcrateTruck"
		},
		{
			"mesh":1,
			"name":"RR",
			"translation":[
				2.333540916442871,
				7.847294182283804e-05,
				-0.9538430571556091
			]
		},
		{
			"mesh":2,
			"name":"MR",
			"translation":[
				1.4870976209640503,
				7.85250958870165e-05,
				-0.9538434147834778
			]
		},
		{
			"mesh":3,
			"name":"RL",
			"translation":[
				2.333540678024292,
				7.850576366763562e-05,
				0.9538431167602539
			]
		},
		{
			"mesh":4,
			"name":"ML",
			"translation":[
				1.4870976209640503,
				7.8559409303125e-05,
				0.9538434147834778
			]
		},
		{
			"mesh":5,
			"name":"FR",
			"translation":[
				-2.0440220832824707,
				0.051732081919908524,
				-0.9177733659744263
			]
		},
		{
			"mesh":6,
			"name":"FL",
			"translation":[
				-2.0440220832824707,
				0.05173209309577942,
				0.917773425579071
			]
		}
	],
	"materials":[
		{
			"name":"City Car",
			"pbrMetallicRoughness":{
				"baseColorTexture":{
					"index":0
				},
				"metallicFactor":0.34545451402664185,
				"roughnessFactor":0.48181819915771484
			}
		},
		{
			"name":"City Metal",
			"pbrMetallicRoughness":{
				"baseColorTexture":{
					"index":1
				},
				"roughnessFactor":0.2708495557308197
			}
		},
		{
			"name":"City Atlas",
			"pbrMetallicRoughness":{
				"baseColorTexture":{
					"index":2
				},
				"metallicFactor":0
			}
		},
		{
			"name":"Windows",
			"pbrMetallicRoughness":{
				"baseColorTexture":{
					"index":3
				},
				"metallicFactor":0.5454545617103577,
				"roughnessFactor":0.8727272748947144
			}
		}
	],
	"meshes":[
		{
			"name":"ConcrateTruck",
			"primitives":[
				{
					"attributes":{
						"POSITION":0,
						"NORMAL":1,
						"TEXCOORD_0":2
					},
					"indices":3,
					"material":0
				},
				{
					"attributes":{
						"POSITION":4,
						"NORMAL":5,
						"TEXCOORD_0":6
					},
					"indices":7,
					"material":1
				},
				{
					"attributes":{
						"POSITION":8,
						"NORMAL":9,
						"TEXCOORD_0":10
					},
					"indices":11,
					"material":2
				},
				{
					"attributes":{
						"POSITION":12,
						"NORMAL":13,
						"TEXCOORD_0":14
					},
					"indices":15,
					"material":3
				}
			]
		},
		{
			"name":"RR",
			"primitives":[
				{
					"attributes":{
						"POSITION":16,
						"NORMAL":17,
						"TEXCOORD_0":18
					},
					"indices":19,
					"material":0
				},
				{
					"attributes":{
						"POSITION":20,
						"NORMAL":21,
						"TEXCOORD_0":22
					},
					"indices":23,
					"material":1
				}
			]
		},
		{
			"name":"MR",
			"primitives":[
				{
					"attributes":{
						"POSITION":24,
						"NORMAL":25,
						"TEXCOORD_0":26
					},
					"indices":27,
					"material":0
				},
				{
					"attributes":{
						"POSITION":28,
						"NORMAL":29,
						"TEXCOORD_0":30
					},
					"indices":31,
					"material":1
				}
			]
		},
		{
			"name":"RL",
			"primitives":[
				{
					"attributes":{
						"POSITION":32,
						"NORMAL":33,
						"TEXCOORD_0":34
					},
					"indices":35,
					"material":0
				},
				{
					"attributes":{
						"POSITION":36,
						"NORMAL":37,
						"TEXCOORD_0":38
					},
					"indices":39,
					"material":1
				}
			]
		},
		{
			"name":"ML",
			"primitives":[
				{
					"attributes":{
						"POSITION":40,
						"NORMAL":41,
						"TEXCOORD_0":42
					},
					"indices":43,
					"material":0
				},
				{
					"attributes":{
						"POSITION":44,
						"NORMAL":45,
						"TEXCOORD_0":46
					},
					"indices":47,
					"material":1
				}
			]
		},
		{
			"name":"FR",
			"primitives":[
				{
					"attributes":{
						"POSITION":48,
						"NORMAL":49,
						"TEXCOORD_0":50
					},
					"indices":51,
					"material":0
				},
				{
					"attributes":{
						"POSITION":52,
						"NORMAL":53,
						"TEXCOORD_0":54
					},
					"indices":55,
					"material":1
				}
			]
		},
		{
			"name":"FL",
			"primitives":[
				{
					"attributes":{
						"POSITION":56,
						"NORMAL":57,
						"TEXCOORD_0":58
					},
					"indices":59,
					"material":0
				},
				{
					"attributes":{
						"POSITION":60,
						"NORMAL":61,
						"TEXCOORD_0":62
					},
					"indices":63,
					"material":1
				}
			]
		}
	],
	"textures":[
		{
			"extensions":{
				"EXT_texture_webp":{
					"source":0
				}
			},
			"sampler":0,
			"source":1
		},
		{
			"extensions":{
				"EXT_texture_webp":{
					"source":0
				}
			},
			"sampler":0,
			"source":1
		},
		{
			"extensions":{
				"EXT_texture_webp":{
					"source":0
				}
			},
			"sampler":0,
			"source":1
		},
		{
			"extensions":{
				"EXT_texture_webp":{
					"source":2
				}
			},
			"sampler":0,
			"source":3
		}
	],
	"images":[
		{
			"mimeType":"image/webp",
			"name":"City Atlas Map.png",
			"uri":"City%20Atlas%20Map_png.webp"
		},
		{
			"mimeType":"image/png",
			"name":"City Atlas Map.png",
			"uri":"City%20Atlas%20Map_png.png"
		},
		{
			"mimeType":"image/webp",
			"name":"Windows",
			"uri":"Windows.webp"
		},
		{
			"mimeType":"image/png",
			"name":"Windows",
			"uri":"Windows.png"
		}
	],
	"accessors":[
		{
			"bufferView":0,
			"componentType":5126,
			"count":1942,
			"max":[
				3.0643351078033447,
				2.646568775177002,
				1.01291823387146
			],
			"min":[
				-2.7217824459075928,
				-0.009578773751854897,
				-1.0129183530807495
			],
			"type":"VEC3"
		},
		{
			"bufferView":1,
			"componentType":5126,
			"count":1942,
			"type":"VEC3"
		},
		{
			"bufferView":2,
			"componentType":5126,
			"count":1942,
			"type":"VEC2"
		},
		{
			"bufferView":3,
			"componentType":5123,
			"count":3414,
			"type":"SCALAR"
		},
		{
			"bufferView":4,
			"componentType":5126,
			"count":652,
			"max":[
				-0.5054372549057007,
				2.465914726257324,
				1.0209708213806152
			],
			"min":[
				-2.8384997844696045,
				0.021938249468803406,
				-1.0209709405899048
			],
			"type":"VEC3"
		},
		{
			"bufferView":5,
			"componentType":5126,
			"count":652,
			"type":"VEC3"
		},
		{
			"bufferView":6,
			"componentType":5126,
			"count":652,
			"type":"VEC2"
		},
		{
			"bufferView":7,
			"componentType":5123,
			"count":1413,
			"type":"SCALAR"
		},
		{
			"bufferView":8,
			"componentType":5126,
			"count":100,
			"max":[
				-1.168062686920166,
				1.9898242950439453,
				0.09913171082735062
			],
			"min":[
				-1.6081819534301758,
				1.77009916305542,
				-0.09913163632154465
			],
			"type":"VEC3"
		},
		{
			"bufferView":9,
			"componentType":5126,
			"count":100,
			"type":"VEC3"
		},
		{
			"bufferView":10,
			"componentType":5126,
			"count":100,
			"type":"VEC2"
		},
		{
			"bufferView":11,
			"componentType":5123,
			"count":222,
			"type":"SCALAR"
		},
		{
			"bufferView":12,
			"componentType":5126,
			"count":17,
			"max":[
				-0.8314896821975708,
				1.6509771347045898,
				0.7690206170082092
			],
			"min":[
				-1.5810046195983887,
				1.04878568649292,
				-0.7690206170082092
			],
			"type":"VEC3"
		},
		{
			"bufferView":13,
			"componentType":5126,
			"count":17,
			"type":"VEC3"
		},
		{
			"bufferView":14,
			"componentType":5126,
			"count":17,
			"type":"VEC2"
		},
		{
			"bufferView":15,
			"componentType":5123,
			"count":27,
			"type":"SCALAR"
		},
		{
			"bufferView":16,
			"componentType":5126,
			"count":96,
			"max":[
				0.3484323024749756,
				0.34843263030052185,
				0.2583138048648834
			],
			"min":[
				-0.34843313694000244,
				-0.34843266010284424,
				-0.08691032230854034
			],
			"type":"VEC3"
		},
		{
			"bufferView":17,
			"componentType":5126,
			"count":96,
			"type":"VEC3"
		},
		{
			"bufferView":18,
			"componentType":5126,
			"count":96,
			"type":"VEC2"
		},
		{
			"bufferView":19,
			"componentType":5123,
			"count":306,
			"type":"SCALAR"
		},
		{
			"bufferView":20,
			"componentType":5126,
			"count":64,
			"max":[
				0.11744403839111328,
				0.11744435131549835,
				-0.024999791756272316
			],
			"min":[
				-0.11744499206542969,
				-0.11744424700737,
				-0.08328801393508911
			],
			"type":"VEC3"
		},
		{
			"bufferView":21,
			"componentType":5126,
			"count":64,
			"type":"VEC3"
		},
		{
			"bufferView":22,
			"componentType":5126,
			"count":64,
			"type":"VEC2"
		},
		{
			"bufferView":23,
			"componentType":5123,
			"count":162,
			"type":"SCALAR"
		},
		{
			"bufferView":24,
			"componentType":5126,
			"count":96,
			"max":[
				0.3484320640563965,
				0.34843260049819946,
				0.2583141624927521
			],
			"min":[
				-0.3484330177307129,
				-0.3484325706958771,
				-0.08690996468067169
			],
			"type":"VEC3"
		},
		{
			"bufferView":25,
			"componentType":5126,
			"count":96,
			"type":"VEC3"
		},
		{
			"bufferView":26,
			"componentType":5126,
			"count":96,
			"type":"VEC2"
		},
		{
			"bufferView":27,
			"componentType":5123,
			"count":306,
			"type":"SCALAR"
		},
		{
			"bufferView":28,
			"componentType":5126,
			"count":64,
			"max":[
				0.11744356155395508,
				0.11744429916143417,
				-0.024999434128403664
			],
			"min":[
				-0.11744499206542969,
				-0.11744429916143417,
				-0.08328765630722046
			],
			"type":"VEC3"
		},
		{
			"bufferView":29,
			"componentType":5126,
			"count":64,
			"type":"VEC3"
		},
		{
			"bufferView":30,
			"componentType":5126,
			"count":64,
			"type":"VEC2"
		},
		{
			"bufferView":31,
			"componentType":5123,
			"count":162,
			"type":"SCALAR"
		},
		{
			"bufferView":32,
			"componentType":5126,
			"count":96,
			"max":[
				0.3484325408935547,
				0.348432719707489,
				0.08691026270389557
			],
			"min":[
				-0.34843289852142334,
				-0.3484326899051666,
				-0.2583140432834625
			],
			"type":"VEC3"
		},
		{
			"bufferView":33,
			"componentType":5126,
			"count":96,
			"type":"VEC3"
		},
		{
			"bufferView":34,
			"componentType":5126,
			"count":96,
			"type":"VEC2"
		},
		{
			"bufferView":35,
			"componentType":5123,
			"count":306,
			"type":"SCALAR"
		},
		{
			"bufferView":36,
			"componentType":5126,
			"count":64,
			"max":[
				0.11744427680969238,
				0.1174444630742073,
				0.08328783512115479
			],
			"min":[
				-0.11744475364685059,
				-0.11744425445795059,
				0.02499961294233799
			],
			"type":"VEC3"
		},
		{
			"bufferView":37,
			"componentType":5126,
			"count":64,
			"type":"VEC3"
		},
		{
			"bufferView":38,
			"componentType":5126,
			"count":64,
			"type":"VEC2"
		},
		{
			"bufferView":39,
			"componentType":5123,
			"count":162,
			"type":"SCALAR"
		},
		{
			"bufferView":40,
			"componentType":5126,
			"count":96,
			"max":[
				0.3484320640563965,
				0.34843266010284424,
				0.08691008388996124
			],
			"min":[
				-0.3484330177307129,
				-0.3484327495098114,
				-0.25831422209739685
			],
			"type":"VEC3"
		},
		{
			"bufferView":41,
			"componentType":5126,
			"count":96,
			"type":"VEC3"
		},
		{
			"bufferView":42,
			"componentType":5126,
			"count":96,
			"type":"VEC2"
		},
		{
			"bufferView":43,
			"componentType":5123,
			"count":306,
			"type":"SCALAR"
		},
		{
			"bufferView":44,
			"componentType":5126,
			"count":64,
			"max":[
				0.11744356155395508,
				0.11744441092014313,
				0.08328765630722046
			],
			"min":[
				-0.11744499206542969,
				-0.11744430661201477,
				0.024999314919114113
			],
			"type":"VEC3"
		},
		{
			"bufferView":45,
			"componentType":5126,
			"count":64,
			"type":"VEC3"
		},
		{
			"bufferView":46,
			"componentType":5126,
			"count":64,
			"type":"VEC2"
		},
		{
			"bufferView":47,
			"componentType":5123,
			"count":162,
			"type":"SCALAR"
		},
		{
			"bufferView":48,
			"componentType":5126,
			"count":96,
			"max":[
				0.4000864028930664,
				0.4000861644744873,
				0.22912433743476868
			],
			"min":[
				-0.4000856876373291,
				-0.40008610486984253,
				-0.07708873599767685
			],
			"type":"VEC3"
		},
		{
			"bufferView":49,
			"componentType":5126,
			"count":96,
			"type":"VEC3"
		},
		{
			"bufferView":50,
			"componentType":5126,
			"count":96,
			"type":"VEC2"
		},
		{
			"bufferView":51,
			"componentType":5123,
			"count":306,
			"type":"SCALAR"
		},
		{
			"bufferView":52,
			"componentType":5126,
			"count":64,
			"max":[
				0.13485479354858398,
				0.13485488295555115,
				-0.022174233570694923
			],
			"min":[
				-0.13485479354858398,
				-0.13485488295555115,
				-0.0738757848739624
			],
			"type":"VEC3"
		},
		{
			"bufferView":53,
			"componentType":5126,
			"count":64,
			"type":"VEC3"
		},
		{
			"bufferView":54,
			"componentType":5126,
			"count":64,
			"type":"VEC2"
		},
		{
			"bufferView":55,
			"componentType":5123,
			"count":162,
			"type":"SCALAR"
		},
		{
			"bufferView":56,
			"componentType":5126,
			"count":96,
			"max":[
				0.4000864028930664,
				0.4000861346721649,
				0.07708877325057983
			],
			"min":[
				-0.4000856876373291,
				-0.4000861346721649,
				-0.22912433743476868
			],
			"type":"VEC3"
		},
		{
			"bufferView":57,
			"componentType":5126,
			"count":96,
			"type":"VEC3"
		},
		{
			"bufferView":58,
			"componentType":5126,
			"count":96,
			"type":"VEC2"
		},
		{
			"bufferView":59,
			"componentType":5123,
			"count":306,
			"type":"SCALAR"
		},
		{
			"bufferView":60,
			"componentType":5126,
			"count":64,
			"max":[
				0.13485479354858398,
				0.13485489785671234,
				0.07387584447860718
			],
			"min":[
				-0.13485479354858398,
				-0.13485486805438995,
				0.022174183279275894
			],
			"type":"VEC3"
		},
		{
			"bufferView":61,
			"componentType":5126,
			"count":64,
			"type":"VEC3"
		},
		{
			"bufferView":62,
			"componentType":5126,
			"count":64,
			"type":"VEC2"
		},
		{
			"bufferView":63,
			"componentType":5123,
			"count":162,
			"type":"SCALAR"
		}
	],
	"bufferViews":[
		{
			"buffer":0,
			"byteLength":23304,
			"byteOffset":0,
			"target":34962
		},
		{
			"buffer":0,
			"byteLength":23304,
			"byteOffset":23304,
			"target":34962
		},
		{
			"buffer":0,
			"byteLength":15536,
			"byteOffset":46608,
			"target":34962
		},
		{
			"buffer":0,
			"byteLength":6828,
			"byteOffset":62144,
			"target":34963
		},
		{
			"buffer":0,
			"byteLength":7824,
			"byteOffset":68972,
			"target":34962
		},
		{
			"buffer":0,
			"byteLength":7824,
			"byteOffset":76796,
			"target":34962
		},
		{
			"buffer":0,
			"byteLength":5216,
			"byteOffset":84620,
			"target":34962
		},
		{
			"buffer":0,
			"byteLength":2826,
			"byteOffset":89836,
			"target":34963
		},
		{
			"buffer":0,
			"byteLength":1200,
			"byteOffset":92664,
			"target":34962
		},
		{
			"buffer":0,
			"byteLength":1200,
			"byteOffset":93864,
			"target":34962
		},
		{
			"buffer":0,
			"byteLength":800,
			"byteOffset":95064,
			"target":34962
		},
		{
			"buffer":0,
			"byteLength":444,
			"byteOffset":95864,
			"target":34963
		},
		{
			"buffer":0,
			"byteLength":204,
			"byteOffset":96308,
			"target":34962
		},
		{
			"buffer":0,
			"byteLength":204,
			"byteOffset":96512,
			"target":34962
		},
		{
			"buffer":0,
			"byteLength":136,
			"byteOffset":96716,
			"target":34962
		},
		{
			"buffer":0,
			"byteLength":54,
			"byteOffset":96852,
			"target":34963
		},
		{
			"buffer":0,
			"byteLength":1152,
			"byteOffset":96908,
			"target":34962
		},
		{
			"buffer":0,
			"byteLength":1152,
			"byteOffset":98060,
			"target":34962
		},
		{
			"buffer":0,
			"byteLength":768,
			"byteOffset":99212,
			"target":34962
		},
		{
			"buffer":0,
			"byteLength":612,
			"byteOffset":99980,
			"target":34963
		},
		{
			"buffer":0,
			"byteLength":768,
			"byteOffset":100592,
			"target":34962
		},
		{
			"buffer":0,
			"byteLength":768,
			"byteOffset":101360,
			"target":34962
		},
		{
			"buffer":0,
			"byteLength":512,
			"byteOffset":102128,
			"target":34962
		},
		{
			"buffer":0,
			"byteLength":324,
			"byteOffset":102640,
			"target":34963
		},
		{
			"buffer":0,
			"byteLength":1152,
			"byteOffset":102964,
			"target":34962
		},
		{
			"buffer":0,
			"byteLength":1152,
			"byteOffset":104116,
			"target":34962
		},
		{
			"buffer":0,
			"byteLength":768,
			"byteOffset":105268,
			"target":34962
		},
		{
			"buffer":0,
			"byteLength":612,
			"byteOffset":106036,
			"target":34963
		},
		{
			"buffer":0,
			"byteLength":768,
			"byteOffset":106648,
			"target":34962
		},
		{
			"buffer":0,
			"byteLength":768,
			"byteOffset":107416,
			"target":34962
		},
		{
			"buffer":0,
			"byteLength":512,
			"byteOffset":108184,
			"target":34962
		},
		{
			"buffer":0,
			"byteLength":324,
			"byteOffset":108696,
			"target":34963
		},
		{
			"buffer":0,
			"byteLength":1152,
			"byteOffset":109020,
			"target":34962
		},
		{
			"buffer":0,
			"byteLength":1152,
			"byteOffset":110172,
			"target":34962
		},
		{
			"buffer":0,
			"byteLength":768,
			"byteOffset":111324,
			"target":34962
		},
		{
			"buffer":0,
			"byteLength":612,
			"byteOffset":112092,
			"target":34963
		},
		{
			"buffer":0,
			"byteLength":768,
			"byteOffset":112704,
			"target":34962
		},
		{
			"buffer":0,
			"byteLength":768,
			"byteOffset":113472,
			"target":34962
		},
		{
			"buffer":0,
			"byteLength":512,
			"byteOffset":114240,
			"target":34962
		},
		{
			"buffer":0,
			"byteLength":324,
			"byteOffset":114752,
			"target":34963
		},
		{
			"buffer":0,
			"byteLength":1152,
			"byteOffset":115076,
			"target":34962
		},
		{
			"buffer":0,
			"byteLength":1152,
			"byteOffset":116228,
			"target":34962
		},
		{
			"buffer":0,
			"byteLength":768,
			"byteOffset":117380,
			"target":34962
		},
		{
			"buffer":0,
			"byteLength":612,
			"byteOffset":118148,
			"target":34963
		},
		{
			"buffer":0,
			"byteLength":768,
			"byteOffset":118760,
			"target":34962
		},
		{
			"buffer":0,
			"byteLength":768,
			"byteOffset":119528,
			"target":34962
		},
		{
			"buffer":0,
			"byteLength":512,
			"byteOffset":120296,
			"target":34962
		},
		{
			"buffer":0,
			"byteLength":324,
			"byteOffset":120808,
			"target":34963
		},
		{
			"buffer":0,
			"byteLength":1152,
			"byteOffset":121132,
			"target":34962
		},
		{
			"buffer":0,
			"byteLength":1152,
			"byteOffset":122284,
			"target":34962
		},
		{
			"buffer":0,
			"byteLength":768,
			"byteOffset":123436,
			"target":34962
		},
		{
			"buffer":0,
			"byteLength":612,
			"byteOffset":124204,
			"target":34963
		},
		{
			"buffer":0,
			"byteLength":768,
			"byteOffset":124816,
			"target":34962
		},
		{
			"buffer":0,
			"byteLength":768,
			"byteOffset":125584,
			"target":34962
		},
		{
			"buffer":0,
			"byteLength":512,
			"byteOffset":126352,
			"target":34962
		},
		{
			"buffer":0,
			"byteLength":324,
			"byteOffset":126864,
			"target":34963
		},
		{
			"buffer":0,
			"byteLength":1152,
			"byteOffset":127188,
			"target":34962
		},
		{
			"buffer":0,
			"byteLength":1152,
			"byteOffset":128340,
			"target":34962
		},
		{
			"buffer":0,
			"byteLength":768,
			"byteOffset":129492,
			"target":34962
		},
		{
			"buffer":0,
			"byteLength":612,
			"byteOffset":130260,
			"target":34963
		},
		{
			"buffer":0,
			"byteLength":768,
			"byteOffset":130872,
			"target":34962
		},
		{
			"buffer":0,
			"byteLength":768,
			"byteOffset":131640,
			"target":34962
		},
		{
			"buffer":0,
			"byteLength":512,
			"byteOffset":132408,
			"target":34962
		},
		{
			"buffer":0,
			"byteLength":324,
			"byteOffset":132920,
			"target":34963
		}
	],
	"samplers":[
		{
			"magFilter":9729,
			"minFilter":9987
		}
	],
	"buffers":[
		{
			"byteLength":133244,
			"uri":"Concrate%20Truck.bin"
		}
	]
}
