{
	"asset":{
		"generator":"Khronos glTF Blender I/O v4.1.63",
		"version":"2.0"
	},
	"extensionsUsed":[
		"EXT_texture_webp"
	],
	"scene":0,
	"scenes":[
		{
			"name":"Scene",
			"nodes":[
				0,
				1,
				2,
				3,
				4
			]
		}
	],
	"nodes":[
		{
			"mesh":0,
			"name":"Car_18_Q"
		},
		{
			"mesh":1,
			"name":"RL",
			"translation":[
				0.9603255391120911,
				0.037268951535224915,
				0.7545524835586548
			]
		},
		{
			"mesh":2,
			"name":"FL",
			"translation":[
				-1.176474928855896,
				0.037268951535224915,
				0.7545525431632996
			]
		},
		{
			"mesh":3,
			"name":"RR",
			"translation":[
				0.9603255391120911,
				0.037268951535224915,
				-0.7545526623725891
			]
		},
		{
			"mesh":4,
			"name":"FR",
			"translation":[
				-1.176474928855896,
				0.037268951535224915,
				-0.7545526623725891
			]
		}
	],
	"materials":[
		{
			"name":"City Car",
			"pbrMetallicRoughness":{
				"baseColorTexture":{
					"index":0
				},
				"metallicFactor":0.34545451402664185,
				"roughnessFactor":0.48181819915771484
			}
		},
		{
			"name":"City Metal",
			"pbrMetallicRoughness":{
				"baseColorTexture":{
					"index":1
				},
				"roughnessFactor":0.2708495557308197
			}
		},
		{
			"name":"Windows",
			"pbrMetallicRoughness":{
				"baseColorTexture":{
					"index":2
				},
				"metallicFactor":0.5454545617103577,
				"roughnessFactor":0.8727272748947144
			}
		}
	],
	"meshes":[
		{
			"name":"Car_18_Q",
			"primitives":[
				{
					"attributes":{
						"POSITION":0,
						"NORMAL":1,
						"TEXCOORD_0":2
					},
					"indices":3,
					"material":0
				},
				{
					"attributes":{
						"POSITION":4,
						"NORMAL":5,
						"TEXCOORD_0":6
					},
					"indices":7,
					"material":1
				},
				{
					"attributes":{
						"POSITION":8,
						"NORMAL":9,
						"TEXCOORD_0":10
					},
					"indices":11,
					"material":2
				}
			]
		},
		{
			"name":"RL",
			"primitives":[
				{
					"attributes":{
						"POSITION":12,
						"NORMAL":13,
						"TEXCOORD_0":14
					},
					"indices":15,
					"material":0
				},
				{
					"attributes":{
						"POSITION":16,
						"NORMAL":17,
						"TEXCOORD_0":18
					},
					"indices":19,
					"material":1
				}
			]
		},
		{
			"name":"FL",
			"primitives":[
				{
					"attributes":{
						"POSITION":20,
						"NORMAL":21,
						"TEXCOORD_0":22
					},
					"indices":23,
					"material":0
				},
				{
					"attributes":{
						"POSITION":24,
						"NORMAL":25,
						"TEXCOORD_0":26
					},
					"indices":27,
					"material":1
				}
			]
		},
		{
			"name":"RR",
			"primitives":[
				{
					"attributes":{
						"POSITION":28,
						"NORMAL":29,
						"TEXCOORD_0":30
					},
					"indices":31,
					"material":0
				},
				{
					"attributes":{
						"POSITION":32,
						"NORMAL":33,
						"TEXCOORD_0":34
					},
					"indices":35,
					"material":1
				}
			]
		},
		{
			"name":"FR",
			"primitives":[
				{
					"attributes":{
						"POSITION":36,
						"NORMAL":37,
						"TEXCOORD_0":38
					},
					"indices":39,
					"material":0
				},
				{
					"attributes":{
						"POSITION":40,
						"NORMAL":41,
						"TEXCOORD_0":42
					},
					"indices":35,
					"material":1
				}
			]
		}
	],
	"textures":[
		{
			"extensions":{
				"EXT_texture_webp":{
					"source":0
				}
			},
			"sampler":0,
			"source":1
		},
		{
			"extensions":{
				"EXT_texture_webp":{
					"source":0
				}
			},
			"sampler":0,
			"source":1
		},
		{
			"extensions":{
				"EXT_texture_webp":{
					"source":2
				}
			},
			"sampler":0,
			"source":3
		}
	],
	"images":[
		{
			"mimeType":"image/webp",
			"name":"City Atlas Map.png",
			"uri":"City%20Atlas%20Map_png.webp"
		},
		{
			"mimeType":"image/png",
			"name":"City Atlas Map.png",
			"uri":"City%20Atlas%20Map_png.png"
		},
		{
			"mimeType":"image/webp",
			"name":"Windows",
			"uri":"Windows.webp"
		},
		{
			"mimeType":"image/png",
			"name":"Windows",
			"uri":"Windows.png"
		}
	],
	"accessors":[
		{
			"bufferView":0,
			"componentType":5126,
			"count":1403,
			"max":[
				1.8569059371948242,
				1.1241871118545532,
				0.8202416896820068
			],
			"min":[
				-1.8905367851257324,
				-0.0012275464832782745,
				-0.8202416896820068
			],
			"type":"VEC3"
		},
		{
			"bufferView":1,
			"componentType":5126,
			"count":1403,
			"type":"VEC3"
		},
		{
			"bufferView":2,
			"componentType":5126,
			"count":1403,
			"type":"VEC2"
		},
		{
			"bufferView":3,
			"componentType":5123,
			"count":2664,
			"type":"SCALAR"
		},
		{
			"bufferView":4,
			"componentType":5126,
			"count":1009,
			"max":[
				1.7460813522338867,
				0.8578060865402222,
				0.9267914891242981
			],
			"min":[
				-1.9230387210845947,
				0.023931004106998444,
				-0.9267914891242981
			],
			"type":"VEC3"
		},
		{
			"bufferView":5,
			"componentType":5126,
			"count":1009,
			"type":"VEC3"
		},
		{
			"bufferView":6,
			"componentType":5126,
			"count":1009,
			"type":"VEC2"
		},
		{
			"bufferView":7,
			"componentType":5123,
			"count":2034,
			"type":"SCALAR"
		},
		{
			"bufferView":8,
			"componentType":5126,
			"count":40,
			"max":[
				1.5458869934082031,
				1.0436421632766724,
				0.6467150449752808
			],
			"min":[
				-0.3220418691635132,
				0.5906863212585449,
				-0.6467150449752808
			],
			"type":"VEC3"
		},
		{
			"bufferView":9,
			"componentType":5126,
			"count":40,
			"type":"VEC3"
		},
		{
			"bufferView":10,
			"componentType":5126,
			"count":40,
			"type":"VEC2"
		},
		{
			"bufferView":11,
			"componentType":5123,
			"count":78,
			"type":"SCALAR"
		},
		{
			"bufferView":12,
			"componentType":5126,
			"count":130,
			"max":[
				0.2644488215446472,
				0.25150567293167114,
				0.05103254318237305
			],
			"min":[
				-0.26444894075393677,
				-0.2515057325363159,
				-0.11866569519042969
			],
			"type":"VEC3"
		},
		{
			"bufferView":13,
			"componentType":5126,
			"count":130,
			"type":"VEC3"
		},
		{
			"bufferView":14,
			"componentType":5126,
			"count":130,
			"type":"VEC2"
		},
		{
			"bufferView":15,
			"componentType":5123,
			"count":324,
			"type":"SCALAR"
		},
		{
			"bufferView":16,
			"componentType":5126,
			"count":30,
			"max":[
				0.10574644804000854,
				0.10057079792022705,
				0.052752792835235596
			],
			"min":[
				-0.1057465672492981,
				-0.10057082772254944,
				0.035652995109558105
			],
			"type":"VEC3"
		},
		{
			"bufferView":17,
			"componentType":5126,
			"count":30,
			"type":"VEC3"
		},
		{
			"bufferView":18,
			"componentType":5126,
			"count":30,
			"type":"VEC2"
		},
		{
			"bufferView":19,
			"componentType":5123,
			"count":84,
			"type":"SCALAR"
		},
		{
			"bufferView":20,
			"componentType":5126,
			"count":130,
			"max":[
				0.264448881149292,
				0.25150567293167114,
				0.05103248357772827
			],
			"min":[
				-0.26444876194000244,
				-0.2515057325363159,
				-0.11866575479507446
			],
			"type":"VEC3"
		},
		{
			"bufferView":21,
			"componentType":5126,
			"count":130,
			"type":"VEC3"
		},
		{
			"bufferView":22,
			"componentType":5126,
			"count":130,
			"type":"VEC2"
		},
		{
			"bufferView":23,
			"componentType":5123,
			"count":324,
			"type":"SCALAR"
		},
		{
			"bufferView":24,
			"componentType":5126,
			"count":30,
			"max":[
				0.10574662685394287,
				0.10057079792022705,
				0.05275273323059082
			],
			"min":[
				-0.10574638843536377,
				-0.10057082772254944,
				0.03565293550491333
			],
			"type":"VEC3"
		},
		{
			"bufferView":25,
			"componentType":5126,
			"count":30,
			"type":"VEC3"
		},
		{
			"bufferView":26,
			"componentType":5126,
			"count":30,
			"type":"VEC2"
		},
		{
			"bufferView":27,
			"componentType":5123,
			"count":84,
			"type":"SCALAR"
		},
		{
			"bufferView":28,
			"componentType":5126,
			"count":129,
			"max":[
				0.2644488215446472,
				0.25150567293167114,
				0.11866551637649536
			],
			"min":[
				-0.26444894075393677,
				-0.2515057325363159,
				-0.05103272199630737
			],
			"type":"VEC3"
		},
		{
			"bufferView":29,
			"componentType":5126,
			"count":129,
			"type":"VEC3"
		},
		{
			"bufferView":30,
			"componentType":5126,
			"count":129,
			"type":"VEC2"
		},
		{
			"bufferView":31,
			"componentType":5123,
			"count":324,
			"type":"SCALAR"
		},
		{
			"bufferView":32,
			"componentType":5126,
			"count":30,
			"max":[
				0.10574644804000854,
				0.10057079792022705,
				-0.03565323352813721
			],
			"min":[
				-0.1057465672492981,
				-0.10057082772254944,
				-0.0527530312538147
			],
			"type":"VEC3"
		},
		{
			"bufferView":33,
			"componentType":5126,
			"count":30,
			"type":"VEC3"
		},
		{
			"bufferView":34,
			"componentType":5126,
			"count":30,
			"type":"VEC2"
		},
		{
			"bufferView":35,
			"componentType":5123,
			"count":84,
			"type":"SCALAR"
		},
		{
			"bufferView":36,
			"componentType":5126,
			"count":130,
			"max":[
				0.264448881149292,
				0.25150567293167114,
				0.11866551637649536
			],
			"min":[
				-0.26444876194000244,
				-0.2515057325363159,
				-0.05103272199630737
			],
			"type":"VEC3"
		},
		{
			"bufferView":37,
			"componentType":5126,
			"count":130,
			"type":"VEC3"
		},
		{
			"bufferView":38,
			"componentType":5126,
			"count":130,
			"type":"VEC2"
		},
		{
			"bufferView":39,
			"componentType":5123,
			"count":324,
			"type":"SCALAR"
		},
		{
			"bufferView":40,
			"componentType":5126,
			"count":30,
			"max":[
				0.10574662685394287,
				0.10057079792022705,
				-0.03565323352813721
			],
			"min":[
				-0.10574638843536377,
				-0.10057082772254944,
				-0.0527530312538147
			],
			"type":"VEC3"
		},
		{
			"bufferView":41,
			"componentType":5126,
			"count":30,
			"type":"VEC3"
		},
		{
			"bufferView":42,
			"componentType":5126,
			"count":30,
			"type":"VEC2"
		}
	],
	"bufferViews":[
		{
			"buffer":0,
			"byteLength":16836,
			"byteOffset":0,
			"target":34962
		},
		{
			"buffer":0,
			"byteLength":16836,
			"byteOffset":16836,
			"target":34962
		},
		{
			"buffer":0,
			"byteLength":11224,
			"byteOffset":33672,
			"target":34962
		},
		{
			"buffer":0,
			"byteLength":5328,
			"byteOffset":44896,
			"target":34963
		},
		{
			"buffer":0,
			"byteLength":12108,
			"byteOffset":50224,
			"target":34962
		},
		{
			"buffer":0,
			"byteLength":12108,
			"byteOffset":62332,
			"target":34962
		},
		{
			"buffer":0,
			"byteLength":8072,
			"byteOffset":74440,
			"target":34962
		},
		{
			"buffer":0,
			"byteLength":4068,
			"byteOffset":82512,
			"target":34963
		},
		{
			"buffer":0,
			"byteLength":480,
			"byteOffset":86580,
			"target":34962
		},
		{
			"buffer":0,
			"byteLength":480,
			"byteOffset":87060,
			"target":34962
		},
		{
			"buffer":0,
			"byteLength":320,
			"byteOffset":87540,
			"target":34962
		},
		{
			"buffer":0,
			"byteLength":156,
			"byteOffset":87860,
			"target":34963
		},
		{
			"buffer":0,
			"byteLength":1560,
			"byteOffset":88016,
			"target":34962
		},
		{
			"buffer":0,
			"byteLength":1560,
			"byteOffset":89576,
			"target":34962
		},
		{
			"buffer":0,
			"byteLength":1040,
			"byteOffset":91136,
			"target":34962
		},
		{
			"buffer":0,
			"byteLength":648,
			"byteOffset":92176,
			"target":34963
		},
		{
			"buffer":0,
			"byteLength":360,
			"byteOffset":92824,
			"target":34962
		},
		{
			"buffer":0,
			"byteLength":360,
			"byteOffset":93184,
			"target":34962
		},
		{
			"buffer":0,
			"byteLength":240,
			"byteOffset":93544,
			"target":34962
		},
		{
			"buffer":0,
			"byteLength":168,
			"byteOffset":93784,
			"target":34963
		},
		{
			"buffer":0,
			"byteLength":1560,
			"byteOffset":93952,
			"target":34962
		},
		{
			"buffer":0,
			"byteLength":1560,
			"byteOffset":95512,
			"target":34962
		},
		{
			"buffer":0,
			"byteLength":1040,
			"byteOffset":97072,
			"target":34962
		},
		{
			"buffer":0,
			"byteLength":648,
			"byteOffset":98112,
			"target":34963
		},
		{
			"buffer":0,
			"byteLength":360,
			"byteOffset":98760,
			"target":34962
		},
		{
			"buffer":0,
			"byteLength":360,
			"byteOffset":99120,
			"target":34962
		},
		{
			"buffer":0,
			"byteLength":240,
			"byteOffset":99480,
			"target":34962
		},
		{
			"buffer":0,
			"byteLength":168,
			"byteOffset":99720,
			"target":34963
		},
		{
			"buffer":0,
			"byteLength":1548,
			"byteOffset":99888,
			"target":34962
		},
		{
			"buffer":0,
			"byteLength":1548,
			"byteOffset":101436,
			"target":34962
		},
		{
			"buffer":0,
			"byteLength":1032,
			"byteOffset":102984,
			"target":34962
		},
		{
			"buffer":0,
			"byteLength":648,
			"byteOffset":104016,
			"target":34963
		},
		{
			"buffer":0,
			"byteLength":360,
			"byteOffset":104664,
			"target":34962
		},
		{
			"buffer":0,
			"byteLength":360,
			"byteOffset":105024,
			"target":34962
		},
		{
			"buffer":0,
			"byteLength":240,
			"byteOffset":105384,
			"target":34962
		},
		{
			"buffer":0,
			"byteLength":168,
			"byteOffset":105624,
			"target":34963
		},
		{
			"buffer":0,
			"byteLength":1560,
			"byteOffset":105792,
			"target":34962
		},
		{
			"buffer":0,
			"byteLength":1560,
			"byteOffset":107352,
			"target":34962
		},
		{
			"buffer":0,
			"byteLength":1040,
			"byteOffset":108912,
			"target":34962
		},
		{
			"buffer":0,
			"byteLength":648,
			"byteOffset":109952,
			"target":34963
		},
		{
			"buffer":0,
			"byteLength":360,
			"byteOffset":110600,
			"target":34962
		},
		{
			"buffer":0,
			"byteLength":360,
			"byteOffset":110960,
			"target":34962
		},
		{
			"buffer":0,
			"byteLength":240,
			"byteOffset":111320,
			"target":34962
		}
	],
	"samplers":[
		{
			"magFilter":9729,
			"minFilter":9987
		}
	],
	"buffers":[
		{
			"byteLength":111560,
			"uri":"Car_18_Q.bin"
		}
	]
}
