{
	"asset":{
		"generator":"Khronos glTF Blender I/O v4.1.63",
		"version":"2.0"
	},
	"extensionsUsed":[
		"EXT_texture_webp"
	],
	"scene":0,
	"scenes":[
		{
			"name":"Scene",
			"nodes":[
				0,
				1,
				2,
				3,
				4
			]
		}
	],
	"nodes":[
		{
			"mesh":0,
			"name":"Taxi_3"
		},
		{
			"mesh":1,
			"name":"RL",
			"translation":[
				0.9651129841804504,
				0.014123215340077877,
				0.750625729560852
			]
		},
		{
			"mesh":2,
			"name":"FL",
			"translation":[
				-0.9571739435195923,
				0.014123215340077877,
				0.7506259679794312
			]
		},
		{
			"mesh":3,
			"name":"RR",
			"translation":[
				0.9651128649711609,
				0.014123215340077877,
				-0.7506260871887207
			]
		},
		{
			"mesh":4,
			"name":"FR",
			"translation":[
				-0.9571739435195923,
				0.014123215340077877,
				-0.7506260871887207
			]
		}
	],
	"materials":[
		{
			"name":"City Car",
			"pbrMetallicRoughness":{
				"baseColorTexture":{
					"index":0
				},
				"metallicFactor":0.34545451402664185,
				"roughnessFactor":0.48181819915771484
			}
		},
		{
			"name":"City Metal",
			"pbrMetallicRoughness":{
				"baseColorTexture":{
					"index":1
				},
				"roughnessFactor":0.2708495557308197
			}
		},
		{
			"name":"Windows",
			"pbrMetallicRoughness":{
				"baseColorTexture":{
					"index":2
				},
				"metallicFactor":0.5454545617103577,
				"roughnessFactor":0.8727272748947144
			}
		},
		{
			"name":"City Atlas",
			"pbrMetallicRoughness":{
				"baseColorTexture":{
					"index":3
				},
				"metallicFactor":0
			}
		}
	],
	"meshes":[
		{
			"name":"Taxi_3",
			"primitives":[
				{
					"attributes":{
						"POSITION":0,
						"NORMAL":1,
						"TEXCOORD_0":2
					},
					"indices":3,
					"material":0
				},
				{
					"attributes":{
						"POSITION":4,
						"NORMAL":5,
						"TEXCOORD_0":6
					},
					"indices":7,
					"material":1
				},
				{
					"attributes":{
						"POSITION":8,
						"NORMAL":9,
						"TEXCOORD_0":10
					},
					"indices":11,
					"material":2
				},
				{
					"attributes":{
						"POSITION":12,
						"NORMAL":13,
						"TEXCOORD_0":14
					},
					"indices":15,
					"material":3
				}
			]
		},
		{
			"name":"RL",
			"primitives":[
				{
					"attributes":{
						"POSITION":16,
						"NORMAL":17,
						"TEXCOORD_0":18
					},
					"indices":19,
					"material":0
				},
				{
					"attributes":{
						"POSITION":20,
						"NORMAL":21,
						"TEXCOORD_0":22
					},
					"indices":23,
					"material":1
				}
			]
		},
		{
			"name":"FL",
			"primitives":[
				{
					"attributes":{
						"POSITION":24,
						"NORMAL":25,
						"TEXCOORD_0":26
					},
					"indices":27,
					"material":0
				},
				{
					"attributes":{
						"POSITION":28,
						"NORMAL":29,
						"TEXCOORD_0":30
					},
					"indices":31,
					"material":1
				}
			]
		},
		{
			"name":"RR",
			"primitives":[
				{
					"attributes":{
						"POSITION":32,
						"NORMAL":33,
						"TEXCOORD_0":34
					},
					"indices":35,
					"material":0
				},
				{
					"attributes":{
						"POSITION":36,
						"NORMAL":37,
						"TEXCOORD_0":38
					},
					"indices":39,
					"material":1
				}
			]
		},
		{
			"name":"FR",
			"primitives":[
				{
					"attributes":{
						"POSITION":40,
						"NORMAL":41,
						"TEXCOORD_0":42
					},
					"indices":43,
					"material":0
				},
				{
					"attributes":{
						"POSITION":44,
						"NORMAL":45,
						"TEXCOORD_0":46
					},
					"indices":39,
					"material":1
				}
			]
		}
	],
	"textures":[
		{
			"extensions":{
				"EXT_texture_webp":{
					"source":0
				}
			},
			"sampler":0,
			"source":1
		},
		{
			"extensions":{
				"EXT_texture_webp":{
					"source":0
				}
			},
			"sampler":0,
			"source":1
		},
		{
			"extensions":{
				"EXT_texture_webp":{
					"source":2
				}
			},
			"sampler":0,
			"source":3
		},
		{
			"extensions":{
				"EXT_texture_webp":{
					"source":0
				}
			},
			"sampler":0,
			"source":1
		}
	],
	"images":[
		{
			"mimeType":"image/webp",
			"name":"City Atlas Map.png",
			"uri":"City%20Atlas%20Map_png.webp"
		},
		{
			"mimeType":"image/png",
			"name":"City Atlas Map.png",
			"uri":"City%20Atlas%20Map_png.png"
		},
		{
			"mimeType":"image/webp",
			"name":"Windows",
			"uri":"Windows.webp"
		},
		{
			"mimeType":"image/png",
			"name":"Windows",
			"uri":"Windows.png"
		}
	],
	"accessors":[
		{
			"bufferView":0,
			"componentType":5126,
			"count":1599,
			"max":[
				1.8676910400390625,
				1.5046372413635254,
				0.8202416896820068
			],
			"min":[
				-1.6820251941680908,
				-0.0012275464832782745,
				-0.8202416896820068
			],
			"type":"VEC3"
		},
		{
			"bufferView":1,
			"componentType":5126,
			"count":1599,
			"type":"VEC3"
		},
		{
			"bufferView":2,
			"componentType":5126,
			"count":1599,
			"type":"VEC2"
		},
		{
			"bufferView":3,
			"componentType":5123,
			"count":3222,
			"type":"SCALAR"
		},
		{
			"bufferView":4,
			"componentType":5126,
			"count":1093,
			"max":[
				1.756866455078125,
				1.309922456741333,
				0.9267914891242981
			],
			"min":[
				-1.7145271301269531,
				0.023931004106998444,
				-0.9267914891242981
			],
			"type":"VEC3"
		},
		{
			"bufferView":5,
			"componentType":5126,
			"count":1093,
			"type":"VEC3"
		},
		{
			"bufferView":6,
			"componentType":5126,
			"count":1093,
			"type":"VEC2"
		},
		{
			"bufferView":7,
			"componentType":5123,
			"count":2166,
			"type":"SCALAR"
		},
		{
			"bufferView":8,
			"componentType":5126,
			"count":40,
			"max":[
				1.5566723346710205,
				1.1937909126281738,
				0.6467150449752808
			],
			"min":[
				-0.5984166264533997,
				0.5906863212585449,
				-0.6467150449752808
			],
			"type":"VEC3"
		},
		{
			"bufferView":9,
			"componentType":5126,
			"count":40,
			"type":"VEC3"
		},
		{
			"bufferView":10,
			"componentType":5126,
			"count":40,
			"type":"VEC2"
		},
		{
			"bufferView":11,
			"componentType":5123,
			"count":78,
			"type":"SCALAR"
		},
		{
			"bufferView":12,
			"componentType":5126,
			"count":296,
			"max":[
				0.7686184644699097,
				1.4707657098770142,
				0.7586231231689453
			],
			"min":[
				-0.7900624871253967,
				0.27609944343566895,
				-0.7586231231689453
			],
			"type":"VEC3"
		},
		{
			"bufferView":13,
			"componentType":5126,
			"count":296,
			"type":"VEC3"
		},
		{
			"bufferView":14,
			"componentType":5126,
			"count":296,
			"type":"VEC2"
		},
		{
			"bufferView":15,
			"componentType":5123,
			"count":588,
			"type":"SCALAR"
		},
		{
			"bufferView":16,
			"componentType":5126,
			"count":130,
			"max":[
				0.26444870233535767,
				0.25150564312934875,
				0.06292359530925751
			],
			"min":[
				-0.26444894075393677,
				-0.2515057325363159,
				-0.14631502330303192
			],
			"type":"VEC3"
		},
		{
			"bufferView":17,
			"componentType":5126,
			"count":130,
			"type":"VEC3"
		},
		{
			"bufferView":18,
			"componentType":5126,
			"count":130,
			"type":"VEC2"
		},
		{
			"bufferView":19,
			"componentType":5123,
			"count":324,
			"type":"SCALAR"
		},
		{
			"bufferView":20,
			"componentType":5126,
			"count":38,
			"max":[
				0.12450987100601196,
				0.11841603368520737,
				0.0650448352098465
			],
			"min":[
				-0.12451004981994629,
				-0.11841607838869095,
				0.0439605675637722
			],
			"type":"VEC3"
		},
		{
			"bufferView":21,
			"componentType":5126,
			"count":38,
			"type":"VEC3"
		},
		{
			"bufferView":22,
			"componentType":5126,
			"count":38,
			"type":"VEC2"
		},
		{
			"bufferView":23,
			"componentType":5123,
			"count":84,
			"type":"SCALAR"
		},
		{
			"bufferView":24,
			"componentType":5126,
			"count":130,
			"max":[
				0.26444894075393677,
				0.25150564312934875,
				0.06292329728603363
			],
			"min":[
				-0.26444870233535767,
				-0.2515057325363159,
				-0.1463153213262558
			],
			"type":"VEC3"
		},
		{
			"bufferView":25,
			"componentType":5126,
			"count":130,
			"type":"VEC3"
		},
		{
			"bufferView":26,
			"componentType":5126,
			"count":130,
			"type":"VEC2"
		},
		{
			"bufferView":27,
			"componentType":5123,
			"count":324,
			"type":"SCALAR"
		},
		{
			"bufferView":28,
			"componentType":5126,
			"count":38,
			"max":[
				0.12451028823852539,
				0.11841603368520737,
				0.06504453718662262
			],
			"min":[
				-0.12450999021530151,
				-0.11841607838869095,
				0.04396027326583862
			],
			"type":"VEC3"
		},
		{
			"bufferView":29,
			"componentType":5126,
			"count":38,
			"type":"VEC3"
		},
		{
			"bufferView":30,
			"componentType":5126,
			"count":38,
			"type":"VEC2"
		},
		{
			"bufferView":31,
			"componentType":5123,
			"count":84,
			"type":"SCALAR"
		},
		{
			"bufferView":32,
			"componentType":5126,
			"count":130,
			"max":[
				0.2644488215446472,
				0.25150564312934875,
				0.14631502330303192
			],
			"min":[
				-0.2644488215446472,
				-0.2515057325363159,
				-0.06292366981506348
			],
			"type":"VEC3"
		},
		{
			"bufferView":33,
			"componentType":5126,
			"count":130,
			"type":"VEC3"
		},
		{
			"bufferView":34,
			"componentType":5126,
			"count":130,
			"type":"VEC2"
		},
		{
			"bufferView":35,
			"componentType":5123,
			"count":324,
			"type":"SCALAR"
		},
		{
			"bufferView":36,
			"componentType":5126,
			"count":30,
			"max":[
				0.12450999021530151,
				0.11841603368520737,
				-0.0439605675637722
			],
			"min":[
				-0.12450993061065674,
				-0.11841607838869095,
				-0.06504476070404053
			],
			"type":"VEC3"
		},
		{
			"bufferView":37,
			"componentType":5126,
			"count":30,
			"type":"VEC3"
		},
		{
			"bufferView":38,
			"componentType":5126,
			"count":30,
			"type":"VEC2"
		},
		{
			"bufferView":39,
			"componentType":5123,
			"count":84,
			"type":"SCALAR"
		},
		{
			"bufferView":40,
			"componentType":5126,
			"count":130,
			"max":[
				0.26444894075393677,
				0.25150564312934875,
				0.14631502330303192
			],
			"min":[
				-0.26444870233535767,
				-0.2515057325363159,
				-0.06292366981506348
			],
			"type":"VEC3"
		},
		{
			"bufferView":41,
			"componentType":5126,
			"count":130,
			"type":"VEC3"
		},
		{
			"bufferView":42,
			"componentType":5126,
			"count":130,
			"type":"VEC2"
		},
		{
			"bufferView":43,
			"componentType":5123,
			"count":324,
			"type":"SCALAR"
		},
		{
			"bufferView":44,
			"componentType":5126,
			"count":30,
			"max":[
				0.12451028823852539,
				0.11841603368520737,
				-0.0439605675637722
			],
			"min":[
				-0.12450999021530151,
				-0.11841607838869095,
				-0.06504476070404053
			],
			"type":"VEC3"
		},
		{
			"bufferView":45,
			"componentType":5126,
			"count":30,
			"type":"VEC3"
		},
		{
			"bufferView":46,
			"componentType":5126,
			"count":30,
			"type":"VEC2"
		}
	],
	"bufferViews":[
		{
			"buffer":0,
			"byteLength":19188,
			"byteOffset":0,
			"target":34962
		},
		{
			"buffer":0,
			"byteLength":19188,
			"byteOffset":19188,
			"target":34962
		},
		{
			"buffer":0,
			"byteLength":12792,
			"byteOffset":38376,
			"target":34962
		},
		{
			"buffer":0,
			"byteLength":6444,
			"byteOffset":51168,
			"target":34963
		},
		{
			"buffer":0,
			"byteLength":13116,
			"byteOffset":57612,
			"target":34962
		},
		{
			"buffer":0,
			"byteLength":13116,
			"byteOffset":70728,
			"target":34962
		},
		{
			"buffer":0,
			"byteLength":8744,
			"byteOffset":83844,
			"target":34962
		},
		{
			"buffer":0,
			"byteLength":4332,
			"byteOffset":92588,
			"target":34963
		},
		{
			"buffer":0,
			"byteLength":480,
			"byteOffset":96920,
			"target":34962
		},
		{
			"buffer":0,
			"byteLength":480,
			"byteOffset":97400,
			"target":34962
		},
		{
			"buffer":0,
			"byteLength":320,
			"byteOffset":97880,
			"target":34962
		},
		{
			"buffer":0,
			"byteLength":156,
			"byteOffset":98200,
			"target":34963
		},
		{
			"buffer":0,
			"byteLength":3552,
			"byteOffset":98356,
			"target":34962
		},
		{
			"buffer":0,
			"byteLength":3552,
			"byteOffset":101908,
			"target":34962
		},
		{
			"buffer":0,
			"byteLength":2368,
			"byteOffset":105460,
			"target":34962
		},
		{
			"buffer":0,
			"byteLength":1176,
			"byteOffset":107828,
			"target":34963
		},
		{
			"buffer":0,
			"byteLength":1560,
			"byteOffset":109004,
			"target":34962
		},
		{
			"buffer":0,
			"byteLength":1560,
			"byteOffset":110564,
			"target":34962
		},
		{
			"buffer":0,
			"byteLength":1040,
			"byteOffset":112124,
			"target":34962
		},
		{
			"buffer":0,
			"byteLength":648,
			"byteOffset":113164,
			"target":34963
		},
		{
			"buffer":0,
			"byteLength":456,
			"byteOffset":113812,
			"target":34962
		},
		{
			"buffer":0,
			"byteLength":456,
			"byteOffset":114268,
			"target":34962
		},
		{
			"buffer":0,
			"byteLength":304,
			"byteOffset":114724,
			"target":34962
		},
		{
			"buffer":0,
			"byteLength":168,
			"byteOffset":115028,
			"target":34963
		},
		{
			"buffer":0,
			"byteLength":1560,
			"byteOffset":115196,
			"target":34962
		},
		{
			"buffer":0,
			"byteLength":1560,
			"byteOffset":116756,
			"target":34962
		},
		{
			"buffer":0,
			"byteLength":1040,
			"byteOffset":118316,
			"target":34962
		},
		{
			"buffer":0,
			"byteLength":648,
			"byteOffset":119356,
			"target":34963
		},
		{
			"buffer":0,
			"byteLength":456,
			"byteOffset":120004,
			"target":34962
		},
		{
			"buffer":0,
			"byteLength":456,
			"byteOffset":120460,
			"target":34962
		},
		{
			"buffer":0,
			"byteLength":304,
			"byteOffset":120916,
			"target":34962
		},
		{
			"buffer":0,
			"byteLength":168,
			"byteOffset":121220,
			"target":34963
		},
		{
			"buffer":0,
			"byteLength":1560,
			"byteOffset":121388,
			"target":34962
		},
		{
			"buffer":0,
			"byteLength":1560,
			"byteOffset":122948,
			"target":34962
		},
		{
			"buffer":0,
			"byteLength":1040,
			"byteOffset":124508,
			"target":34962
		},
		{
			"buffer":0,
			"byteLength":648,
			"byteOffset":125548,
			"target":34963
		},
		{
			"buffer":0,
			"byteLength":360,
			"byteOffset":126196,
			"target":34962
		},
		{
			"buffer":0,
			"byteLength":360,
			"byteOffset":126556,
			"target":34962
		},
		{
			"buffer":0,
			"byteLength":240,
			"byteOffset":126916,
			"target":34962
		},
		{
			"buffer":0,
			"byteLength":168,
			"byteOffset":127156,
			"target":34963
		},
		{
			"buffer":0,
			"byteLength":1560,
			"byteOffset":127324,
			"target":34962
		},
		{
			"buffer":0,
			"byteLength":1560,
			"byteOffset":128884,
			"target":34962
		},
		{
			"buffer":0,
			"byteLength":1040,
			"byteOffset":130444,
			"target":34962
		},
		{
			"buffer":0,
			"byteLength":648,
			"byteOffset":131484,
			"target":34963
		},
		{
			"buffer":0,
			"byteLength":360,
			"byteOffset":132132,
			"target":34962
		},
		{
			"buffer":0,
			"byteLength":360,
			"byteOffset":132492,
			"target":34962
		},
		{
			"buffer":0,
			"byteLength":240,
			"byteOffset":132852,
			"target":34962
		}
	],
	"samplers":[
		{
			"magFilter":9729,
			"minFilter":9987
		}
	],
	"buffers":[
		{
			"byteLength":133092,
			"uri":"Taxi_3.bin"
		}
	]
}
