{
	"asset":{
		"generator":"Khronos glTF Blender I/O v4.1.63",
		"version":"2.0"
	},
	"extensionsUsed":[
		"EXT_texture_webp"
	],
	"scene":0,
	"scenes":[
		{
			"name":"Scene",
			"nodes":[
				0,
				1,
				2,
				3,
				4
			]
		}
	],
	"nodes":[
		{
			"mesh":0,
			"name":"Taxi_1",
			"translation":[
				0.13370463252067566,
				-0.018038570880889893,
				0
			]
		},
		{
			"mesh":1,
			"name":"RL",
			"translation":[
				1.1048156023025513,
				-0.0027376459911465645,
				0.750625729560852
			]
		},
		{
			"mesh":2,
			"name":"FL",
			"translation":[
				-0.8342587947845459,
				-0.0027376459911465645,
				0.7506259679794312
			]
		},
		{
			"mesh":3,
			"name":"RR",
			"translation":[
				1.1048154830932617,
				-0.0027376459911465645,
				-0.7506260871887207
			]
		},
		{
			"mesh":4,
			"name":"FR",
			"translation":[
				-0.8342587947845459,
				-0.0027376459911465645,
				-0.7506260871887207
			]
		}
	],
	"materials":[
		{
			"name":"City Car",
			"pbrMetallicRoughness":{
				"baseColorTexture":{
					"index":0
				},
				"metallicFactor":0.34545451402664185,
				"roughnessFactor":0.48181819915771484
			}
		},
		{
			"name":"Windows",
			"pbrMetallicRoughness":{
				"baseColorTexture":{
					"index":1
				},
				"metallicFactor":0.5454545617103577,
				"roughnessFactor":0.8727272748947144
			}
		},
		{
			"name":"City Metal",
			"pbrMetallicRoughness":{
				"baseColorTexture":{
					"index":2
				},
				"roughnessFactor":0.2708495557308197
			}
		},
		{
			"name":"City Atlas",
			"pbrMetallicRoughness":{
				"baseColorTexture":{
					"index":3
				},
				"metallicFactor":0
			}
		}
	],
	"meshes":[
		{
			"name":"Taxi_1",
			"primitives":[
				{
					"attributes":{
						"POSITION":0,
						"NORMAL":1,
						"TEXCOORD_0":2
					},
					"indices":3,
					"material":0
				},
				{
					"attributes":{
						"POSITION":4,
						"NORMAL":5,
						"TEXCOORD_0":6
					},
					"indices":7,
					"material":1
				},
				{
					"attributes":{
						"POSITION":8,
						"NORMAL":9,
						"TEXCOORD_0":10
					},
					"indices":11,
					"material":2
				},
				{
					"attributes":{
						"POSITION":12,
						"NORMAL":13,
						"TEXCOORD_0":14
					},
					"indices":15,
					"material":3
				}
			]
		},
		{
			"name":"RL",
			"primitives":[
				{
					"attributes":{
						"POSITION":16,
						"NORMAL":17,
						"TEXCOORD_0":18
					},
					"indices":19,
					"material":0
				},
				{
					"attributes":{
						"POSITION":20,
						"NORMAL":21,
						"TEXCOORD_0":22
					},
					"indices":23,
					"material":2
				}
			]
		},
		{
			"name":"FL",
			"primitives":[
				{
					"attributes":{
						"POSITION":24,
						"NORMAL":25,
						"TEXCOORD_0":26
					},
					"indices":27,
					"material":0
				},
				{
					"attributes":{
						"POSITION":28,
						"NORMAL":29,
						"TEXCOORD_0":30
					},
					"indices":31,
					"material":2
				}
			]
		},
		{
			"name":"RR",
			"primitives":[
				{
					"attributes":{
						"POSITION":32,
						"NORMAL":33,
						"TEXCOORD_0":34
					},
					"indices":35,
					"material":0
				},
				{
					"attributes":{
						"POSITION":36,
						"NORMAL":37,
						"TEXCOORD_0":38
					},
					"indices":39,
					"material":2
				}
			]
		},
		{
			"name":"FR",
			"primitives":[
				{
					"attributes":{
						"POSITION":40,
						"NORMAL":41,
						"TEXCOORD_0":42
					},
					"indices":43,
					"material":0
				},
				{
					"attributes":{
						"POSITION":44,
						"NORMAL":45,
						"TEXCOORD_0":46
					},
					"indices":39,
					"material":2
				}
			]
		}
	],
	"textures":[
		{
			"extensions":{
				"EXT_texture_webp":{
					"source":0
				}
			},
			"sampler":0,
			"source":1
		},
		{
			"extensions":{
				"EXT_texture_webp":{
					"source":2
				}
			},
			"sampler":0,
			"source":3
		},
		{
			"extensions":{
				"EXT_texture_webp":{
					"source":0
				}
			},
			"sampler":0,
			"source":1
		},
		{
			"extensions":{
				"EXT_texture_webp":{
					"source":0
				}
			},
			"sampler":0,
			"source":1
		}
	],
	"images":[
		{
			"mimeType":"image/webp",
			"name":"City Atlas Map.png",
			"uri":"City%20Atlas%20Map_png.webp"
		},
		{
			"mimeType":"image/png",
			"name":"City Atlas Map.png",
			"uri":"City%20Atlas%20Map_png.png"
		},
		{
			"mimeType":"image/webp",
			"name":"Windows",
			"uri":"Windows.webp"
		},
		{
			"mimeType":"image/png",
			"name":"Windows",
			"uri":"Windows.png"
		}
	],
	"accessors":[
		{
			"bufferView":0,
			"componentType":5126,
			"count":1524,
			"max":[
				1.7328816652297974,
				1.4685518741607666,
				0.8036040663719177
			],
			"min":[
				-1.7716349363327026,
				-0.0002507772296667099,
				-0.8036040663719177
			],
			"type":"VEC3"
		},
		{
			"bufferView":1,
			"componentType":5126,
			"count":1524,
			"type":"VEC3"
		},
		{
			"bufferView":2,
			"componentType":5126,
			"count":1524,
			"type":"VEC2"
		},
		{
			"bufferView":3,
			"componentType":5123,
			"count":3180,
			"type":"SCALAR"
		},
		{
			"bufferView":4,
			"componentType":5126,
			"count":24,
			"max":[
				1.0249152183532715,
				1.1385350227355957,
				0.6164228320121765
			],
			"min":[
				-0.6918574571609497,
				0.6282169222831726,
				-0.6164228320121765
			],
			"type":"VEC3"
		},
		{
			"bufferView":5,
			"componentType":5126,
			"count":24,
			"type":"VEC3"
		},
		{
			"bufferView":6,
			"componentType":5126,
			"count":24,
			"type":"VEC2"
		},
		{
			"bufferView":7,
			"componentType":5123,
			"count":36,
			"type":"SCALAR"
		},
		{
			"bufferView":8,
			"componentType":5126,
			"count":1449,
			"max":[
				1.7791823148727417,
				1.2738370895385742,
				0.8327786922454834
			],
			"min":[
				-1.7342783212661743,
				0.018038608133792877,
				-0.8327786922454834
			],
			"type":"VEC3"
		},
		{
			"bufferView":9,
			"componentType":5126,
			"count":1449,
			"type":"VEC3"
		},
		{
			"bufferView":10,
			"componentType":5126,
			"count":1449,
			"type":"VEC2"
		},
		{
			"bufferView":11,
			"componentType":5123,
			"count":2529,
			"type":"SCALAR"
		},
		{
			"bufferView":12,
			"componentType":5126,
			"count":366,
			"max":[
				0.7774516344070435,
				1.434680461883545,
				0.7198350429534912
			],
			"min":[
				-1.7046446800231934,
				0.25413140654563904,
				-0.7198350429534912
			],
			"type":"VEC3"
		},
		{
			"bufferView":13,
			"componentType":5126,
			"count":366,
			"type":"VEC3"
		},
		{
			"bufferView":14,
			"componentType":5126,
			"count":366,
			"type":"VEC2"
		},
		{
			"bufferView":15,
			"componentType":5123,
			"count":702,
			"type":"SCALAR"
		},
		{
			"bufferView":16,
			"componentType":5126,
			"count":130,
			"max":[
				0.26444870233535767,
				0.25150564312934875,
				0.05076718330383301
			],
			"min":[
				-0.26444894075393677,
				-0.2515057325363159,
				-0.11804795265197754
			],
			"type":"VEC3"
		},
		{
			"bufferView":17,
			"componentType":5126,
			"count":130,
			"type":"VEC3"
		},
		{
			"bufferView":18,
			"componentType":5126,
			"count":130,
			"type":"VEC2"
		},
		{
			"bufferView":19,
			"componentType":5123,
			"count":324,
			"type":"SCALAR"
		},
		{
			"bufferView":20,
			"componentType":5126,
			"count":38,
			"max":[
				0.12450987100601196,
				0.11841603368520737,
				0.0524786114692688
			],
			"min":[
				-0.12451004981994629,
				-0.11841607838869095,
				0.035467684268951416
			],
			"type":"VEC3"
		},
		{
			"bufferView":21,
			"componentType":5126,
			"count":38,
			"type":"VEC3"
		},
		{
			"bufferView":22,
			"componentType":5126,
			"count":38,
			"type":"VEC2"
		},
		{
			"bufferView":23,
			"componentType":5123,
			"count":84,
			"type":"SCALAR"
		},
		{
			"bufferView":24,
			"componentType":5126,
			"count":130,
			"max":[
				0.26444894075393677,
				0.25150564312934875,
				0.050766944885253906
			],
			"min":[
				-0.26444870233535767,
				-0.2515057325363159,
				-0.11804819107055664
			],
			"type":"VEC3"
		},
		{
			"bufferView":25,
			"componentType":5126,
			"count":130,
			"type":"VEC3"
		},
		{
			"bufferView":26,
			"componentType":5126,
			"count":130,
			"type":"VEC2"
		},
		{
			"bufferView":27,
			"componentType":5123,
			"count":324,
			"type":"SCALAR"
		},
		{
			"bufferView":28,
			"componentType":5126,
			"count":38,
			"max":[
				0.12451028823852539,
				0.11841603368520737,
				0.0524783730506897
			],
			"min":[
				-0.12450999021530151,
				-0.11841607838869095,
				0.035467445850372314
			],
			"type":"VEC3"
		},
		{
			"bufferView":29,
			"componentType":5126,
			"count":38,
			"type":"VEC3"
		},
		{
			"bufferView":30,
			"componentType":5126,
			"count":38,
			"type":"VEC2"
		},
		{
			"bufferView":31,
			"componentType":5123,
			"count":84,
			"type":"SCALAR"
		},
		{
			"bufferView":32,
			"componentType":5126,
			"count":130,
			"max":[
				0.2644488215446472,
				0.25150564312934875,
				0.11804795265197754
			],
			"min":[
				-0.2644488215446472,
				-0.2515057325363159,
				-0.05076724290847778
			],
			"type":"VEC3"
		},
		{
			"bufferView":33,
			"componentType":5126,
			"count":130,
			"type":"VEC3"
		},
		{
			"bufferView":34,
			"componentType":5126,
			"count":130,
			"type":"VEC2"
		},
		{
			"bufferView":35,
			"componentType":5123,
			"count":324,
			"type":"SCALAR"
		},
		{
			"bufferView":36,
			"componentType":5126,
			"count":30,
			"max":[
				0.12450999021530151,
				0.11841603368520737,
				-0.035467684268951416
			],
			"min":[
				-0.12450993061065674,
				-0.11841607838869095,
				-0.05247855186462402
			],
			"type":"VEC3"
		},
		{
			"bufferView":37,
			"componentType":5126,
			"count":30,
			"type":"VEC3"
		},
		{
			"bufferView":38,
			"componentType":5126,
			"count":30,
			"type":"VEC2"
		},
		{
			"bufferView":39,
			"componentType":5123,
			"count":84,
			"type":"SCALAR"
		},
		{
			"bufferView":40,
			"componentType":5126,
			"count":130,
			"max":[
				0.26444894075393677,
				0.25150564312934875,
				0.11804795265197754
			],
			"min":[
				-0.26444870233535767,
				-0.2515057325363159,
				-0.05076724290847778
			],
			"type":"VEC3"
		},
		{
			"bufferView":41,
			"componentType":5126,
			"count":130,
			"type":"VEC3"
		},
		{
			"bufferView":42,
			"componentType":5126,
			"count":130,
			"type":"VEC2"
		},
		{
			"bufferView":43,
			"componentType":5123,
			"count":324,
			"type":"SCALAR"
		},
		{
			"bufferView":44,
			"componentType":5126,
			"count":30,
			"max":[
				0.12451028823852539,
				0.11841603368520737,
				-0.035467684268951416
			],
			"min":[
				-0.12450999021530151,
				-0.11841607838869095,
				-0.05247855186462402
			],
			"type":"VEC3"
		},
		{
			"bufferView":45,
			"componentType":5126,
			"count":30,
			"type":"VEC3"
		},
		{
			"bufferView":46,
			"componentType":5126,
			"count":30,
			"type":"VEC2"
		}
	],
	"bufferViews":[
		{
			"buffer":0,
			"byteLength":18288,
			"byteOffset":0,
			"target":34962
		},
		{
			"buffer":0,
			"byteLength":18288,
			"byteOffset":18288,
			"target":34962
		},
		{
			"buffer":0,
			"byteLength":12192,
			"byteOffset":36576,
			"target":34962
		},
		{
			"buffer":0,
			"byteLength":6360,
			"byteOffset":48768,
			"target":34963
		},
		{
			"buffer":0,
			"byteLength":288,
			"byteOffset":55128,
			"target":34962
		},
		{
			"buffer":0,
			"byteLength":288,
			"byteOffset":55416,
			"target":34962
		},
		{
			"buffer":0,
			"byteLength":192,
			"byteOffset":55704,
			"target":34962
		},
		{
			"buffer":0,
			"byteLength":72,
			"byteOffset":55896,
			"target":34963
		},
		{
			"buffer":0,
			"byteLength":17388,
			"byteOffset":55968,
			"target":34962
		},
		{
			"buffer":0,
			"byteLength":17388,
			"byteOffset":73356,
			"target":34962
		},
		{
			"buffer":0,
			"byteLength":11592,
			"byteOffset":90744,
			"target":34962
		},
		{
			"buffer":0,
			"byteLength":5058,
			"byteOffset":102336,
			"target":34963
		},
		{
			"buffer":0,
			"byteLength":4392,
			"byteOffset":107396,
			"target":34962
		},
		{
			"buffer":0,
			"byteLength":4392,
			"byteOffset":111788,
			"target":34962
		},
		{
			"buffer":0,
			"byteLength":2928,
			"byteOffset":116180,
			"target":34962
		},
		{
			"buffer":0,
			"byteLength":1404,
			"byteOffset":119108,
			"target":34963
		},
		{
			"buffer":0,
			"byteLength":1560,
			"byteOffset":120512,
			"target":34962
		},
		{
			"buffer":0,
			"byteLength":1560,
			"byteOffset":122072,
			"target":34962
		},
		{
			"buffer":0,
			"byteLength":1040,
			"byteOffset":123632,
			"target":34962
		},
		{
			"buffer":0,
			"byteLength":648,
			"byteOffset":124672,
			"target":34963
		},
		{
			"buffer":0,
			"byteLength":456,
			"byteOffset":125320,
			"target":34962
		},
		{
			"buffer":0,
			"byteLength":456,
			"byteOffset":125776,
			"target":34962
		},
		{
			"buffer":0,
			"byteLength":304,
			"byteOffset":126232,
			"target":34962
		},
		{
			"buffer":0,
			"byteLength":168,
			"byteOffset":126536,
			"target":34963
		},
		{
			"buffer":0,
			"byteLength":1560,
			"byteOffset":126704,
			"target":34962
		},
		{
			"buffer":0,
			"byteLength":1560,
			"byteOffset":128264,
			"target":34962
		},
		{
			"buffer":0,
			"byteLength":1040,
			"byteOffset":129824,
			"target":34962
		},
		{
			"buffer":0,
			"byteLength":648,
			"byteOffset":130864,
			"target":34963
		},
		{
			"buffer":0,
			"byteLength":456,
			"byteOffset":131512,
			"target":34962
		},
		{
			"buffer":0,
			"byteLength":456,
			"byteOffset":131968,
			"target":34962
		},
		{
			"buffer":0,
			"byteLength":304,
			"byteOffset":132424,
			"target":34962
		},
		{
			"buffer":0,
			"byteLength":168,
			"byteOffset":132728,
			"target":34963
		},
		{
			"buffer":0,
			"byteLength":1560,
			"byteOffset":132896,
			"target":34962
		},
		{
			"buffer":0,
			"byteLength":1560,
			"byteOffset":134456,
			"target":34962
		},
		{
			"buffer":0,
			"byteLength":1040,
			"byteOffset":136016,
			"target":34962
		},
		{
			"buffer":0,
			"byteLength":648,
			"byteOffset":137056,
			"target":34963
		},
		{
			"buffer":0,
			"byteLength":360,
			"byteOffset":137704,
			"target":34962
		},
		{
			"buffer":0,
			"byteLength":360,
			"byteOffset":138064,
			"target":34962
		},
		{
			"buffer":0,
			"byteLength":240,
			"byteOffset":138424,
			"target":34962
		},
		{
			"buffer":0,
			"byteLength":168,
			"byteOffset":138664,
			"target":34963
		},
		{
			"buffer":0,
			"byteLength":1560,
			"byteOffset":138832,
			"target":34962
		},
		{
			"buffer":0,
			"byteLength":1560,
			"byteOffset":140392,
			"target":34962
		},
		{
			"buffer":0,
			"byteLength":1040,
			"byteOffset":141952,
			"target":34962
		},
		{
			"buffer":0,
			"byteLength":648,
			"byteOffset":142992,
			"target":34963
		},
		{
			"buffer":0,
			"byteLength":360,
			"byteOffset":143640,
			"target":34962
		},
		{
			"buffer":0,
			"byteLength":360,
			"byteOffset":144000,
			"target":34962
		},
		{
			"buffer":0,
			"byteLength":240,
			"byteOffset":144360,
			"target":34962
		}
	],
	"samplers":[
		{
			"magFilter":9729,
			"minFilter":9987
		}
	],
	"buffers":[
		{
			"byteLength":144600,
			"uri":"Taxi_1.bin"
		}
	]
}
