{
	"asset":{
		"generator":"Khronos glTF Blender I/O v4.1.63",
		"version":"2.0"
	},
	"extensionsUsed":[
		"EXT_texture_webp"
	],
	"scene":0,
	"scenes":[
		{
			"name":"Scene",
			"nodes":[
				0,
				1,
				2,
				3,
				4
			]
		}
	],
	"nodes":[
		{
			"mesh":0,
			"name":"Taxi_4"
		},
		{
			"mesh":1,
			"name":"RL",
			"translation":[
				0.9651129841804504,
				0.014123215340077877,
				0.750625729560852
			]
		},
		{
			"mesh":2,
			"name":"FL",
			"translation":[
				-0.9571739435195923,
				0.014123215340077877,
				0.7506259679794312
			]
		},
		{
			"mesh":3,
			"name":"RR",
			"translation":[
				0.9651128649711609,
				0.014123215340077877,
				-0.7506260871887207
			]
		},
		{
			"mesh":4,
			"name":"FR",
			"translation":[
				-0.9571739435195923,
				0.014123215340077877,
				-0.7506260871887207
			]
		}
	],
	"materials":[
		{
			"name":"City Car",
			"pbrMetallicRoughness":{
				"baseColorTexture":{
					"index":0
				},
				"metallicFactor":0.34545451402664185,
				"roughnessFactor":0.48181819915771484
			}
		},
		{
			"name":"Windows",
			"pbrMetallicRoughness":{
				"baseColorTexture":{
					"index":1
				},
				"metallicFactor":0.5454545617103577,
				"roughnessFactor":0.8727272748947144
			}
		},
		{
			"name":"City Metal",
			"pbrMetallicRoughness":{
				"baseColorTexture":{
					"index":2
				},
				"roughnessFactor":0.2708495557308197
			}
		},
		{
			"name":"City Atlas",
			"pbrMetallicRoughness":{
				"baseColorTexture":{
					"index":3
				},
				"metallicFactor":0
			}
		}
	],
	"meshes":[
		{
			"name":"Taxi_4",
			"primitives":[
				{
					"attributes":{
						"POSITION":0,
						"NORMAL":1,
						"TEXCOORD_0":2
					},
					"indices":3,
					"material":0
				},
				{
					"attributes":{
						"POSITION":4,
						"NORMAL":5,
						"TEXCOORD_0":6
					},
					"indices":7,
					"material":1
				},
				{
					"attributes":{
						"POSITION":8,
						"NORMAL":9,
						"TEXCOORD_0":10
					},
					"indices":11,
					"material":2
				},
				{
					"attributes":{
						"POSITION":12,
						"NORMAL":13,
						"TEXCOORD_0":14
					},
					"indices":15,
					"material":3
				}
			]
		},
		{
			"name":"RL",
			"primitives":[
				{
					"attributes":{
						"POSITION":16,
						"NORMAL":17,
						"TEXCOORD_0":18
					},
					"indices":19,
					"material":0
				},
				{
					"attributes":{
						"POSITION":20,
						"NORMAL":21,
						"TEXCOORD_0":22
					},
					"indices":23,
					"material":2
				}
			]
		},
		{
			"name":"FL",
			"primitives":[
				{
					"attributes":{
						"POSITION":24,
						"NORMAL":25,
						"TEXCOORD_0":26
					},
					"indices":27,
					"material":0
				},
				{
					"attributes":{
						"POSITION":28,
						"NORMAL":29,
						"TEXCOORD_0":30
					},
					"indices":31,
					"material":2
				}
			]
		},
		{
			"name":"RR",
			"primitives":[
				{
					"attributes":{
						"POSITION":32,
						"NORMAL":33,
						"TEXCOORD_0":34
					},
					"indices":35,
					"material":0
				},
				{
					"attributes":{
						"POSITION":36,
						"NORMAL":37,
						"TEXCOORD_0":38
					},
					"indices":39,
					"material":2
				}
			]
		},
		{
			"name":"FR",
			"primitives":[
				{
					"attributes":{
						"POSITION":40,
						"NORMAL":41,
						"TEXCOORD_0":42
					},
					"indices":43,
					"material":0
				},
				{
					"attributes":{
						"POSITION":44,
						"NORMAL":45,
						"TEXCOORD_0":46
					},
					"indices":39,
					"material":2
				}
			]
		}
	],
	"textures":[
		{
			"extensions":{
				"EXT_texture_webp":{
					"source":0
				}
			},
			"sampler":0,
			"source":1
		},
		{
			"extensions":{
				"EXT_texture_webp":{
					"source":2
				}
			},
			"sampler":0,
			"source":3
		},
		{
			"extensions":{
				"EXT_texture_webp":{
					"source":0
				}
			},
			"sampler":0,
			"source":1
		},
		{
			"extensions":{
				"EXT_texture_webp":{
					"source":0
				}
			},
			"sampler":0,
			"source":1
		}
	],
	"images":[
		{
			"mimeType":"image/webp",
			"name":"City Atlas Map.png",
			"uri":"City%20Atlas%20Map_png.webp"
		},
		{
			"mimeType":"image/png",
			"name":"City Atlas Map.png",
			"uri":"City%20Atlas%20Map_png.png"
		},
		{
			"mimeType":"image/webp",
			"name":"Windows",
			"uri":"Windows.webp"
		},
		{
			"mimeType":"image/png",
			"name":"Windows",
			"uri":"Windows.png"
		}
	],
	"accessors":[
		{
			"bufferView":0,
			"componentType":5126,
			"count":1592,
			"max":[
				1.7328816652297974,
				1.8151218891143799,
				0.7970409393310547
			],
			"min":[
				-1.7716349363327026,
				-0.0002507772296667099,
				-0.7970409393310547
			],
			"type":"VEC3"
		},
		{
			"bufferView":1,
			"componentType":5126,
			"count":1592,
			"type":"VEC3"
		},
		{
			"bufferView":2,
			"componentType":5126,
			"count":1592,
			"type":"VEC2"
		},
		{
			"bufferView":3,
			"componentType":5123,
			"count":3312,
			"type":"SCALAR"
		},
		{
			"bufferView":4,
			"componentType":5126,
			"count":24,
			"max":[
				1.0179506540298462,
				1.500145673751831,
				0.6113885045051575
			],
			"min":[
				-0.698822021484375,
				0.6282169222831726,
				-0.6113885045051575
			],
			"type":"VEC3"
		},
		{
			"bufferView":5,
			"componentType":5126,
			"count":24,
			"type":"VEC3"
		},
		{
			"bufferView":6,
			"componentType":5126,
			"count":24,
			"type":"VEC2"
		},
		{
			"bufferView":7,
			"componentType":5123,
			"count":36,
			"type":"SCALAR"
		},
		{
			"bufferView":8,
			"componentType":5126,
			"count":1472,
			"max":[
				1.7568663358688354,
				1.6204071044921875,
				0.8259773254394531
			],
			"min":[
				-1.7342783212661743,
				0.018038608133792877,
				-0.8259773254394531
			],
			"type":"VEC3"
		},
		{
			"bufferView":9,
			"componentType":5126,
			"count":1472,
			"type":"VEC3"
		},
		{
			"bufferView":10,
			"componentType":5126,
			"count":1472,
			"type":"VEC2"
		},
		{
			"bufferView":11,
			"componentType":5123,
			"count":2592,
			"type":"SCALAR"
		},
		{
			"bufferView":12,
			"componentType":5126,
			"count":366,
			"max":[
				0.7757860422134399,
				1.7812504768371582,
				0.7161197662353516
			],
			"min":[
				-1.7046446800231934,
				0.25413140654563904,
				-0.7161197662353516
			],
			"type":"VEC3"
		},
		{
			"bufferView":13,
			"componentType":5126,
			"count":366,
			"type":"VEC3"
		},
		{
			"bufferView":14,
			"componentType":5126,
			"count":366,
			"type":"VEC2"
		},
		{
			"bufferView":15,
			"componentType":5123,
			"count":702,
			"type":"SCALAR"
		},
		{
			"bufferView":16,
			"componentType":5126,
			"count":130,
			"max":[
				0.26444870233535767,
				0.25150564312934875,
				0.06292359530925751
			],
			"min":[
				-0.26444894075393677,
				-0.2515057325363159,
				-0.14631502330303192
			],
			"type":"VEC3"
		},
		{
			"bufferView":17,
			"componentType":5126,
			"count":130,
			"type":"VEC3"
		},
		{
			"bufferView":18,
			"componentType":5126,
			"count":130,
			"type":"VEC2"
		},
		{
			"bufferView":19,
			"componentType":5123,
			"count":324,
			"type":"SCALAR"
		},
		{
			"bufferView":20,
			"componentType":5126,
			"count":38,
			"max":[
				0.12450987100601196,
				0.11841603368520737,
				0.0650448352098465
			],
			"min":[
				-0.12451004981994629,
				-0.11841607838869095,
				0.0439605675637722
			],
			"type":"VEC3"
		},
		{
			"bufferView":21,
			"componentType":5126,
			"count":38,
			"type":"VEC3"
		},
		{
			"bufferView":22,
			"componentType":5126,
			"count":38,
			"type":"VEC2"
		},
		{
			"bufferView":23,
			"componentType":5123,
			"count":84,
			"type":"SCALAR"
		},
		{
			"bufferView":24,
			"componentType":5126,
			"count":130,
			"max":[
				0.26444894075393677,
				0.25150564312934875,
				0.06292329728603363
			],
			"min":[
				-0.26444870233535767,
				-0.2515057325363159,
				-0.1463153213262558
			],
			"type":"VEC3"
		},
		{
			"bufferView":25,
			"componentType":5126,
			"count":130,
			"type":"VEC3"
		},
		{
			"bufferView":26,
			"componentType":5126,
			"count":130,
			"type":"VEC2"
		},
		{
			"bufferView":27,
			"componentType":5123,
			"count":324,
			"type":"SCALAR"
		},
		{
			"bufferView":28,
			"componentType":5126,
			"count":38,
			"max":[
				0.12451028823852539,
				0.11841603368520737,
				0.06504453718662262
			],
			"min":[
				-0.12450999021530151,
				-0.11841607838869095,
				0.04396027326583862
			],
			"type":"VEC3"
		},
		{
			"bufferView":29,
			"componentType":5126,
			"count":38,
			"type":"VEC3"
		},
		{
			"bufferView":30,
			"componentType":5126,
			"count":38,
			"type":"VEC2"
		},
		{
			"bufferView":31,
			"componentType":5123,
			"count":84,
			"type":"SCALAR"
		},
		{
			"bufferView":32,
			"componentType":5126,
			"count":130,
			"max":[
				0.2644488215446472,
				0.25150564312934875,
				0.14631502330303192
			],
			"min":[
				-0.2644488215446472,
				-0.2515057325363159,
				-0.06292366981506348
			],
			"type":"VEC3"
		},
		{
			"bufferView":33,
			"componentType":5126,
			"count":130,
			"type":"VEC3"
		},
		{
			"bufferView":34,
			"componentType":5126,
			"count":130,
			"type":"VEC2"
		},
		{
			"bufferView":35,
			"componentType":5123,
			"count":324,
			"type":"SCALAR"
		},
		{
			"bufferView":36,
			"componentType":5126,
			"count":30,
			"max":[
				0.12450999021530151,
				0.11841603368520737,
				-0.0439605675637722
			],
			"min":[
				-0.12450993061065674,
				-0.11841607838869095,
				-0.06504476070404053
			],
			"type":"VEC3"
		},
		{
			"bufferView":37,
			"componentType":5126,
			"count":30,
			"type":"VEC3"
		},
		{
			"bufferView":38,
			"componentType":5126,
			"count":30,
			"type":"VEC2"
		},
		{
			"bufferView":39,
			"componentType":5123,
			"count":84,
			"type":"SCALAR"
		},
		{
			"bufferView":40,
			"componentType":5126,
			"count":130,
			"max":[
				0.26444894075393677,
				0.25150564312934875,
				0.14631502330303192
			],
			"min":[
				-0.26444870233535767,
				-0.2515057325363159,
				-0.06292366981506348
			],
			"type":"VEC3"
		},
		{
			"bufferView":41,
			"componentType":5126,
			"count":130,
			"type":"VEC3"
		},
		{
			"bufferView":42,
			"componentType":5126,
			"count":130,
			"type":"VEC2"
		},
		{
			"bufferView":43,
			"componentType":5123,
			"count":324,
			"type":"SCALAR"
		},
		{
			"bufferView":44,
			"componentType":5126,
			"count":30,
			"max":[
				0.12451028823852539,
				0.11841603368520737,
				-0.0439605675637722
			],
			"min":[
				-0.12450999021530151,
				-0.11841607838869095,
				-0.06504476070404053
			],
			"type":"VEC3"
		},
		{
			"bufferView":45,
			"componentType":5126,
			"count":30,
			"type":"VEC3"
		},
		{
			"bufferView":46,
			"componentType":5126,
			"count":30,
			"type":"VEC2"
		}
	],
	"bufferViews":[
		{
			"buffer":0,
			"byteLength":19104,
			"byteOffset":0,
			"target":34962
		},
		{
			"buffer":0,
			"byteLength":19104,
			"byteOffset":19104,
			"target":34962
		},
		{
			"buffer":0,
			"byteLength":12736,
			"byteOffset":38208,
			"target":34962
		},
		{
			"buffer":0,
			"byteLength":6624,
			"byteOffset":50944,
			"target":34963
		},
		{
			"buffer":0,
			"byteLength":288,
			"byteOffset":57568,
			"target":34962
		},
		{
			"buffer":0,
			"byteLength":288,
			"byteOffset":57856,
			"target":34962
		},
		{
			"buffer":0,
			"byteLength":192,
			"byteOffset":58144,
			"target":34962
		},
		{
			"buffer":0,
			"byteLength":72,
			"byteOffset":58336,
			"target":34963
		},
		{
			"buffer":0,
			"byteLength":17664,
			"byteOffset":58408,
			"target":34962
		},
		{
			"buffer":0,
			"byteLength":17664,
			"byteOffset":76072,
			"target":34962
		},
		{
			"buffer":0,
			"byteLength":11776,
			"byteOffset":93736,
			"target":34962
		},
		{
			"buffer":0,
			"byteLength":5184,
			"byteOffset":105512,
			"target":34963
		},
		{
			"buffer":0,
			"byteLength":4392,
			"byteOffset":110696,
			"target":34962
		},
		{
			"buffer":0,
			"byteLength":4392,
			"byteOffset":115088,
			"target":34962
		},
		{
			"buffer":0,
			"byteLength":2928,
			"byteOffset":119480,
			"target":34962
		},
		{
			"buffer":0,
			"byteLength":1404,
			"byteOffset":122408,
			"target":34963
		},
		{
			"buffer":0,
			"byteLength":1560,
			"byteOffset":123812,
			"target":34962
		},
		{
			"buffer":0,
			"byteLength":1560,
			"byteOffset":125372,
			"target":34962
		},
		{
			"buffer":0,
			"byteLength":1040,
			"byteOffset":126932,
			"target":34962
		},
		{
			"buffer":0,
			"byteLength":648,
			"byteOffset":127972,
			"target":34963
		},
		{
			"buffer":0,
			"byteLength":456,
			"byteOffset":128620,
			"target":34962
		},
		{
			"buffer":0,
			"byteLength":456,
			"byteOffset":129076,
			"target":34962
		},
		{
			"buffer":0,
			"byteLength":304,
			"byteOffset":129532,
			"target":34962
		},
		{
			"buffer":0,
			"byteLength":168,
			"byteOffset":129836,
			"target":34963
		},
		{
			"buffer":0,
			"byteLength":1560,
			"byteOffset":130004,
			"target":34962
		},
		{
			"buffer":0,
			"byteLength":1560,
			"byteOffset":131564,
			"target":34962
		},
		{
			"buffer":0,
			"byteLength":1040,
			"byteOffset":133124,
			"target":34962
		},
		{
			"buffer":0,
			"byteLength":648,
			"byteOffset":134164,
			"target":34963
		},
		{
			"buffer":0,
			"byteLength":456,
			"byteOffset":134812,
			"target":34962
		},
		{
			"buffer":0,
			"byteLength":456,
			"byteOffset":135268,
			"target":34962
		},
		{
			"buffer":0,
			"byteLength":304,
			"byteOffset":135724,
			"target":34962
		},
		{
			"buffer":0,
			"byteLength":168,
			"byteOffset":136028,
			"target":34963
		},
		{
			"buffer":0,
			"byteLength":1560,
			"byteOffset":136196,
			"target":34962
		},
		{
			"buffer":0,
			"byteLength":1560,
			"byteOffset":137756,
			"target":34962
		},
		{
			"buffer":0,
			"byteLength":1040,
			"byteOffset":139316,
			"target":34962
		},
		{
			"buffer":0,
			"byteLength":648,
			"byteOffset":140356,
			"target":34963
		},
		{
			"buffer":0,
			"byteLength":360,
			"byteOffset":141004,
			"target":34962
		},
		{
			"buffer":0,
			"byteLength":360,
			"byteOffset":141364,
			"target":34962
		},
		{
			"buffer":0,
			"byteLength":240,
			"byteOffset":141724,
			"target":34962
		},
		{
			"buffer":0,
			"byteLength":168,
			"byteOffset":141964,
			"target":34963
		},
		{
			"buffer":0,
			"byteLength":1560,
			"byteOffset":142132,
			"target":34962
		},
		{
			"buffer":0,
			"byteLength":1560,
			"byteOffset":143692,
			"target":34962
		},
		{
			"buffer":0,
			"byteLength":1040,
			"byteOffset":145252,
			"target":34962
		},
		{
			"buffer":0,
			"byteLength":648,
			"byteOffset":146292,
			"target":34963
		},
		{
			"buffer":0,
			"byteLength":360,
			"byteOffset":146940,
			"target":34962
		},
		{
			"buffer":0,
			"byteLength":360,
			"byteOffset":147300,
			"target":34962
		},
		{
			"buffer":0,
			"byteLength":240,
			"byteOffset":147660,
			"target":34962
		}
	],
	"samplers":[
		{
			"magFilter":9729,
			"minFilter":9987
		}
	],
	"buffers":[
		{
			"byteLength":147900,
			"uri":"Taxi_4.bin"
		}
	]
}
