{
	"asset":{
		"generator":"Khronos glTF Blender I/O v4.1.63",
		"version":"2.0"
	},
	"extensionsUsed":[
		"EXT_texture_webp"
	],
	"scene":0,
	"scenes":[
		{
			"name":"Scene",
			"nodes":[
				0,
				1,
				2,
				3,
				4
			]
		}
	],
	"nodes":[
		{
			"mesh":0,
			"name":"Car_4_1_R"
		},
		{
			"mesh":1,
			"name":"RL",
			"translation":[
				0.9711111187934875,
				0.015300923958420753,
				0.7494896054267883
			]
		},
		{
			"mesh":2,
			"name":"FL",
			"translation":[
				-0.9679633975028992,
				0.015300923958420753,
				0.7494897246360779
			]
		},
		{
			"mesh":3,
			"name":"RR",
			"translation":[
				0.9711109399795532,
				0.015300924889743328,
				-0.7494900226593018
			]
		},
		{
			"mesh":4,
			"name":"FR",
			"translation":[
				-0.9679633975028992,
				0.015300928615033627,
				-0.7494900226593018
			]
		}
	],
	"materials":[
		{
			"name":"City Car",
			"pbrMetallicRoughness":{
				"baseColorTexture":{
					"index":0
				},
				"metallicFactor":0.34545451402664185,
				"roughnessFactor":0.48181819915771484
			}
		},
		{
			"name":"Windows",
			"pbrMetallicRoughness":{
				"baseColorTexture":{
					"index":1
				},
				"metallicFactor":0.5454545617103577,
				"roughnessFactor":0.8727272748947144
			}
		},
		{
			"name":"City Metal",
			"pbrMetallicRoughness":{
				"baseColorTexture":{
					"index":2
				},
				"roughnessFactor":0.2708495557308197
			}
		},
		{
			"name":"City Atlas",
			"pbrMetallicRoughness":{
				"baseColorTexture":{
					"index":3
				},
				"metallicFactor":0
			}
		}
	],
	"meshes":[
		{
			"name":"Car_4_1_R",
			"primitives":[
				{
					"attributes":{
						"POSITION":0,
						"NORMAL":1,
						"TEXCOORD_0":2
					},
					"indices":3,
					"material":0
				},
				{
					"attributes":{
						"POSITION":4,
						"NORMAL":5,
						"TEXCOORD_0":6
					},
					"indices":7,
					"material":1
				},
				{
					"attributes":{
						"POSITION":8,
						"NORMAL":9,
						"TEXCOORD_0":10
					},
					"indices":11,
					"material":2
				},
				{
					"attributes":{
						"POSITION":12,
						"NORMAL":13,
						"TEXCOORD_0":14
					},
					"indices":15,
					"material":3
				}
			]
		},
		{
			"name":"RL",
			"primitives":[
				{
					"attributes":{
						"POSITION":16,
						"NORMAL":17,
						"TEXCOORD_0":18
					},
					"indices":19,
					"material":0
				},
				{
					"attributes":{
						"POSITION":20,
						"NORMAL":21,
						"TEXCOORD_0":22
					},
					"indices":23,
					"material":2
				}
			]
		},
		{
			"name":"FL",
			"primitives":[
				{
					"attributes":{
						"POSITION":24,
						"NORMAL":25,
						"TEXCOORD_0":26
					},
					"indices":27,
					"material":0
				},
				{
					"attributes":{
						"POSITION":28,
						"NORMAL":29,
						"TEXCOORD_0":30
					},
					"indices":31,
					"material":2
				}
			]
		},
		{
			"name":"RR",
			"primitives":[
				{
					"attributes":{
						"POSITION":32,
						"NORMAL":33,
						"TEXCOORD_0":34
					},
					"indices":35,
					"material":0
				},
				{
					"attributes":{
						"POSITION":36,
						"NORMAL":37,
						"TEXCOORD_0":38
					},
					"indices":39,
					"material":2
				}
			]
		},
		{
			"name":"FR",
			"primitives":[
				{
					"attributes":{
						"POSITION":40,
						"NORMAL":41,
						"TEXCOORD_0":42
					},
					"indices":43,
					"material":0
				},
				{
					"attributes":{
						"POSITION":44,
						"NORMAL":45,
						"TEXCOORD_0":46
					},
					"indices":39,
					"material":2
				}
			]
		}
	],
	"textures":[
		{
			"extensions":{
				"EXT_texture_webp":{
					"source":0
				}
			},
			"sampler":0,
			"source":1
		},
		{
			"extensions":{
				"EXT_texture_webp":{
					"source":2
				}
			},
			"sampler":0,
			"source":3
		},
		{
			"extensions":{
				"EXT_texture_webp":{
					"source":0
				}
			},
			"sampler":0,
			"source":1
		},
		{
			"extensions":{
				"EXT_texture_webp":{
					"source":0
				}
			},
			"sampler":0,
			"source":1
		}
	],
	"images":[
		{
			"mimeType":"image/webp",
			"name":"City Atlas Map.png",
			"uri":"City%20Atlas%20Map_png.webp"
		},
		{
			"mimeType":"image/png",
			"name":"City Atlas Map.png",
			"uri":"City%20Atlas%20Map_png.png"
		},
		{
			"mimeType":"image/webp",
			"name":"Windows",
			"uri":"Windows.webp"
		},
		{
			"mimeType":"image/png",
			"name":"Windows",
			"uri":"Windows.png"
		}
	],
	"accessors":[
		{
			"bufferView":0,
			"componentType":5126,
			"count":1545,
			"max":[
				1.7328816652297974,
				1.5785727500915527,
				0.7970409393310547
			],
			"min":[
				-1.7716349363327026,
				-0.0002507772296667099,
				-0.7970409393310547
			],
			"type":"VEC3"
		},
		{
			"bufferView":1,
			"componentType":5126,
			"count":1545,
			"type":"VEC3"
		},
		{
			"bufferView":2,
			"componentType":5126,
			"count":1545,
			"type":"VEC2"
		},
		{
			"bufferView":3,
			"componentType":5123,
			"count":3222,
			"type":"SCALAR"
		},
		{
			"bufferView":4,
			"componentType":5126,
			"count":24,
			"max":[
				1.0179506540298462,
				1.500145673751831,
				0.6113885045051575
			],
			"min":[
				-0.698822021484375,
				0.6282169222831726,
				-0.6113885045051575
			],
			"type":"VEC3"
		},
		{
			"bufferView":5,
			"componentType":5126,
			"count":24,
			"type":"VEC3"
		},
		{
			"bufferView":6,
			"componentType":5126,
			"count":24,
			"type":"VEC2"
		},
		{
			"bufferView":7,
			"componentType":5123,
			"count":36,
			"type":"SCALAR"
		},
		{
			"bufferView":8,
			"componentType":5126,
			"count":1440,
			"max":[
				1.7568663358688354,
				1.5086994171142578,
				0.8259773254394531
			],
			"min":[
				-1.7342783212661743,
				0.018038608133792877,
				-0.8259773254394531
			],
			"type":"VEC3"
		},
		{
			"bufferView":9,
			"componentType":5126,
			"count":1440,
			"type":"VEC3"
		},
		{
			"bufferView":10,
			"componentType":5126,
			"count":1440,
			"type":"VEC2"
		},
		{
			"bufferView":11,
			"componentType":5123,
			"count":2544,
			"type":"SCALAR"
		},
		{
			"bufferView":12,
			"componentType":5126,
			"count":70,
			"max":[
				-1.6194841861724854,
				0.5194327235221863,
				0.3222123384475708
			],
			"min":[
				-1.7046446800231934,
				0.3130050301551819,
				-0.3222123682498932
			],
			"type":"VEC3"
		},
		{
			"bufferView":13,
			"componentType":5126,
			"count":70,
			"type":"VEC3"
		},
		{
			"bufferView":14,
			"componentType":5126,
			"count":70,
			"type":"VEC2"
		},
		{
			"bufferView":15,
			"componentType":5123,
			"count":114,
			"type":"SCALAR"
		},
		{
			"bufferView":16,
			"componentType":5126,
			"count":130,
			"max":[
				0.2644485831260681,
				0.25150564312934875,
				0.04535830020904541
			],
			"min":[
				-0.2644490599632263,
				-0.2515057325363159,
				-0.12207818031311035
			],
			"type":"VEC3"
		},
		{
			"bufferView":17,
			"componentType":5126,
			"count":130,
			"type":"VEC3"
		},
		{
			"bufferView":18,
			"componentType":5126,
			"count":130,
			"type":"VEC2"
		},
		{
			"bufferView":19,
			"componentType":5123,
			"count":324,
			"type":"SCALAR"
		},
		{
			"bufferView":20,
			"componentType":5126,
			"count":58,
			"max":[
				0.10574620962142944,
				0.10057079046964645,
				0.04705566167831421
			],
			"min":[
				-0.1057465672492981,
				-0.10057083517313004,
				0.030183732509613037
			],
			"type":"VEC3"
		},
		{
			"bufferView":21,
			"componentType":5126,
			"count":58,
			"type":"VEC3"
		},
		{
			"bufferView":22,
			"componentType":5126,
			"count":58,
			"type":"VEC2"
		},
		{
			"bufferView":23,
			"componentType":5123,
			"count":144,
			"type":"SCALAR"
		},
		{
			"bufferView":24,
			"componentType":5126,
			"count":130,
			"max":[
				0.26444894075393677,
				0.25150564312934875,
				0.04535818099975586
			],
			"min":[
				-0.26444870233535767,
				-0.2515057325363159,
				-0.1220782995223999
			],
			"type":"VEC3"
		},
		{
			"bufferView":25,
			"componentType":5126,
			"count":130,
			"type":"VEC3"
		},
		{
			"bufferView":26,
			"componentType":5126,
			"count":130,
			"type":"VEC2"
		},
		{
			"bufferView":27,
			"componentType":5123,
			"count":324,
			"type":"SCALAR"
		},
		{
			"bufferView":28,
			"componentType":5126,
			"count":58,
			"max":[
				0.10574668645858765,
				0.10057079046964645,
				0.04705554246902466
			],
			"min":[
				-0.105746328830719,
				-0.10057083517313004,
				0.030183613300323486
			],
			"type":"VEC3"
		},
		{
			"bufferView":29,
			"componentType":5126,
			"count":58,
			"type":"VEC3"
		},
		{
			"bufferView":30,
			"componentType":5126,
			"count":58,
			"type":"VEC2"
		},
		{
			"bufferView":31,
			"componentType":5123,
			"count":144,
			"type":"SCALAR"
		},
		{
			"bufferView":32,
			"componentType":5126,
			"count":130,
			"max":[
				0.26444876194000244,
				0.25150564312934875,
				0.12207818031311035
			],
			"min":[
				-0.264448881149292,
				-0.2515057325363159,
				-0.045358240604400635
			],
			"type":"VEC3"
		},
		{
			"bufferView":33,
			"componentType":5126,
			"count":130,
			"type":"VEC3"
		},
		{
			"bufferView":34,
			"componentType":5126,
			"count":130,
			"type":"VEC2"
		},
		{
			"bufferView":35,
			"componentType":5123,
			"count":324,
			"type":"SCALAR"
		},
		{
			"bufferView":36,
			"componentType":5126,
			"count":50,
			"max":[
				0.10574638843536377,
				0.10057079046964645,
				-0.03018367290496826
			],
			"min":[
				-0.10574638843536377,
				-0.10057083517313004,
				-0.047055602073669434
			],
			"type":"VEC3"
		},
		{
			"bufferView":37,
			"componentType":5126,
			"count":50,
			"type":"VEC3"
		},
		{
			"bufferView":38,
			"componentType":5126,
			"count":50,
			"type":"VEC2"
		},
		{
			"bufferView":39,
			"componentType":5123,
			"count":144,
			"type":"SCALAR"
		},
		{
			"bufferView":40,
			"componentType":5126,
			"count":130,
			"max":[
				0.26444894075393677,
				0.25150564312934875,
				0.12207818031311035
			],
			"min":[
				-0.26444870233535767,
				-0.2515057325363159,
				-0.045358240604400635
			],
			"type":"VEC3"
		},
		{
			"bufferView":41,
			"componentType":5126,
			"count":130,
			"type":"VEC3"
		},
		{
			"bufferView":42,
			"componentType":5126,
			"count":130,
			"type":"VEC2"
		},
		{
			"bufferView":43,
			"componentType":5123,
			"count":324,
			"type":"SCALAR"
		},
		{
			"bufferView":44,
			"componentType":5126,
			"count":50,
			"max":[
				0.10574668645858765,
				0.10057078301906586,
				-0.03018367290496826
			],
			"min":[
				-0.105746328830719,
				-0.10057084262371063,
				-0.047055602073669434
			],
			"type":"VEC3"
		},
		{
			"bufferView":45,
			"componentType":5126,
			"count":50,
			"type":"VEC3"
		},
		{
			"bufferView":46,
			"componentType":5126,
			"count":50,
			"type":"VEC2"
		}
	],
	"bufferViews":[
		{
			"buffer":0,
			"byteLength":18540,
			"byteOffset":0,
			"target":34962
		},
		{
			"buffer":0,
			"byteLength":18540,
			"byteOffset":18540,
			"target":34962
		},
		{
			"buffer":0,
			"byteLength":12360,
			"byteOffset":37080,
			"target":34962
		},
		{
			"buffer":0,
			"byteLength":6444,
			"byteOffset":49440,
			"target":34963
		},
		{
			"buffer":0,
			"byteLength":288,
			"byteOffset":55884,
			"target":34962
		},
		{
			"buffer":0,
			"byteLength":288,
			"byteOffset":56172,
			"target":34962
		},
		{
			"buffer":0,
			"byteLength":192,
			"byteOffset":56460,
			"target":34962
		},
		{
			"buffer":0,
			"byteLength":72,
			"byteOffset":56652,
			"target":34963
		},
		{
			"buffer":0,
			"byteLength":17280,
			"byteOffset":56724,
			"target":34962
		},
		{
			"buffer":0,
			"byteLength":17280,
			"byteOffset":74004,
			"target":34962
		},
		{
			"buffer":0,
			"byteLength":11520,
			"byteOffset":91284,
			"target":34962
		},
		{
			"buffer":0,
			"byteLength":5088,
			"byteOffset":102804,
			"target":34963
		},
		{
			"buffer":0,
			"byteLength":840,
			"byteOffset":107892,
			"target":34962
		},
		{
			"buffer":0,
			"byteLength":840,
			"byteOffset":108732,
			"target":34962
		},
		{
			"buffer":0,
			"byteLength":560,
			"byteOffset":109572,
			"target":34962
		},
		{
			"buffer":0,
			"byteLength":228,
			"byteOffset":110132,
			"target":34963
		},
		{
			"buffer":0,
			"byteLength":1560,
			"byteOffset":110360,
			"target":34962
		},
		{
			"buffer":0,
			"byteLength":1560,
			"byteOffset":111920,
			"target":34962
		},
		{
			"buffer":0,
			"byteLength":1040,
			"byteOffset":113480,
			"target":34962
		},
		{
			"buffer":0,
			"byteLength":648,
			"byteOffset":114520,
			"target":34963
		},
		{
			"buffer":0,
			"byteLength":696,
			"byteOffset":115168,
			"target":34962
		},
		{
			"buffer":0,
			"byteLength":696,
			"byteOffset":115864,
			"target":34962
		},
		{
			"buffer":0,
			"byteLength":464,
			"byteOffset":116560,
			"target":34962
		},
		{
			"buffer":0,
			"byteLength":288,
			"byteOffset":117024,
			"target":34963
		},
		{
			"buffer":0,
			"byteLength":1560,
			"byteOffset":117312,
			"target":34962
		},
		{
			"buffer":0,
			"byteLength":1560,
			"byteOffset":118872,
			"target":34962
		},
		{
			"buffer":0,
			"byteLength":1040,
			"byteOffset":120432,
			"target":34962
		},
		{
			"buffer":0,
			"byteLength":648,
			"byteOffset":121472,
			"target":34963
		},
		{
			"buffer":0,
			"byteLength":696,
			"byteOffset":122120,
			"target":34962
		},
		{
			"buffer":0,
			"byteLength":696,
			"byteOffset":122816,
			"target":34962
		},
		{
			"buffer":0,
			"byteLength":464,
			"byteOffset":123512,
			"target":34962
		},
		{
			"buffer":0,
			"byteLength":288,
			"byteOffset":123976,
			"target":34963
		},
		{
			"buffer":0,
			"byteLength":1560,
			"byteOffset":124264,
			"target":34962
		},
		{
			"buffer":0,
			"byteLength":1560,
			"byteOffset":125824,
			"target":34962
		},
		{
			"buffer":0,
			"byteLength":1040,
			"byteOffset":127384,
			"target":34962
		},
		{
			"buffer":0,
			"byteLength":648,
			"byteOffset":128424,
			"target":34963
		},
		{
			"buffer":0,
			"byteLength":600,
			"byteOffset":129072,
			"target":34962
		},
		{
			"buffer":0,
			"byteLength":600,
			"byteOffset":129672,
			"target":34962
		},
		{
			"buffer":0,
			"byteLength":400,
			"byteOffset":130272,
			"target":34962
		},
		{
			"buffer":0,
			"byteLength":288,
			"byteOffset":130672,
			"target":34963
		},
		{
			"buffer":0,
			"byteLength":1560,
			"byteOffset":130960,
			"target":34962
		},
		{
			"buffer":0,
			"byteLength":1560,
			"byteOffset":132520,
			"target":34962
		},
		{
			"buffer":0,
			"byteLength":1040,
			"byteOffset":134080,
			"target":34962
		},
		{
			"buffer":0,
			"byteLength":648,
			"byteOffset":135120,
			"target":34963
		},
		{
			"buffer":0,
			"byteLength":600,
			"byteOffset":135768,
			"target":34962
		},
		{
			"buffer":0,
			"byteLength":600,
			"byteOffset":136368,
			"target":34962
		},
		{
			"buffer":0,
			"byteLength":400,
			"byteOffset":136968,
			"target":34962
		}
	],
	"samplers":[
		{
			"magFilter":9729,
			"minFilter":9987
		}
	],
	"buffers":[
		{
			"byteLength":137368,
			"uri":"Car_4_1_R.bin"
		}
	]
}
