{
	"asset":{
		"generator":"Khronos glTF Blender I/O v4.1.63",
		"version":"2.0"
	},
	"extensionsUsed":[
		"EXT_texture_webp"
	],
	"scene":0,
	"scenes":[
		{
			"name":"Scene",
			"nodes":[
				0,
				1,
				2,
				3,
				4,
				5,
				6
			]
		}
	],
	"nodes":[
		{
			"mesh":0,
			"name":"Truck_H"
		},
		{
			"mesh":1,
			"name":"RL",
			"translation":[
				2.0060718059539795,
				7.848516543162987e-05,
				-0.8486629724502563
			]
		},
		{
			"mesh":2,
			"name":"MR",
			"translation":[
				1.1596287488937378,
				7.853675924707204e-05,
				-0.8486630320549011
			]
		},
		{
			"mesh":3,
			"name":"RM",
			"translation":[
				2.0060720443725586,
				7.849037501728162e-05,
				0.848662793636322
			]
		},
		{
			"mesh":4,
			"name":"ML",
			"translation":[
				1.159628987312317,
				7.8544020652771e-05,
				0.8486628532409668
			]
		},
		{
			"mesh":5,
			"name":"FR",
			"translation":[
				-1.7680963277816772,
				0.05173211172223091,
				-0.8165699243545532
			]
		},
		{
			"mesh":6,
			"name":"FL",
			"translation":[
				-1.7680963277816772,
				0.05173208937048912,
				0.8165699243545532
			]
		}
	],
	"materials":[
		{
			"name":"City Car",
			"pbrMetallicRoughness":{
				"baseColorTexture":{
					"index":0
				},
				"metallicFactor":0.34545451402664185,
				"roughnessFactor":0.48181819915771484
			}
		},
		{
			"name":"City Metal",
			"pbrMetallicRoughness":{
				"baseColorTexture":{
					"index":1
				},
				"roughnessFactor":0.2708495557308197
			}
		},
		{
			"name":"City Atlas",
			"pbrMetallicRoughness":{
				"baseColorTexture":{
					"index":2
				},
				"metallicFactor":0
			}
		},
		{
			"name":"Windows",
			"pbrMetallicRoughness":{
				"baseColorTexture":{
					"index":3
				},
				"metallicFactor":0.5454545617103577,
				"roughnessFactor":0.8727272748947144
			}
		}
	],
	"meshes":[
		{
			"name":"Truck_H",
			"primitives":[
				{
					"attributes":{
						"POSITION":0,
						"NORMAL":1,
						"TEXCOORD_0":2
					},
					"indices":3,
					"material":0
				},
				{
					"attributes":{
						"POSITION":4,
						"NORMAL":5,
						"TEXCOORD_0":6
					},
					"indices":7,
					"material":1
				},
				{
					"attributes":{
						"POSITION":8,
						"NORMAL":9,
						"TEXCOORD_0":10
					},
					"indices":11,
					"material":2
				},
				{
					"attributes":{
						"POSITION":12,
						"NORMAL":13,
						"TEXCOORD_0":14
					},
					"indices":15,
					"material":3
				}
			]
		},
		{
			"name":"RL",
			"primitives":[
				{
					"attributes":{
						"POSITION":16,
						"NORMAL":17,
						"TEXCOORD_0":18
					},
					"indices":19,
					"material":0
				},
				{
					"attributes":{
						"POSITION":20,
						"NORMAL":21,
						"TEXCOORD_0":22
					},
					"indices":23,
					"material":1
				}
			]
		},
		{
			"name":"MR",
			"primitives":[
				{
					"attributes":{
						"POSITION":24,
						"NORMAL":25,
						"TEXCOORD_0":26
					},
					"indices":27,
					"material":0
				},
				{
					"attributes":{
						"POSITION":28,
						"NORMAL":29,
						"TEXCOORD_0":30
					},
					"indices":31,
					"material":1
				}
			]
		},
		{
			"name":"RM",
			"primitives":[
				{
					"attributes":{
						"POSITION":32,
						"NORMAL":33,
						"TEXCOORD_0":34
					},
					"indices":35,
					"material":0
				},
				{
					"attributes":{
						"POSITION":36,
						"NORMAL":37,
						"TEXCOORD_0":38
					},
					"indices":39,
					"material":1
				}
			]
		},
		{
			"name":"ML",
			"primitives":[
				{
					"attributes":{
						"POSITION":40,
						"NORMAL":41,
						"TEXCOORD_0":42
					},
					"indices":43,
					"material":0
				},
				{
					"attributes":{
						"POSITION":44,
						"NORMAL":45,
						"TEXCOORD_0":46
					},
					"indices":47,
					"material":1
				}
			]
		},
		{
			"name":"FR",
			"primitives":[
				{
					"attributes":{
						"POSITION":48,
						"NORMAL":49,
						"TEXCOORD_0":50
					},
					"indices":51,
					"material":0
				},
				{
					"attributes":{
						"POSITION":52,
						"NORMAL":53,
						"TEXCOORD_0":54
					},
					"indices":55,
					"material":1
				}
			]
		},
		{
			"name":"FL",
			"primitives":[
				{
					"attributes":{
						"POSITION":56,
						"NORMAL":57,
						"TEXCOORD_0":58
					},
					"indices":59,
					"material":0
				},
				{
					"attributes":{
						"POSITION":60,
						"NORMAL":61,
						"TEXCOORD_0":62
					},
					"indices":63,
					"material":1
				}
			]
		}
	],
	"textures":[
		{
			"extensions":{
				"EXT_texture_webp":{
					"source":0
				}
			},
			"sampler":0,
			"source":1
		},
		{
			"extensions":{
				"EXT_texture_webp":{
					"source":0
				}
			},
			"sampler":0,
			"source":1
		},
		{
			"extensions":{
				"EXT_texture_webp":{
					"source":0
				}
			},
			"sampler":0,
			"source":1
		},
		{
			"extensions":{
				"EXT_texture_webp":{
					"source":2
				}
			},
			"sampler":0,
			"source":3
		}
	],
	"images":[
		{
			"mimeType":"image/webp",
			"name":"City Atlas Map.png",
			"uri":"City%20Atlas%20Map_png.webp"
		},
		{
			"mimeType":"image/png",
			"name":"City Atlas Map.png",
			"uri":"City%20Atlas%20Map_png.png"
		},
		{
			"mimeType":"image/webp",
			"name":"Windows",
			"uri":"Windows.webp"
		},
		{
			"mimeType":"image/png",
			"name":"Windows",
			"uri":"Windows.png"
		}
	],
	"accessors":[
		{
			"bufferView":0,
			"componentType":5126,
			"count":1523,
			"max":[
				2.6793947219848633,
				1.7764410972595215,
				0.90122389793396
			],
			"min":[
				-2.445857524871826,
				-0.00957876443862915,
				-0.9012240171432495
			],
			"type":"VEC3"
		},
		{
			"bufferView":1,
			"componentType":5126,
			"count":1523,
			"type":"VEC3"
		},
		{
			"bufferView":2,
			"componentType":5126,
			"count":1523,
			"type":"VEC2"
		},
		{
			"bufferView":3,
			"componentType":5123,
			"count":2508,
			"type":"SCALAR"
		},
		{
			"bufferView":4,
			"componentType":5126,
			"count":716,
			"max":[
				-0.22951191663742065,
				2.465914726257324,
				0.9083885550498962
			],
			"min":[
				-2.562574863433838,
				0.021938234567642212,
				-0.908388614654541
			],
			"type":"VEC3"
		},
		{
			"bufferView":5,
			"componentType":5126,
			"count":716,
			"type":"VEC3"
		},
		{
			"bufferView":6,
			"componentType":5126,
			"count":716,
			"type":"VEC2"
		},
		{
			"bufferView":7,
			"componentType":5123,
			"count":1521,
			"type":"SCALAR"
		},
		{
			"bufferView":8,
			"componentType":5126,
			"count":100,
			"max":[
				-0.8921375274658203,
				1.9898242950439453,
				0.08820046484470367
			],
			"min":[
				-1.33225679397583,
				1.77009916305542,
				-0.0882004126906395
			],
			"type":"VEC3"
		},
		{
			"bufferView":9,
			"componentType":5126,
			"count":100,
			"type":"VEC3"
		},
		{
			"bufferView":10,
			"componentType":5126,
			"count":100,
			"type":"VEC2"
		},
		{
			"bufferView":11,
			"componentType":5123,
			"count":222,
			"type":"SCALAR"
		},
		{
			"bufferView":12,
			"componentType":5126,
			"count":17,
			"max":[
				-0.5555643439292908,
				1.6509771347045898,
				0.6842207908630371
			],
			"min":[
				-1.305079460144043,
				1.04878568649292,
				-0.6842209100723267
			],
			"type":"VEC3"
		},
		{
			"bufferView":13,
			"componentType":5126,
			"count":17,
			"type":"VEC3"
		},
		{
			"bufferView":14,
			"componentType":5126,
			"count":17,
			"type":"VEC2"
		},
		{
			"bufferView":15,
			"componentType":5123,
			"count":27,
			"type":"SCALAR"
		},
		{
			"bufferView":16,
			"componentType":5126,
			"count":96,
			"max":[
				0.3484327793121338,
				0.34843260049819946,
				0.2298296093940735
			],
			"min":[
				-0.3484325408935547,
				-0.34843266010284424,
				-0.0773267149925232
			],
			"type":"VEC3"
		},
		{
			"bufferView":17,
			"componentType":5126,
			"count":96,
			"type":"VEC3"
		},
		{
			"bufferView":18,
			"componentType":5126,
			"count":96,
			"type":"VEC2"
		},
		{
			"bufferView":19,
			"componentType":5123,
			"count":306,
			"type":"SCALAR"
		},
		{
			"bufferView":20,
			"componentType":5126,
			"count":64,
			"max":[
				0.11744451522827148,
				0.11744435131549835,
				-0.022243022918701172
			],
			"min":[
				-0.11744451522827148,
				-0.11744426190853119,
				-0.07410377264022827
			],
			"type":"VEC3"
		},
		{
			"bufferView":21,
			"componentType":5126,
			"count":64,
			"type":"VEC3"
		},
		{
			"bufferView":22,
			"componentType":5126,
			"count":64,
			"type":"VEC2"
		},
		{
			"bufferView":23,
			"componentType":5123,
			"count":162,
			"type":"SCALAR"
		},
		{
			"bufferView":24,
			"componentType":5126,
			"count":96,
			"max":[
				0.34843242168426514,
				0.3484325706958771,
				0.22982966899871826
			],
			"min":[
				-0.348432719707489,
				-0.3484325706958771,
				-0.07732665538787842
			],
			"type":"VEC3"
		},
		{
			"bufferView":25,
			"componentType":5126,
			"count":96,
			"type":"VEC3"
		},
		{
			"bufferView":26,
			"componentType":5126,
			"count":96,
			"type":"VEC2"
		},
		{
			"bufferView":27,
			"componentType":5123,
			"count":306,
			"type":"SCALAR"
		},
		{
			"bufferView":28,
			"componentType":5126,
			"count":64,
			"max":[
				0.11744391918182373,
				0.11744429916143417,
				-0.022242963314056396
			],
			"min":[
				-0.11744463443756104,
				-0.11744431406259537,
				-0.0741037130355835
			],
			"type":"VEC3"
		},
		{
			"bufferView":29,
			"componentType":5126,
			"count":64,
			"type":"VEC3"
		},
		{
			"bufferView":30,
			"componentType":5126,
			"count":64,
			"type":"VEC2"
		},
		{
			"bufferView":31,
			"componentType":5123,
			"count":162,
			"type":"SCALAR"
		},
		{
			"bufferView":32,
			"componentType":5126,
			"count":96,
			"max":[
				0.3484325408935547,
				0.348432719707489,
				0.07732689380645752
			],
			"min":[
				-0.3484327793121338,
				-0.34843266010284424,
				-0.2298296093940735
			],
			"type":"VEC3"
		},
		{
			"bufferView":33,
			"componentType":5126,
			"count":96,
			"type":"VEC3"
		},
		{
			"bufferView":34,
			"componentType":5126,
			"count":96,
			"type":"VEC2"
		},
		{
			"bufferView":35,
			"componentType":5123,
			"count":306,
			"type":"SCALAR"
		},
		{
			"bufferView":36,
			"componentType":5126,
			"count":64,
			"max":[
				0.11744427680969238,
				0.1174444630742073,
				0.07410389184951782
			],
			"min":[
				-0.11744475364685059,
				-0.11744426935911179,
				0.022243082523345947
			],
			"type":"VEC3"
		},
		{
			"bufferView":37,
			"componentType":5126,
			"count":64,
			"type":"VEC3"
		},
		{
			"bufferView":38,
			"componentType":5126,
			"count":64,
			"type":"VEC2"
		},
		{
			"bufferView":39,
			"componentType":5123,
			"count":162,
			"type":"SCALAR"
		},
		{
			"bufferView":40,
			"componentType":5126,
			"count":96,
			"max":[
				0.34843218326568604,
				0.34843266010284424,
				0.0773269534111023
			],
			"min":[
				-0.3484329581260681,
				-0.348432719707489,
				-0.2298295497894287
			],
			"type":"VEC3"
		},
		{
			"bufferView":41,
			"componentType":5126,
			"count":96,
			"type":"VEC3"
		},
		{
			"bufferView":42,
			"componentType":5126,
			"count":96,
			"type":"VEC2"
		},
		{
			"bufferView":43,
			"componentType":5123,
			"count":306,
			"type":"SCALAR"
		},
		{
			"bufferView":44,
			"componentType":5126,
			"count":64,
			"max":[
				0.11744368076324463,
				0.11744441092014313,
				0.0741039514541626
			],
			"min":[
				-0.11744487285614014,
				-0.11744432151317596,
				0.022243022918701172
			],
			"type":"VEC3"
		},
		{
			"bufferView":45,
			"componentType":5126,
			"count":64,
			"type":"VEC3"
		},
		{
			"bufferView":46,
			"componentType":5126,
			"count":64,
			"type":"VEC2"
		},
		{
			"bufferView":47,
			"componentType":5123,
			"count":162,
			"type":"SCALAR"
		},
		{
			"bufferView":48,
			"componentType":5126,
			"count":96,
			"max":[
				0.40008580684661865,
				0.40008610486984253,
				0.2038581371307373
			],
			"min":[
				-0.40008628368377686,
				-0.40008610486984253,
				-0.06858891248703003
			],
			"type":"VEC3"
		},
		{
			"bufferView":49,
			"componentType":5126,
			"count":96,
			"type":"VEC3"
		},
		{
			"bufferView":50,
			"componentType":5126,
			"count":96,
			"type":"VEC2"
		},
		{
			"bufferView":51,
			"componentType":5123,
			"count":306,
			"type":"SCALAR"
		},
		{
			"bufferView":52,
			"componentType":5126,
			"count":64,
			"max":[
				0.13485443592071533,
				0.13485486805438995,
				-0.019729793071746826
			],
			"min":[
				-0.13485538959503174,
				-0.13485489785671234,
				-0.0657302737236023
			],
			"type":"VEC3"
		},
		{
			"bufferView":53,
			"componentType":5126,
			"count":64,
			"type":"VEC3"
		},
		{
			"bufferView":54,
			"componentType":5126,
			"count":64,
			"type":"VEC2"
		},
		{
			"bufferView":55,
			"componentType":5123,
			"count":162,
			"type":"SCALAR"
		},
		{
			"bufferView":56,
			"componentType":5126,
			"count":96,
			"max":[
				0.40008580684661865,
				0.4000861346721649,
				0.06858891248703003
			],
			"min":[
				-0.40008628368377686,
				-0.4000861346721649,
				-0.20385807752609253
			],
			"type":"VEC3"
		},
		{
			"bufferView":57,
			"componentType":5126,
			"count":96,
			"type":"VEC3"
		},
		{
			"bufferView":58,
			"componentType":5126,
			"count":96,
			"type":"VEC2"
		},
		{
			"bufferView":59,
			"componentType":5123,
			"count":306,
			"type":"SCALAR"
		},
		{
			"bufferView":60,
			"componentType":5126,
			"count":64,
			"max":[
				0.13485443592071533,
				0.13485488295555115,
				0.0657302737236023
			],
			"min":[
				-0.13485538959503174,
				-0.13485488295555115,
				0.019729793071746826
			],
			"type":"VEC3"
		},
		{
			"bufferView":61,
			"componentType":5126,
			"count":64,
			"type":"VEC3"
		},
		{
			"bufferView":62,
			"componentType":5126,
			"count":64,
			"type":"VEC2"
		},
		{
			"bufferView":63,
			"componentType":5123,
			"count":162,
			"type":"SCALAR"
		}
	],
	"bufferViews":[
		{
			"buffer":0,
			"byteLength":18276,
			"byteOffset":0,
			"target":34962
		},
		{
			"buffer":0,
			"byteLength":18276,
			"byteOffset":18276,
			"target":34962
		},
		{
			"buffer":0,
			"byteLength":12184,
			"byteOffset":36552,
			"target":34962
		},
		{
			"buffer":0,
			"byteLength":5016,
			"byteOffset":48736,
			"target":34963
		},
		{
			"buffer":0,
			"byteLength":8592,
			"byteOffset":53752,
			"target":34962
		},
		{
			"buffer":0,
			"byteLength":8592,
			"byteOffset":62344,
			"target":34962
		},
		{
			"buffer":0,
			"byteLength":5728,
			"byteOffset":70936,
			"target":34962
		},
		{
			"buffer":0,
			"byteLength":3042,
			"byteOffset":76664,
			"target":34963
		},
		{
			"buffer":0,
			"byteLength":1200,
			"byteOffset":79708,
			"target":34962
		},
		{
			"buffer":0,
			"byteLength":1200,
			"byteOffset":80908,
			"target":34962
		},
		{
			"buffer":0,
			"byteLength":800,
			"byteOffset":82108,
			"target":34962
		},
		{
			"buffer":0,
			"byteLength":444,
			"byteOffset":82908,
			"target":34963
		},
		{
			"buffer":0,
			"byteLength":204,
			"byteOffset":83352,
			"target":34962
		},
		{
			"buffer":0,
			"byteLength":204,
			"byteOffset":83556,
			"target":34962
		},
		{
			"buffer":0,
			"byteLength":136,
			"byteOffset":83760,
			"target":34962
		},
		{
			"buffer":0,
			"byteLength":54,
			"byteOffset":83896,
			"target":34963
		},
		{
			"buffer":0,
			"byteLength":1152,
			"byteOffset":83952,
			"target":34962
		},
		{
			"buffer":0,
			"byteLength":1152,
			"byteOffset":85104,
			"target":34962
		},
		{
			"buffer":0,
			"byteLength":768,
			"byteOffset":86256,
			"target":34962
		},
		{
			"buffer":0,
			"byteLength":612,
			"byteOffset":87024,
			"target":34963
		},
		{
			"buffer":0,
			"byteLength":768,
			"byteOffset":87636,
			"target":34962
		},
		{
			"buffer":0,
			"byteLength":768,
			"byteOffset":88404,
			"target":34962
		},
		{
			"buffer":0,
			"byteLength":512,
			"byteOffset":89172,
			"target":34962
		},
		{
			"buffer":0,
			"byteLength":324,
			"byteOffset":89684,
			"target":34963
		},
		{
			"buffer":0,
			"byteLength":1152,
			"byteOffset":90008,
			"target":34962
		},
		{
			"buffer":0,
			"byteLength":1152,
			"byteOffset":91160,
			"target":34962
		},
		{
			"buffer":0,
			"byteLength":768,
			"byteOffset":92312,
			"target":34962
		},
		{
			"buffer":0,
			"byteLength":612,
			"byteOffset":93080,
			"target":34963
		},
		{
			"buffer":0,
			"byteLength":768,
			"byteOffset":93692,
			"target":34962
		},
		{
			"buffer":0,
			"byteLength":768,
			"byteOffset":94460,
			"target":34962
		},
		{
			"buffer":0,
			"byteLength":512,
			"byteOffset":95228,
			"target":34962
		},
		{
			"buffer":0,
			"byteLength":324,
			"byteOffset":95740,
			"target":34963
		},
		{
			"buffer":0,
			"byteLength":1152,
			"byteOffset":96064,
			"target":34962
		},
		{
			"buffer":0,
			"byteLength":1152,
			"byteOffset":97216,
			"target":34962
		},
		{
			"buffer":0,
			"byteLength":768,
			"byteOffset":98368,
			"target":34962
		},
		{
			"buffer":0,
			"byteLength":612,
			"byteOffset":99136,
			"target":34963
		},
		{
			"buffer":0,
			"byteLength":768,
			"byteOffset":99748,
			"target":34962
		},
		{
			"buffer":0,
			"byteLength":768,
			"byteOffset":100516,
			"target":34962
		},
		{
			"buffer":0,
			"byteLength":512,
			"byteOffset":101284,
			"target":34962
		},
		{
			"buffer":0,
			"byteLength":324,
			"byteOffset":101796,
			"target":34963
		},
		{
			"buffer":0,
			"byteLength":1152,
			"byteOffset":102120,
			"target":34962
		},
		{
			"buffer":0,
			"byteLength":1152,
			"byteOffset":103272,
			"target":34962
		},
		{
			"buffer":0,
			"byteLength":768,
			"byteOffset":104424,
			"target":34962
		},
		{
			"buffer":0,
			"byteLength":612,
			"byteOffset":105192,
			"target":34963
		},
		{
			"buffer":0,
			"byteLength":768,
			"byteOffset":105804,
			"target":34962
		},
		{
			"buffer":0,
			"byteLength":768,
			"byteOffset":106572,
			"target":34962
		},
		{
			"buffer":0,
			"byteLength":512,
			"byteOffset":107340,
			"target":34962
		},
		{
			"buffer":0,
			"byteLength":324,
			"byteOffset":107852,
			"target":34963
		},
		{
			"buffer":0,
			"byteLength":1152,
			"byteOffset":108176,
			"target":34962
		},
		{
			"buffer":0,
			"byteLength":1152,
			"byteOffset":109328,
			"target":34962
		},
		{
			"buffer":0,
			"byteLength":768,
			"byteOffset":110480,
			"target":34962
		},
		{
			"buffer":0,
			"byteLength":612,
			"byteOffset":111248,
			"target":34963
		},
		{
			"buffer":0,
			"byteLength":768,
			"byteOffset":111860,
			"target":34962
		},
		{
			"buffer":0,
			"byteLength":768,
			"byteOffset":112628,
			"target":34962
		},
		{
			"buffer":0,
			"byteLength":512,
			"byteOffset":113396,
			"target":34962
		},
		{
			"buffer":0,
			"byteLength":324,
			"byteOffset":113908,
			"target":34963
		},
		{
			"buffer":0,
			"byteLength":1152,
			"byteOffset":114232,
			"target":34962
		},
		{
			"buffer":0,
			"byteLength":1152,
			"byteOffset":115384,
			"target":34962
		},
		{
			"buffer":0,
			"byteLength":768,
			"byteOffset":116536,
			"target":34962
		},
		{
			"buffer":0,
			"byteLength":612,
			"byteOffset":117304,
			"target":34963
		},
		{
			"buffer":0,
			"byteLength":768,
			"byteOffset":117916,
			"target":34962
		},
		{
			"buffer":0,
			"byteLength":768,
			"byteOffset":118684,
			"target":34962
		},
		{
			"buffer":0,
			"byteLength":512,
			"byteOffset":119452,
			"target":34962
		},
		{
			"buffer":0,
			"byteLength":324,
			"byteOffset":119964,
			"target":34963
		}
	],
	"samplers":[
		{
			"magFilter":9729,
			"minFilter":9987
		}
	],
	"buffers":[
		{
			"byteLength":120288,
			"uri":"Truck_H.bin"
		}
	]
}
