{
	"asset":{
		"generator":"Khronos glTF Blender I/O v4.1.63",
		"version":"2.0"
	},
	"extensionsUsed":[
		"EXT_texture_webp"
	],
	"scene":0,
	"scenes":[
		{
			"name":"Scene",
			"nodes":[
				5,
				6,
				7,
				8,
				9,
				10
			]
		}
	],
	"nodes":[
		{
			"name":"4",
			"rotation":[
				-0.0638323426246643,
				3.9780161387170665e-07,
				-0.02558860369026661,
				0.9976325631141663
			],
			"scale":[
				0.9999999403953552,
				0.9999999403953552,
				1
			],
			"translation":[
				-5.573383532464504e-09,
				1.1206128597259521,
				1.3969838619232178e-09
			]
		},
		{
			"children":[
				0
			],
			"name":"3",
			"rotation":[
				0.007764721754938364,
				-0.004028869792819023,
				-0.21738196909427643,
				0.9760473966598511
			],
			"scale":[
				1,
				1.0000001192092896,
				0.9999998807907104
			],
			"translation":[
				-7.450580596923828e-09,
				0.07636480033397675,
				-8.171241461241152e-14
			]
		},
		{
			"children":[
				1
			],
			"name":"2",
			"rotation":[
				2.5909071155183483e-07,
				-1.7711424504796014e-07,
				-0.3682525157928467,
				0.9297258257865906
			],
			"scale":[
				1,
				1.0000001192092896,
				1
			],
			"translation":[
				-1.1920928955078125e-07,
				0.06786441802978516,
				-1.1368683772161603e-13
			]
		},
		{
			"children":[
				2
			],
			"name":"1",
			"rotation":[
				3.822170242528955e-07,
				1.7891009918002965e-07,
				-0.9161739945411682,
				0.4007807970046997
			],
			"scale":[
				1,
				1.0000001192092896,
				1
			],
			"translation":[
				2.1108665466308594,
				1.489132285118103,
				0
			]
		},
		{
			"name":"0",
			"rotation":[
				-0.5,
				0.5,
				0.5,
				0.5
			],
			"translation":[
				2.1108665466308594,
				1.489132285118103,
				0
			]
		},
		{
			"children":[
				3,
				4
			],
			"name":"TowArmature"
		},
		{
			"mesh":0,
			"name":"Car_3_2_A",
			"skin":0
		},
		{
			"mesh":1,
			"name":"RL",
			"skin":0
		},
		{
			"mesh":2,
			"name":"FL",
			"skin":0
		},
		{
			"mesh":3,
			"name":"RR",
			"skin":0
		},
		{
			"mesh":4,
			"name":"FR",
			"skin":0
		}
	],
	"materials":[
		{
			"name":"City Car",
			"pbrMetallicRoughness":{
				"baseColorTexture":{
					"index":0
				},
				"metallicFactor":0.34545451402664185,
				"roughnessFactor":0.48181819915771484
			}
		},
		{
			"name":"Windows",
			"pbrMetallicRoughness":{
				"baseColorTexture":{
					"index":1
				},
				"metallicFactor":0.5454545617103577,
				"roughnessFactor":0.8727272748947144
			}
		},
		{
			"name":"City Metal",
			"pbrMetallicRoughness":{
				"baseColorTexture":{
					"index":2
				},
				"roughnessFactor":0.2708495557308197
			}
		},
		{
			"name":"City Atlas",
			"pbrMetallicRoughness":{
				"baseColorTexture":{
					"index":3
				},
				"metallicFactor":0
			}
		}
	],
	"meshes":[
		{
			"name":"Car_3_2_A",
			"primitives":[
				{
					"attributes":{
						"POSITION":0,
						"NORMAL":1,
						"TEXCOORD_0":2,
						"JOINTS_0":3,
						"WEIGHTS_0":4
					},
					"indices":5,
					"material":0
				},
				{
					"attributes":{
						"POSITION":6,
						"NORMAL":7,
						"TEXCOORD_0":8,
						"JOINTS_0":9,
						"WEIGHTS_0":10
					},
					"indices":11,
					"material":1
				},
				{
					"attributes":{
						"POSITION":12,
						"NORMAL":13,
						"TEXCOORD_0":14,
						"JOINTS_0":15,
						"WEIGHTS_0":16
					},
					"indices":17,
					"material":2
				}
			]
		},
		{
			"name":"RL",
			"primitives":[
				{
					"attributes":{
						"POSITION":19,
						"NORMAL":20,
						"TEXCOORD_0":21,
						"JOINTS_0":22,
						"WEIGHTS_0":23
					},
					"indices":24,
					"material":2
				},
				{
					"attributes":{
						"POSITION":25,
						"NORMAL":26,
						"TEXCOORD_0":27,
						"JOINTS_0":28,
						"WEIGHTS_0":29
					},
					"indices":30,
					"material":3
				}
			]
		},
		{
			"name":"FL",
			"primitives":[
				{
					"attributes":{
						"POSITION":31,
						"NORMAL":32,
						"TEXCOORD_0":33,
						"JOINTS_0":34,
						"WEIGHTS_0":35
					},
					"indices":36,
					"material":2
				},
				{
					"attributes":{
						"POSITION":37,
						"NORMAL":38,
						"TEXCOORD_0":39,
						"JOINTS_0":40,
						"WEIGHTS_0":41
					},
					"indices":42,
					"material":3
				}
			]
		},
		{
			"name":"RR",
			"primitives":[
				{
					"attributes":{
						"POSITION":43,
						"NORMAL":44,
						"TEXCOORD_0":45,
						"JOINTS_0":46,
						"WEIGHTS_0":47
					},
					"indices":48,
					"material":2
				},
				{
					"attributes":{
						"POSITION":49,
						"NORMAL":50,
						"TEXCOORD_0":51,
						"JOINTS_0":52,
						"WEIGHTS_0":53
					},
					"indices":54,
					"material":3
				}
			]
		},
		{
			"name":"FR",
			"primitives":[
				{
					"attributes":{
						"POSITION":55,
						"NORMAL":56,
						"TEXCOORD_0":57,
						"JOINTS_0":58,
						"WEIGHTS_0":59
					},
					"indices":48,
					"material":2
				},
				{
					"attributes":{
						"POSITION":60,
						"NORMAL":61,
						"TEXCOORD_0":62,
						"JOINTS_0":63,
						"WEIGHTS_0":64
					},
					"indices":54,
					"material":3
				}
			]
		}
	],
	"textures":[
		{
			"extensions":{
				"EXT_texture_webp":{
					"source":0
				}
			},
			"sampler":0,
			"source":1
		},
		{
			"extensions":{
				"EXT_texture_webp":{
					"source":2
				}
			},
			"sampler":0,
			"source":3
		},
		{
			"extensions":{
				"EXT_texture_webp":{
					"source":0
				}
			},
			"sampler":0,
			"source":1
		},
		{
			"extensions":{
				"EXT_texture_webp":{
					"source":0
				}
			},
			"sampler":0,
			"source":1
		}
	],
	"images":[
		{
			"mimeType":"image/webp",
			"name":"City Atlas Map.png",
			"uri":"City%20Atlas%20Map_png.webp"
		},
		{
			"mimeType":"image/png",
			"name":"City Atlas Map.png",
			"uri":"City%20Atlas%20Map_png.png"
		},
		{
			"mimeType":"image/webp",
			"name":"Windows.png",
			"uri":"Windows_png.webp"
		},
		{
			"mimeType":"image/png",
			"name":"Windows.png",
			"uri":"Windows_png.png"
		}
	],
	"skins":[
		{
			"inverseBindMatrices":18,
			"joints":[
				3,
				2,
				1,
				0,
				4
			],
			"name":"TowArmature"
		}
	],
	"accessors":[
		{
			"bufferView":0,
			"componentType":5126,
			"count":2204,
			"max":[
				2.1739606857299805,
				1.49855637550354,
				0.8906512260437012
			],
			"min":[
				-1.7373063564300537,
				0,
				-0.8906512260437012
			],
			"type":"VEC3"
		},
		{
			"bufferView":1,
			"componentType":5126,
			"count":2204,
			"type":"VEC3"
		},
		{
			"bufferView":2,
			"componentType":5126,
			"count":2204,
			"type":"VEC2"
		},
		{
			"bufferView":3,
			"componentType":5121,
			"count":2204,
			"type":"VEC4"
		},
		{
			"bufferView":4,
			"componentType":5126,
			"count":2204,
			"type":"VEC4"
		},
		{
			"bufferView":5,
			"componentType":5123,
			"count":4251,
			"type":"SCALAR"
		},
		{
			"bufferView":6,
			"componentType":5126,
			"count":24,
			"max":[
				0.27595585584640503,
				1.3970086574554443,
				0.6200593113899231
			],
			"min":[
				-0.8860012292861938,
				0.7984191179275513,
				-0.6200593113899231
			],
			"type":"VEC3"
		},
		{
			"bufferView":7,
			"componentType":5126,
			"count":24,
			"type":"VEC3"
		},
		{
			"bufferView":8,
			"componentType":5126,
			"count":24,
			"type":"VEC2"
		},
		{
			"bufferView":9,
			"componentType":5121,
			"count":24,
			"type":"VEC4"
		},
		{
			"bufferView":10,
			"componentType":5126,
			"count":24,
			"type":"VEC4"
		},
		{
			"bufferView":11,
			"componentType":5123,
			"count":36,
			"type":"SCALAR"
		},
		{
			"bufferView":12,
			"componentType":5126,
			"count":2045,
			"max":[
				2.1842751502990723,
				1.5088706016540527,
				0.8675475120544434
			],
			"min":[
				-1.719409704208374,
				-0.07894980907440186,
				-0.8675475120544434
			],
			"type":"VEC3"
		},
		{
			"bufferView":13,
			"componentType":5126,
			"count":2045,
			"type":"VEC3"
		},
		{
			"bufferView":14,
			"componentType":5126,
			"count":2045,
			"type":"VEC2"
		},
		{
			"bufferView":15,
			"componentType":5121,
			"count":2045,
			"type":"VEC4"
		},
		{
			"bufferView":16,
			"componentType":5126,
			"count":2045,
			"type":"VEC4"
		},
		{
			"bufferView":17,
			"componentType":5123,
			"count":4410,
			"type":"SCALAR"
		},
		{
			"bufferView":18,
			"componentType":5126,
			"count":5,
			"type":"MAT4"
		},
		{
			"bufferView":19,
			"componentType":5126,
			"count":30,
			"max":[
				1.0614012479782104,
				0.06284204125404358,
				0.8139657974243164
			],
			"min":[
				0.8694264888763428,
				-0.11973673105239868,
				0.8008772134780884
			],
			"type":"VEC3"
		},
		{
			"bufferView":20,
			"componentType":5126,
			"count":30,
			"type":"VEC3"
		},
		{
			"bufferView":21,
			"componentType":5126,
			"count":30,
			"type":"VEC2"
		},
		{
			"bufferView":22,
			"componentType":5121,
			"count":30,
			"type":"VEC4"
		},
		{
			"bufferView":23,
			"componentType":5126,
			"count":30,
			"type":"VEC4"
		},
		{
			"bufferView":24,
			"componentType":5123,
			"count":84,
			"type":"SCALAR"
		},
		{
			"bufferView":25,
			"componentType":5126,
			"count":132,
			"max":[
				1.2205625772476196,
				0.21421325206756592,
				0.8132422566413879
			],
			"min":[
				0.7102651596069336,
				-0.2711080312728882,
				0.644870400428772
			],
			"type":"VEC3"
		},
		{
			"bufferView":26,
			"componentType":5126,
			"count":132,
			"type":"VEC3"
		},
		{
			"bufferView":27,
			"componentType":5126,
			"count":132,
			"type":"VEC2"
		},
		{
			"bufferView":28,
			"componentType":5121,
			"count":132,
			"type":"VEC4"
		},
		{
			"bufferView":29,
			"componentType":5126,
			"count":132,
			"type":"VEC4"
		},
		{
			"bufferView":30,
			"componentType":5123,
			"count":324,
			"type":"SCALAR"
		},
		{
			"bufferView":31,
			"componentType":5126,
			"count":30,
			"max":[
				-0.8649075031280518,
				0.06284207105636597,
				0.858613133430481
			],
			"min":[
				-1.056882381439209,
				-0.11973685026168823,
				0.8444613814353943
			],
			"type":"VEC3"
		},
		{
			"bufferView":32,
			"componentType":5126,
			"count":30,
			"type":"VEC3"
		},
		{
			"bufferView":33,
			"componentType":5126,
			"count":30,
			"type":"VEC2"
		},
		{
			"bufferView":34,
			"componentType":5121,
			"count":30,
			"type":"VEC4"
		},
		{
			"bufferView":35,
			"componentType":5126,
			"count":30,
			"type":"VEC4"
		},
		{
			"bufferView":36,
			"componentType":5123,
			"count":84,
			"type":"SCALAR"
		},
		{
			"bufferView":37,
			"componentType":5126,
			"count":132,
			"max":[
				-0.7057461738586426,
				0.2142132818698883,
				0.8578307032585144
			],
			"min":[
				-1.2160435914993286,
				-0.27110809087753296,
				0.6757844090461731
			],
			"type":"VEC3"
		},
		{
			"bufferView":38,
			"componentType":5126,
			"count":132,
			"type":"VEC3"
		},
		{
			"bufferView":39,
			"componentType":5126,
			"count":132,
			"type":"VEC2"
		},
		{
			"bufferView":40,
			"componentType":5121,
			"count":132,
			"type":"VEC4"
		},
		{
			"bufferView":41,
			"componentType":5126,
			"count":132,
			"type":"VEC4"
		},
		{
			"bufferView":42,
			"componentType":5123,
			"count":324,
			"type":"SCALAR"
		},
		{
			"bufferView":43,
			"componentType":5126,
			"count":30,
			"max":[
				1.0614012479782104,
				0.06284204125404358,
				-0.8008768558502197
			],
			"min":[
				0.8694264888763428,
				-0.11973673105239868,
				-0.8139654994010925
			],
			"type":"VEC3"
		},
		{
			"bufferView":44,
			"componentType":5126,
			"count":30,
			"type":"VEC3"
		},
		{
			"bufferView":45,
			"componentType":5126,
			"count":30,
			"type":"VEC2"
		},
		{
			"bufferView":46,
			"componentType":5121,
			"count":30,
			"type":"VEC4"
		},
		{
			"bufferView":47,
			"componentType":5126,
			"count":30,
			"type":"VEC4"
		},
		{
			"bufferView":48,
			"componentType":5123,
			"count":84,
			"type":"SCALAR"
		},
		{
			"bufferView":49,
			"componentType":5126,
			"count":132,
			"max":[
				1.2205625772476196,
				0.21421325206756592,
				-0.6448700428009033
			],
			"min":[
				0.7102651596069336,
				-0.2711080312728882,
				-0.8132419586181641
			],
			"type":"VEC3"
		},
		{
			"bufferView":50,
			"componentType":5126,
			"count":132,
			"type":"VEC3"
		},
		{
			"bufferView":51,
			"componentType":5126,
			"count":132,
			"type":"VEC2"
		},
		{
			"bufferView":52,
			"componentType":5121,
			"count":132,
			"type":"VEC4"
		},
		{
			"bufferView":53,
			"componentType":5126,
			"count":132,
			"type":"VEC4"
		},
		{
			"bufferView":54,
			"componentType":5123,
			"count":324,
			"type":"SCALAR"
		},
		{
			"bufferView":55,
			"componentType":5126,
			"count":30,
			"max":[
				-0.8649075031280518,
				0.06284207105636597,
				-0.8444613814353943
			],
			"min":[
				-1.056882381439209,
				-0.11973685026168823,
				-0.858613133430481
			],
			"type":"VEC3"
		},
		{
			"bufferView":56,
			"componentType":5126,
			"count":30,
			"type":"VEC3"
		},
		{
			"bufferView":57,
			"componentType":5126,
			"count":30,
			"type":"VEC2"
		},
		{
			"bufferView":58,
			"componentType":5121,
			"count":30,
			"type":"VEC4"
		},
		{
			"bufferView":59,
			"componentType":5126,
			"count":30,
			"type":"VEC4"
		},
		{
			"bufferView":60,
			"componentType":5126,
			"count":132,
			"max":[
				-0.7057461738586426,
				0.2142132818698883,
				-0.6757844090461731
			],
			"min":[
				-1.2160435914993286,
				-0.27110809087753296,
				-0.8578307032585144
			],
			"type":"VEC3"
		},
		{
			"bufferView":61,
			"componentType":5126,
			"count":132,
			"type":"VEC3"
		},
		{
			"bufferView":62,
			"componentType":5126,
			"count":132,
			"type":"VEC2"
		},
		{
			"bufferView":63,
			"componentType":5121,
			"count":132,
			"type":"VEC4"
		},
		{
			"bufferView":64,
			"componentType":5126,
			"count":132,
			"type":"VEC4"
		}
	],
	"bufferViews":[
		{
			"buffer":0,
			"byteLength":26448,
			"byteOffset":0,
			"target":34962
		},
		{
			"buffer":0,
			"byteLength":26448,
			"byteOffset":26448,
			"target":34962
		},
		{
			"buffer":0,
			"byteLength":17632,
			"byteOffset":52896,
			"target":34962
		},
		{
			"buffer":0,
			"byteLength":8816,
			"byteOffset":70528,
			"target":34962
		},
		{
			"buffer":0,
			"byteLength":35264,
			"byteOffset":79344,
			"target":34962
		},
		{
			"buffer":0,
			"byteLength":8502,
			"byteOffset":114608,
			"target":34963
		},
		{
			"buffer":0,
			"byteLength":288,
			"byteOffset":123112,
			"target":34962
		},
		{
			"buffer":0,
			"byteLength":288,
			"byteOffset":123400,
			"target":34962
		},
		{
			"buffer":0,
			"byteLength":192,
			"byteOffset":123688,
			"target":34962
		},
		{
			"buffer":0,
			"byteLength":96,
			"byteOffset":123880,
			"target":34962
		},
		{
			"buffer":0,
			"byteLength":384,
			"byteOffset":123976,
			"target":34962
		},
		{
			"buffer":0,
			"byteLength":72,
			"byteOffset":124360,
			"target":34963
		},
		{
			"buffer":0,
			"byteLength":24540,
			"byteOffset":124432,
			"target":34962
		},
		{
			"buffer":0,
			"byteLength":24540,
			"byteOffset":148972,
			"target":34962
		},
		{
			"buffer":0,
			"byteLength":16360,
			"byteOffset":173512,
			"target":34962
		},
		{
			"buffer":0,
			"byteLength":8180,
			"byteOffset":189872,
			"target":34962
		},
		{
			"buffer":0,
			"byteLength":32720,
			"byteOffset":198052,
			"target":34962
		},
		{
			"buffer":0,
			"byteLength":8820,
			"byteOffset":230772,
			"target":34963
		},
		{
			"buffer":0,
			"byteLength":320,
			"byteOffset":239592
		},
		{
			"buffer":0,
			"byteLength":360,
			"byteOffset":239912,
			"target":34962
		},
		{
			"buffer":0,
			"byteLength":360,
			"byteOffset":240272,
			"target":34962
		},
		{
			"buffer":0,
			"byteLength":240,
			"byteOffset":240632,
			"target":34962
		},
		{
			"buffer":0,
			"byteLength":120,
			"byteOffset":240872,
			"target":34962
		},
		{
			"buffer":0,
			"byteLength":480,
			"byteOffset":240992,
			"target":34962
		},
		{
			"buffer":0,
			"byteLength":168,
			"byteOffset":241472,
			"target":34963
		},
		{
			"buffer":0,
			"byteLength":1584,
			"byteOffset":241640,
			"target":34962
		},
		{
			"buffer":0,
			"byteLength":1584,
			"byteOffset":243224,
			"target":34962
		},
		{
			"buffer":0,
			"byteLength":1056,
			"byteOffset":244808,
			"target":34962
		},
		{
			"buffer":0,
			"byteLength":528,
			"byteOffset":245864,
			"target":34962
		},
		{
			"buffer":0,
			"byteLength":2112,
			"byteOffset":246392,
			"target":34962
		},
		{
			"buffer":0,
			"byteLength":648,
			"byteOffset":248504,
			"target":34963
		},
		{
			"buffer":0,
			"byteLength":360,
			"byteOffset":249152,
			"target":34962
		},
		{
			"buffer":0,
			"byteLength":360,
			"byteOffset":249512,
			"target":34962
		},
		{
			"buffer":0,
			"byteLength":240,
			"byteOffset":249872,
			"target":34962
		},
		{
			"buffer":0,
			"byteLength":120,
			"byteOffset":250112,
			"target":34962
		},
		{
			"buffer":0,
			"byteLength":480,
			"byteOffset":250232,
			"target":34962
		},
		{
			"buffer":0,
			"byteLength":168,
			"byteOffset":250712,
			"target":34963
		},
		{
			"buffer":0,
			"byteLength":1584,
			"byteOffset":250880,
			"target":34962
		},
		{
			"buffer":0,
			"byteLength":1584,
			"byteOffset":252464,
			"target":34962
		},
		{
			"buffer":0,
			"byteLength":1056,
			"byteOffset":254048,
			"target":34962
		},
		{
			"buffer":0,
			"byteLength":528,
			"byteOffset":255104,
			"target":34962
		},
		{
			"buffer":0,
			"byteLength":2112,
			"byteOffset":255632,
			"target":34962
		},
		{
			"buffer":0,
			"byteLength":648,
			"byteOffset":257744,
			"target":34963
		},
		{
			"buffer":0,
			"byteLength":360,
			"byteOffset":258392,
			"target":34962
		},
		{
			"buffer":0,
			"byteLength":360,
			"byteOffset":258752,
			"target":34962
		},
		{
			"buffer":0,
			"byteLength":240,
			"byteOffset":259112,
			"target":34962
		},
		{
			"buffer":0,
			"byteLength":120,
			"byteOffset":259352,
			"target":34962
		},
		{
			"buffer":0,
			"byteLength":480,
			"byteOffset":259472,
			"target":34962
		},
		{
			"buffer":0,
			"byteLength":168,
			"byteOffset":259952,
			"target":34963
		},
		{
			"buffer":0,
			"byteLength":1584,
			"byteOffset":260120,
			"target":34962
		},
		{
			"buffer":0,
			"byteLength":1584,
			"byteOffset":261704,
			"target":34962
		},
		{
			"buffer":0,
			"byteLength":1056,
			"byteOffset":263288,
			"target":34962
		},
		{
			"buffer":0,
			"byteLength":528,
			"byteOffset":264344,
			"target":34962
		},
		{
			"buffer":0,
			"byteLength":2112,
			"byteOffset":264872,
			"target":34962
		},
		{
			"buffer":0,
			"byteLength":648,
			"byteOffset":266984,
			"target":34963
		},
		{
			"buffer":0,
			"byteLength":360,
			"byteOffset":267632,
			"target":34962
		},
		{
			"buffer":0,
			"byteLength":360,
			"byteOffset":267992,
			"target":34962
		},
		{
			"buffer":0,
			"byteLength":240,
			"byteOffset":268352,
			"target":34962
		},
		{
			"buffer":0,
			"byteLength":120,
			"byteOffset":268592,
			"target":34962
		},
		{
			"buffer":0,
			"byteLength":480,
			"byteOffset":268712,
			"target":34962
		},
		{
			"buffer":0,
			"byteLength":1584,
			"byteOffset":269192,
			"target":34962
		},
		{
			"buffer":0,
			"byteLength":1584,
			"byteOffset":270776,
			"target":34962
		},
		{
			"buffer":0,
			"byteLength":1056,
			"byteOffset":272360,
			"target":34962
		},
		{
			"buffer":0,
			"byteLength":528,
			"byteOffset":273416,
			"target":34962
		},
		{
			"buffer":0,
			"byteLength":2112,
			"byteOffset":273944,
			"target":34962
		}
	],
	"samplers":[
		{
			"magFilter":9729,
			"minFilter":9987
		}
	],
	"buffers":[
		{
			"byteLength":276056,
			"uri":"Car_3_2_A.bin"
		}
	]
}
